<svg xmlns="http://www.w3.org/2000/svg" width="151" height="151" viewBox="0 0 151 151" fill="none">
  <g clip-path="url(#clip0_37_635)">
    <circle cx="75.2102" cy="75.2103" r="49.2224" transform="rotate(-42.7581 75.2102 75.2103)" stroke="#DAF7DC" stroke-width="8"/>
    <mask id="path-2-inside-1_37_635" fill="white">
      <path fill-rule="evenodd" clip-rule="evenodd" d="M69.8027 128.158L68.4854 126.733C59.4747 116.988 74.462 94.0241 84.2435 84.9796C94.025 75.9351 118.091 62.789 127.101 72.5339L128.419 73.9585C128.76 88.692 123.015 103.496 111.343 114.288C99.6719 125.08 84.4644 129.65 69.8027 128.158ZM54.1328 52.4153C46.0365 59.9016 45.5424 72.5228 53.0287 80.6191C60.515 88.7154 73.1362 89.2095 81.2325 81.7232C89.3288 74.237 89.8229 61.6157 82.3366 53.5194C74.8503 45.4231 62.2291 44.929 54.1328 52.4153Z"/>
    </mask>
    <path fill-rule="evenodd" clip-rule="evenodd" d="M69.8027 128.158L68.4854 126.733C59.4747 116.988 74.462 94.0241 84.2435 84.9796C94.025 75.9351 118.091 62.789 127.101 72.5339L128.419 73.9585C128.76 88.692 123.015 103.496 111.343 114.288C99.6719 125.08 84.4644 129.65 69.8027 128.158ZM54.1328 52.4153C46.0365 59.9016 45.5424 72.5228 53.0287 80.6191C60.515 88.7154 73.1362 89.2095 81.2325 81.7232C89.3288 74.237 89.8229 61.6157 82.3366 53.5194C74.8503 45.4231 62.2291 44.929 54.1328 52.4153Z" fill="white"/>
    <path d="M69.8027 128.158L63.9288 133.589L65.9829 135.811L68.9929 136.117L69.8027 128.158ZM68.4854 126.733L62.6116 132.165L68.4854 126.733ZM128.419 73.9585L136.416 73.7734L136.346 70.7487L134.292 68.5272L128.419 73.9585ZM75.6765 122.727L74.3592 121.302L62.6116 132.165L63.9288 133.589L75.6765 122.727ZM74.3592 121.302C74.1014 121.023 73.5667 120.258 73.7456 118.003C73.9304 115.674 74.8475 112.596 76.5434 109.027C79.9411 101.875 85.5183 94.6967 89.6747 90.8534L78.8123 79.1058C73.1872 84.307 66.38 93.1336 62.0913 102.161C59.9441 106.681 58.1925 111.737 57.7958 116.737C57.3932 121.811 58.3641 127.571 62.6116 132.165L74.3592 121.302ZM89.6747 90.8534C93.8312 87.0101 101.423 82.0112 108.819 79.183C112.51 77.7714 115.65 77.0977 117.986 77.0955C120.249 77.0934 120.97 77.6863 121.228 77.9651L132.975 67.1026C128.728 62.5091 123.061 61.0908 117.972 61.0955C112.956 61.1001 107.778 62.4511 103.104 64.2384C93.769 67.8082 84.4373 73.9046 78.8123 79.1058L89.6747 90.8534ZM121.228 77.9651L122.545 79.3897L134.292 68.5272L132.975 67.1026L121.228 77.9651ZM120.421 74.1436C120.711 86.6802 115.828 99.2448 105.912 108.414L116.774 120.161C130.201 107.747 136.808 90.7038 136.416 73.7734L120.421 74.1436ZM105.912 108.414C95.9958 117.583 83.088 121.468 70.6125 120.199L68.9929 136.117C85.8409 137.831 103.348 132.576 116.774 120.161L105.912 108.414ZM58.9025 75.1879C54.4158 70.3356 54.7117 62.7758 59.564 58.2891L48.7016 46.5415C37.3612 57.0274 36.669 74.71 47.1549 86.0504L58.9025 75.1879ZM75.8013 75.8494C70.949 80.3361 63.3892 80.0402 58.9025 75.1879L47.1549 86.0504C57.6407 97.3907 75.3234 98.0829 86.6637 87.5971L75.8013 75.8494ZM76.4628 58.9506C80.9495 63.803 80.6536 71.3627 75.8013 75.8494L86.6637 87.5971C98.0041 77.1112 98.6963 59.4285 88.2104 48.0882L76.4628 58.9506ZM59.564 58.2891C64.4163 53.8024 71.9761 54.0983 76.4628 58.9506L88.2104 48.0882C77.7246 36.7478 60.0419 36.0556 48.7016 46.5415L59.564 58.2891Z" fill="#DAF7DC" mask="url(#path-2-inside-1_37_635)"/>
  </g>
  <defs>
    <clipPath id="clip0_37_635">
      <rect width="106.445" height="106.445" fill="white" transform="translate(0 72.2659) rotate(-42.7581)"/>
    </clipPath>
  </defs>
</svg>