<svg xmlns="http://www.w3.org/2000/svg" width="216" height="105" viewBox="0 0 216 105" fill="none">
  <path d="M104.661 104.558C133.451 104.558 156.79 102.329 156.79 99.5801C156.79 96.8308 133.451 94.6021 104.661 94.6021C75.8705 94.6021 52.5315 96.8308 52.5315 99.5801C52.5315 102.329 75.8705 104.558 104.661 104.558Z" fill="#9FA9F5"/>
  <path fill-rule="evenodd" clip-rule="evenodd" d="M83.0245 7.76904C81.9696 5.51554 80.26 3.6323 78.1187 2.36496C75.9775 1.09762 73.504 0.505031 71.0209 0.664488C68.5378 0.823946 66.1604 1.72805 64.1988 3.25886C62.2373 4.78967 60.7826 6.87612 60.0245 9.24604C58.2838 9.33061 56.6438 10.0875 55.45 11.3572C54.2562 12.6269 53.6018 14.3104 53.6245 16.053C53.6245 16.402 90.3065 16.294 90.3065 16.053C90.3295 10.412 88.3865 7.71904 83.9325 7.71904C83.6268 7.71891 83.3214 7.7356 83.0175 7.76904H83.0245Z" fill="#88DD8D"/>
  <path fill-rule="evenodd" clip-rule="evenodd" d="M162.708 10.57C163.25 9.41226 164.129 8.44479 165.229 7.79375C166.329 7.14271 167.6 6.83831 168.876 6.92024C170.152 7.00217 171.374 7.46663 172.382 8.25306C173.39 9.03949 174.138 10.1114 174.528 11.329C175.421 11.372 176.263 11.7598 176.876 12.4109C177.489 13.062 177.826 13.9256 177.816 14.82C177.816 14.995 158.966 14.944 158.966 14.82C158.956 11.92 159.95 10.537 162.244 10.537C162.399 10.5395 162.554 10.5505 162.708 10.57Z" fill="#88DD8D"/>
  <path fill-rule="evenodd" clip-rule="evenodd" d="M0.372536 39.4691L4.18654 43.281C4.30079 43.3978 4.43708 43.4907 4.58752 43.5544C4.73795 43.618 4.89953 43.6512 5.06288 43.6519C5.22623 43.6527 5.3881 43.621 5.53911 43.5587C5.69011 43.4964 5.82725 43.4047 5.94255 43.289C6.05786 43.1733 6.14905 43.0359 6.21083 42.8846C6.27261 42.7334 6.30375 42.5715 6.30245 42.4081C6.30114 42.2448 6.26742 42.0833 6.20323 41.9331C6.13905 41.7829 6.04568 41.6469 5.92854 41.5331L2.11454 37.7231C1.883 37.4915 1.56897 37.3615 1.24154 37.3615C0.914098 37.3615 0.60007 37.4915 0.368536 37.7231C0.137002 37.9546 0.00692749 38.2686 0.00692749 38.596C0.00692749 38.9235 0.137002 39.2375 0.368536 39.4691H0.372536Z" fill="#9FA9F5"/>
  <path fill-rule="evenodd" clip-rule="evenodd" d="M4.18653 37.723L0.372534 41.533C0.255567 41.6471 0.162408 41.7832 0.0984627 41.9336C0.0345172 42.0839 0.0010576 42.2454 2.46691e-05 42.4088C-0.00100826 42.5721 0.0304061 42.7341 0.0924454 42.8852C0.154485 43.0363 0.245914 43.1736 0.36143 43.2891C0.476946 43.4047 0.614249 43.4961 0.765375 43.5581C0.916501 43.6202 1.07844 43.6516 1.2418 43.6505C1.40516 43.6495 1.56669 43.6161 1.71702 43.5521C1.86735 43.4882 2.00349 43.395 2.11753 43.278L5.92753 39.466C6.0445 39.352 6.13766 39.2158 6.20161 39.0655C6.26555 38.9152 6.29901 38.7537 6.30004 38.5903C6.30108 38.4269 6.26966 38.265 6.20762 38.1139C6.14558 37.9628 6.05415 37.8254 5.93864 37.7099C5.82312 37.5944 5.68582 37.503 5.53469 37.4409C5.38357 37.3789 5.22163 37.3475 5.05827 37.3485C4.8949 37.3496 4.73337 37.383 4.58305 37.447C4.43272 37.5109 4.29658 37.6041 4.18253 37.721L4.18653 37.723Z" fill="#9FA9F5"/>
  <path fill-rule="evenodd" clip-rule="evenodd" d="M209.513 86.958L213.328 90.772C213.56 90.9986 213.872 91.1245 214.197 91.1225C214.521 91.1204 214.832 90.9906 215.062 90.7611C215.291 90.5316 215.421 90.2209 215.423 89.8963C215.425 89.5717 215.299 89.2594 215.073 89.027L211.256 85.217C211.023 84.9904 210.711 84.8645 210.386 84.8666C210.062 84.8687 209.751 84.9985 209.522 85.228C209.292 85.4575 209.162 85.7682 209.16 86.0928C209.158 86.4173 209.284 86.7296 209.511 86.962L209.513 86.958Z" fill="#9FA9F5"/>
  <path fill-rule="evenodd" clip-rule="evenodd" d="M213.329 85.2161L209.514 89.0301C209.287 89.2625 209.161 89.5748 209.163 89.8993C209.165 90.2239 209.295 90.5346 209.524 90.7641C209.754 90.9936 210.065 91.1235 210.389 91.1255C210.714 91.1276 211.026 91.0017 211.259 90.7751L215.073 86.9611C215.299 86.7287 215.425 86.4164 215.423 86.0918C215.421 85.7672 215.291 85.4566 215.062 85.227C214.832 84.9975 214.521 84.8677 214.197 84.8656C213.872 84.8636 213.56 84.9895 213.328 85.2161H213.329Z" fill="#9FA9F5"/>
  <path fill-rule="evenodd" clip-rule="evenodd" d="M204.932 33.459L208.746 37.273C208.978 37.4996 209.29 37.6255 209.615 37.6235C209.939 37.6214 210.25 37.4916 210.48 37.2621C210.709 37.0326 210.839 36.7219 210.841 36.3973C210.843 36.0727 210.717 35.7604 210.491 35.528L206.674 31.714C206.56 31.5971 206.423 31.5039 206.273 31.44C206.123 31.376 205.961 31.3425 205.798 31.3415C205.634 31.3405 205.473 31.3719 205.321 31.4339C205.17 31.496 205.033 31.5874 204.917 31.7029C204.802 31.8184 204.711 31.9557 204.648 32.1069C204.586 32.258 204.555 32.4199 204.556 32.5833C204.557 32.7467 204.591 32.9082 204.655 33.0585C204.718 33.2088 204.812 33.345 204.929 33.459H204.932Z" fill="#9FA9F5"/>
  <path fill-rule="evenodd" clip-rule="evenodd" d="M208.747 31.713L204.931 35.5231C204.704 35.7554 204.578 36.0677 204.58 36.3923C204.582 36.7169 204.712 37.0276 204.942 37.2571C205.171 37.4866 205.482 37.6164 205.806 37.6185C206.131 37.6205 206.443 37.4946 206.676 37.268L210.488 33.4541C210.714 33.2217 210.84 32.9093 210.838 32.5848C210.836 32.2602 210.706 31.9495 210.477 31.72C210.247 31.4905 209.936 31.3607 209.612 31.3586C209.287 31.3566 208.975 31.4825 208.743 31.709L208.747 31.713Z" fill="#9FA9F5"/>
  <path d="M155.947 77.249V79.041C155.935 82.8378 154.422 86.4756 151.737 89.1603C149.052 91.845 145.414 93.3584 141.618 93.37H62.8025C59.0057 93.359 55.3674 91.8457 52.6826 89.1609C49.9978 86.4761 48.4846 82.8379 48.4735 79.041V77.249C48.4721 75.655 48.7382 74.072 49.2605 72.566C49.9891 70.4841 51.1848 68.5967 52.756 67.0485C54.3271 65.5004 56.232 64.3327 58.3245 63.635C58.3575 56.4745 60.5365 49.4883 64.5801 43.5787C68.6237 37.6691 74.3462 33.1074 81.0085 30.4829C87.6708 27.8585 94.967 27.2916 101.955 28.8557C108.942 30.4197 115.301 34.0428 120.209 39.257C120.764 39.203 121.338 39.185 121.909 39.185C127.966 39.1842 133.776 41.5896 138.06 45.8721C142.344 50.1546 144.752 55.9635 144.754 62.021C144.754 62.433 144.737 62.845 144.719 63.257C147.105 63.7969 149.315 64.9341 151.141 66.5618C152.968 68.1895 154.351 70.2545 155.162 72.563C155.684 74.0701 155.949 75.6541 155.947 77.249Z" fill="#9FA9F5"/>
  <path d="M155.159 72.566C154.176 75.376 152.346 77.8122 149.921 79.5394C147.497 81.2667 144.596 82.2 141.62 82.211H62.8025C59.8249 82.2015 56.9236 81.2688 54.4982 79.5414C52.0729 77.814 50.2429 75.3769 49.2605 72.566C49.9891 70.4841 51.1848 68.5967 52.756 67.0485C54.3271 65.5004 56.232 64.3327 58.3245 63.635C58.3575 56.4745 60.5365 49.4883 64.5801 43.5787C68.6237 37.6691 74.3462 33.1074 81.0085 30.4829C87.6708 27.8585 94.967 27.2916 101.955 28.8557C108.942 30.4197 115.301 34.0428 120.209 39.257C120.764 39.203 121.338 39.185 121.909 39.185C127.966 39.1848 133.775 41.5904 138.059 45.8728C142.343 50.1553 144.75 55.9638 144.752 62.021C144.752 62.433 144.735 62.845 144.717 63.257C147.103 63.7974 149.313 64.935 151.139 66.5633C152.966 68.1915 154.349 70.257 155.159 72.566Z" fill="white"/>
  <path fill-rule="evenodd" clip-rule="evenodd" d="M67.2695 55.937C68.3921 52.1058 70.3209 48.559 72.9267 45.5344C75.5325 42.5098 78.7549 40.0774 82.3779 38.4003C86.0008 36.7233 89.9405 35.8404 93.9327 35.8109C97.9248 35.7813 101.877 36.6058 105.525 38.2291C105.684 38.2999 105.864 38.3046 106.027 38.2421C106.19 38.1797 106.321 38.0552 106.392 37.896C106.462 37.7369 106.467 37.5562 106.405 37.3936C106.342 37.231 106.218 37.0999 106.059 37.029C102.24 35.3332 98.1023 34.473 93.9239 34.506C89.7454 34.5391 85.6223 35.4647 81.8306 37.2207C78.0389 38.9768 74.6663 41.5228 71.9386 44.6883C69.2109 47.8538 67.1911 51.5655 66.0145 55.575C65.9859 55.6589 65.9746 55.7476 65.9812 55.836C65.9879 55.9243 66.0123 56.0104 66.0531 56.089C66.0939 56.1677 66.1503 56.2372 66.2187 56.2935C66.2871 56.3497 66.3662 56.3916 66.4512 56.4165C66.5363 56.4413 66.6254 56.4487 66.7134 56.4382C66.8013 56.4277 66.8863 56.3994 66.963 56.3552C67.0398 56.3109 67.1067 56.2516 67.1599 56.1808C67.2131 56.11 67.2514 56.0291 67.2725 55.943L67.2695 55.937Z" fill="#9FA9F5"/>
  <path fill-rule="evenodd" clip-rule="evenodd" d="M157.845 48.3111C160.1 47.6908 162.462 47.5599 164.772 47.9272C167.082 48.2946 169.287 49.1516 171.238 50.4409C173.19 51.7302 174.843 53.422 176.088 55.4027C177.332 57.3833 178.138 59.6072 178.453 61.9251C178.479 62.0947 178.571 62.2472 178.708 62.3499C178.846 62.4526 179.018 62.4973 179.188 62.4744C179.358 62.4515 179.513 62.3628 179.618 62.2274C179.724 62.092 179.772 61.9206 179.753 61.7501C179.413 59.247 178.542 56.8454 177.199 54.7065C175.855 52.5676 174.069 50.7407 171.962 49.3485C169.854 47.9563 167.473 47.031 164.978 46.6346C162.484 46.2381 159.933 46.3798 157.498 47.0501C157.33 47.0963 157.187 47.2074 157.101 47.3587C157.016 47.5101 156.993 47.6893 157.04 47.8571C157.086 48.0248 157.197 48.1673 157.348 48.2532C157.5 48.3391 157.679 48.3613 157.847 48.3151L157.845 48.3111Z" fill="#9FA9F5"/>
  <path fill-rule="evenodd" clip-rule="evenodd" d="M57.1065 62.769C57.3094 55.4884 59.6541 48.4291 63.8475 42.474C68.0409 36.5188 73.8968 31.932 80.6831 29.2872C87.4694 26.6423 94.8847 26.0568 102.002 27.6038C109.119 29.1509 115.622 32.7618 120.699 37.985C121.099 37.962 121.507 37.954 121.921 37.954C125.293 37.9516 128.629 38.6599 131.71 40.0328C134.791 41.4057 137.548 43.4124 139.802 45.922C140.02 46.1648 140.133 46.4846 140.116 46.8109C140.099 47.1372 139.953 47.4434 139.711 47.662C139.468 47.8807 139.148 47.994 138.822 47.9769C138.495 47.9598 138.189 47.8138 137.971 47.571C135.947 45.3169 133.472 43.5145 130.705 42.2815C127.938 41.0484 124.943 40.4125 121.914 40.415C121.382 40.415 120.848 40.431 120.331 40.48C120.143 40.4988 119.954 40.4743 119.777 40.4084C119.601 40.3426 119.442 40.237 119.313 40.1C114.573 35.0657 108.432 31.5679 101.685 30.0582C94.9371 28.5485 87.8917 29.0962 81.4585 31.6306C75.0252 34.1651 69.4993 38.5699 65.5945 44.2763C61.6897 49.9827 59.5851 56.7286 59.5525 63.643C59.5527 63.9013 59.471 64.153 59.3191 64.3619C59.1673 64.5709 58.9532 64.7263 58.7075 64.806C56.5939 65.5114 54.693 66.7398 53.1815 68.377C53.0759 68.5099 52.9439 68.6195 52.7939 68.699C52.6439 68.7784 52.4791 68.826 52.3098 68.8388C52.1406 68.8515 51.9705 68.8292 51.8103 68.7731C51.65 68.717 51.5031 68.6285 51.3788 68.5129C51.2544 68.3974 51.1552 68.2574 51.0875 68.1017C51.0198 67.9461 50.985 67.7781 50.9852 67.6084C50.9855 67.4386 51.0208 67.2708 51.089 67.1153C51.1572 66.9599 51.2568 66.8202 51.3815 66.705C52.9732 64.9816 54.9313 63.6372 57.1115 62.771L57.1065 62.769Z" fill="#9FA9F5"/>
  <path fill-rule="evenodd" clip-rule="evenodd" d="M184.446 64.462C186.628 64.9549 188.649 65.9943 190.319 67.4827C191.99 68.9711 193.254 70.8597 193.995 72.971C194.471 74.3469 194.713 75.793 194.711 77.249V79.042C194.698 82.51 193.315 85.8324 190.863 88.2847C188.411 90.7369 185.088 92.1199 181.621 92.132C181.456 92.1273 181.292 92.1557 181.138 92.2155C180.985 92.2753 180.845 92.3652 180.727 92.48C180.609 92.5949 180.515 92.7322 180.451 92.884C180.386 93.0357 180.353 93.1988 180.353 93.3635C180.353 93.5283 180.386 93.6913 180.451 93.8431C180.515 93.9948 180.609 94.1322 180.727 94.247C180.845 94.3618 180.985 94.4518 181.138 94.5116C181.292 94.5713 181.456 94.5997 181.621 94.595C185.744 94.5821 189.694 92.9387 192.61 90.0235C195.525 87.1082 197.169 83.158 197.183 79.035V77.249C197.184 75.5172 196.895 73.7974 196.328 72.161C195.447 69.6545 193.943 67.4128 191.959 65.6462C189.975 63.8796 187.574 62.646 184.983 62.061C184.664 61.9896 184.329 62.0477 184.053 62.2226C183.777 62.3976 183.582 62.6751 183.511 62.994C183.439 63.3129 183.497 63.6472 183.672 63.9232C183.847 64.1993 184.125 64.3945 184.444 64.466L184.446 64.462Z" fill="#9FA9F5"/>
  <path fill-rule="evenodd" clip-rule="evenodd" d="M68.5305 92.139H62.8025C60.9566 92.1365 59.1322 91.7431 57.4493 90.9847C55.7664 90.2264 54.2631 89.1202 53.0385 87.739C52.9325 87.6112 52.8018 87.5062 52.6542 87.4302C52.5066 87.3542 52.3451 87.3088 52.1795 87.2968C52.0139 87.2848 51.8476 87.3064 51.6905 87.3603C51.5335 87.4141 51.389 87.4992 51.2656 87.6103C51.1423 87.7215 51.0427 87.8564 50.9728 88.007C50.9029 88.1576 50.8642 88.3208 50.8589 88.4867C50.8537 88.6527 50.882 88.8179 50.9423 88.9727C51.0025 89.1274 51.0934 89.2683 51.2095 89.387C52.6658 91.0252 54.4523 92.3365 56.4516 93.235C58.4509 94.1335 60.6177 94.5987 62.8095 94.6H68.5375C68.7022 94.6047 68.8661 94.5763 69.0197 94.5165C69.1732 94.4568 69.3131 94.3668 69.4313 94.252C69.5494 94.1372 69.6433 93.9998 69.7075 93.8481C69.7716 93.6963 69.8046 93.5333 69.8046 93.3685C69.8046 93.2038 69.7716 93.0407 69.7075 92.8889C69.6433 92.7372 69.5494 92.5999 69.4313 92.485C69.3131 92.3702 69.1732 92.2803 69.0197 92.2205C68.8661 92.1607 68.7022 92.1323 68.5375 92.137L68.5305 92.139Z" fill="#9FA9F5"/>
  <path d="M145.074 71.0891C143.804 71.0889 142.563 71.4651 141.507 72.1703C140.451 72.8756 139.628 73.878 139.142 75.0509C138.656 76.2238 138.529 77.5145 138.777 78.7597C139.024 80.0049 139.636 81.1488 140.533 82.0466C141.431 82.9444 142.575 83.5559 143.82 83.8036C145.065 84.0514 146.356 83.9243 147.529 83.4385C148.702 82.9527 149.704 82.13 150.41 81.0743C151.115 80.0187 151.492 78.7777 151.492 77.5081C151.492 75.8058 150.815 74.1732 149.612 72.9695C148.408 71.7657 146.776 71.0893 145.074 71.0891Z" fill="#9FA9F5"/>
  <path d="M126.983 81.128V73.888L121.044 72.717C120.72 71.6394 120.287 70.5979 119.751 69.609L123.067 64.636L117.95 59.519L112.977 62.835C111.987 62.2993 110.945 61.8664 109.867 61.543L108.698 55.609H101.451L100.282 61.543C99.2032 61.866 98.161 62.2993 97.1715 62.836L92.1985 59.52L87.0815 64.637L90.3975 69.61C89.8611 70.5989 89.4278 71.6404 89.1045 72.718L83.1705 73.887V81.129L89.1045 82.298C89.4279 83.3762 89.8611 84.4184 90.3975 85.408L87.0815 90.379L92.1985 95.498L97.1715 92.182C98.1614 92.7176 99.2035 93.1505 100.282 93.474L101.451 99.408H108.691L109.86 93.474C110.938 93.1506 111.98 92.7177 112.97 92.182L117.944 95.499L123.061 90.38L119.744 85.409C120.282 84.4195 120.718 83.3774 121.044 82.299L126.983 81.128ZM105.075 86.493C103.297 86.493 101.56 85.966 100.083 84.9788C98.6052 83.9915 97.4535 82.5882 96.7735 80.9464C96.0934 79.3046 95.9155 77.498 96.2622 75.7551C96.6089 74.0122 97.4646 72.4112 98.7212 71.1547C99.9777 69.8981 101.579 69.0423 103.322 68.6956C105.065 68.349 106.871 68.5269 108.513 69.2069C110.155 69.887 111.558 71.0386 112.545 72.5162C113.533 73.9938 114.06 75.7309 114.06 77.508C114.06 79.891 113.113 82.1763 111.428 83.8614C109.743 85.5464 107.457 86.493 105.075 86.493Z" fill="#88DD8D"/>
  <path d="M83.1655 75.915C83.2165 76.35 83.2545 76.788 83.2965 77.215L83.4065 78.515L83.4985 79.815C83.5285 80.25 83.5595 80.6881 83.5845 81.1151L83.2455 80.705C84.2455 80.8384 85.2455 80.9827 86.2455 81.138C87.2455 81.2934 88.2429 81.4534 89.2375 81.618L89.5775 81.676L89.7325 82.025L90.4185 83.564L91.0935 85.107L91.2505 85.467L91.0255 85.816L90.2105 87.069L89.3905 88.315C88.8445 89.149 88.2905 89.973 87.7285 90.799L87.6285 89.8181L88.8935 91.118C89.3155 91.547 89.7315 91.991 90.1505 92.418C90.9845 93.2894 91.8125 94.1674 92.6345 95.052L91.8545 94.975L93.1305 94.1971L94.4155 93.429C95.2705 92.919 96.1365 92.422 97.0055 91.929L97.1605 91.84L97.2825 91.901C97.5335 92.028 97.7825 92.151 98.0365 92.281L98.7875 92.67C99.2875 92.927 99.7875 93.194 100.28 93.47C99.7365 93.318 99.2025 93.144 98.6615 92.97L97.8615 92.712C97.5925 92.626 97.3275 92.5371 97.0615 92.4471L97.3395 92.419C96.5505 93.032 95.7585 93.641 94.9585 94.232L93.7585 95.122L92.5485 95.995L92.1575 96.286L91.7665 95.937C90.8812 95.1144 90.0032 94.286 89.1325 93.452C88.6975 93.033 88.2595 92.619 87.8325 92.195L86.5395 90.9301L86.0855 90.487L86.4345 89.949C86.9845 89.118 87.5345 88.286 88.0895 87.462L88.9255 86.2231L89.7685 84.991L89.6985 85.7L89.0825 84.129L88.4755 82.558L88.9755 82.965C87.9909 82.7417 87.0075 82.5084 86.0255 82.265C85.0435 82.0217 84.0639 81.776 83.0865 81.528L82.7375 81.435L82.7545 81.117C82.7775 80.682 82.8105 80.244 82.8405 79.817L82.9325 78.517L83.0405 77.217C83.0765 76.784 83.1165 76.35 83.1655 75.915Z" fill="#9FA9F5"/>
  <path d="M166.983 79.2C166.932 78.765 166.894 78.327 166.852 77.9L166.742 76.6L166.649 75.3C166.619 74.865 166.588 74.427 166.564 74L166.901 74.41C165.901 74.2767 164.901 74.1317 163.901 73.975C162.901 73.8183 161.903 73.659 160.909 73.497L160.569 73.439L160.414 73.09L159.728 71.552L159.053 70.009L158.896 69.648L159.121 69.299L159.934 68.046L160.756 66.798C161.302 65.965 161.856 65.142 162.416 64.314L162.516 65.295L161.251 64.002C160.829 63.573 160.413 63.129 159.994 62.702C159.158 61.8307 158.33 60.952 157.51 60.066L158.29 60.145L157.012 60.923L155.727 61.691C154.872 62.201 154.006 62.7 153.137 63.191L152.982 63.278L152.86 63.217C152.609 63.091 152.36 62.967 152.106 62.838L151.357 62.444C150.857 62.186 150.357 61.92 149.865 61.644C150.408 61.803 150.947 61.965 151.483 62.144L152.283 62.401C152.552 62.487 152.817 62.576 153.083 62.668L152.806 62.694C153.594 62.082 154.388 61.4777 155.187 60.881L156.387 59.993L157.597 59.112L157.988 58.828L158.377 59.191C159.263 60.0057 160.142 60.8337 161.012 61.675C161.445 62.094 161.885 62.509 162.312 62.932L163.605 64.197L164.059 64.64L163.71 65.178C163.16 66.009 162.61 66.841 162.055 67.667L161.212 68.906L160.369 70.138L160.439 69.431L161.055 71.002L161.662 72.573L161.162 72.166C162.146 72.3893 163.13 72.6227 164.112 72.866C165.094 73.1093 166.073 73.355 167.051 73.603L167.4 73.694L167.383 74.013C167.36 74.446 167.327 74.886 167.297 75.313L167.204 76.613L167.096 77.913C167.072 78.332 167.031 78.765 166.983 79.2Z" fill="#9FA9F5"/>
</svg>