<svg xmlns="http://www.w3.org/2000/svg" width="190" height="127" viewBox="0 0 190 127" fill="none">
  <path d="M88.6512 126.919C115.92 126.919 138.025 124.524 138.025 121.57C138.025 118.616 115.92 116.221 88.6512 116.221C61.3827 116.221 39.2772 118.616 39.2772 121.57C39.2772 124.524 61.3827 126.919 88.6512 126.919Z" fill="#9FA9F5"/>
  <path d="M52.6332 121.572L46.8832 76.084C46.8048 75.575 46.8392 75.0549 46.984 74.5605C47.1287 74.0662 47.3803 73.6097 47.721 73.2234C48.0617 72.837 48.483 72.5303 48.9553 72.3247C49.4277 72.1192 49.9394 72.02 50.4542 72.034H98.9032L52.6332 121.572Z" fill="#9FA9F5"/>
  <path fill-rule="evenodd" clip-rule="evenodd" d="M53.8572 121.414L48.1092 75.921C48.0577 75.5866 48.0803 75.245 48.1753 74.9203C48.2703 74.5956 48.4355 74.2957 48.6592 74.0419C48.8829 73.788 49.1596 73.5865 49.4698 73.4513C49.78 73.3162 50.116 73.2509 50.4542 73.26H74.2082C74.3753 73.2682 74.5424 73.2424 74.6992 73.1841C74.856 73.1259 74.9994 73.0364 75.1206 72.921C75.2418 72.8057 75.3382 72.6669 75.4042 72.5131C75.4701 72.3593 75.5041 72.1938 75.5041 72.0265C75.5041 71.8592 75.4701 71.6936 75.4042 71.5398C75.3382 71.386 75.2418 71.2473 75.1206 71.1319C74.9994 71.0166 74.856 70.9271 74.6992 70.8688C74.5424 70.8105 74.3753 70.7847 74.2082 70.793H50.4522C49.761 70.7744 49.0741 70.9079 48.44 71.184C47.806 71.46 47.2404 71.8719 46.783 72.3906C46.3257 72.9093 45.9878 73.5221 45.7933 74.1857C45.5987 74.8492 45.5523 75.5475 45.6572 76.231L51.4052 121.719C51.4188 121.885 51.4659 122.047 51.5437 122.195C51.6215 122.342 51.7284 122.472 51.8579 122.578C51.9875 122.683 52.137 122.76 52.2974 122.806C52.4578 122.852 52.6258 122.865 52.7913 122.844C52.9568 122.823 53.1163 122.769 53.2603 122.684C53.4042 122.6 53.5296 122.487 53.6288 122.353C53.7281 122.219 53.7991 122.066 53.8377 121.904C53.8763 121.742 53.8815 121.573 53.8532 121.409L53.8572 121.414Z" fill="#9FA9F5"/>
  <path d="M101.088 59.498H95.4682C95.6378 60.1757 95.7247 60.8715 95.7272 61.57V69.103C95.7272 73.426 92.5442 76.963 88.6522 76.963C84.7602 76.963 81.5772 73.432 81.5772 69.103V61.571C81.5789 60.8724 81.6658 60.1766 81.8362 59.4991H76.2162C71.8922 59.4991 70.4452 56.647 73.0092 53.164L83.9913 38.211C86.5533 34.726 90.7432 34.726 93.3032 38.211L104.292 53.164C106.853 56.646 105.412 59.498 101.088 59.498Z" fill="#88DD8D"/>
  <path fill-rule="evenodd" clip-rule="evenodd" d="M80.3742 60.73H76.2143C73.4463 60.73 71.6672 59.663 70.9282 58.193C70.1892 56.723 70.3742 54.661 72.0122 52.431L75.3123 47.942C75.4051 47.8036 75.525 47.6854 75.6648 47.5946C75.8045 47.5038 75.9612 47.4422 76.1254 47.4135C76.2895 47.3849 76.4578 47.3897 76.6201 47.4278C76.7823 47.4659 76.9352 47.5365 77.0694 47.6352C77.2037 47.7339 77.3166 47.8588 77.4013 48.0024C77.486 48.1459 77.5408 48.3051 77.5624 48.4703C77.5839 48.6356 77.5718 48.8035 77.5268 48.964C77.4817 49.1244 77.4047 49.2741 77.3003 49.404L74.0002 53.888C73.0772 55.145 72.7092 56.247 73.1262 57.076C73.5432 57.905 74.6512 58.26 76.2112 58.26H81.8312C82.0186 58.2599 82.2035 58.3024 82.372 58.3843C82.5405 58.4662 82.6881 58.5854 82.8038 58.7328C82.9194 58.8802 83 59.052 83.0394 59.2352C83.0788 59.4183 83.076 59.6081 83.0312 59.79C82.8842 60.3709 82.8089 60.9677 82.8072 61.567V69.102C82.8072 72.711 85.3973 75.728 88.6483 75.728C91.8993 75.728 94.4893 72.712 94.4893 69.102C94.4984 68.7806 94.6325 68.4755 94.863 68.2515C95.0935 68.0275 95.4023 67.9021 95.7238 67.9021C96.0452 67.9021 96.354 68.0275 96.5845 68.2515C96.815 68.4755 96.9491 68.7806 96.9582 69.102C96.9582 74.138 93.1833 78.195 88.6483 78.195C84.1133 78.195 80.3383 74.136 80.3383 69.102V61.57C80.3383 61.288 80.3502 61.007 80.3752 60.731L80.3742 60.73Z" fill="#9FA9F5"/>
  <path fill-rule="evenodd" clip-rule="evenodd" d="M84.9892 38.94C85.3608 38.298 85.8946 37.7651 86.5372 37.3945C87.1798 37.024 87.9085 36.829 88.6502 36.829C89.392 36.829 90.1207 37.024 90.7632 37.3945C91.4058 37.7651 91.9396 38.298 92.3112 38.94L103.3 53.888C104.223 55.145 104.591 56.247 104.174 57.074C103.757 57.901 102.647 58.26 101.088 58.26C100.921 58.2518 100.754 58.2776 100.597 58.3358C100.44 58.3941 100.297 58.4836 100.176 58.599C100.055 58.7143 99.9582 58.8531 99.8923 59.0069C99.8264 59.1607 99.7924 59.3262 99.7924 59.4935C99.7924 59.6608 99.8264 59.8264 99.8923 59.9801C99.9582 60.1339 100.055 60.2727 100.176 60.388C100.297 60.5034 100.44 60.5929 100.597 60.6512C100.754 60.7095 100.921 60.7353 101.088 60.727C103.856 60.727 105.635 59.66 106.374 58.19C107.113 56.72 106.928 54.658 105.29 52.428L94.3072 37.479C93.7056 36.5242 92.8719 35.7375 91.8839 35.1922C90.8958 34.6469 89.7857 34.361 88.6572 34.361C87.5287 34.361 86.4186 34.6469 85.4306 35.1922C84.4426 35.7375 83.6088 36.5242 83.0072 37.479C82.8224 37.7433 82.7483 38.0695 82.8008 38.3877C82.8533 38.7059 83.0283 38.991 83.2882 39.1819C83.5481 39.3729 83.8724 39.4546 84.1918 39.4096C84.5111 39.3646 84.8002 39.1964 84.9972 38.941L84.9892 38.94Z" fill="#9FA9F5"/>
  <path d="M52.6332 121.57H125.306L134.56 69.038H99.3122C98.0585 69.1094 96.8325 69.4357 95.7092 69.9971C94.5859 70.5585 93.5889 71.3431 92.7792 72.303L86.2482 81.013H65.9772C64.8289 81.0559 63.7245 81.4658 62.8263 82.1824C61.928 82.8991 61.2831 83.8849 60.9862 84.995L52.6332 121.57Z" fill="white"/>
  <path fill-rule="evenodd" clip-rule="evenodd" d="M86.2482 79.78H65.9782C64.5534 79.8332 63.1831 80.3417 62.0683 81.2307C60.9536 82.1198 60.1531 83.3427 59.7842 84.72L55.9082 101.708C55.8504 102.021 55.9159 102.345 56.091 102.611C56.2662 102.877 56.5374 103.065 56.848 103.136C57.1586 103.207 57.4846 103.155 57.7578 102.991C58.0311 102.827 58.2304 102.564 58.3142 102.257L62.1912 85.267C62.4173 84.425 62.907 83.6776 63.5886 83.1341C64.2703 82.5906 65.1081 82.2798 65.9792 82.247H86.2642C86.4314 82.2552 86.5984 82.2294 86.7552 82.1712C86.912 82.1129 87.0554 82.0234 87.1766 81.908C87.2978 81.7927 87.3942 81.6539 87.4602 81.5001C87.5261 81.3464 87.5601 81.1808 87.5601 81.0135C87.5601 80.8462 87.5261 80.6806 87.4602 80.5269C87.3942 80.3731 87.2978 80.2343 87.1766 80.119C87.0554 80.0036 86.912 79.9141 86.7552 79.8558C86.5984 79.7975 86.4314 79.7718 86.2642 79.78H86.2482Z" fill="#9FA9F5"/>
  <path fill-rule="evenodd" clip-rule="evenodd" d="M133.088 70.271H99.3123C99.1452 70.2792 98.9781 70.2535 98.8213 70.1952C98.6644 70.1369 98.5211 70.0474 98.3999 69.932C98.2787 69.8167 98.1822 69.6779 98.1163 69.5241C98.0504 69.3704 98.0164 69.2048 98.0164 69.0375C98.0164 68.8702 98.0504 68.7046 98.1163 68.5509C98.1822 68.3971 98.2787 68.2583 98.3999 68.143C98.5211 68.0276 98.6644 67.9381 98.8213 67.8798C98.9781 67.8216 99.1452 67.7957 99.3123 67.804H134.56C134.74 67.8039 134.918 67.8432 135.082 67.9193C135.245 67.9954 135.39 68.1064 135.506 68.2444C135.622 68.3825 135.706 68.5443 135.752 68.7183C135.799 68.8924 135.807 69.0745 135.775 69.252L126.521 121.784C126.47 122.071 126.319 122.33 126.095 122.517C125.871 122.703 125.589 122.805 125.297 122.803H52.6333C52.4662 122.811 52.2991 122.785 52.1423 122.727C51.9854 122.669 51.8421 122.579 51.7209 122.464C51.5997 122.349 51.5032 122.21 51.4373 122.056C51.3714 121.902 51.3374 121.737 51.3374 121.569C51.3374 121.402 51.3714 121.237 51.4373 121.083C51.5032 120.929 51.5997 120.79 51.7209 120.675C51.8421 120.56 51.9854 120.47 52.1423 120.412C52.2991 120.354 52.4662 120.328 52.6333 120.336H124.271L133.088 70.271Z" fill="#9FA9F5"/>
  <path d="M100.951 116.665L102.934 105.407H123.219L121.219 116.665H100.951Z" fill="#9FA9F5"/>
  <path fill-rule="evenodd" clip-rule="evenodd" d="M100.785 21.216C101.463 19.7703 102.56 18.5622 103.935 17.7493C105.309 16.9364 106.896 16.5563 108.489 16.6587C110.083 16.761 111.608 17.341 112.867 18.323C114.126 19.305 115.06 20.6435 115.547 22.164C116.665 22.2186 117.718 22.7049 118.483 23.5205C119.249 24.3361 119.669 25.4172 119.653 26.536C119.653 26.762 96.1042 26.692 96.1042 26.536C96.0922 22.916 97.3282 21.187 100.198 21.187C100.394 21.1851 100.59 21.1948 100.785 21.216Z" fill="#88DD8D"/>
  <path fill-rule="evenodd" clip-rule="evenodd" d="M73.3502 7.33301C72.3713 5.24489 70.7861 3.50009 68.8012 2.32599C66.8162 1.15188 64.5236 0.602941 62.2222 0.750701C59.9207 0.898461 57.7172 1.73607 55.8987 3.15436C54.0802 4.57266 52.7311 6.50586 52.0272 8.70201C50.4138 8.78088 48.894 9.48285 47.7879 10.6601C46.6817 11.8373 46.0756 13.3978 46.0972 15.013C46.0972 15.338 80.1102 15.237 80.1102 15.013C80.1292 9.78401 78.3332 7.28601 74.1982 7.28601C73.9149 7.28573 73.6318 7.30142 73.3502 7.33301Z" fill="#88DD8D"/>
  <path fill-rule="evenodd" clip-rule="evenodd" d="M183.388 101.137L187.209 104.96C187.441 105.192 187.756 105.322 188.084 105.322C188.412 105.322 188.726 105.192 188.958 104.96C189.19 104.728 189.32 104.413 189.32 104.085C189.32 103.757 189.19 103.443 188.958 103.211L185.137 99.388C184.905 99.1561 184.591 99.0258 184.263 99.0258C183.935 99.0258 183.62 99.1561 183.388 99.388C183.156 99.6199 183.026 99.9345 183.026 100.262C183.026 100.59 183.156 100.905 183.388 101.137Z" fill="#9FA9F5"/>
  <path fill-rule="evenodd" clip-rule="evenodd" d="M187.209 99.392L183.388 103.215C183.156 103.447 183.026 103.761 183.026 104.089C183.026 104.417 183.156 104.732 183.388 104.964C183.62 105.196 183.935 105.326 184.263 105.326C184.591 105.326 184.905 105.196 185.137 104.964L188.958 101.141C189.077 101.027 189.172 100.891 189.237 100.739C189.303 100.588 189.337 100.426 189.339 100.261C189.341 100.097 189.31 99.9332 189.247 99.7808C189.185 99.6284 189.093 99.4899 188.977 99.3735C188.86 99.2571 188.722 99.1651 188.569 99.1029C188.417 99.0407 188.254 99.0096 188.089 99.0113C187.924 99.013 187.762 99.0475 187.611 99.1129C187.46 99.1783 187.323 99.2732 187.209 99.392Z" fill="#9FA9F5"/>
  <path fill-rule="evenodd" clip-rule="evenodd" d="M0.397243 66.605L4.22024 70.421C4.33508 70.5359 4.47142 70.627 4.62147 70.6891C4.77151 70.7513 4.93233 70.7832 5.09474 70.7832C5.25715 70.7832 5.41797 70.7513 5.56802 70.6891C5.71807 70.627 5.8544 70.5359 5.96924 70.421C6.08408 70.3062 6.17518 70.1698 6.23733 70.0198C6.29948 69.8697 6.33147 69.7089 6.33147 69.5465C6.33147 69.3841 6.29948 69.2233 6.23733 69.0732C6.17518 68.9232 6.08408 68.7869 5.96924 68.672L2.14424 64.858C1.91069 64.634 1.59867 64.5105 1.2751 64.5139C0.95152 64.5172 0.642151 64.6473 0.413334 64.8761C0.184518 65.1049 0.0544751 65.4143 0.051093 65.7379C0.047711 66.0614 0.171259 66.3735 0.395243 66.607L0.397243 66.605Z" fill="#9FA9F5"/>
  <path fill-rule="evenodd" clip-rule="evenodd" d="M4.22024 64.858L0.397238 68.685C0.274889 68.798 0.176651 68.9347 0.108426 69.0866C0.0402015 69.2386 0.00339717 69.4028 0.000224263 69.5693C-0.00294865 69.7359 0.0275754 69.9013 0.0899627 70.0558C0.15235 70.2102 0.245313 70.3505 0.363268 70.4681C0.481223 70.5857 0.621735 70.6783 0.776363 70.7402C0.930992 70.8022 1.09655 70.8322 1.26308 70.8286C1.42962 70.8249 1.59369 70.7876 1.74546 70.719C1.89723 70.6503 2.03355 70.5517 2.14624 70.429L5.96524 66.605C6.08405 66.4911 6.17892 66.3546 6.2443 66.2035C6.30967 66.0524 6.34423 65.8898 6.34595 65.7252C6.34767 65.5606 6.31652 65.3972 6.25432 65.2448C6.19212 65.0924 6.10012 64.9539 5.98371 64.8375C5.86731 64.7211 5.72884 64.6291 5.57642 64.5669C5.424 64.5047 5.2607 64.4736 5.09609 64.4753C4.93148 64.477 4.76887 64.5116 4.61778 64.5769C4.4667 64.6423 4.33018 64.7372 4.21624 64.856L4.22024 64.858Z" fill="#9FA9F5"/>
  <path fill-rule="evenodd" clip-rule="evenodd" d="M160.422 37.8201L164.243 41.6451C164.475 41.877 164.79 42.0073 165.118 42.0073C165.446 42.0073 165.76 41.877 165.992 41.6451C166.224 41.4131 166.354 41.0986 166.354 40.7706C166.354 40.4426 166.224 40.128 165.992 39.8961L162.171 36.073C161.939 35.8411 161.625 35.7108 161.297 35.7108C160.969 35.7108 160.654 35.8411 160.422 36.073C160.19 36.305 160.06 36.6196 160.06 36.9476C160.06 37.2756 160.19 37.5901 160.422 37.8221V37.8201Z" fill="#9FA9F5"/>
  <path fill-rule="evenodd" clip-rule="evenodd" d="M164.243 36.072L160.422 39.898C160.307 40.0129 160.216 40.1492 160.154 40.2992C160.092 40.4493 160.06 40.6101 160.06 40.7725C160.06 40.9349 160.092 41.0957 160.154 41.2458C160.216 41.3958 160.307 41.5322 160.422 41.647C160.537 41.7619 160.673 41.8529 160.823 41.9151C160.974 41.9773 161.134 42.0092 161.297 42.0092C161.459 42.0092 161.62 41.9773 161.77 41.9151C161.92 41.8529 162.056 41.7619 162.171 41.647L165.992 37.826C166.224 37.5941 166.354 37.2795 166.354 36.9515C166.354 36.6235 166.224 36.3089 165.992 36.077C165.76 35.8451 165.446 35.7148 165.118 35.7148C164.79 35.7148 164.475 35.8451 164.243 36.077V36.072Z" fill="#9FA9F5"/>
</svg>