<svg xmlns="http://www.w3.org/2000/svg" width="241" height="132" viewBox="0 0 241 132" fill="none">
  <path d="M122.698 131.557C152.147 131.557 176.02 128.971 176.02 125.78C176.02 122.589 152.147 120.003 122.698 120.003C93.2494 120.003 69.3763 122.589 69.3763 125.78C69.3763 128.971 93.2494 131.557 122.698 131.557Z" fill="#9FA9F5"/>
  <path fill-rule="evenodd" clip-rule="evenodd" d="M94.8373 9.80899C93.4284 6.80197 91.1462 4.2892 88.2882 2.59832C85.4302 0.907445 82.129 0.116902 78.8151 0.329769C75.5012 0.542636 72.3283 1.74904 69.7101 3.79168C67.092 5.83432 65.15 8.61842 64.1373 11.781C61.8148 11.8945 59.6269 12.9048 58.0343 14.5992C56.4418 16.2936 55.5689 18.5399 55.5993 20.865C55.5993 21.333 104.564 21.188 104.564 20.865C104.593 13.331 102.015 9.74299 96.0593 9.74299C95.6511 9.74201 95.2431 9.76405 94.8373 9.80899Z" fill="#88DD8D"/>
  <path fill-rule="evenodd" clip-rule="evenodd" d="M150.674 9.88398C151.968 7.12318 154.064 4.81621 156.688 3.26377C159.312 1.71133 162.343 0.985435 165.386 1.18069C168.429 1.37595 171.342 2.4833 173.746 4.35842C176.15 6.23354 177.934 8.78944 178.864 11.693C180.998 11.7977 183.007 12.726 184.47 14.2824C185.933 15.8389 186.735 17.9022 186.707 20.038C186.707 20.469 141.734 20.333 141.734 20.038C141.704 13.122 144.078 9.81898 149.541 9.81898C149.92 9.81899 150.297 9.84036 150.673 9.88298L150.674 9.88398Z" fill="#88DD8D"/>
  <path fill-rule="evenodd" clip-rule="evenodd" d="M91.5863 36.911L95.7143 41.037C95.9647 41.2875 96.3043 41.4283 96.6585 41.4284C97.0126 41.4285 97.3523 41.2879 97.6028 41.0375C97.8533 40.7872 97.9941 40.4475 97.9942 40.0934C97.9943 39.7392 97.8537 39.3995 97.6033 39.149L93.4713 35.025C93.3474 34.901 93.2002 34.8026 93.0382 34.7354C92.8762 34.6683 92.7026 34.6337 92.5272 34.6337C92.3518 34.6336 92.1782 34.6681 92.0161 34.7352C91.8541 34.8022 91.7069 34.9006 91.5828 35.0245C91.4588 35.1485 91.3604 35.2957 91.2933 35.4577C91.2261 35.6197 91.1915 35.7933 91.1915 35.9687C91.1914 36.144 91.2259 36.3177 91.293 36.4797C91.36 36.6418 91.4584 36.789 91.5823 36.913L91.5863 36.911Z" fill="#9FA9F5"/>
  <path fill-rule="evenodd" clip-rule="evenodd" d="M95.7143 35.024L91.5863 39.152C91.3359 39.4025 91.1953 39.7422 91.1954 40.0964C91.1955 40.4505 91.3363 40.7902 91.5868 41.0405C91.8373 41.2909 92.177 41.4315 92.5312 41.4314C92.8853 41.4313 93.2249 41.2905 93.4753 41.04L97.6013 36.914C97.8518 36.6635 97.9925 36.3238 97.9925 35.9695C97.9925 35.6153 97.8518 35.2755 97.6013 35.025C97.3508 34.7745 97.0111 34.6338 96.6568 34.6338C96.3026 34.6338 95.9628 34.7745 95.7123 35.025L95.7143 35.024Z" fill="#9FA9F5"/>
  <path fill-rule="evenodd" clip-rule="evenodd" d="M234.543 72.202L238.669 76.328C238.793 76.452 238.94 76.5504 239.102 76.6176C239.264 76.6847 239.438 76.7193 239.613 76.7194C239.789 76.7194 239.962 76.6849 240.125 76.6179C240.287 76.5508 240.434 76.4525 240.558 76.3285C240.682 76.2045 240.78 76.0574 240.847 75.8954C240.915 75.7334 240.949 75.5597 240.949 75.3844C240.949 75.209 240.915 75.0353 240.848 74.8733C240.781 74.7113 240.682 74.564 240.558 74.44L236.433 70.314C236.183 70.0635 235.843 69.9228 235.489 69.9228C235.135 69.9228 234.795 70.0635 234.544 70.314C234.294 70.5645 234.153 70.9043 234.153 71.2585C234.153 71.6128 234.294 71.9525 234.544 72.203L234.543 72.202Z" fill="#9FA9F5"/>
  <path fill-rule="evenodd" clip-rule="evenodd" d="M238.67 70.316L234.543 74.446C234.419 74.57 234.321 74.7172 234.254 74.8793C234.187 75.0413 234.152 75.215 234.152 75.3903C234.153 75.5657 234.187 75.7393 234.254 75.9013C234.321 76.0633 234.42 76.2105 234.544 76.3345C234.668 76.4584 234.815 76.5568 234.977 76.6238C235.139 76.6909 235.313 76.7254 235.488 76.7253C235.664 76.7253 235.837 76.6907 235.999 76.6236C236.161 76.5564 236.308 76.458 236.432 76.334L240.556 72.208C240.807 71.9576 240.948 71.618 240.948 71.2638C240.948 70.9097 240.807 70.57 240.557 70.3195C240.306 70.069 239.967 69.9282 239.613 69.9281C239.259 69.928 238.919 70.0686 238.668 70.319L238.67 70.316Z" fill="#9FA9F5"/>
  <path fill-rule="evenodd" clip-rule="evenodd" d="M0.81832 119.192L4.94432 123.32C5.19482 123.57 5.53456 123.711 5.88882 123.711C6.06423 123.711 6.23792 123.677 6.39998 123.609C6.56204 123.542 6.70929 123.444 6.83332 123.32C6.95735 123.196 7.05574 123.049 7.12287 122.887C7.19 122.725 7.22455 122.551 7.22455 122.375C7.22455 122.2 7.19 122.026 7.12287 121.864C7.05574 121.702 6.95735 121.555 6.83332 121.431L2.70332 117.307C2.45282 117.056 2.11308 116.916 1.75882 116.916C1.40456 116.916 1.06482 117.056 0.81432 117.307C0.563823 117.557 0.423096 117.897 0.423096 118.251C0.423096 118.606 0.563823 118.945 0.81432 119.196L0.81832 119.192Z" fill="#9FA9F5"/>
  <path fill-rule="evenodd" clip-rule="evenodd" d="M4.94434 117.308L0.818336 121.434C0.694237 121.558 0.595783 121.705 0.528596 121.867C0.461409 122.029 0.426804 122.203 0.426758 122.379C0.426711 122.554 0.461224 122.728 0.528325 122.89C0.595427 123.052 0.693803 123.199 0.817836 123.323C0.94187 123.448 1.08913 123.546 1.25121 123.613C1.4133 123.68 1.58703 123.715 1.76248 123.715C1.93794 123.715 2.11169 123.681 2.2738 123.614C2.43592 123.546 2.58324 123.448 2.70734 123.324L6.83034 119.194C7.08083 118.943 7.22156 118.604 7.22156 118.25C7.22156 117.895 7.08083 117.555 6.83034 117.305C6.7063 117.181 6.55905 117.083 6.397 117.015C6.23494 116.948 6.06125 116.914 5.88584 116.914C5.53158 116.914 5.19183 117.054 4.94134 117.305L4.94434 117.308Z" fill="#9FA9F5"/>
  <path d="M82.4973 120.313L76.2843 71.187C76.2002 70.6373 76.2376 70.0759 76.3941 69.5423C76.5506 69.0087 76.8223 68.5159 77.19 68.0988C77.5578 67.6817 78.0126 67.3503 78.5224 67.1281C79.0321 66.906 79.5845 66.7984 80.1403 66.813H132.465L82.4973 120.313Z" fill="#9FA9F5"/>
  <path d="M132.957 44.223H126.984C127.164 43.5014 127.255 42.7606 127.256 42.017V34.003C127.256 29.403 123.872 25.6479 119.734 25.6479C115.596 25.6479 112.214 29.406 112.214 34.003V42.0119C112.216 42.7559 112.31 43.4968 112.492 44.218H106.521C101.926 44.218 100.393 47.24 103.121 50.951L114.792 66.843C117.515 70.543 121.968 70.543 124.692 66.843L136.372 50.951C139.091 47.251 137.56 44.218 132.963 44.218L132.957 44.223Z" fill="#88DD8D"/>
  <path fill-rule="evenodd" clip-rule="evenodd" d="M128.553 42.89H132.953C135.907 42.89 137.797 44.023 138.59 45.598C139.383 47.173 139.183 49.366 137.436 51.745L135.287 50.166C136.262 48.844 136.652 47.677 136.211 46.803C135.77 45.929 134.6 45.557 132.953 45.557H126.984C126.781 45.5579 126.581 45.5125 126.398 45.4243C126.216 45.336 126.055 45.2072 125.93 45.0477C125.805 44.8882 125.717 44.7022 125.675 44.5038C125.632 44.3054 125.635 44.0999 125.684 43.903C125.841 43.2855 125.921 42.6511 125.922 42.014V34.009C125.922 30.183 123.178 26.986 119.733 26.986C116.288 26.986 113.546 30.186 113.546 34.009H110.884C110.884 28.644 114.91 24.321 119.737 24.321C124.564 24.321 128.59 28.644 128.59 34.009V42.018C128.591 42.312 128.574 42.603 128.553 42.89Z" fill="#9FA9F5"/>
  <path fill-rule="evenodd" clip-rule="evenodd" d="M112.495 42.89H106.52C103.568 42.89 101.678 44.023 100.883 45.598C100.088 47.173 100.29 49.366 102.039 51.745L113.716 67.639C114.358 68.6561 115.247 69.4941 116.3 70.0749C117.353 70.6557 118.536 70.9603 119.739 70.9603C120.941 70.9603 122.125 70.6557 123.178 70.0749C124.231 69.4941 125.12 68.6561 125.761 67.639L123.612 66.06C123.219 66.7394 122.655 67.3034 121.975 67.6956C121.295 68.0877 120.524 68.2941 119.739 68.2941C118.954 68.2941 118.183 68.0877 117.503 67.6956C116.823 67.3034 116.258 66.7394 115.865 66.06L104.187 50.17C103.211 48.848 102.82 47.681 103.262 46.807C103.704 45.933 104.873 45.561 106.52 45.561H112.495V42.89Z" fill="#9FA9F5"/>
  <path d="M82.4983 120.313H160.979L170.973 63.58H132.906C131.552 63.6575 130.228 64.0103 129.015 64.6169C127.802 65.2235 126.726 66.0711 125.851 67.108L118.797 76.515H96.8903C95.6503 76.5617 94.4579 77.0043 93.4879 77.7782C92.5178 78.552 91.8213 79.6163 91.5003 80.815L82.4983 120.313Z" fill="white"/>
  <path d="M134.669 115.021L136.809 102.863H158.716L156.574 115.021H134.669Z" fill="#9FA9F5"/>
  <path fill-rule="evenodd" clip-rule="evenodd" d="M83.9853 120.14L77.7763 71.016C77.7203 70.6548 77.7444 70.2856 77.847 69.9348C77.9495 69.5839 78.1279 69.2599 78.3696 68.9856C78.6113 68.7114 78.9104 68.4937 79.2456 68.3479C79.5808 68.2021 79.9439 68.1318 80.3093 68.142H105.964C106.318 68.142 106.657 68.0015 106.907 67.7514C107.157 67.5013 107.298 67.1622 107.298 66.8085C107.298 66.4548 107.157 66.1156 106.907 65.8656C106.657 65.6155 106.318 65.475 105.964 65.475H80.3103C79.5636 65.4549 78.8215 65.599 78.1366 65.8972C77.4517 66.1955 76.8407 66.6406 76.3468 67.201C75.8528 67.7614 75.488 68.4235 75.2782 69.1405C75.0683 69.8574 75.0185 70.6117 75.1323 71.35L81.3403 120.474C81.3578 120.651 81.4107 120.823 81.4957 120.98C81.5808 121.136 81.6964 121.274 81.8356 121.385C81.9748 121.496 82.1349 121.578 82.3064 121.626C82.4779 121.674 82.6572 121.688 82.8339 121.665C83.0106 121.643 83.1811 121.586 83.3352 121.496C83.4893 121.407 83.6239 121.288 83.7312 121.146C83.8384 121.003 83.9161 120.841 83.9595 120.668C84.003 120.496 84.0115 120.316 83.9843 120.14H83.9853Z" fill="#9FA9F5"/>
  <path fill-rule="evenodd" clip-rule="evenodd" d="M118.965 75.181H97.0583C95.5194 75.238 94.0394 75.787 92.8354 76.7472C91.6315 77.7074 90.7672 79.0283 90.3693 80.516L86.1813 98.863C86.1027 99.2078 86.1643 99.5697 86.3524 99.8691C86.5406 100.169 86.8401 100.381 87.1848 100.46C87.5296 100.538 87.8915 100.477 88.1909 100.288C88.4903 100.1 88.7027 99.8008 88.7813 99.456L92.9683 81.109C93.2125 80.1998 93.7414 79.3926 94.4776 78.8058C95.2138 78.219 96.1186 77.8833 97.0593 77.848H118.966C119.32 77.848 119.659 77.7075 119.909 77.4575C120.159 77.2074 120.3 76.8682 120.3 76.5145C120.3 76.1609 120.159 75.8217 119.909 75.5716C119.659 75.3215 119.319 75.181 118.965 75.181Z" fill="#9FA9F5"/>
  <path fill-rule="evenodd" clip-rule="evenodd" d="M169.558 64.914H133.076C132.723 64.914 132.383 64.7735 132.133 64.5234C131.883 64.2733 131.743 63.9341 131.743 63.5805C131.743 63.2268 131.883 62.8876 132.133 62.6376C132.383 62.3875 132.723 62.247 133.076 62.247H171.143C171.339 62.2459 171.532 62.2878 171.71 62.3697C171.887 62.4516 172.044 62.5714 172.171 62.7208C172.297 62.8702 172.388 63.0454 172.439 63.2341C172.49 63.4228 172.499 63.6205 172.465 63.813L162.471 120.544C162.416 120.854 162.253 121.134 162.011 121.335C161.769 121.536 161.464 121.646 161.149 121.644H82.6623C82.3086 121.644 81.9695 121.503 81.7194 121.253C81.4693 121.003 81.3288 120.664 81.3288 120.31C81.3288 119.957 81.4693 119.618 81.7194 119.368C81.9695 119.117 82.3086 118.977 82.6623 118.977H160.029L169.558 64.914Z" fill="#9FA9F5"/>
</svg>