<svg xmlns="http://www.w3.org/2000/svg" width="431" height="312" viewBox="0 0 431 312" fill="none">
  <path fill-rule="evenodd" clip-rule="evenodd" d="M408.312 228.391C377.113 291.215 242.102 345.292 107.937 287.23C30.7672 253.834 1.57609 173.36 0.0475765 136.137C-1.15444 106.865 20.7001 75.6562 33.8935 62.2473C61.9378 33.7449 211.608 -1.75582 245.794 0.0674609C294.056 -1.28464 324.164 40.5393 362.152 42.5336C389.162 43.9516 470.043 104.088 408.312 228.391Z" fill="#C7CEFF"/>
  <path fill-rule="evenodd" clip-rule="evenodd" d="M220.247 131.606C220.091 133.941 220.282 136.3 220.815 138.579C221.039 139.541 222.484 139.718 223.235 139.076C223.986 138.434 224.186 137.367 224.267 136.383C224.386 134.929 224.348 133.461 224.153 132.015C224.052 131.268 223.896 130.497 223.445 129.892C222.994 129.288 222.169 128.901 221.463 129.171C220.565 129.514 220.312 130.647 220.247 131.606Z" fill="white"/>
  <path fill-rule="evenodd" clip-rule="evenodd" d="M106.627 74.2891C114.873 70.2116 124.719 69.4812 133.478 72.2971C135.678 68.0752 138.92 64.3991 142.836 61.6849C143.591 61.1613 144.672 60.6885 145.352 61.3069C145.078 65.6455 144.804 69.9969 145.061 74.3365C145.261 77.7144 145.782 81.073 145.83 84.4565C145.967 94.2354 142.128 103.707 136.905 111.98C149.444 120.401 158.897 133.302 163.14 147.784C161.366 148.698 114.933 150.31 89.8172 148.305C89.2356 148.698 88.6913 147.747 88.6249 147.049C87.9527 139.983 87.5754 132.789 89.0435 125.845C90.5116 118.9 94.0204 112.15 99.8168 108.042C94.4374 96.3476 96.5294 82.0006 89.9668 70.9246C89.5771 70.267 89.2491 69.2411 89.9313 68.8948C90.1842 68.7665 90.4866 68.8062 90.7663 68.8536C95.3423 69.6288 99.7025 71.6382 103.262 74.6124C104.18 75.3796 105.554 74.8196 106.627 74.2891Z" fill="white"/>
  <path fill-rule="evenodd" clip-rule="evenodd" d="M284.557 147.068C284.526 147.068 289.325 139.884 292.267 136.542C294.954 133.49 296.53 129.482 296.639 125.42C287.347 125.053 278.102 123.52 269.19 120.869C267.826 120.463 266.42 120.002 265.386 119.026C262.972 116.746 263.569 112.77 264.814 109.693C266.325 105.959 268.521 102.502 271.26 99.5458C272.196 98.5349 273.212 97.5588 273.825 96.3255C274.438 95.0922 274.567 93.5056 273.74 92.4041C272.346 90.5479 272.052 88.1097 271.907 85.7939C271.761 83.4781 271.695 81.0703 270.642 79.0021C269.588 76.9338 267.196 75.3261 264.974 76.0042C264.435 75.1825 265.499 74.2341 266.437 73.9368C269.977 72.8137 273.942 73.7969 277.046 75.8353C280.149 77.8736 282.503 80.8626 284.526 83.9736C285.315 85.1885 286.65 86.6151 287.938 85.9476C296.728 81.39 307.456 80.7257 316.743 84.164C318.034 84.6419 320.019 84.8466 320.282 83.4973C321.592 76.7777 327.209 71.1023 333.922 69.7135C331.284 71.6028 331.124 75.4462 331.652 78.645C332.18 81.8438 333.111 85.2514 331.794 88.2146C330.73 90.6063 333.408 92.8546 335.577 94.324C338.851 96.543 341.78 99.2708 344.224 102.379C346.642 105.454 348.658 109.406 347.553 113.158C346.107 118.068 340.32 120.012 335.339 121.225C330.478 122.408 325.616 123.592 320.754 124.775C320.665 129.511 322.358 134.259 325.425 137.873C327.885 140.772 331.459 143.759 330.677 147.478C332.315 150.071 316.942 149.935 284.557 147.068Z" fill="white"/>
  <path fill-rule="evenodd" clip-rule="evenodd" d="M296.225 211.112C297.9 212.147 299.758 213.386 301.673 212.925C306.107 211.857 310.855 212.125 315.141 213.686C316.945 214.343 318.58 212.479 319.711 210.929C322.992 206.431 327.284 202.672 332.177 200.007C335.551 205.538 332.133 213.191 335.067 218.967C339.608 227.906 338.401 239.451 332.111 247.262C338.713 253.702 343.201 262.268 344.736 271.355C343.952 271.586 303.743 276.566 281.664 270.591C281.419 264.186 283.732 257.719 287.984 252.918C281.672 245.495 278.592 235.421 279.677 225.743C279.789 224.736 279.935 223.662 279.485 222.753C277.13 217.991 275.507 212.868 274.693 207.62C274.644 207.306 274.604 206.963 274.769 206.692C274.99 206.333 275.47 206.254 275.891 206.22C282.958 205.645 290.196 207.386 296.225 211.112Z" fill="white"/>
  <path fill-rule="evenodd" clip-rule="evenodd" d="M104.993 272.226C105.796 267.423 106.599 262.62 107.403 257.818C107.611 256.571 107.582 254.902 106.379 254.511C102.625 253.293 99.4534 250.396 97.905 246.771C97.4172 245.629 95.912 245.223 94.7152 245.559C93.5183 245.895 92.5633 246.774 91.6577 247.625C92.1742 245.609 94.0295 244.007 96.1022 243.788C96.8058 242.604 95.7983 240.969 94.4632 240.625C93.1281 240.281 91.7221 240.882 90.6073 241.692C90.5204 240.409 92.0841 239.781 93.269 239.277C94.4539 238.773 95.6111 237.181 94.6008 236.383C94.1605 236.035 93.5343 236.097 92.9786 236.176C91.372 236.406 89.7654 236.635 88.1588 236.865C88.3414 235.573 90.0223 235.242 91.3249 235.142C92.6275 235.042 94.3093 234.408 94.1644 233.112C93.606 228.116 94.8175 223.05 96.8395 218.446C98.5147 214.632 93.5849 210.813 93.9084 206.661C93.9335 206.339 94.0101 205.987 94.2699 205.795C94.58 205.566 95.0142 205.658 95.3827 205.771C97.9207 206.553 100.274 207.927 102.202 209.751C103.138 210.636 104.646 210.032 105.823 209.508C110.165 207.572 115.255 207.372 119.736 208.96C123.783 210.393 127.372 203.478 131.383 205.01C130.359 208.374 129.336 211.738 128.312 215.102C128.029 216.03 127.762 217.095 128.276 217.919C130.005 220.693 131.054 223.887 131.305 227.145C131.482 229.44 131.927 232.541 134.226 232.721C133.225 233.161 132.121 233.708 131.774 234.744C131.428 235.78 132.612 237.146 133.509 236.521C134.283 235.982 135.534 236.432 135.786 237.34C134.46 237.21 133.021 237.355 131.984 238.191C130.948 239.027 130.541 240.718 131.419 241.718C133.347 240.925 135.625 241.029 137.472 241.995C136.371 242.803 134.859 242.564 133.495 242.483C132.131 242.402 130.469 242.716 129.986 243.993C128.375 248.253 124.416 251.541 119.926 252.346C117.715 252.743 117.36 255.73 117.542 257.966C117.925 262.657 118.307 267.348 118.69 272.039C117.902 272.786 108.757 273.821 104.993 272.226Z" fill="white"/>
  <path fill-rule="evenodd" clip-rule="evenodd" d="M43.7934 252.078C43.6367 254.414 43.8285 256.773 44.3607 259.052C44.5852 260.014 46.03 260.191 46.7809 259.549C47.5318 258.907 47.732 257.84 47.8128 256.856C47.9324 255.401 47.8941 253.934 47.6987 252.488C47.5977 251.741 47.4426 250.97 46.9912 250.365C46.5398 249.761 45.7146 249.373 45.0095 249.643C44.1113 249.987 43.8577 251.12 43.7934 252.078Z" fill="white"/>
  <path fill-rule="evenodd" clip-rule="evenodd" d="M225.416 264.954C225.696 265.11 225.656 265.561 225.42 265.778C225.183 265.995 224.841 266.042 224.522 266.079C223.409 266.207 222.184 266.31 221.262 265.674C221.731 265.34 222.2 265.006 222.669 264.672C222.374 264.25 221.795 264.164 221.284 264.102C220.772 264.04 220.19 263.917 219.94 263.467C219.691 263.016 220.234 262.299 220.644 262.612C221.908 263.579 223.766 263.689 225.136 262.878C226.037 262.345 226.891 261.419 227.919 261.619C227.2 263.017 225.777 264.03 224.219 264.251C224.254 264.795 224.923 265.187 225.416 264.954Z" fill="#00160A"/>
  <path fill-rule="evenodd" clip-rule="evenodd" d="M46.654 264.225C45.5397 264.354 44.3134 264.458 43.3906 263.821C43.8632 263.486 44.3358 263.151 44.8084 262.816C44.4828 262.404 43.8986 262.334 43.3786 262.263C42.8586 262.192 42.267 262.032 42.0516 261.554C41.8362 261.076 42.4804 260.407 42.8479 260.781C43.7509 261.701 45.2512 261.759 46.4714 261.342C47.6917 260.924 48.733 260.119 49.8456 259.467C49.8741 261.111 47.9462 261.977 46.3594 262.416C46.3963 262.952 47.0606 263.335 47.5442 263.1C47.825 263.255 47.7866 263.707 47.5507 263.924C47.3148 264.141 46.9729 264.189 46.654 264.225Z" fill="#00160A"/>
  <path fill-rule="evenodd" clip-rule="evenodd" d="M44.2198 260.979C42.4765 260.33 42.1255 258.065 42.0538 256.208C42.0064 254.98 41.959 253.753 41.9117 252.525C41.8851 251.837 41.8605 251.134 42.0639 250.477C42.4031 249.38 43.4109 248.52 44.5488 248.356C45.6866 248.192 46.8968 248.733 47.5325 249.689C47.8959 250.236 48.073 250.883 48.2119 251.524C48.5081 252.892 48.6561 254.291 48.6524 255.69C48.6488 257.045 48.4816 258.462 47.7281 259.59C46.9745 260.717 45.492 261.452 44.2198 260.979ZM45.7817 259.958C46.6838 259.674 47.0154 258.586 47.1433 257.65C47.3653 256.026 47.3839 254.374 47.1987 252.745C47.1055 251.925 46.9453 251.074 46.4401 250.421C45.9348 249.768 44.9893 249.386 44.2523 249.76C43.3382 250.223 43.2331 251.462 43.2502 252.486C43.2725 253.819 43.2948 255.153 43.3171 256.486C43.3309 257.316 43.3532 258.18 43.7381 258.916C44.123 259.651 44.9891 260.207 45.7817 259.958Z" fill="#00160A"/>
  <path fill-rule="evenodd" clip-rule="evenodd" d="M221.19 249.924C222.429 249.133 224.184 249.701 225.118 250.835C226.051 251.97 226.331 253.501 226.417 254.967C226.467 255.817 226.463 256.669 226.405 257.518C226.324 258.71 226.121 259.938 225.46 260.933C224.798 261.928 223.577 262.633 222.409 262.378C221.404 262.158 220.645 261.284 220.282 260.323C219.918 259.363 219.883 258.314 219.852 257.288C219.823 256.311 219.793 255.333 219.764 254.356C219.715 252.729 219.816 250.8 221.19 249.924ZM222.664 261.254C223.34 261.421 224.056 261.008 224.44 260.428C224.825 259.847 224.943 259.135 225.015 258.443C225.175 256.92 225.156 255.378 224.96 253.86C224.859 253.082 224.698 252.278 224.219 251.657C223.739 251.036 222.855 250.661 222.142 250.99C221.287 251.384 221.093 252.495 221.051 253.435C220.972 255.217 221.03 257.004 221.225 258.776C221.336 259.79 221.672 261.01 222.664 261.254Z" fill="#00160A"/>
  <path fill-rule="evenodd" clip-rule="evenodd" d="M221.038 253.307C220.882 255.643 221.074 258.002 221.606 260.281C221.83 261.243 223.275 261.42 224.026 260.778C224.777 260.136 224.977 259.069 225.058 258.085C225.177 256.631 225.139 255.163 224.944 253.717C224.843 252.97 224.688 252.199 224.236 251.594C223.785 250.99 222.96 250.602 222.254 250.872C221.356 251.216 221.103 252.349 221.038 253.307Z" fill="white"/>
  <path fill-rule="evenodd" clip-rule="evenodd" d="M218.558 140.873C218.686 140.454 219.228 140.301 219.655 140.401C220.082 140.501 220.446 140.774 220.849 140.947C222.355 141.591 224.08 140.752 225.359 139.732C225.789 139.39 226.479 139.045 226.804 139.488C226.033 140.796 224.659 141.734 223.157 141.975C223.203 142.512 223.861 142.895 224.352 142.671C224.629 142.828 224.588 143.275 224.353 143.49C224.118 143.706 223.778 143.752 223.462 143.789C222.356 143.917 221.146 144.022 220.218 143.408C220.713 143.02 221.208 142.631 221.703 142.243C220.555 142.088 219.453 141.608 218.558 140.873Z" fill="#00160A"/>
  <path fill-rule="evenodd" clip-rule="evenodd" d="M275.891 206.22C282.958 205.645 290.196 207.386 296.225 211.112C297.9 212.147 299.758 213.386 301.673 212.925C306.107 211.857 310.855 212.125 315.141 213.686C316.945 214.343 318.58 212.479 319.711 210.929C322.992 206.431 327.284 202.672 332.177 200.007C335.551 205.538 332.133 213.191 335.067 218.967C339.608 227.906 338.401 239.451 332.111 247.262C338.713 253.702 343.201 262.268 344.736 271.355C343.952 271.586 343.436 270.563 343.247 269.768C341.553 262.667 338.189 255.968 333.503 250.366C332.406 249.054 330.612 247.694 329.165 248.607C317.663 255.858 303.083 258.049 289.953 254.496C287.787 253.91 286.249 256.537 285.554 258.668C284.257 262.642 282.96 266.617 281.664 270.591C281.419 264.186 283.732 257.719 287.984 252.918C281.672 245.495 278.592 235.421 279.677 225.743C279.789 224.736 279.935 223.662 279.485 222.753C277.13 217.991 275.507 212.868 274.693 207.62C274.644 207.306 274.604 206.963 274.769 206.692C274.99 206.333 275.47 206.254 275.891 206.22ZM304.556 218.944C302.059 221.233 300 223.996 298.523 227.042C297.65 224.121 298.123 220.828 299.783 218.271C297.538 219.109 295.459 220.389 293.702 222.016C293.704 219.584 294.942 217.184 296.925 215.77C296.066 215.795 295.208 215.82 294.349 215.845C295.243 214.737 296.503 213.929 297.884 213.578C291.561 209.075 283.634 206.868 275.89 207.456C277.255 215.515 280.516 223.248 285.334 229.857C283.275 229.016 281.593 227.299 280.797 225.226C279.914 233.534 282.031 242.128 286.674 249.078C287.539 250.372 288.505 251.628 289.76 252.55C291.841 254.081 294.507 254.549 297.081 254.784C307.374 255.722 317.932 253.538 327.005 248.594C328.748 247.643 330.457 246.579 331.839 245.154C333.668 243.27 334.842 240.833 335.597 238.319C337.578 231.723 336.738 224.331 333.326 218.346C332.709 220.182 332.093 222.018 331.477 223.854C331.217 224.628 330.063 225.437 329.843 224.65C332.903 217.409 333.559 209.179 331.685 201.546C324.696 206.177 318.84 212.5 314.761 219.818C314.589 218.113 315.028 216.354 315.98 214.928C311.567 218.303 307.743 222.442 304.73 227.106C304.183 224.425 304.123 221.645 304.556 218.944Z" fill="#00160A"/>
  <path fill-rule="evenodd" clip-rule="evenodd" d="M39.7956 142.247C40.3912 142.351 41.0343 142.123 41.4307 141.668C40.2273 141.453 39.0755 140.955 38.096 140.225C38.4862 139.558 39.4858 139.959 40.2064 140.24C41.9517 140.922 44.1308 140.221 45.1504 138.651C45.4246 138.229 46.1592 138.713 46.0786 139.21C45.998 139.706 45.5074 140.014 45.0653 140.256C44.2206 140.718 43.3759 141.18 42.5312 141.642C43.2254 141.705 43.8937 142.022 44.381 142.519C43.4603 143.268 42.1633 143.283 40.976 143.262C40.6536 143.256 40.313 143.245 40.0401 143.073C39.7673 142.902 39.6072 142.508 39.7956 142.247Z" fill="#00160A"/>
  <path fill-rule="evenodd" clip-rule="evenodd" d="M219.488 129.167C220.444 127.674 222.85 127.414 224.103 128.669C224.823 129.389 225.123 130.421 225.313 131.421C225.571 132.774 225.676 134.157 225.627 135.533C225.581 136.802 225.384 138.118 224.668 139.167C223.951 140.216 222.597 140.916 221.383 140.538C219.566 139.971 219.155 137.631 219.065 135.732C219.017 134.729 218.97 133.725 218.923 132.722C218.865 131.503 218.83 130.195 219.488 129.167ZM220.247 131.606C220.091 133.941 220.282 136.3 220.815 138.579C221.039 139.541 222.484 139.718 223.235 139.076C223.986 138.434 224.186 137.367 224.267 136.383C224.386 134.929 224.348 133.461 224.153 132.015C224.052 131.268 223.896 130.497 223.445 129.892C222.994 129.288 222.169 128.901 221.463 129.171C220.565 129.514 220.312 130.647 220.247 131.606Z" fill="#00160A"/>
  <path fill-rule="evenodd" clip-rule="evenodd" d="M40.1008 130.402C39.944 132.738 40.1359 135.096 40.6681 137.376C40.8926 138.337 42.3374 138.515 43.0883 137.873C43.8392 137.231 44.0393 136.163 44.1202 135.18C44.2398 133.725 44.2015 132.258 44.0061 130.812C43.9051 130.064 43.75 129.293 43.2986 128.689C42.8472 128.084 42.022 127.697 41.3169 127.967C40.4187 128.311 40.1651 129.444 40.1008 130.402Z" fill="white"/>
  <path fill-rule="evenodd" clip-rule="evenodd" d="M40.4589 139.721C39.1415 139.064 38.7805 137.38 38.6362 135.917C38.4954 134.49 38.4148 133.057 38.3946 131.624C38.3811 130.666 38.4049 129.664 38.8554 128.819C39.3453 127.899 40.3398 127.268 41.3818 127.216C42.4239 127.165 43.476 127.694 44.0547 128.561C44.4345 129.13 44.61 129.808 44.7434 130.479C45.0182 131.86 45.1409 133.271 45.1087 134.679C45.0774 136.047 44.8743 137.479 44.0646 138.583C43.2549 139.687 41.685 140.332 40.4589 139.721ZM40.1073 137.27C40.2031 137.725 40.3357 138.201 40.6741 138.52C41.3384 139.147 42.5123 138.835 43.0734 138.114C43.6344 137.394 43.7372 136.427 43.7742 135.515C43.8287 134.169 43.7862 132.819 43.6471 131.479C43.5681 130.719 43.448 129.934 43.0301 129.294C42.6121 128.654 41.8177 128.199 41.0795 128.4C39.9117 128.719 39.6864 130.25 39.6908 131.459C39.6978 133.405 39.7064 135.366 40.1073 137.27Z" fill="#00160A"/>
  <path fill-rule="evenodd" clip-rule="evenodd" d="M284.557 147.068C284.853 142.628 289.325 139.884 292.267 136.542C294.954 133.49 296.53 129.482 296.639 125.42C287.347 125.053 278.102 123.52 269.19 120.869C267.826 120.463 266.42 120.002 265.386 119.026C262.972 116.746 263.569 112.77 264.814 109.693C266.325 105.959 268.521 102.502 271.26 99.5458C272.196 98.5349 273.212 97.5588 273.825 96.3255C274.438 95.0922 274.567 93.5056 273.74 92.4041C272.346 90.5479 272.052 88.1097 271.907 85.7939C271.761 83.4781 271.695 81.0703 270.642 79.0021C269.588 76.9338 267.196 75.3261 264.974 76.0042C264.435 75.1825 265.499 74.2341 266.437 73.9368C269.977 72.8137 273.942 73.7969 277.046 75.8353C280.149 77.8736 282.503 80.8626 284.526 83.9736C285.315 85.1885 286.65 86.6151 287.938 85.9476C296.728 81.39 307.456 80.7257 316.743 84.164C318.034 84.6419 320.019 84.8466 320.282 83.4973C321.592 76.7777 327.209 71.1023 333.922 69.7135C331.284 71.6028 331.124 75.4462 331.652 78.645C332.18 81.8438 333.111 85.2514 331.794 88.2146C330.73 90.6063 333.408 92.8546 335.577 94.324C338.851 96.543 341.78 99.2708 344.224 102.379C346.642 105.454 348.658 109.406 347.553 113.158C346.107 118.068 340.32 120.012 335.339 121.225C330.478 122.408 325.616 123.592 320.754 124.775C320.665 129.511 322.358 134.259 325.425 137.873C327.885 140.772 331.459 143.759 330.677 147.478C329.014 143.524 325.893 140.399 323.386 136.917C320.879 133.434 318.903 129.077 320.037 124.941C317.817 124.148 315.488 125.732 313.81 127.384C312.132 129.037 310.361 130.985 308.008 131.117C304.132 131.335 301.711 126.611 297.922 125.766C297.835 128.299 297.171 130.811 295.996 133.057C294.746 135.445 292.95 137.498 291.172 139.526C288.967 142.04 286.762 144.554 284.557 147.068ZM288.168 86.9942C285.812 88.1389 289.462 92.6109 287.353 94.1636C286.268 88.2851 283.192 82.7911 278.745 78.789C275.857 76.1897 272.026 74.1418 268.206 74.8639C270.439 75.7401 271.799 78.0582 272.383 80.3823C272.968 82.7063 272.948 85.1382 273.355 87.4997C274.071 91.6567 276.154 95.5674 279.204 98.4851C277.815 98.467 276.469 97.6144 275.86 96.367C271.583 100.207 268.146 104.974 265.857 110.243C264.954 112.322 264.249 114.8 265.367 116.772C266.309 118.435 268.26 119.208 270.081 119.797C276.633 121.915 283.448 123.22 290.32 123.671C294.426 123.94 298.859 124.009 302.141 126.487C303.334 127.387 304.313 128.572 305.613 129.31C306.912 130.048 308.746 130.198 309.758 129.099C313.708 124.81 319.715 123.147 325.455 122.092C331.194 121.037 337.187 120.331 342.191 117.332C344.069 116.206 345.849 114.648 346.457 112.547C347.282 109.69 345.741 106.708 343.999 104.296C340.487 99.4313 335.917 95.3325 330.698 92.3656C330.47 93.2679 329.912 94.083 329.152 94.6216C328.907 93.6001 329.354 92.558 329.712 91.5704C331.926 85.4652 330.917 78.724 329.881 72.3139C323.088 76.2277 319.559 85.0309 321.77 92.5441C320.475 92.7845 319.863 90.9719 319.989 89.6624C320.115 88.353 320.22 86.6424 319.005 86.1339C309.23 82.0431 297.699 82.3648 288.168 86.9942Z" fill="#00160A"/>
  <path fill-rule="evenodd" clip-rule="evenodd" d="M108.187 226.529C108.869 227.68 108.945 229.168 108.382 230.382C108.084 231.026 107.075 231.003 106.568 230.506C106.061 230.009 105.928 229.255 105.83 228.553C105.741 227.917 105.664 227.246 105.907 226.652C106.15 226.057 106.829 225.59 107.433 225.808C107.767 225.928 108.006 226.224 108.187 226.529Z" fill="#00160A"/>
  <path fill-rule="evenodd" clip-rule="evenodd" d="M118.69 272.039C116.528 266.561 115.807 260.524 116.617 254.692C114.58 256.92 110.822 257.3 108.38 255.525C108.964 261.262 107.766 267.168 104.993 272.226C105.796 267.423 106.599 262.62 107.403 257.818C107.611 256.571 107.582 254.902 106.379 254.511C102.625 253.293 99.4534 250.396 97.905 246.771C97.4172 245.629 95.912 245.223 94.7152 245.559C93.5183 245.895 92.5633 246.774 91.6577 247.625C92.1742 245.609 94.0295 244.007 96.1022 243.788C96.8058 242.604 95.7983 240.969 94.4632 240.625C93.1281 240.281 91.7221 240.882 90.6073 241.692C90.5204 240.409 92.0841 239.781 93.269 239.277C94.4539 238.773 95.6111 237.181 94.6008 236.383C94.1605 236.035 93.5343 236.097 92.9786 236.176C91.372 236.406 89.7654 236.635 88.1588 236.865C88.3414 235.573 90.0223 235.242 91.3249 235.142C92.6275 235.042 94.3093 234.408 94.1644 233.112C93.606 228.116 94.8175 223.05 96.8395 218.446C98.5147 214.632 93.5849 210.813 93.9084 206.661C93.9335 206.339 94.0101 205.987 94.2699 205.795C94.58 205.566 95.0142 205.658 95.3827 205.771C97.9207 206.553 100.274 207.927 102.202 209.751C103.138 210.636 104.646 210.032 105.823 209.508C110.165 207.572 115.255 207.372 119.736 208.96C123.783 210.393 127.372 203.478 131.383 205.01C130.359 208.374 129.336 211.738 128.312 215.102C128.029 216.03 127.762 217.095 128.276 217.919C130.005 220.693 131.054 223.887 131.305 227.145C131.482 229.44 131.927 232.541 134.226 232.721C133.225 233.161 132.121 233.708 131.774 234.744C131.428 235.78 132.612 237.146 133.509 236.521C134.283 235.982 135.534 236.432 135.786 237.34C134.46 237.21 133.021 237.355 131.984 238.191C130.948 239.027 130.541 240.718 131.419 241.718C133.347 240.925 135.625 241.029 137.472 241.995C136.371 242.803 134.859 242.564 133.495 242.483C132.131 242.402 130.469 242.716 129.986 243.993C128.375 248.253 124.416 251.541 119.926 252.346C117.715 252.743 117.36 255.73 117.542 257.966C117.925 262.657 118.307 267.348 118.69 272.039ZM120.475 238.322C119.767 238.968 118.545 239.641 118.021 238.84C121.051 235.593 125.206 233.413 129.603 232.764C130.5 232.631 130.698 231.435 130.634 230.532C130.319 226.088 129.042 221.715 126.916 217.798C126.597 218.621 125.588 219.105 124.745 218.838C127.259 215.067 128.912 210.728 129.545 206.243C125.522 207.909 121.948 210.641 119.288 214.084C118.917 212.763 119.509 211.232 120.673 210.503C115.366 208.558 109.267 208.883 104.198 211.38C104.33 212.201 104.462 213.023 104.594 213.845C102.107 210.837 98.8656 208.455 95.2497 206.979C96.4253 211.362 98.1389 215.601 100.34 219.57C99.3842 219.776 98.3461 218.949 98.3352 217.973C96.338 222.312 95.24 227.062 95.1303 231.836C95.0988 233.209 95.6525 235.066 97.02 234.924C100.753 234.538 104.628 235.835 107.375 238.388C104.825 237.653 102.276 236.918 99.7268 236.182C98.6298 235.866 97.3716 235.57 96.41 236.185C95.4484 236.8 95.5626 238.707 96.7043 238.729C99.6943 237.858 103.073 238.443 105.596 240.267C102.643 239.611 99.5552 239.569 96.5861 240.145C95.8453 241.93 98.3609 243.326 100.295 243.317C102.23 243.308 104.653 243.1 105.592 244.788C103.22 244.665 100.848 244.542 98.4761 244.419C99.1269 248.639 102.76 252.223 106.994 252.822C107.802 252.936 108.332 253.688 108.933 254.238C111.325 256.429 115.918 254.941 116.567 251.766C122.076 251.597 127.323 247.938 129.379 242.831C126.584 243.227 123.79 243.624 120.995 244.02C121.649 242.76 123.203 242.277 124.617 242.13C126.03 241.982 127.524 242.032 128.777 241.363C130.03 240.694 130.845 238.929 129.948 237.829C126.456 239.054 122.964 240.28 119.472 241.505C120.634 239.776 122.466 238.509 124.495 238.03C125.91 237.696 127.414 237.729 128.768 237.2C130.122 236.671 131.331 235.278 130.948 233.878C127.089 234.124 123.33 235.719 120.475 238.322Z" fill="#00160A"/>
  <path fill-rule="evenodd" clip-rule="evenodd" d="M116.976 223.868C116.507 223.844 115.94 223.753 115.767 223.317C116.908 222.026 119.381 222.437 120.043 224.028C119.02 223.975 117.998 223.921 116.976 223.868Z" fill="#00160A"/>
  <path fill-rule="evenodd" clip-rule="evenodd" d="M115.223 248.072C115.589 248.513 115.513 249.205 115.169 249.663C114.825 250.121 114.274 250.379 113.722 250.531C112.917 250.752 111.964 250.748 111.351 250.182C110.465 249.363 110.891 247.696 111.981 247.176C113.071 246.656 114.452 247.144 115.223 248.072ZM112.045 248.325C111.768 248.84 112.356 249.473 112.941 249.475C113.526 249.476 114.031 249.087 114.484 248.718C113.888 248.068 112.826 247.906 112.063 248.348L112.045 248.325Z" fill="#00160A"/>
  <path fill-rule="evenodd" clip-rule="evenodd" d="M118.286 230.432C117.566 230.794 116.656 230.213 116.384 229.455C116.112 228.698 116.295 227.86 116.504 227.082C116.624 226.639 116.784 226.155 117.184 225.928C117.72 225.624 118.437 225.972 118.749 226.503C119.06 227.035 119.076 227.682 119.082 228.298C119.091 229.101 119.003 230.071 118.286 230.432Z" fill="#00160A"/>
  <path fill-rule="evenodd" clip-rule="evenodd" d="M105.335 248.108C107.499 248.386 109.78 247.34 110.978 245.52C112.177 243.7 112.235 241.194 111.121 239.321C110.532 238.33 109.636 237.095 110.349 236.189C110.711 235.729 111.355 235.611 111.94 235.58C112.579 235.545 113.259 235.585 113.794 235.938C114.328 236.291 114.639 237.046 114.314 237.597C113.031 239.774 113.227 242.727 114.787 244.716C116.348 246.704 119.173 247.6 121.596 246.876C122.04 246.743 122.766 246.788 122.679 247.242C122.658 247.352 122.581 247.442 122.503 247.523C121.134 248.935 118.76 248.705 116.997 247.831C115.358 247.019 113.952 245.745 112.983 244.194C112.117 245.669 111.223 247.178 109.896 248.259C108.57 249.341 106.699 249.925 105.11 249.288C104.674 249.113 104.222 248.59 104.537 248.242C104.726 248.033 105.056 248.072 105.335 248.108Z" fill="#00160A"/>
  <path fill-rule="evenodd" clip-rule="evenodd" d="M109.169 223.34C109.278 223.681 108.802 223.887 108.446 223.926C107.771 223.998 107.096 224.071 106.421 224.144C105.9 224.2 105.152 224.048 105.21 223.527C106.137 222.552 107.773 222.348 108.912 223.066C109.02 223.135 109.13 223.219 109.169 223.34Z" fill="#00160A"/>
  <path fill-rule="evenodd" clip-rule="evenodd" d="M291.226 261.113C291.091 259.833 291.121 258.329 292.138 257.537C293.03 256.842 294.298 257.006 295.412 257.205C297.182 257.521 298.952 257.837 300.722 258.154C302.105 258.4 303.584 258.637 304.87 258.072C305.896 257.621 307.072 258.104 308.193 258.114C309.107 258.122 309.991 257.809 310.852 257.501C313.493 256.554 316.135 255.607 318.777 254.66C319.262 254.486 319.802 254.312 320.28 254.507C321.006 254.802 321.169 255.738 321.225 256.518C321.289 257.408 321.353 258.298 321.417 259.187C321.495 260.274 321.566 261.408 321.139 262.411C320.712 263.414 319.62 264.225 318.563 263.953C315.836 263.25 313.061 262.73 310.264 262.397C309.701 262.33 308.968 262.37 308.783 262.905C308.358 264.133 306.6 263.936 305.318 263.72C302.377 263.224 299.243 263.997 296.872 265.804C296.238 266.288 295.644 266.848 294.912 267.166C294.18 267.484 293.242 267.5 292.661 266.954C292.264 266.58 292.108 266.025 291.98 265.496C291.633 264.053 291.381 262.589 291.226 261.113ZM304.496 260.091C300.926 259.415 297.339 258.83 293.739 258.338C293.171 258.261 292.643 258.729 292.456 259.27C292.269 259.811 292.341 260.403 292.423 260.97C292.604 262.213 292.824 263.451 293.081 264.681C293.161 265.066 293.254 265.469 293.516 265.763C293.778 266.057 294.265 266.19 294.571 265.942C296.522 264.358 298.832 263.219 301.277 262.635C302.012 262.459 302.776 262.327 303.426 261.941C304.076 261.556 304.598 260.839 304.496 260.091ZM314.655 257.337C312.755 257.86 310.737 258.455 309.459 259.954C309.071 260.409 308.991 261.378 309.59 261.356C312.575 261.243 315.582 261.708 318.393 262.718C318.991 262.932 319.665 262.504 319.947 261.937C320.23 261.369 320.22 260.706 320.205 260.073C320.176 258.878 320.147 257.684 320.118 256.489C320.113 256.298 320.086 256.068 319.914 255.984C319.799 255.927 319.662 255.96 319.539 255.994C317.911 256.442 316.283 256.89 314.655 257.337ZM305.371 261.77C305.454 262.051 305.574 262.333 305.796 262.524C306.341 262.993 307.258 262.657 307.623 262.039C307.988 261.42 307.951 260.652 307.868 259.939C307.768 259.084 306.49 258.805 305.842 259.372C305.194 259.94 305.128 260.944 305.371 261.77Z" fill="#00160A"/>
  <path fill-rule="evenodd" clip-rule="evenodd" d="M326.639 238.847C325.058 238.654 323.426 238.901 321.973 239.553C321.598 239.722 321.233 239.168 321.396 238.791C321.558 238.414 321.983 238.235 322.371 238.098C324.613 237.311 327.461 236.921 329.06 238.677C328.376 239.145 327.462 238.948 326.639 238.847Z" fill="#00160A"/>
  <path fill-rule="evenodd" clip-rule="evenodd" d="M309.384 247.215C309.422 248.434 308.265 249.425 307.063 249.642C305.861 249.86 304.638 249.502 303.469 249.147C302.452 248.839 302.135 247.412 302.672 246.496C303.208 245.579 304.295 245.126 305.345 244.954C306.209 244.813 307.127 244.828 307.922 245.196C308.716 245.565 309.358 246.341 309.384 247.215ZM303.749 247.507C303.806 247.872 304.234 248.031 304.594 248.119C305.292 248.29 306.012 248.462 306.723 248.357C307.434 248.252 308.143 247.799 308.328 247.106C307.272 246.015 305.386 245.866 304.17 246.776C303.933 246.953 303.703 247.215 303.749 247.507Z" fill="#00160A"/>
  <path fill-rule="evenodd" clip-rule="evenodd" d="M291.096 240.996C288.987 241.001 286.878 241.005 284.768 241.01C284.324 241.011 283.697 240.778 283.847 240.36C286.049 239.404 288.606 239.287 290.887 240.04C291.306 240.179 291.763 240.744 291.373 240.951C291.289 240.995 291.191 240.996 291.096 240.996Z" fill="#00160A"/>
  <path fill-rule="evenodd" clip-rule="evenodd" d="M314.435 232.98C314.555 232.228 314.762 231.357 315.459 231.047C316.131 230.748 316.946 231.174 317.333 231.798C317.719 232.422 317.784 233.186 317.839 233.918C316.888 234.005 315.936 234.091 314.985 234.178C314.476 234.224 314.354 233.484 314.435 232.98Z" fill="#00160A"/>
  <path fill-rule="evenodd" clip-rule="evenodd" d="M322.694 241.975C322.388 241.911 322.071 241.844 321.816 241.663C321.632 241.533 321.488 241.347 321.408 241.137C323.558 240.232 326.295 241.052 327.591 242.989C325.959 242.651 324.327 242.313 322.694 241.975Z" fill="#00160A"/>
  <path fill-rule="evenodd" clip-rule="evenodd" d="M318.27 228.893C318.817 228.02 320.179 228.429 321.004 229.047C321.816 229.656 322.543 230.379 323.158 231.187C323.131 231.662 322.392 231.554 321.992 231.296C320.751 230.495 319.511 229.694 318.27 228.893Z" fill="#00160A"/>
  <path fill-rule="evenodd" clip-rule="evenodd" d="M288.447 243.298C289.316 243.001 290.186 242.704 291.056 242.407C291.404 242.288 291.777 242.168 292.134 242.256C292.492 242.344 292.8 242.731 292.663 243.073C290.955 243.71 289.224 244.289 287.476 244.809C287.198 244.569 287.255 244.098 287.495 243.822C287.736 243.546 288.1 243.416 288.447 243.298Z" fill="#00160A"/>
  <path fill-rule="evenodd" clip-rule="evenodd" d="M295.662 232.349C295.994 232.573 296.165 232.964 296.319 233.333C296.524 233.824 296.733 234.354 296.622 234.874C296.511 235.394 295.926 235.843 295.447 235.61C294.905 235.345 294.315 236.315 293.78 236.035C293.527 235.902 293.478 235.568 293.46 235.283C293.41 234.517 293.37 233.705 293.734 233.029C294.097 232.353 295.025 231.919 295.662 232.349Z" fill="#00160A"/>
  <path fill-rule="evenodd" clip-rule="evenodd" d="M289.026 232.007C289.828 230.039 292.126 228.808 294.211 229.228C294.494 229.285 294.844 229.497 294.744 229.768C294.691 229.911 294.531 229.98 294.388 230.032C292.601 230.691 290.813 231.349 289.026 232.007Z" fill="#00160A"/>
  <path fill-rule="evenodd" clip-rule="evenodd" d="M299.671 241.951C299.222 242.007 298.65 241.964 298.481 241.545C298.782 241.305 299.143 241.05 299.519 241.137C299.894 241.224 300.03 241.879 299.653 241.958L299.671 241.951Z" fill="#00160A"/>
  <path fill-rule="evenodd" clip-rule="evenodd" d="M308.664 241.307C309.137 241.228 309.386 240.565 309.081 240.196C308.777 239.826 308.077 239.943 307.909 240.391C307.741 240.839 308.192 241.386 308.664 241.307Z" fill="#00160A"/>
  <path fill-rule="evenodd" clip-rule="evenodd" d="M298.165 244.508C297.503 244.412 296.652 243.981 296.855 243.345C297.585 242.925 298.49 243.284 299.323 243.405C300.156 243.525 301.28 243.07 301.143 242.241C301.282 242.59 301.422 242.94 301.561 243.289C302.409 243.063 303.201 242.629 303.846 242.036C304.211 241.701 304.537 241.124 304.213 240.749C303.462 239.881 304.278 238.255 305.423 238.335C306.569 238.414 307.15 240.138 306.286 240.894C306.062 241.089 306.288 241.449 306.52 241.635C308.141 242.935 310.4 243.396 312.402 242.837C313.297 242.587 314.44 242.22 315.009 242.954C312.154 245.013 307.815 244.655 305.337 242.156C303.943 244.428 300.805 244.889 298.165 244.508Z" fill="#00160A"/>
  <path fill-rule="evenodd" clip-rule="evenodd" d="M311.619 240.6C311.894 240.724 311.937 241.169 311.691 241.343C311.444 241.517 311.038 241.329 311.013 241.028C311.117 240.805 311.358 240.653 311.605 240.656L311.619 240.6Z" fill="#00160A"/>
  <path fill-rule="evenodd" clip-rule="evenodd" d="M301.25 240.914C301.539 241.356 302.384 240.806 302.096 240.364C301.807 239.922 300.962 240.472 301.25 240.914Z" fill="#00160A"/>
  <path fill-rule="evenodd" clip-rule="evenodd" d="M277.252 109.4C276.143 109.523 274.947 109.793 273.966 109.263C275.127 108.173 276.861 107.961 278.453 108.039C281.151 108.173 283.813 108.991 286.12 110.396C285.635 111.287 284.298 110.849 283.38 110.418C281.483 109.525 279.336 109.169 277.252 109.4Z" fill="#00160A"/>
  <path fill-rule="evenodd" clip-rule="evenodd" d="M316.231 100.142C316.054 99.476 316.045 98.9316 316.653 98.6067C317.539 98.1337 320.334 98.1775 320.636 98.8658C320.938 99.5541 319.789 102.719 318.176 102.719C317.531 102.719 316.407 100.808 316.231 100.142Z" fill="#00160A"/>
  <path fill-rule="evenodd" clip-rule="evenodd" d="M333.966 107.983C330.496 108.199 327.059 108.956 323.82 110.218C323.376 110.391 322.693 110.459 322.592 109.993C323.157 109.044 324.293 108.619 325.354 108.309C327.731 107.615 330.177 107.161 332.644 106.955C333.001 106.925 333.381 106.905 333.693 107.081C334.005 107.256 334.189 107.703 333.966 107.983Z" fill="#00160A"/>
  <path fill-rule="evenodd" clip-rule="evenodd" d="M334.666 111.87C331.922 112.115 329.177 112.36 326.433 112.605C325.932 112.65 325.182 112.316 325.471 111.905C328.294 111.024 331.258 110.595 334.216 110.639C334.947 110.65 335.796 110.755 336.18 111.376C335.792 111.754 335.206 111.822 334.666 111.87Z" fill="#00160A"/>
  <path fill-rule="evenodd" clip-rule="evenodd" d="M294.307 102.948C293.726 103.631 292.546 103.435 291.923 102.79C291.3 102.144 291.087 101.218 290.9 100.341C290.802 99.8839 290.716 99.3642 290.989 98.9842C291.275 98.5853 295.257 98.5569 295.447 98.8989C295.636 99.2408 295.519 99.5293 295.447 99.7948C295.315 100.277 294.729 102.453 294.307 102.948Z" fill="#00160A"/>
  <path fill-rule="evenodd" clip-rule="evenodd" d="M273.518 113.788C276.979 112.365 280.842 111.931 284.533 112.551C284.929 112.618 285.363 112.722 285.588 113.053C285.813 113.385 285.596 113.977 285.199 113.921C280.911 113.312 276.255 113.356 272.606 115.686C272.223 115.468 272.196 114.887 272.441 114.521C272.686 114.155 273.11 113.956 273.518 113.788Z" fill="#00160A"/>
  <path fill-rule="evenodd" clip-rule="evenodd" d="M298.93 117.194C298.752 116.682 299.134 116.055 299.671 115.978C299.886 116.118 300.027 116.364 300.038 116.619C299.871 117.014 299.431 117.274 299.003 117.232L298.93 117.194Z" fill="#00160A"/>
  <path fill-rule="evenodd" clip-rule="evenodd" d="M293.331 95.0116C293.93 95.0207 294.753 95.4215 294.49 95.9598C291.884 96.1124 289.31 96.8012 286.976 97.9706C286.632 97.9361 286.468 97.4801 286.601 97.1612C286.734 96.8424 287.05 96.6435 287.354 96.4787C289.177 95.4905 291.257 94.9799 293.331 95.0116Z" fill="#00160A"/>
  <path fill-rule="evenodd" clip-rule="evenodd" d="M307.877 116.757C308.257 116.348 309.022 116.415 309.324 116.884C309.028 117.448 308.034 117.393 307.803 116.798L307.877 116.757Z" fill="#00160A"/>
  <path fill-rule="evenodd" clip-rule="evenodd" d="M310.518 116.485C310.783 116.101 311.533 116.433 311.426 116.886C311.315 117.115 311.067 117.27 310.812 117.269C310.519 117.157 310.375 116.766 310.525 116.491L310.518 116.485Z" fill="#00160A"/>
  <path fill-rule="evenodd" clip-rule="evenodd" d="M301.552 114.398C301.287 114.782 300.537 114.45 300.644 113.996C300.755 113.768 301.003 113.613 301.258 113.613C301.55 113.725 301.695 114.117 301.544 114.392L301.552 114.398Z" fill="#00160A"/>
  <path fill-rule="evenodd" clip-rule="evenodd" d="M297.122 115.446C297.099 115.892 297.654 116.251 298.051 116.048C298.449 115.845 298.483 115.186 298.108 114.944C297.734 114.701 297.145 115.001 297.122 115.446Z" fill="#00160A"/>
  <path fill-rule="evenodd" clip-rule="evenodd" d="M308.427 115.169C308.806 115.452 309.451 115.177 309.507 114.707C309.563 114.237 309.002 113.817 308.566 114.004C308.131 114.19 308.047 114.885 308.427 115.169Z" fill="#00160A"/>
  <path fill-rule="evenodd" clip-rule="evenodd" d="M315.464 96.3436C317.693 94.7326 320.778 95.4717 323.409 96.276C323.821 96.402 324.337 96.7796 324.099 97.1384C323.957 97.3522 323.646 97.345 323.391 97.3138C320.749 96.9904 318.106 96.667 315.464 96.3436Z" fill="#00160A"/>
  <path fill-rule="evenodd" clip-rule="evenodd" d="M305.495 115.17C306.297 117.659 309.18 119.273 311.725 118.658C312.844 118.387 314.123 117.78 315.041 118.474C313.431 119.82 311.166 120.343 309.127 119.84C307.089 119.337 305.329 117.82 304.533 115.88C302.955 118.076 300.452 119.588 297.771 119.963C297.37 120.019 296.916 120.035 296.613 119.768C296.31 119.5 296.39 118.862 296.793 118.834C299.006 118.68 301.153 117.71 302.729 116.151C303.585 115.304 304.288 113.944 303.604 112.954C302.966 112.032 302.454 111.024 302.084 109.966C301.947 109.574 301.841 109.103 302.093 108.773C302.28 108.529 302.604 108.445 302.904 108.376C303.815 108.168 304.757 107.958 305.675 108.132C306.593 108.306 307.486 108.968 307.622 109.891C307.909 111.841 304.89 113.294 305.495 115.17Z" fill="#00160A"/>
  <path fill-rule="evenodd" clip-rule="evenodd" d="M123.837 108.448C124.035 107.874 125.106 108.072 125.084 108.679C124.86 109.25 123.797 109.04 123.807 108.427L123.837 108.448Z" fill="#00160A"/>
  <path fill-rule="evenodd" clip-rule="evenodd" d="M114.17 111.089C114.048 110.477 112.877 110.709 112.999 111.322C113.121 111.934 114.292 111.702 114.17 111.089Z" fill="#00160A"/>
  <path fill-rule="evenodd" clip-rule="evenodd" d="M115.832 112.127C116.113 111.781 116.608 111.626 117.036 111.749C117.176 111.923 117.22 112.17 117.149 112.381C116.831 112.511 116.514 112.64 116.196 112.769C116.062 112.566 115.927 112.364 115.793 112.161L115.832 112.127Z" fill="#00160A"/>
  <path fill-rule="evenodd" clip-rule="evenodd" d="M115.974 110.674C115.761 110.526 115.617 110.282 115.592 110.023C115.824 109.543 116.644 109.537 116.882 110.014C116.663 110.329 116.338 110.569 115.973 110.687L115.974 110.674Z" fill="#00160A"/>
  <path fill-rule="evenodd" clip-rule="evenodd" d="M108.507 112.257C108.19 112.67 107.473 112.133 107.559 111.62C107.645 111.106 108.126 110.771 108.534 110.446C109.404 109.753 110.105 108.849 111.052 108.265C111.999 107.682 113.355 107.513 114.145 108.296C111.923 109.006 109.927 110.408 108.507 112.257Z" fill="#00160A"/>
  <path fill-rule="evenodd" clip-rule="evenodd" d="M105.79 106.639C107.079 105.436 108.68 104.569 110.394 104.15C110.759 104.06 111.159 103.993 111.501 104.15C111.844 104.307 112.06 104.777 111.831 105.075C109.65 105.462 107.599 106.541 106.046 108.117C105.763 108.403 105.228 108.057 105.213 107.656C105.199 107.254 105.496 106.914 105.79 106.639Z" fill="#00160A"/>
  <path fill-rule="evenodd" clip-rule="evenodd" d="M122.099 108.839C122.06 108.544 122.567 108.705 122.718 108.962C122.512 109.269 122.306 109.575 122.1 109.882C121.672 109.744 121.653 109.012 122.072 108.851L122.099 108.839Z" fill="#00160A"/>
  <path fill-rule="evenodd" clip-rule="evenodd" d="M134.84 107.234C132.976 106.661 131.112 106.088 129.249 105.515C128.813 105.381 128.335 105.215 128.114 104.816C130.687 104.235 133.516 104.923 135.533 106.621C135.618 106.692 135.706 106.772 135.734 106.88C135.832 107.26 135.217 107.35 134.84 107.234Z" fill="#00160A"/>
  <path fill-rule="evenodd" clip-rule="evenodd" d="M122.495 110.581C122.703 110.333 123.143 110.339 123.343 110.594C123.543 110.849 123.444 111.278 123.152 111.419C122.719 111.376 122.347 110.987 122.325 110.553L122.495 110.581Z" fill="#00160A"/>
  <path fill-rule="evenodd" clip-rule="evenodd" d="M133.524 111.27C131.591 110.592 129.658 109.915 127.725 109.237C127.566 109.182 127.399 109.12 127.298 108.987C127.075 108.695 127.333 108.24 127.684 108.131C128.034 108.021 128.411 108.144 128.758 108.265C129.8 108.63 130.841 108.994 131.883 109.359C132.775 109.671 133.873 110.393 133.524 111.27Z" fill="#00160A"/>
  <path fill-rule="evenodd" clip-rule="evenodd" d="M386.702 27.4489C393.72 30.2872 398.495 37.1197 400.71 44.3505C402.925 51.5813 402.946 59.274 402.949 66.8354C402.972 122.858 402.995 178.881 403.017 234.904C403.017 243.1 402.954 251.618 399.393 259.003C396.129 265.773 389.95 271.08 382.758 273.29C377.539 274.895 371.982 274.906 366.521 274.906C263.12 274.888 159.72 274.87 56.3191 274.852C51.1677 274.851 45.6595 274.745 41.419 271.825C34.6285 267.148 33.957 257.564 33.9544 249.327C33.9341 185.318 33.9138 121.308 33.8935 57.2987C33.8935 52.5411 33.9103 47.6669 35.5567 43.2024C38.3985 35.4964 45.7805 30.1696 53.6282 27.714C61.4758 25.2584 69.8506 25.2455 78.0746 25.2536C96.6839 25.2747 115.293 25.295 133.903 25.3153C213.34 25.4018 292.777 25.4884 372.214 25.5749C377.116 25.5803 382.159 25.6118 386.702 27.4489ZM213.704 273.561C213.66 232.83 213.616 192.099 213.572 151.368C154.901 151.391 96.2302 151.415 37.5594 151.439C37.0544 151.439 36.4892 151.464 36.141 151.829C35.8141 152.172 35.7946 152.696 35.7942 153.169C35.7679 187.349 35.7417 221.528 35.7152 255.707C35.7152 257.488 35.7152 259.284 36.0916 261.025C37.34 266.782 42.597 270.991 48.2316 272.737C53.8661 274.483 59.899 274.218 65.7946 273.999C88.6216 273.147 111.472 273.223 134.315 273.298C160.778 273.386 187.241 273.474 213.704 273.561ZM215.211 151.546C215.245 192.17 215.279 232.793 215.313 273.416C266.74 273.368 318.166 273.32 369.592 273.273C373.459 273.269 377.368 273.261 381.129 272.363C389.979 270.25 397.298 263.006 399.904 254.301C401.444 249.158 401.444 243.7 401.432 238.332C401.366 209.332 401.299 180.332 401.233 151.332C339.226 151.403 277.218 151.475 215.211 151.546ZM215.192 27.3941C215.246 68.1235 215.299 108.853 215.353 149.582C276.795 149.587 338.237 149.591 399.679 149.595C400.19 149.595 400.778 149.56 401.09 149.155C401.314 148.865 401.324 148.469 401.324 148.102C401.333 118.414 401.342 88.7262 401.351 59.0382C401.351 54.6557 401.346 50.2171 400.246 45.9747C397.237 34.3814 385.289 25.7975 373.325 26.6341C364.453 27.2545 355.551 27.2631 346.657 27.2714C302.836 27.3123 259.014 27.3532 215.192 27.3941ZM213.701 149.425C213.652 108.701 213.604 67.976 213.555 27.2514C162.896 27.2334 112.237 27.2153 61.5781 27.1973C49.6308 27.193 38.3603 36.5829 36.2243 48.3204C35.6674 51.3808 35.6708 54.5117 35.675 57.6222C35.7265 88.2309 35.777 118.84 35.8275 149.448C95.1183 149.694 154.41 149.686 213.701 149.425Z" fill="#00160A"/>
  <path fill-rule="evenodd" clip-rule="evenodd" d="M120.669 108.843C120.308 109.784 120.766 110.875 121.491 111.577C122.547 112.6 124.175 112.992 125.582 112.563C126.595 112.254 127.823 111.605 128.572 112.352C126.339 114.599 122.098 114.282 120.223 111.729C119.638 113.253 118.297 114.467 116.721 114.901C115.144 115.334 113.37 114.977 112.086 113.966C113.03 113.185 114.429 113.795 115.656 113.802C116.952 113.809 118.22 113.016 118.781 111.849C119.341 110.681 119.164 109.198 118.346 108.193C117.511 107.169 116.865 105.992 116.449 104.739C116.353 104.448 116.269 104.132 116.362 103.841C116.552 103.244 117.32 103.103 117.946 103.072C119.23 103.007 120.515 102.973 121.801 102.967C122.418 102.965 123.167 103.048 123.426 103.608C123.597 103.976 123.474 104.41 123.324 104.787C122.933 105.771 122.371 106.687 121.67 107.482C121.295 107.907 120.871 108.313 120.669 108.843Z" fill="#00160A"/>
  <path fill-rule="evenodd" clip-rule="evenodd" d="M131.659 83.7821C129.759 83.4292 127.757 83.6417 125.974 84.3855C125.726 84.4889 125.44 84.602 125.201 84.4799C124.909 84.3309 124.879 83.8946 125.061 83.622C125.242 83.3495 125.561 83.2055 125.867 83.0883C129.02 81.8809 132.7 82.1278 135.663 83.7455C134.534 84.5305 133.011 84.0333 131.659 83.7821Z" fill="#00160A"/>
  <path fill-rule="evenodd" clip-rule="evenodd" d="M130.728 93.371C130.568 93.6842 130.375 94.0064 130.061 94.1659C129.595 94.4024 128.991 94.1812 128.673 93.767C128.355 93.3527 128.279 92.7986 128.317 92.2783C128.396 91.2157 129.317 90.023 130.322 90.383C131.398 90.7691 131.249 92.3537 130.728 93.371Z" fill="#00160A"/>
  <path fill-rule="evenodd" clip-rule="evenodd" d="M112.286 91.5542C112.399 92.4575 111.999 93.4692 111.172 93.8519C110.345 94.2345 109.168 93.7162 109.079 92.8102C109.048 92.4949 109.14 92.1818 109.237 91.8801C109.519 90.9998 110.097 89.965 111.019 90.0437C111.729 90.1042 112.197 90.8488 112.286 91.5542Z" fill="#00160A"/>
  <path fill-rule="evenodd" clip-rule="evenodd" d="M104.229 85.0809C104.081 84.6087 104.654 84.2482 105.126 84.1006C107.912 83.2314 110.923 83.0935 113.776 83.7046C114.196 83.7945 114.658 83.9336 114.867 84.3077C115.077 84.6818 114.756 85.2942 114.348 85.1604C111.546 84.2407 108.434 84.2922 105.663 85.3041C105.151 85.4912 104.391 85.6007 104.229 85.0809Z" fill="#00160A"/>
  <path fill-rule="evenodd" clip-rule="evenodd" d="M145.352 61.3069C145.078 65.6455 144.804 69.9969 145.061 74.3365C145.261 77.7144 145.782 81.073 145.83 84.4565C145.967 94.2354 142.128 103.707 136.905 111.98C149.444 120.401 158.897 133.302 163.14 147.784C161.333 146.658 160.555 144.475 159.796 142.488C155.605 131.51 148.23 121.766 138.797 114.745C137.444 113.738 135.145 112.976 134.397 114.487C132.707 117.898 130.209 120.908 127.165 123.199C126.061 124.03 124.825 124.852 123.962 125.895C123.969 125.981 123.973 126.067 123.973 126.154C123.973 127.918 122.54 129.349 120.773 129.349C119.571 129.349 118.524 128.688 117.977 127.71C110.01 124.213 103.527 117.423 100.478 109.275C94.6522 113.309 91.2935 120.173 90.0057 127.134C88.7179 134.095 89.2654 141.248 89.8172 148.305C89.2356 148.698 88.6913 147.747 88.6249 147.049C87.9527 139.983 87.5754 132.789 89.0435 125.845C90.5116 118.9 94.0204 112.15 99.8168 108.042C94.4374 96.3476 96.5294 82.0006 89.9668 70.9246C89.5771 70.267 89.2491 69.2411 89.9313 68.8948C90.1842 68.7665 90.4866 68.8062 90.7663 68.8536C95.3423 69.6288 99.7025 71.6382 103.262 74.6124C104.18 75.3796 105.554 74.8196 106.627 74.2891C114.873 70.2116 124.719 69.4812 133.478 72.2971C135.678 68.0752 138.92 64.3991 142.836 61.6849C143.591 61.1613 144.672 60.6885 145.352 61.3069ZM117.067 118.371C119.889 118.619 122.764 118.863 125.53 118.249C131.856 116.847 136.395 111.258 139.293 105.471C142.612 98.844 144.471 91.4931 144.701 84.0873C142.655 85.7306 140.609 87.3739 138.563 89.0171C137.351 89.9904 136.027 91.1884 136.051 92.7411C136.084 94.9491 134.714 97.1163 132.704 98.0365C130.693 98.9566 128.155 98.5783 126.501 97.1121C124.635 95.4575 123.575 92.4618 121.089 92.2436C118.157 91.9863 116.761 95.74 114.401 97.4972C111.395 99.7364 106.543 98.0551 105.042 94.623C104.757 93.9702 104.859 92.8115 104.205 92.4139C102.12 91.1464 99.8168 91.1001 97.0993 91.1903C97.5836 97.1027 99.017 102.936 101.328 108.401C102.352 110.823 103.6 113.24 105.61 114.938C108.706 117.552 113.027 118.018 117.067 118.371ZM134.054 73.6377C133.142 75.3756 131.612 77.5506 129.777 76.849C130.956 75.8406 131.974 74.6458 132.782 73.3228C123.651 70.7238 113.536 71.7603 105.123 76.1569C105.847 77.0319 106.738 77.7691 107.733 78.3173C106.68 79.3188 105.055 78.0914 104.059 77.0336C100.668 73.4333 96.0318 71.0246 91.1329 70.3176C93.1432 73.5386 95.0017 79.9197 96.7086 89.4607C99.4744 90.0852 101.333 90.4075 102.286 90.4278C103.382 90.4512 104.717 90.3376 105.196 89.353C106.462 86.7522 109.631 85.235 112.454 85.8787C115.278 86.5224 117.474 89.263 117.483 92.1545C119.314 90.9568 121.764 90.7667 123.759 91.6675C123.967 89.2067 125.833 86.9712 128.221 86.3249C130.608 85.6785 133.35 86.666 134.774 88.6848C135.394 89.5631 136.765 88.918 137.587 88.2247C139.29 86.7883 140.993 85.3519 142.696 83.9155C143.656 83.1061 144.712 82.056 144.51 80.8179C143.514 74.6861 143.39 68.4137 144.142 62.2473C139.927 65.1593 136.433 69.1043 134.054 73.6377ZM129.701 117.786C125.602 120.566 120.192 120.081 115.273 119.487C112.586 119.162 109.805 118.806 107.495 117.397C107.02 117.107 106.398 116.776 105.959 117.118C108.713 120.55 112.279 123.328 116.283 125.16C116.878 125.432 117.756 125.592 118.038 125.003C118.686 123.646 120.655 123.144 121.875 124.023C122.869 124.738 124.242 124.051 125.223 123.32C127.427 121.679 129.439 119.78 131.204 117.675C130.946 117.164 130.175 117.464 129.701 117.786ZM106.456 94.7474C107.692 96.8301 110.511 97.8116 112.776 96.9475C115.041 96.0835 116.486 93.4749 116.016 91.1001C115.546 88.7252 113.215 86.8617 110.792 86.9229C108.368 86.984 106.135 88.9625 105.786 91.358C105.616 92.5199 105.857 93.7373 106.456 94.7474ZM125.282 91.1464C124.991 92.8667 125.666 94.6803 126.888 95.927C127.786 96.8429 129.024 97.4899 130.307 97.4425C132.6 97.3577 134.267 95.1683 134.975 92.9886C135.159 92.4202 135.304 91.8157 135.192 91.2288C135.047 90.4668 134.492 89.8513 133.914 89.3339C132.461 88.0357 130.501 87.0518 128.601 87.4877C126.898 87.8784 125.573 89.4261 125.282 91.1464Z" fill="#00160A"/>
</svg>