<svg xmlns="http://www.w3.org/2000/svg" width="400" height="384" viewBox="0 0 400 384" fill="none">
  <path d="M350.635 284.734C348.257 331.076 311.104 373.072 265.561 382.105C220.018 391.138 170.174 367.111 147.982 326.351C145.533 321.853 143.353 317.135 141.172 312.418C135.542 300.24 129.915 288.065 119.681 279.688C107.996 270.123 92.9684 267.565 77.7894 264.981C68.1506 263.34 58.4508 261.689 49.5072 258.227C27.9471 249.88 11.2069 230.107 6.54029 207.476C-1.0219 170.801 22.9315 133.357 54.8741 113.786C86.8168 94.2143 125.2 88.7635 162.432 84.5634C176.674 82.9567 188.243 72.2303 196.506 60.526C199.705 55.9949 202.583 51.2337 205.459 46.4759C210.012 38.9441 214.559 31.421 220.366 24.8337C244.953 -3.0597 290.738 -7.76659 322.055 12.2904C353.371 32.3474 368.36 73.5903 360.032 109.819C358.598 116.059 356.562 122.135 354.526 128.212L354.525 128.212C352.576 134.029 350.627 139.846 349.205 145.808C346.166 158.55 345.586 171.737 345.24 184.832C344.828 200.445 344.731 216.099 346.194 231.649C346.703 237.058 347.4 242.461 348.098 247.862C349.683 260.136 351.267 272.404 350.635 284.734Z" fill="#DAF7DC"/>
  <path d="M162.38 73.4949C179.409 65.0285 192.962 50.3249 201.497 33.3381C202.616 31.1109 203.677 28.7444 203.637 26.2524C203.598 23.7604 202.147 21.1209 199.735 20.488C196.279 19.581 193.306 22.8933 191.15 25.7421C176.343 45.3122 154.79 60.6756 130.47 64.0262C121.129 65.3131 111.646 64.8298 102.229 64.3439L87.5215 63.585C75.6754 62.9738 63.6648 62.3747 52.0693 64.8729C40.4738 67.371 29.1435 73.3792 22.7749 83.3803C20.7478 86.5637 19.2294 90.3152 19.7903 94.0466C20.3651 97.8705 23.0848 101.116 26.3609 103.173C29.637 105.231 33.4431 106.26 37.2151 107.121C39.9768 107.751 42.7975 108.31 45.6233 108.111C50.2432 107.786 54.4358 105.49 58.5151 103.256C58.7869 103.107 59.0581 102.959 59.329 102.811C66.4588 98.9238 73.8467 95.4715 81.5523 92.9063C92.7891 89.1657 104.605 87.3352 116.391 85.5092C132.269 83.0492 148.094 80.5974 162.38 73.4949Z" fill="#DAF7DC"/>
  <path d="M73.8245 299.045L73.8345 299.046C74.5285 299.073 75.2222 299.101 75.914 299.137C86.8564 299.706 97.6851 302.387 107.628 306.989C111.419 308.744 115.258 310.94 117.387 314.532C120.022 318.977 123.184 323.109 126.787 326.814C128.184 328.251 129.698 329.657 131.564 330.391C133.43 331.125 135.734 331.058 137.248 329.744C139.087 328.147 139.207 325.312 138.64 322.944C137.711 319.063 135.394 315.682 133.102 312.415C125.578 301.696 117.657 290.979 107.187 283.109C96.7169 275.238 83.2048 270.473 70.3892 273.192C65.9642 274.13 61.5785 276.044 58.6448 279.485C55.711 282.926 54.5516 288.105 56.6646 292.102C58.3408 295.274 61.739 297.225 65.2182 298.104C68.0223 298.813 70.9262 298.929 73.8238 299.045H73.8245Z" fill="#DAF7DC"/>
  <path d="M369.806 137.825C366.881 136.723 363.568 138.054 361.092 139.962C356.202 143.73 353.309 149.623 351.993 155.652C350.676 161.681 350.782 167.918 350.895 174.088L351.862 227.1C351.933 230.973 352.105 235.147 354.488 238.202C355.234 239.158 356.255 239.997 357.461 240.12C358.924 240.27 360.277 239.347 361.333 238.325C367.109 232.736 367.867 223.932 368.558 215.908L368.584 215.616C369.599 203.837 371.359 192.122 373.847 180.564C374.547 177.313 375.316 174.042 376.779 171.057C381.368 161.697 380.271 149.816 374.045 141.454C372.919 139.941 371.571 138.491 369.806 137.825Z" fill="#DAF7DC"/>
  <path d="M265.025 209.582C268.112 210.432 270.876 213 271.179 216.186C271.765 214.919 273.051 214.003 274.44 213.864L272.423 216.006L274.975 216.057L271.463 218.017C273.641 222.041 273.288 227.005 271.892 231.363C271.038 234.029 269.802 236.701 270.043 239.491C270.28 242.235 272.719 245.038 275.384 244.476L275.517 244.446C278.721 243.637 282.228 244.105 285.107 245.726C289.243 248.054 291.752 252.379 294.595 256.179C297.104 259.533 300.074 262.652 303.787 264.595C307.499 266.538 312.051 267.18 315.919 265.567C317.837 264.766 319.555 263.441 321.592 263.019C323.628 262.597 325.714 263.729 326.462 265.657C326.793 266.51 326.082 269.671 324.269 273.363C324.564 273.279 324.872 273.224 325.195 273.203C334.72 272.585 344.332 270.516 352.529 265.628C355.134 264.075 357.568 262.254 359.984 260.419L361.393 259.346L362.245 258.691C367.547 254.586 372.781 250.01 374.961 243.766L375.075 243.43L375.317 242.692C375.783 241.295 376.374 239.851 377.724 239.417C379.592 238.817 381.293 240.623 382.428 242.223L390.609 253.749C390.819 254.045 391.034 254.352 391.114 254.706C391.468 256.272 389.129 257.064 387.621 256.507C384.88 255.496 382.679 252.482 379.803 253C377.781 253.363 376.573 255.319 375.574 257.162L375.321 257.633C369.267 268.96 359.08 278.023 347.121 282.719C344.038 283.93 340.852 284.858 337.672 285.783L331.247 287.654L332.379 287.855C341.966 289.535 352.193 290.561 360.9 286.315C366.695 283.489 371.161 278.623 375.373 273.704L376.901 271.909L377.532 271.16C380.116 268.06 382.573 264.742 383.327 260.815C383.617 259.306 385.522 258.587 387.004 258.995C388.485 259.404 389.613 260.575 390.662 261.698L398.615 270.205C399.242 270.875 399.901 271.615 399.993 272.527C400.085 273.44 399.266 274.473 398.385 274.217L389.761 271.713C388.952 271.479 388.056 271.249 387.294 271.609C386.711 271.885 386.334 272.45 386 273.008L376.728 288.655C374.118 293.061 369.279 295.616 364.525 297.527C353.125 302.108 340.754 304.261 328.475 303.8C327.142 303.75 325.807 303.669 324.489 303.461C319.535 302.681 315.062 300.164 310.731 297.618C311.49 300.394 310.814 302.736 306.303 302.913C302.308 303.071 292.522 286.631 289.479 285.779C272.867 281.124 270.14 271.934 264.803 265.657C264.803 265.657 254.019 267.05 246.899 265.567C230.208 262.089 218.992 251.391 214.948 250.71C210.904 250.029 208.238 252.619 206.989 251.048V249.91C207.182 249.597 209.115 247.792 214.627 248.964C222.324 250.601 234.629 256.779 244.026 257.933C253.89 259.145 262.247 257.541 262.201 257.272C262.107 256.723 264.586 254.391 262.605 253.213C260.624 252.035 231.864 240.499 225.612 230.885L225.538 230.765C224.463 228.982 223.646 224.551 225.809 226.58L226.414 225.507C228.743 227.702 236.389 232.718 244.331 237.664C252.729 242.893 264.586 246.242 264.803 246.095C269.636 242.828 265.35 240.464 264.55 239.769C262.678 238.144 260.192 237.258 258.579 235.376C254.709 230.861 257.473 222.785 253.05 218.81C252.381 218.208 251.569 217.735 251.084 216.977C250.253 215.679 250.662 213.872 251.668 212.704C252.674 211.536 254.146 210.884 255.602 210.376C258.624 209.321 261.938 208.732 265.025 209.582Z" fill="white"/>
  <path d="M268.759 232.669C268.759 233.299 268.248 233.81 267.618 233.81C266.987 233.81 266.476 233.299 266.476 232.669C266.476 232.039 266.987 231.528 267.618 231.528C268.248 231.528 268.759 232.039 268.759 232.669Z" fill="#FFB61D"/>
  <path d="M261.506 232.669C261.506 233.299 261.127 233.81 260.66 233.81C260.192 233.81 259.814 233.299 259.814 232.669C259.814 232.039 260.192 231.528 260.66 231.528C261.127 231.528 261.506 232.039 261.506 232.669Z" fill="#FFB61D"/>
  <path d="M219.303 238.196C208.693 235.454 197.541 234.821 186.688 236.345C187.509 232.292 188.537 228.28 189.767 224.331C186.236 225.47 182.067 222.236 182.295 218.534C182.523 214.833 187.058 212.135 190.423 213.699C191.579 211.034 191.652 207.918 190.623 205.201C190.129 203.898 192.097 203.146 193.491 203.146L201.196 203.144C202.273 203.144 203.774 202.644 203.507 201.601C202.872 199.129 204.573 196.304 207.056 195.707C209.494 195.12 212.238 196.789 212.868 199.206L212.901 199.341C213.486 201.938 216.777 202.762 219.439 202.711L220.765 202.679C223.068 202.631 225.468 202.706 227.009 204.316C228.853 206.241 228.441 209.307 227.833 211.921L227.792 212.094C226.931 215.723 226.013 219.337 225.039 222.937C226.931 238.159 222.245 238.956 219.303 238.196Z" fill="white"/>
  <path d="M130.805 225.487C129.681 218.171 129.682 210.683 130.81 203.367L130.867 203.013C131.147 201.353 131.638 199.6 133.026 198.686C134.066 198.001 135.378 197.949 136.63 197.949L146.213 197.975C146.65 197.977 147.128 197.993 147.456 198.28C147.784 198.568 147.775 199.228 147.354 199.344C146.35 199.622 145.773 200.779 145.895 201.813C146.017 202.847 146.69 203.742 147.48 204.42C149.363 206.039 152.291 206.613 154.377 205.264C156.462 203.915 156.952 200.439 154.976 198.934C159.453 198.843 163.931 198.857 168.407 198.976L170.086 199.026C170.628 199.043 171.228 199.087 171.607 199.475C171.891 199.766 171.985 200.19 172.049 200.592C172.545 203.689 172.003 206.942 170.53 209.712C170.295 210.153 169.752 210.639 169.382 210.303C167.81 208.876 165.165 209.07 163.555 210.456C161.946 211.842 161.324 214.143 161.608 216.246C161.882 218.271 163.359 220.434 165.401 220.331C167.009 220.251 168.797 218.846 170.012 219.901L167.965 229.043C167.601 230.667 166.948 232.594 165.32 232.942C155.919 234.951 146.063 234.799 136.729 232.501L136.276 232.387C135.144 232.09 134.015 231.707 133.131 230.951C131.593 229.635 131.113 227.487 130.805 225.487Z" fill="white"/>
  <path d="M204.556 153.748L227.273 154.205L227.644 154.214C228.326 154.235 229.013 154.295 229.628 154.581C231.016 155.229 231.653 156.826 232.075 158.298C234.329 166.156 234.051 174.719 231.292 182.415L231.176 182.73C230.816 183.677 230.347 184.621 229.499 185.154C228.801 185.592 227.95 185.684 227.122 185.728L226.945 185.737C223.567 185.897 220.177 185.811 216.812 185.479C218.565 184.401 219.007 181.775 217.894 180.045C216.781 178.315 214.43 177.592 212.45 178.154C211.243 178.497 210.119 179.321 209.683 180.497C209.246 181.672 209.668 183.181 210.783 183.755C211.555 184.152 211.422 185.402 210.746 185.947C210.071 186.491 209.132 186.53 208.265 186.544L196.867 186.728C196.011 186.742 195.11 186.746 194.358 186.336C193.291 185.754 192.801 184.501 192.5 183.325C191.775 180.486 191.677 177.489 192.215 174.609C192.863 176.883 195.668 178.265 197.867 177.393C200.067 176.52 201.161 173.593 200.072 171.493C198.984 169.394 195.96 168.599 193.978 169.892L193.896 169.158C193.612 166.586 193.391 163.98 193.885 161.446C194.426 158.672 195.971 155.946 198.503 154.686C200.349 153.766 202.481 153.715 204.556 153.748Z" fill="white"/>
  <path d="M135.659 179.286C132.46 179.299 129.26 179.167 126.073 178.892L125.764 178.864C124.623 178.75 123.426 178.522 122.678 177.673C121.669 176.529 121.915 174.803 122.218 173.292L122.249 173.142C123.603 166.516 124.135 159.722 123.83 152.965L123.773 151.801C123.688 149.706 123.822 147.331 125.563 146.253C126.093 145.926 126.708 145.774 127.321 145.65L127.525 145.61C138.672 143.44 150.28 143.659 161.337 146.25C162.793 146.592 163.198 148.563 162.715 149.977C162.232 151.392 161.195 152.581 160.808 154.024C160.42 155.468 161.131 157.422 162.625 157.468C165.736 157.566 168.373 160.724 167.955 163.807C167.537 166.889 164.203 169.226 161.152 168.614C160.436 168.471 160.182 169.529 160.261 170.254L161.132 178.3C161.274 179.614 159.409 180.028 158.091 179.926L150.404 179.328C149.196 179.234 147.576 179.442 147.39 180.638C146.926 183.617 143.87 185.943 140.874 185.598C137.877 185.252 135.431 182.292 135.659 179.286Z" fill="white"/>
  <path fill-rule="evenodd" clip-rule="evenodd" d="M114.965 228.804C115.818 229.011 117.039 229.379 116.972 230.185C115.607 246.433 109.73 243.443 104.491 248.101C103.106 249.332 102.279 252.244 101.684 252.311C103.889 253.329 107.089 257.412 112.597 257.599C127.942 258.119 133.527 246.928 133.527 246.928C133.888 243.34 132.067 236.879 134.34 238.688C135.909 239.937 135.599 233.852 137.742 234.458C138.386 234.64 137.261 238.686 137.742 238.928C138.007 239.062 138.4 237.958 139.086 237.081C139.657 236.35 140.539 235.808 140.721 235.967C140.845 236.076 140.726 237.121 140.212 238.006C139.488 239.25 138.279 240.446 138.448 240.646C138.634 240.866 141.824 237.899 142.019 238.158C143.309 239.879 135.134 259.684 121.339 263.423L120.247 263.716C112.205 265.851 108.828 266.142 101.378 263.423C97.8452 262.133 95.648 274.178 93.6844 278.187C92.4444 280.718 86.4222 286.922 83.6721 285.046C80.044 282.571 77.0855 277.964 73.9979 275.633L73.7995 275.487C71.6953 273.979 66.9361 271.691 59.5217 268.623L59.8557 268.469C61.4027 267.766 65.3872 266.048 68.4466 263.423C72.7937 259.693 75.1481 251.681 78.1785 247.36C81.1705 243.094 85.1857 243.722 82.7624 242.967C82.7624 242.967 76.6222 239.716 73.7995 239.418C64.3726 238.424 52.0835 242.877 48.1522 245.746C42.758 249.683 48.1174 255.477 40.664 252.637C38.1799 251.691 44.8379 239.429 54.0218 234.458C66.7872 227.548 78.8574 225.647 90.9587 236.647C95.8837 241.124 96.3711 245.109 97.6918 248.147L97.4215 247.403C112.02 246.441 90.1467 231.834 108.408 228.179C110.326 227.795 112.338 228.195 114.261 228.639L114.965 228.804Z" fill="white"/>
  <path d="M106.705 238.942C106.705 239.572 106.194 240.082 105.564 240.082C104.933 240.082 104.422 239.572 104.422 238.942C104.422 238.312 104.933 237.801 105.564 237.801C106.194 237.801 106.705 238.312 106.705 238.942Z" fill="#FFB61D"/>
  <path d="M112.982 241.223C112.982 241.853 112.471 242.364 111.84 242.364C111.21 242.364 110.699 241.853 110.699 241.223C110.699 240.593 111.21 240.082 111.84 240.082C112.471 240.082 112.982 240.593 112.982 241.223Z" fill="#FFB61D"/>
  <path fill-rule="evenodd" clip-rule="evenodd" d="M45.5885 283.173C57.9586 291.734 42.1314 279.91 55.6472 294C58.3765 296.846 72.1956 280.595 73.6212 290.226C74.1412 293.739 73.0073 297.396 73.6986 300.879C74.3436 304.13 88.4895 302.178 89.5822 300.757C93.5431 295.603 81.2163 282.365 78.6316 280.249C64.2082 268.441 59.4487 269.26 45.972 281.477L45.5885 283.173Z" fill="white"/>
  <path fill-rule="evenodd" clip-rule="evenodd" d="M367.381 69.2044C369.808 69.4942 372.064 69.7638 372.064 66.9376C372.064 66.2652 363.898 60.3583 361.478 62.633C358.367 65.5583 355.896 68.9128 353.502 72.162C348.477 78.9832 343.794 85.3403 334.245 86.2874L334.13 86.3001C330.429 86.7469 337.325 90.0301 345.069 86.2874C350.394 83.7141 357.478 75.5732 360.843 71.7064C361.723 70.6945 362.349 69.9753 362.622 69.7252L362.692 69.6652C363.839 68.7813 365.653 68.998 367.381 69.2044ZM378.901 76.8532L386.98 83.2625C388.554 84.5111 386.711 87.202 384.706 87.3309C383.542 87.4058 382.426 87.0479 381.304 86.6882C380.493 86.428 379.678 86.1668 378.84 86.0678C374.096 85.5072 370.478 89.9729 367.535 93.7342C364.845 97.1714 361.9 100.409 358.732 103.411L358.303 103.814L357.857 104.224C355.308 106.54 352.45 108.637 349.087 109.242C344.137 110.131 339.219 107.598 335.175 104.608C334.188 103.879 333.219 103.113 332.25 102.348C329.246 99.9755 326.238 97.5993 322.676 96.2677C319.59 97.9509 316.701 99.9848 314.063 102.305L314.181 102.212C318.61 106.649 321.706 112.396 322.974 118.533L322.127 118.384L321.568 118.289C316.335 117.412 310.731 116.893 306.308 119.692C304.75 120.678 303.36 122.056 301.985 123.417C301.028 124.366 300.079 125.306 299.086 126.102C299.338 126.252 299.596 126.408 299.86 126.569C304.754 128.57 309.941 129.851 315.204 130.359C316.008 130.437 316.821 130.499 317.637 130.561C321.412 130.847 325.235 131.137 328.461 133.031L329.593 133.707C331.408 134.782 333.43 135.804 334.951 134.56C335.388 134.202 335.674 133.712 335.962 133.219C336.137 132.92 336.312 132.619 336.523 132.347C337.078 131.628 338.181 131.122 338.872 131.712L339.152 133.91C339.356 132.496 340.72 131.347 342.149 131.387C343.577 131.426 344.876 132.65 345.001 134.072C345.227 136.655 342.297 138.201 339.81 139.023L326.92 143.174C322.315 144.657 317.209 143.889 312.769 141.966C308.636 140.176 304.989 137.451 301.503 134.588L300.732 133.95C298.099 131.761 294.542 129.383 291.556 131.057C296.744 131.372 300.529 135.841 303.623 140.067L303.921 140.475C304.422 141.166 304.938 141.892 305.061 142.736C305.408 145.098 302.723 146.665 300.456 147.416C302.367 148.439 301.42 151.409 299.939 152.991C297.785 155.292 294.965 156.949 291.922 157.769L291.644 158.729C291.627 158.794 291.619 158.828 291.621 158.829C293.056 158.729 293.941 160.656 293.356 161.97C292.771 163.283 291.328 163.982 289.944 164.374C285.383 165.663 280.23 164.646 276.502 161.721L275.777 162.098C272.626 163.728 269.368 165.243 265.867 165.757C262.096 166.31 257.945 165.533 255.219 162.871L255.399 163.264C255.784 164.118 256.131 165.002 256.143 165.933C256.157 167.007 255.601 168.166 254.583 168.511C252.903 169.08 251.436 167.285 250.564 165.742C250.086 166.93 250.579 168.268 251.058 169.568C251.604 171.051 252.132 172.487 251.183 173.598C250.194 174.754 248.318 174.458 246.957 173.776C241.859 171.22 239.464 164.788 240.568 159.195C241.672 153.603 245.696 148.92 250.487 145.828C247.234 143.445 244.855 139.897 243.885 135.985C244.143 136.318 245.297 135.247 246.935 133.725C249.932 130.941 254.551 126.65 258.283 126.69C258.999 126.698 260.153 127.251 261.284 127.792C262.103 128.185 262.91 128.571 263.528 128.74C263.579 128.674 263.641 128.614 263.713 128.562L263.007 128.055C261.586 127.046 260.103 126.098 258.421 125.68C256.459 125.192 254.135 125.594 252.885 127.182C249.828 131.066 245.955 134.305 241.59 136.627L244.177 141.401C243.108 141.911 241.776 141.818 240.783 141.174L240.661 141.091L240.738 141.187C242.228 143.129 240.919 146.516 238.48 146.9C236.004 147.938 233.507 144.837 233.751 142.165C233.922 140.292 234.85 138.633 235.78 136.971C236.177 136.261 236.574 135.551 236.913 134.823C238.058 132.365 238.561 129.635 239.061 126.922C239.747 123.203 240.426 119.517 242.743 116.61C244.365 114.574 246.637 113.159 248.968 111.998C258.218 107.391 269.164 106.289 279.147 108.96C280.848 102.872 284.219 97.2586 288.795 92.8952L289.068 92.6394C290.818 91.0275 292.996 89.5873 295.318 89.8517L295.502 89.8761C297.807 90.2276 299.812 88.4494 301.488 86.8035L302.004 86.2966L302.409 85.9069C305.735 82.7323 309.596 79.8026 314.14 79.4865C318.182 79.2053 322.051 81.0602 325.54 83.1194C329.488 85.4492 333.243 88.1048 336.754 91.0501L337.371 91.5728L337.868 91.9988C341.18 94.8417 344.803 97.9523 349.114 97.6945C353.534 97.4303 356.763 93.7636 359.738 90.3848L359.739 90.384L359.74 90.3825C359.98 90.11 360.218 89.8393 360.456 89.5724C364.126 85.4435 368.305 81.8084 372.535 78.2478L374.35 76.7251C374.899 76.2651 375.49 75.7861 376.2 75.6939C377.2 75.5642 378.111 76.2269 378.901 76.8532ZM299.018 146.843C298.12 146.664 296.895 146.742 295.342 147.077C296.365 147.081 297.225 147.063 297.924 147.022C298.263 146.98 298.599 146.928 298.93 146.861L299.018 146.843ZM265.749 127.073C266.077 126.737 266.423 126.382 266.806 126.079C267.52 125.704 268.323 125.513 269.132 125.59C271.869 125.849 273.942 128.759 273.584 131.483C272.139 135.061 268.563 137.103 265.027 139.122C262.848 140.366 260.684 141.602 259.043 143.182C259.455 142.504 259.906 141.962 260.363 141.629C261.79 140.59 263.283 139.691 264.69 138.843C265.872 138.13 266.994 137.453 267.965 136.762C269.494 135.674 270.52 134.64 271.316 133.839C271.924 133.227 272.398 132.75 272.857 132.49C272.894 132.468 274.619 128.974 270.449 126.69C267.301 124.966 265.898 127.147 265.145 128.32C264.9 128.7 264.724 128.974 264.578 128.974C264.54 128.974 264.488 128.968 264.422 128.957C264.526 128.585 264.684 128.226 264.887 127.889C265.169 127.667 265.452 127.378 265.749 127.073ZM266.639 126.172C265.923 126.586 265.309 127.188 264.887 127.889L264.783 127.968C264.576 128.119 264.368 128.23 264.153 128.28C263.719 128.383 262.687 127.591 261.813 126.921C261.291 126.52 260.824 126.163 260.577 126.066C258.942 125.425 258.75 125.416 257.617 125.362C257.426 125.353 257.207 125.343 256.951 125.328L256.481 125.299C256.378 125.293 256.264 125.288 256.143 125.283C255.204 125.244 253.852 125.187 254.122 124.457C258.95 111.396 279.581 108.554 276.169 123.318C275.887 124.539 275.147 125.607 274.406 126.676C274.036 127.21 273.666 127.744 273.353 128.297C272.02 126.404 270.567 125.406 268.995 125.303C268.119 125.246 267.415 125.598 266.806 126.079L266.639 126.172ZM304.061 114.455L304.066 114.447C302.93 116.604 301.711 119.2 300.408 122.236C301.388 119.539 302.615 116.934 304.061 114.455ZM313.26 116.444L313.101 116.45C311.843 116.503 310.713 116.691 309.714 117.015C308.605 117.374 307.424 117.974 306.173 118.816C308.363 117.604 310.782 116.794 313.26 116.444Z" fill="white"/>
  <path fill-rule="evenodd" clip-rule="evenodd" d="M248.888 171.144C247.899 172.301 246.465 171.928 245.152 170.648C242.403 167.971 241.299 162.804 242.403 157.212C243.508 151.619 247.812 149.315 252.603 146.223C250.453 145.338 246.559 139.727 246.168 134.274C247.493 135.983 247.563 139.05 248.888 140.759C250.145 142.381 252.658 144.355 253.916 145.976C254.076 146.184 254.215 146.531 253.987 146.661C249.394 149.268 246.418 150.131 243.709 157.211C241 164.292 246.5 170.841 247.231 170.648C248.131 170.411 247.812 169.217 247.295 168.443C245.836 166.26 247.224 163.349 248.413 161.008C249.048 161.72 247.52 163.764 247.842 165.888C248.156 167.962 249.768 170.114 248.888 171.144Z" fill="#E7EAEE"/>
  <path d="M268.759 147.699C268.759 148.329 268.248 148.84 267.618 148.84C266.987 148.84 266.476 148.329 266.476 147.699C266.476 147.069 266.987 146.559 267.618 146.559C268.248 146.559 268.759 147.069 268.759 147.699Z" fill="#FFB61D"/>
  <path d="M264.765 143.137C264.765 143.767 264.254 144.278 263.623 144.278C262.993 144.278 262.482 143.767 262.482 143.137C262.482 142.507 262.993 141.997 263.623 141.997C264.254 141.997 264.765 142.507 264.765 143.137Z" fill="#FFB61D"/>
  <path d="M92.9588 154.338C93.6186 155.569 92.5815 157.329 91.1846 157.348C89.9883 150.628 88.6983 143.673 84.8056 138.064C77.3521 127.324 61.9926 123.796 55.6111 112.387C51.266 115.478 44.622 114.69 41.1213 110.669C38.9442 108.168 35.1492 107.861 31.8797 108.419C28.6102 108.977 25.4159 110.21 22.1007 110.105C20.6622 110.06 19.0949 109.673 18.2577 108.503C17.4205 107.333 17.9042 105.274 19.3289 105.071C25.5357 104.183 31.7425 103.295 37.9494 102.407C38.4368 102.337 38.954 102.254 39.3241 101.93C39.7427 101.562 39.8742 100.975 39.9828 100.429C40.8813 95.9096 41.5288 90.5218 38.1988 87.3348C35.439 84.6935 31.0833 84.7847 27.3339 85.5215C23.5845 86.2584 19.7203 87.4708 16.0253 86.4978C12.3302 85.5248 9.24005 81.138 11.232 77.8791C12.5662 75.6964 11.0618 72.7853 9.00383 71.2648C6.94584 69.7442 4.38471 68.9953 2.38996 67.3928C0.395206 65.7903 -0.870743 62.6982 0.71812 60.693C1.4169 59.8111 2.51105 59.3465 3.58451 59.008C7.13722 57.888 11.0987 57.8026 14.5232 59.268C17.9478 60.7334 20.7289 63.8744 21.2861 67.5555C21.7402 70.5545 20.8775 74.0434 22.8612 76.3389C25.4548 79.3401 30.2484 77.6568 34.2162 77.6206C38.2743 77.5837 42.2873 79.734 44.5023 83.1325C46.7174 86.5309 47.0634 91.0684 45.3893 94.7631C50.1031 89.9699 56.452 86.293 63.1721 86.5433C69.3791 86.7745 75.0823 90.3426 79.2336 94.9601C83.385 99.5776 86.2169 105.201 88.9938 110.754C90.0284 112.823 92.6526 113.944 94.8637 113.262C97.0749 112.58 98.6105 110.176 98.2988 107.884C100.226 108.304 100.427 110.907 100.486 112.878C100.611 117.017 102.111 121.104 104.694 124.342C105.558 122.749 106.217 121.045 106.65 119.286C108.536 121.452 109.239 124.587 108.46 127.351C107.681 130.114 105.442 132.421 102.702 133.285C101.244 133.744 99.4615 133.965 98.7379 135.311C101.472 140.096 103.824 145.098 105.763 150.256C106.803 153.022 107.553 156.581 105.364 158.567C102.834 156.699 101.395 153.737 100.053 150.894C97.958 146.459 95.8635 142.024 93.7689 137.589" fill="white"/>
  <path d="M99.8677 109.944C99.3177 115.314 101.329 120.891 105.181 124.675C106.555 123.847 107.433 122.257 107.403 120.654C108.846 123.026 108.037 126.243 106.242 128.361C104.447 130.48 101.872 131.751 99.373 132.963C97.9411 133.658 96.4545 134.367 94.8635 134.414C92.4361 134.487 90.2615 133.028 88.2767 131.629L82.4538 127.526C85.4622 133.137 92.31 136.404 98.5669 135.214C102.918 141.314 105.582 148.603 106.19 156.07L105.02 153.911C105.01 153.884 104.995 153.858 104.978 153.832L105.02 153.911C105.188 154.325 104.531 154.783 104.088 154.569C103.618 154.341 103.44 153.774 103.301 153.27C101.588 147.063 98.518 141.232 94.3682 136.306L100.652 149.611C101.995 152.454 103.433 155.416 105.964 157.284C108.153 155.298 107.402 151.739 106.362 148.973C104.423 143.816 102.071 138.813 99.3372 134.028C99.9248 132.935 101.211 132.584 102.454 132.245L102.455 132.245C102.742 132.166 103.028 132.088 103.302 132.002C106.041 131.139 108.28 128.832 109.059 126.068C109.838 123.305 109.135 120.169 107.249 118.003C106.816 119.763 106.157 121.466 105.293 123.059C102.71 119.821 101.21 115.735 101.085 111.595C101.026 109.625 100.825 107.021 98.898 106.602C99.2098 108.893 97.6741 111.297 95.463 111.979C93.2518 112.661 90.6276 111.54 89.5931 109.471C86.8162 103.919 83.9842 98.295 79.8329 93.6775C75.6815 89.06 69.9784 85.4919 63.7714 85.2607C57.0513 85.0103 50.7024 88.6873 45.9886 93.4805C47.6627 89.7858 47.3167 85.2483 45.1016 81.8498C42.8865 78.4514 38.8736 76.301 34.8154 76.338C33.786 76.3474 32.7011 76.4676 31.6134 76.5882C28.5085 76.9323 25.3812 77.2789 23.4605 75.0563C22.1039 73.4865 22.0784 71.3587 22.0527 69.211C22.0409 68.2182 22.0289 67.221 21.8854 66.2729C21.3281 62.5918 18.5471 59.4508 15.1225 57.9854C11.6979 56.5199 7.73648 56.6053 4.18377 57.7254C3.11032 58.0638 2.01617 58.5284 1.31738 59.4103C-0.27148 61.4155 0.994469 64.5076 2.98922 66.1101C4.03906 66.9535 5.24578 67.5605 6.45346 68.168C7.54045 68.7147 8.62822 69.2619 9.60309 69.9821C11.6611 71.5027 13.1655 74.4137 11.8313 76.5965C9.83932 79.8554 12.9295 84.2421 16.6245 85.2151C19.6791 86.0195 22.8491 85.3304 25.9744 84.6511C26.6297 84.5086 27.2832 84.3666 27.9331 84.2389C31.6825 83.502 36.0383 83.4109 38.7981 86.0522C42.128 89.2392 41.4806 94.6269 40.582 99.1464C40.4735 99.6925 40.342 100.28 39.9233 100.647C39.5533 100.972 39.036 101.055 38.5486 101.124L19.9282 103.788C18.5035 103.992 18.0198 106.051 18.857 107.221C19.6942 108.391 21.2615 108.777 22.7 108.823C24.8995 108.892 27.0458 108.373 29.1961 107.852C30.2868 107.588 31.3786 107.324 32.4789 107.136C35.7484 106.578 39.5434 106.885 41.7206 109.386C45.2213 113.407 51.8653 114.195 56.2104 111.104C59.5684 117.108 65.4123 120.929 71.2822 124.767C76.5673 128.223 81.8735 131.693 85.4049 136.782C89.2976 142.391 90.5875 149.345 91.7839 156.066C93.1807 156.046 94.2179 154.286 93.5581 153.056L92.2456 154.786C91.7608 144.193 86.3475 133.928 77.8785 127.54C75.7812 125.958 73.4812 124.572 71.1862 123.188C66.1433 120.148 61.1243 117.122 58.332 112.072C58.0805 111.617 57.8464 111.135 57.8056 110.617C57.7541 109.962 58.0155 109.33 58.2678 108.72L58.3038 108.633C59.3104 106.192 60.0135 103.515 59.5191 100.922C59.0247 98.3289 57.0715 95.8771 54.4593 95.4869C58.8808 98.3133 59.7872 105.328 56.2292 109.184C52.6713 113.04 45.6022 112.705 42.4256 108.53C39.8796 105.183 34.7888 105.593 30.691 106.542C26.5932 107.491 21.7676 108.484 18.6021 105.716C25.3745 103.855 32.3435 102.709 39.3555 102.304C41.0259 102.207 41.6812 100.124 41.9062 98.4674C42.252 95.9201 42.5979 93.3319 42.219 90.7893C41.8401 88.2467 40.6308 85.7104 38.472 84.3129C35.8795 82.6347 32.5328 82.8948 29.4607 83.2161L21.2969 84.0697C19.5378 84.2537 17.7301 84.434 16.0245 83.9659C14.319 83.4978 12.7143 82.227 12.3873 80.4898C12.1808 79.3927 12.495 78.3123 12.8119 77.2231C13.04 76.439 13.2694 75.6503 13.3068 74.8475C13.4133 72.5615 11.9357 70.4669 10.1402 69.0467C9.0401 68.1766 7.81429 67.4919 6.58733 66.8066C5.81171 66.3733 5.03563 65.9399 4.29057 65.4591C2.88812 64.5542 1.44916 63.0921 1.83911 61.4699C2.08848 60.4325 3.02782 59.7134 3.9722 59.2159C7.16073 57.5361 11.1462 57.4606 14.3961 59.0184C17.6461 60.5761 20.082 63.7295 20.7672 67.266C20.9362 68.1384 21.013 69.0496 21.0897 69.959C21.267 72.0625 21.4435 74.1561 22.7586 75.7365C24.3295 77.6243 27.0443 78.0999 29.4983 77.983C30.3397 77.9429 31.181 77.8487 32.0216 77.7546C33.6328 77.5743 35.2413 77.3942 36.8431 77.5959C42.2293 78.2738 46.4729 83.8745 45.6656 89.2396C45.621 89.5363 45.5635 89.8356 45.5058 90.1358C45.3003 91.2061 45.0928 92.2867 45.4586 93.2919C45.927 94.5791 47.9757 95.2646 48.6248 94.0583C51.5335 88.653 58.2046 85.9297 64.3039 86.6436C70.4033 87.3575 75.8618 91.0279 79.8662 95.681C83.8706 100.334 86.5947 105.933 89.0791 111.546C89.9542 113.523 92.5595 114.239 94.6409 113.651C96.7224 113.063 98.3741 111.508 99.8677 109.944Z" fill="#00160A"/>
  <path d="M88.9375 119.364C88.9967 119.356 89.1339 119.625 89.3408 120.029C89.8499 121.025 90.7809 122.847 92.0085 123.401C91.9539 123.917 91.1418 123.64 90.8041 123.246C89.8442 122.125 88.8256 120.836 88.9375 119.364Z" fill="#00160A"/>
  <path d="M91.8353 128.212C92.4688 129.14 88.6741 129.602 87.4127 128.792C87.6348 128.749 87.9275 128.772 88.2516 128.797C88.6361 128.827 89.0647 128.86 89.4719 128.792C90.0684 128.692 90.6443 128.509 91.0789 128.37C91.5006 128.236 91.7895 128.145 91.8353 128.212Z" fill="#00160A"/>
  <path d="M90.9243 124.763C89.4137 125.022 87.5579 123.011 87.5579 121.12C87.9932 122.518 89.54 123.627 90.3947 124.24C90.8296 124.552 91.0853 124.736 90.9243 124.763Z" fill="#00160A"/>
  <path d="M96.3365 132.671C94.3245 132.671 93.4125 129.28 94.3245 129.063C94.5428 128.964 94.553 129.267 94.5682 129.716C94.5841 130.187 94.6055 130.819 94.8797 131.311C95.1844 131.857 95.8296 132.222 96.2062 132.435C96.491 132.597 96.6222 132.671 96.3365 132.671Z" fill="#00160A"/>
  <path d="M98.5778 128.054C99.0195 128.297 99.4226 128.674 99.5369 129.165C99.6512 129.656 99.3766 130.251 98.8828 130.353C98.7282 130.126 98.812 129.982 98.9004 129.83C99.0303 129.606 99.17 129.365 98.5778 128.82C98.3285 128.59 98.0382 128.49 97.8346 128.42C97.6779 128.367 97.5725 128.33 97.5765 128.266C97.6021 127.858 98.2196 127.857 98.5778 128.054Z" fill="#00160A"/>
  <path d="M94.812 123.636C94.7124 123.705 94.6439 123.753 94.7027 123.807C94.8845 123.976 95.0984 124.057 95.3121 123.934C95.4752 123.841 95.5578 123.651 95.5962 123.467C95.8109 122.44 94.7255 121.379 93.7026 121.616C93.7933 121.855 93.9671 121.932 94.1781 122.025C94.4215 122.132 94.7145 122.261 94.9864 122.686C95.3531 123.26 95.0168 123.494 94.812 123.636Z" fill="#00160A"/>
  <path d="M94.4681 133.319C93.2834 132.975 92.1119 130.179 92.7426 129.967C93.1359 129.835 93.1337 129.856 93.1108 130.077C93.0898 130.28 93.0515 130.65 93.2834 131.224C93.5712 131.936 93.9744 132.515 94.2311 132.883C94.407 133.135 94.5141 133.289 94.4681 133.319Z" fill="#00160A"/>
  <path fill-rule="evenodd" clip-rule="evenodd" d="M365.807 69.8396C363.263 70.1518 361.259 72.2018 359.995 74.4295C359.384 75.5067 358.895 76.6466 358.405 77.7863C357.883 79.0036 357.361 80.2206 356.69 81.3607C353.49 86.8001 347.409 89.7733 341.582 92.2031C340.577 92.6221 338.817 92.425 339.131 91.383C348.671 89.5739 356.884 82.025 359.485 72.6749C359.791 71.5735 358.357 70.6438 357.251 70.9351C356.25 71.1986 355.538 72.0329 354.895 72.8607L354.694 73.1212C349.379 80.0288 341.751 85.8688 333.041 86.2458C332.424 86.2725 331.542 85.8966 331.813 85.3425C338.265 85.1264 344.346 81.9442 349.137 77.6202C353.927 73.2963 357.58 67.8767 360.997 62.4039C361.526 61.5574 362.795 61.7383 363.74 62.0604C366.64 63.0486 369.422 64.3817 372.008 66.0224C373.397 66.9032 372.297 69.2534 370.718 69.7142C369.811 69.979 368.864 69.9147 367.912 69.8502C367.208 69.8024 366.501 69.7544 365.807 69.8396ZM363.329 64.4493L363.106 64.3819C362.428 64.1874 361.67 64.0795 361.124 64.5005C360.912 64.6637 360.76 64.8889 360.621 65.1188L358.806 68.1783C359.759 68.3987 360.672 68.7889 361.49 69.3251C362.158 69.7631 363.079 69.78 363.763 69.3666C364.446 68.9532 364.859 68.1305 364.781 67.3356C364.752 67.0391 365.238 66.9585 365.441 67.1766C365.593 67.3395 365.638 67.563 365.683 67.7857C365.699 67.8611 365.714 67.9364 365.733 68.0093C365.81 68.2972 366.045 68.6073 366.337 68.5481C366.633 68.2668 366.795 67.85 366.767 67.4426C366.873 67.0222 367.529 67.397 367.631 67.8185C367.732 68.24 367.923 68.8394 368.342 68.7268C368.957 68.5747 369.151 67.7176 368.851 67.159C368.551 66.6005 367.947 66.2847 367.372 66.0182C366.059 65.4104 364.708 64.8861 363.329 64.4493ZM357.811 69.4233C358.759 70.3766 360.138 70.8839 361.478 70.772C360.657 69.7383 359.259 69.1982 357.956 69.3981L357.811 69.4233Z" fill="#00160A"/>
  <path d="M289.944 164.374C285.383 165.663 280.23 164.646 276.502 161.721C273.126 163.489 269.637 165.203 265.867 165.757C262.096 166.31 257.945 165.533 255.219 162.871C255.67 163.847 256.129 164.859 256.143 165.933C256.157 167.007 255.601 168.166 254.583 168.511C252.903 169.08 251.436 167.285 250.564 165.742C250.086 166.93 250.579 168.268 251.058 169.568C251.604 171.051 252.132 172.487 251.183 173.598C250.194 174.754 248.318 174.458 246.957 173.776C241.859 171.22 239.464 164.788 240.568 159.195C241.672 153.603 245.696 148.92 250.487 145.828C247.234 143.445 244.855 139.897 243.885 135.985C244.548 136.839 245.039 137.832 245.53 138.825C246.022 139.817 246.513 140.81 247.176 141.665C247.804 142.476 248.604 143.148 249.404 143.821C250.204 144.493 251.004 145.166 251.633 145.977C251.793 146.184 251.932 146.532 251.704 146.661C247.111 149.268 243.182 153.422 241.879 158.538C240.576 163.654 242.389 169.692 246.887 172.46C247.68 172.948 248.625 173.34 249.525 173.102C250.425 172.864 251.101 171.735 250.584 170.961C249.125 168.778 248.948 165.802 250.137 163.462L253.906 167.685C254.772 167.463 254.987 166.298 254.756 165.434C254.683 165.16 254.583 164.889 254.483 164.62C254.267 164.038 254.053 163.459 254.111 162.851C254.195 161.961 255.358 161.164 255.972 161.815C258.423 164.411 262.361 165.147 265.886 164.576C269.412 164.004 272.641 162.313 275.8 160.646L279.527 158.679C279.258 159.754 278.387 160.656 277.322 160.962C280.92 163.545 285.731 164.357 289.979 163.098C290.71 162.881 291.461 162.58 291.936 161.983C292.41 161.385 292.487 160.414 291.914 159.91C291.844 159.849 291.766 159.795 291.688 159.741C291.534 159.635 291.382 159.53 291.294 159.369C291.162 159.126 291.367 158.718 291.621 158.829C293.056 158.729 293.941 160.656 293.356 161.97C292.771 163.283 291.328 163.982 289.944 164.374Z" fill="#00160A"/>
  <path d="M264.477 145.307C263.658 145.044 262.738 145.609 262.382 146.392C262.026 147.175 262.127 148.096 262.396 148.913C262.482 147.991 262.599 147.296 262.948 146.691C263.099 146.429 263.565 146.183 263.974 145.966C264.504 145.686 264.939 145.456 264.477 145.307Z" fill="#00160A"/>
  <path d="M263.782 142.992C264.978 142.694 266.328 143.154 267.093 144.119C267.858 145.085 267.996 146.504 267.432 147.598C267.296 147.435 267.264 147.138 267.224 146.767C267.106 145.668 266.916 143.913 263.782 142.992Z" fill="#00160A"/>
  <path d="M262.746 151.478C262.367 151.95 263.685 153.197 265.745 152.337C266.127 152.178 265.815 152.16 265.324 152.131C264.877 152.105 264.28 152.07 263.924 151.911C263.623 151.777 263.468 151.562 263.353 151.4C263.182 151.162 263.096 151.042 262.746 151.478Z" fill="#00160A"/>
  <path d="M266.921 153.057C268.241 152.399 267.413 154.327 264.65 154.091C264.401 154.069 264.076 153.973 264.078 153.722C264.079 153.634 264.313 153.614 264.676 153.582C265.24 153.533 266.117 153.457 266.921 153.057Z" fill="#00160A"/>
  <path d="M258.774 149.398C259.271 149.883 259.994 149.896 260.477 149.803C260.771 149.746 260.915 149.483 260.645 149.398C260.582 149.378 260.478 149.362 260.352 149.342C260.066 149.297 259.669 149.234 259.403 149.074C259.232 148.971 259.135 148.62 259.052 148.319C258.966 148.009 258.895 147.752 258.774 147.873C258.535 148.11 258.277 148.913 258.774 149.398Z" fill="#00160A"/>
  <path d="M259.214 151.039C259.455 151.405 258.539 151.279 258.342 151.039C258.145 150.799 257.951 149.896 258.281 149.896C258.376 149.896 258.409 150.038 258.448 150.209C258.485 150.366 258.526 150.547 258.628 150.663C258.826 150.887 258.958 150.92 259.056 150.944C259.122 150.961 259.171 150.973 259.214 151.039Z" fill="#00160A"/>
  <path fill-rule="evenodd" clip-rule="evenodd" d="M300.424 149.222C300.918 150.208 300.053 151.314 299.22 152.037C295.833 154.977 291.785 157.15 287.463 158.352C292.12 158.383 296.758 156.391 299.939 152.991C301.42 151.409 302.367 148.439 300.456 147.416C302.723 146.665 305.408 145.098 305.061 142.736C304.938 141.892 304.422 141.166 303.921 140.475L303.623 140.067C300.529 135.841 296.744 131.372 291.556 131.057C294.542 129.383 298.099 131.761 300.732 133.95L301.503 134.588C304.989 137.451 308.636 140.176 312.769 141.966C317.209 143.889 322.315 144.657 326.92 143.174L339.81 139.023C342.297 138.201 345.227 136.655 345.001 134.072C344.876 132.65 343.577 131.426 342.149 131.387C340.72 131.347 339.356 132.496 339.152 133.91L338.872 131.712C338.181 131.122 337.078 131.628 336.523 132.347C336.312 132.619 336.137 132.92 335.962 133.219C335.674 133.712 335.388 134.202 334.951 134.56C333.43 135.804 331.408 134.782 329.593 133.707L328.461 133.031C325.235 131.137 321.412 130.847 317.637 130.561C316.821 130.499 316.008 130.437 315.204 130.359C309.941 129.851 304.754 128.57 299.86 126.569C304.348 130.247 310.212 130.865 316.127 131.488C319.107 131.802 322.101 132.117 324.938 132.826C327.188 133.388 329.676 134.534 330.228 136.786C331.03 140.055 327.144 142.588 323.789 142.894C318.304 143.394 312.958 141.062 308.3 138.087L307.776 137.747C306.09 136.641 304.457 135.452 302.824 134.263L302.823 134.262C299.827 132.08 296.833 129.9 293.526 128.243C296.942 128.415 299.437 125.942 301.985 123.417C303.36 122.056 304.75 120.678 306.308 119.692C310.889 116.793 316.737 117.453 322.127 118.384L322.974 118.533C321.706 112.396 318.61 106.649 314.181 102.212L321.791 117.165C313.778 114.497 304.169 117.831 299.534 124.886C303.112 112.821 311.623 102.296 322.676 96.2677C326.238 97.5993 329.246 99.9755 332.25 102.348L332.25 102.348C333.219 103.114 334.188 103.879 335.175 104.608C339.219 107.598 344.137 110.131 349.087 109.242C352.647 108.602 355.643 106.288 358.303 103.814L358.732 103.411C361.9 100.409 364.845 97.1714 367.535 93.7342C370.478 89.9729 374.096 85.5072 378.84 86.0678C379.678 86.1668 380.493 86.428 381.304 86.6882C382.426 87.0479 383.542 87.4058 384.706 87.3309C386.711 87.202 388.554 84.5111 386.98 83.2625L378.901 76.8532C378.111 76.2269 377.2 75.5642 376.2 75.6939C375.49 75.7861 374.899 76.2651 374.35 76.7251L372.535 78.2478C368.305 81.8084 364.126 85.4435 360.456 89.5724C360.218 89.84 359.979 90.1115 359.738 90.3848C356.763 93.7636 353.534 97.4303 349.114 97.6945C344.803 97.9523 341.18 94.8417 337.868 91.9988C337.702 91.856 337.536 91.7138 337.371 91.5728L336.754 91.0501C333.243 88.1048 329.488 85.4492 325.54 83.1194C322.051 81.0602 318.182 79.2053 314.14 79.4865C309.41 79.8155 305.421 82.9759 302.004 86.2966L301.488 86.8035C299.812 88.4494 297.807 90.2276 295.502 89.8761L295.318 89.8517C292.996 89.5873 290.818 91.0275 289.068 92.6394L288.795 92.8952C284.219 97.2586 280.848 102.872 279.147 108.96C269.164 106.289 258.218 107.391 248.968 111.998C246.637 113.159 244.365 114.574 242.743 116.61C240.426 119.517 239.747 123.203 239.061 126.922L239.061 126.922C238.561 129.635 238.058 132.365 236.913 134.823C236.574 135.551 236.177 136.261 235.78 136.971C234.85 138.633 233.922 140.292 233.751 142.165C233.507 144.837 236.004 147.938 238.48 146.9C240.959 146.509 242.272 143.016 240.661 141.091C241.665 141.81 243.063 141.933 244.177 141.401L241.59 136.627C245.955 134.305 249.828 131.066 252.885 127.182C254.135 125.594 256.459 125.192 258.421 125.68C260.103 126.098 261.586 127.046 263.007 128.055L263.713 128.562C262.89 129.16 263.364 130.75 264.38 130.801C263.725 128.133 266.395 125.33 269.132 125.59C271.869 125.849 273.942 128.759 273.584 131.483C272.139 135.061 268.562 137.103 265.026 139.123C261.189 141.314 257.397 143.478 256.425 147.551C255.445 151.653 258.611 156.248 262.796 156.797C266.98 157.345 271.225 153.722 271.337 149.505C271.337 149.505 271.956 149.569 272.175 148.913C272.521 147.879 272.848 146.733 273.172 145.598C273.781 143.463 274.38 141.365 275.072 140.111C277.012 136.596 280.624 133.813 284.639 133.716C285.914 133.686 287.181 133.497 288.447 133.308C290.064 133.067 291.679 132.826 293.306 132.915C296.207 133.075 299.387 134.773 299.806 137.646C296.588 137.022 293.232 137.127 290.06 137.952L301.288 139.287C303.754 139.58 304.216 143.395 302.458 145.148C300.801 146.801 298.277 147.073 295.914 147.178L295.486 147.196C295.899 148.038 296.926 148.125 297.954 148.212C298.979 148.299 300.005 148.386 300.424 149.222ZM360.152 100.186C356.671 104.049 352.601 108.2 347.404 108.394C342.859 108.563 338.883 105.636 335.205 102.928L334.934 102.728L334.056 102.087C329.947 99.1086 325.692 96.3324 321.31 93.772C317.918 91.7892 314.015 89.8739 310.21 90.8574L316.234 92.7522C315.218 93.2967 314.856 94.7784 315.507 95.7295C315.646 94.3055 317.294 93.4001 318.709 93.6227C320.123 93.8453 321.273 94.8829 322.149 96.0146C314.555 98.9251 308.093 104.687 304.338 111.897C303.639 113.239 303.032 114.626 302.424 116.012C301.601 117.892 300.779 119.77 299.731 121.531C297.91 124.592 295.213 127.376 291.744 128.187C291.258 128.301 290.76 128.375 290.262 128.45C289.265 128.599 288.271 128.748 287.384 129.21C287.306 129.25 287.226 129.292 287.145 129.336L287.075 129.373C286.033 129.929 284.749 130.614 284.107 129.71C283.055 128.23 281.379 127.208 279.58 126.952C282.554 116.966 290.205 108.481 299.834 104.489C300.379 104.263 300.171 103.448 299.873 102.939L295.493 95.4487C295.089 94.7569 295.562 93.8161 296.275 93.4491C296.987 93.0821 297.837 93.1372 298.633 93.2362C303.699 93.8668 308.577 95.9444 312.541 99.1601C313.175 99.6745 314.214 100.18 314.678 99.5078C310.156 94.95 303.687 92.8369 297.322 91.9852C302.824 91.4478 308.514 93.1795 312.783 96.6907L312.991 96.8607C314.011 97.6882 315.245 98.5676 316.421 98.0603C311.654 93.4904 305.135 90.7932 298.531 90.6583C299.89 89.6482 301.159 88.5255 302.428 87.4027L302.428 87.4021C303.718 86.2616 305.007 85.1209 306.39 84.0986C309.136 82.0698 312.417 80.4857 315.826 80.6847C318.301 80.8291 320.621 81.8963 322.811 83.0581C327.439 85.514 331.797 88.4784 335.78 91.8807C336.055 92.1156 336.332 92.354 336.611 92.594L336.632 92.612C340.418 95.8728 344.549 99.4301 349.442 98.9706C352.426 98.6904 355.07 96.8888 357.17 94.7517C358.332 93.5694 359.368 92.2746 360.405 90.9794L360.405 90.9785C361.242 89.9329 362.079 88.887 362.982 87.8999C364.286 86.4757 365.796 85.1365 367.649 84.5928C369.502 84.049 371.76 84.4992 372.861 86.0852L360.152 100.186ZM240.226 126.64C240.897 122.969 241.561 119.34 244.043 116.668C245.258 115.36 246.813 114.417 248.396 113.59C256.494 109.357 265.938 107.746 274.982 109.054C277.195 109.374 279.937 110.615 279.902 112.715C279.888 112.844 279.876 112.972 279.865 113.101C279.887 112.969 279.899 112.841 279.902 112.715C280.803 103.934 285.921 95.6726 293.398 90.968C294.061 95.5891 296.087 100.006 299.157 103.525C291.021 106.95 284.266 113.535 280.637 121.578L280.58 121.705C279.549 123.959 277.914 126.728 275.527 126.166L276.709 118.869C276.818 118.2 276.918 117.476 276.6 116.877C276.246 116.208 275.488 115.9 274.749 115.677L274.49 115.602C270.212 114.392 265.413 113.229 261.506 115.35C259.439 116.472 257.955 118.353 256.568 120.283L255.538 121.729C253.093 125.141 250.356 128.343 247.366 131.289C246.161 132.476 244.859 133.655 243.247 134.166C241.635 134.677 239.632 134.333 238.675 132.94C239.438 130.948 239.834 128.787 240.226 126.64ZM266.592 155.074C264.051 156.016 261.985 155.552 260.002 154.398C259.154 153.904 258.355 153.269 257.877 152.411C257.16 151.126 257.268 149.53 257.681 148.118C258.299 146.007 259.563 144.089 261.26 142.689C262.434 141.72 263.785 141.01 265.136 140.299L265.136 140.299C265.602 140.054 266.068 139.809 266.527 139.553C271.007 137.055 274.872 133.464 277.69 129.179C278.253 128.324 279.438 128.047 280.431 128.299C281.423 128.552 282.25 129.231 282.966 129.963C283.478 130.487 283.857 131.529 283.174 131.793C278.39 133.644 274.538 137.752 272.999 142.642C272.956 142.776 272.916 142.911 272.875 143.046C272.641 143.819 272.404 144.602 271.902 145.228C271.313 145.963 270.129 148.552 270.733 149.779C270.733 149.779 269.132 154.133 266.592 155.074ZM273.229 116.333C274.004 116.506 274.848 116.756 275.273 117.427C275.621 117.976 275.599 118.674 275.544 119.321C275.329 121.883 274.79 124.418 273.944 126.846C273.801 127.256 273.361 127.75 273.039 127.457C272.674 125.619 270.994 124.125 269.124 123.976C267.255 123.828 265.36 125.039 264.709 126.796C264.581 127.143 264.13 127.272 263.773 127.177C263.504 127.105 263.275 126.943 263.056 126.768L262.84 126.592C260.613 124.784 257.599 123.981 254.767 124.442C256.276 121.904 258.19 119.608 260.414 117.667C261.324 116.872 262.312 116.123 263.461 115.751C264.543 115.4 265.706 115.403 266.842 115.461C268.99 115.57 271.129 115.862 273.229 116.333ZM374.768 84.0423C373.685 82.8891 372.201 82.1175 370.634 81.8982L372.412 79.6408C372.977 78.9332 373.635 78.2072 374.525 78.0955C375.166 78.015 375.797 78.278 376.381 78.556C378.334 79.4862 380.175 80.6514 381.852 82.0183C382.411 82.4745 382.974 82.9836 383.217 83.6631C383.461 84.3426 383.265 85.232 382.613 85.5428C381.961 85.8536 381.023 85.1729 381.29 84.5025L381.316 84.4273C381.425 84.0461 381.252 83.5958 380.908 83.3952L380.278 84.6016C380.22 84.707 380.153 84.8091 380.049 84.8664C379.629 85.0985 379.287 84.4458 379.26 83.9667L379.255 83.9003C379.21 83.4286 378.962 82.8269 378.528 82.9738C378.47 83.7819 377.892 84.5284 377.123 84.7873C376.355 85.0463 375.443 84.8024 374.906 84.1949L374.768 84.0423ZM239.178 143.591L238.418 140.709C238.057 140.608 237.704 140.97 237.653 141.341C237.619 141.589 237.674 141.834 237.748 142.075L237.865 142.435C238.256 143.658 238.246 145.005 237.838 146.223C237.084 144.682 236.691 142.966 236.698 141.251C236.207 140.981 235.873 141.803 235.908 142.362L236.12 145.698C235.09 144.77 234.727 143.265 234.903 141.89C235.079 140.516 235.725 139.246 236.451 138.066C236.83 137.449 237.25 136.832 237.853 136.432C238.456 136.031 239.286 135.894 239.902 136.274C240.413 136.59 240.651 137.151 240.892 137.72C241.074 138.15 241.258 138.584 241.563 138.92C241.672 139.04 241.798 139.162 241.927 139.286C242.425 139.765 242.956 140.278 242.608 140.794C241.536 140.137 240.556 139.331 239.704 138.406C239.396 140.316 239.678 142.316 240.503 144.066C240.672 144.424 240.114 144.766 239.764 144.582C239.413 144.399 239.279 143.973 239.178 143.591ZM342.108 134.163C342.657 133.678 343.158 133.234 343.401 133.355C344.109 133.708 342.187 135.257 341.169 135.695C341.243 136.186 341.956 135.966 342.372 135.695C342.789 135.424 343.955 135.133 343.727 135.427C342.304 137.266 339.559 138.727 337.02 139.013C335.991 139.128 334.719 138.854 334.391 137.872C334.092 136.977 334.758 136.093 335.462 135.427L335.631 135.272C335.927 135.007 336.402 134.749 336.675 135.038C337.401 135.805 338.669 135.177 339.504 134.532C339.504 134.532 341.676 132.438 342.04 132.572C342.402 132.705 340.956 135.066 340.956 135.066C341.314 134.865 341.723 134.504 342.108 134.163ZM331.713 136.107C331.973 136.048 332.244 136.152 332.468 136.296C333.284 136.82 333.674 137.924 333.367 138.843C333.061 139.763 332.087 140.412 331.119 140.342C330.982 140.332 330.839 140.306 330.731 140.22C330.505 140.039 330.534 139.694 330.584 139.409L330.948 137.327C331.036 136.824 331.215 136.22 331.713 136.107ZM285.718 131.378C287.117 131.142 288.565 131.2 289.941 131.547C289.861 132.114 289.199 132.371 288.638 132.487C286.906 132.845 285.117 132.922 283.362 132.715C283.802 131.889 284.795 131.534 285.718 131.378ZM373.422 85.2009L369.75 83.0341C371.559 82.764 373.488 83.7136 374.377 85.3113C374.122 85.5434 373.719 85.3761 373.422 85.2009ZM292.971 128.658C291.414 129.07 289.876 129.548 288.36 130.092C289.934 130.962 292.169 130.267 292.971 128.658ZM277.757 126.691C278.185 126.779 277.991 127.453 277.649 127.726C276.609 128.556 275.028 128.628 273.917 127.895L277.757 126.691ZM375.458 76.4293C375.71 76.3696 375.969 76.4715 376.205 76.578C377.739 77.27 379.143 78.246 380.326 79.4417L375.05 76.7494C375.131 76.5906 375.284 76.4704 375.458 76.4293ZM295.077 90.9747L295.129 91.0111C295.605 90.9426 296.096 90.9829 296.555 91.1279C296.154 91.8839 295.598 92.5565 294.929 93.0909C294.595 92.4282 294.654 91.5847 295.077 90.9747ZM385.36 83.5766L385.371 83.6099C385.954 83.8466 386.35 84.4785 386.31 85.1061C385.109 84.4837 384.137 83.4309 383.613 82.1846C384.331 82.4328 384.958 82.9329 385.36 83.5766ZM276.12 129.599L276.032 129.718C275.728 130.131 275.366 130.579 274.856 130.638C274.346 130.698 273.824 130.039 274.183 129.673C274.787 129.402 275.497 129.375 276.12 129.599ZM240.011 134.715C240.466 134.821 240.98 135.152 240.908 135.614C239.866 135.478 238.838 135.237 237.844 134.896C238.524 134.612 239.294 134.548 240.011 134.715ZM336.775 134.626C336.539 134.729 336.324 134.297 336.549 134.171C336.549 134.171 338.103 131.448 338.17 133.355C338.203 133.83 337.199 134.41 336.775 134.626ZM271.128 148.608C271.243 147.781 271.461 146.223 271.902 146.223C272.528 146.157 272.287 147.222 272.118 147.973C272.071 148.18 272.03 148.363 272.013 148.492C271.956 148.943 271.535 149.297 271.052 149.08C271.071 149.014 271.095 148.84 271.128 148.609L271.128 148.608Z" fill="#00160A"/>
  <path fill-rule="evenodd" clip-rule="evenodd" d="M125.502 177.182C128.689 177.457 131.889 177.588 135.088 177.576C134.86 180.582 137.306 183.542 140.303 183.887C143.299 184.233 146.355 181.907 146.819 178.928C147.005 177.731 148.625 177.523 149.832 177.617L157.52 178.215C158.838 178.318 160.703 177.903 160.561 176.59L159.69 168.544C159.611 167.818 159.865 166.76 160.581 166.904C163.632 167.516 166.966 165.178 167.384 162.096C167.802 159.014 165.165 155.855 162.054 155.758C160.56 155.711 159.849 153.757 160.236 152.314C160.445 151.538 160.841 150.835 161.238 150.131C161.579 149.526 161.921 148.921 162.144 148.267C162.627 146.852 162.222 144.881 160.766 144.54C149.709 141.949 138.101 141.729 126.954 143.899L126.75 143.939C126.136 144.063 125.522 144.215 124.992 144.543C123.251 145.62 123.117 147.996 123.202 150.09L123.259 151.255C123.564 158.011 123.032 164.805 121.678 171.432L121.647 171.582C121.344 173.092 121.098 174.818 122.107 175.963C122.855 176.811 124.052 177.039 125.193 177.153L125.502 177.182ZM145.114 178.802C145.203 179.237 145.091 179.69 144.916 180.099L144.86 180.223C143.832 182.393 140.769 183.324 138.717 182.055C136.626 180.761 136.113 177.511 137.705 175.637C133.661 176.121 129.563 176.152 125.513 175.731C124.259 175.601 122.62 174.925 122.877 173.691C124.64 165.21 125.19 156.478 124.507 147.843C124.383 146.278 126.31 145.466 127.855 145.183C137.823 143.354 148.138 143.429 158.078 145.404C159.35 145.657 160.987 146.623 160.423 147.79C159.097 150.537 158.566 153.663 158.913 156.694C159.001 157.467 159.607 158.479 160.282 158.091C162.1 157.048 164.731 157.884 165.612 159.786C166.492 161.688 165.427 164.234 163.454 164.943C161.481 165.652 159.037 164.368 158.503 162.342C158.027 166.515 158.197 170.762 159.005 174.884C159.286 176.313 157.204 176.852 155.751 176.744L144.153 175.88C143.798 176.44 144.162 177.018 144.545 177.626C144.784 178.006 145.031 178.397 145.114 178.802Z" fill="#00160A"/>
  <path fill-rule="evenodd" clip-rule="evenodd" d="M205.127 152.608L227.843 153.064L228.214 153.073C228.897 153.095 229.584 153.155 230.198 153.441C231.587 154.089 232.224 155.686 232.646 157.158C234.9 165.016 234.622 173.579 231.862 181.275L231.746 181.59C231.387 182.537 230.917 183.481 230.069 184.014C229.371 184.452 228.52 184.544 227.692 184.588L227.515 184.597C224.137 184.757 220.748 184.671 217.382 184.339C219.135 183.26 219.578 180.635 218.465 178.905C217.352 177.175 215 176.452 213.021 177.014C211.814 177.357 210.69 178.181 210.253 179.356C209.816 180.532 210.238 182.041 211.354 182.615C212.125 183.012 211.992 184.262 211.317 184.806C210.642 185.351 209.703 185.389 208.835 185.403L197.438 185.588C196.581 185.602 195.68 185.606 194.928 185.196C193.862 184.614 193.371 183.361 193.071 182.185C192.346 179.346 192.248 176.349 192.786 173.469C193.434 175.743 196.238 177.124 198.438 176.252C200.637 175.38 201.732 172.453 200.643 170.353C199.554 168.253 196.53 167.459 194.549 168.752L194.467 168.018C194.182 165.446 193.961 162.84 194.456 160.306C194.997 157.531 196.541 154.806 199.073 153.545C200.92 152.626 203.052 152.575 205.127 152.608ZM229.924 154.983C229.355 154.641 228.67 154.582 228.003 154.554L227.836 154.547C220.77 154.283 213.699 154.15 206.627 154.147L204.27 154.151C202.779 154.156 201.239 154.177 199.875 154.778C197.838 155.674 196.519 157.752 195.98 159.91C195.442 162.068 195.571 164.329 195.703 166.549C199.284 165.563 203.136 169.199 202.711 172.887C202.286 176.574 198.196 179.237 194.551 178.526C194.385 179.691 194.223 180.9 194.565 182.026C194.907 183.152 195.907 184.17 197.084 184.132L207.65 183.793C208.305 183.772 209.209 183.434 209.019 182.807C207.939 179.253 211.054 175.103 214.771 175.145C218.488 175.187 221.509 179.406 220.349 182.935C222.672 183.458 225.086 183.568 227.447 183.258C228.213 183.158 229.013 182.995 229.601 182.493C230.178 181.998 230.461 181.251 230.702 180.531C233.154 173.187 233.423 165.13 231.465 157.639C231.212 156.671 230.861 155.629 230.049 155.064L229.924 154.983Z" fill="#00160A"/>
  <path fill-rule="evenodd" clip-rule="evenodd" d="M129.664 224.917C128.539 217.601 128.541 210.113 129.669 202.797L129.726 202.443C130.006 200.783 130.497 199.03 131.885 198.115C132.924 197.431 134.237 197.379 135.489 197.379L145.072 197.405C145.508 197.406 145.986 197.423 146.314 197.71C146.642 197.997 146.633 198.657 146.213 198.774C145.209 199.052 144.632 200.209 144.754 201.243C144.876 202.276 145.548 203.171 146.338 203.85C148.222 205.468 151.15 206.043 153.235 204.694C155.32 203.345 155.811 199.869 153.835 198.364C158.311 198.273 162.79 198.287 167.266 198.406L168.944 198.456C169.487 198.473 170.087 198.516 170.466 198.905C170.75 199.196 170.844 199.62 170.908 200.022C171.403 203.119 170.861 206.372 169.389 209.141C169.154 209.582 168.611 210.069 168.241 209.733C166.668 208.306 164.023 208.5 162.414 209.886C160.805 211.271 160.183 213.572 160.467 215.676C160.741 217.701 162.217 219.863 164.259 219.761C164.835 219.732 165.433 219.534 166.02 219.34C167.074 218.99 168.09 218.653 168.871 219.331L166.824 228.473C166.46 230.097 165.807 232.023 164.179 232.371C154.778 234.381 144.922 234.229 135.588 231.931L135.135 231.816C134.002 231.52 132.874 231.137 131.99 230.381C130.452 229.065 129.972 226.917 129.664 224.917ZM167.056 220.966C164.397 222.216 160.932 221.143 159.268 218.722C157.604 216.302 157.767 212.843 159.474 210.452C161.182 208.062 164.252 206.792 167.18 207.042L167.424 207.063C167.835 207.098 168.255 207.113 168.604 206.908C169.045 206.648 169.233 206.115 169.355 205.619C169.844 203.639 169.817 201.534 169.278 199.567L156.888 199.657C157.114 203.094 154.283 206.448 150.855 206.805C147.427 207.162 143.965 204.463 143.477 201.054L143.409 200.547C143.335 200.035 143.221 199.53 142.838 199.205C142.57 198.977 142.217 198.887 141.869 198.818L141.739 198.793C138.134 198.112 133.564 197.829 131.672 200.971C131.028 202.04 130.855 203.32 130.724 204.562C129.971 211.689 130.15 218.915 131.255 225.997L131.309 226.328C131.489 227.382 131.77 228.464 132.555 229.172C133.094 229.658 133.803 229.899 134.505 230.097L134.681 230.146C143.67 232.616 153.24 232.946 162.379 231.105L162.886 231.001C163.336 230.906 163.803 230.797 164.156 230.504C164.616 230.121 164.793 229.505 164.946 228.927L167.056 220.966Z" fill="#00160A"/>
  <path fill-rule="evenodd" clip-rule="evenodd" d="M233.916 239.079C233.916 239.079 233.967 237.654 234.147 237.186C234.472 236.341 235.43 235.139 235.43 235.139C235.363 235.464 235.27 235.813 235.174 236.172C234.844 237.403 234.48 238.763 235.033 239.769C235.46 240.545 241.702 244.633 243.847 245.591C253.022 249.689 262.242 253.397 271.505 257.122L271.506 257.122L271.507 257.123L271.512 257.125C275.298 258.647 279.092 260.173 282.892 261.729C276.362 260.934 270.349 257.895 264.49 254.905C263.225 261.916 267.135 268.984 272.409 273.777C276.25 277.268 280.771 279.855 285.291 282.442L285.291 282.442C286.978 283.408 288.666 284.373 290.317 285.386L290.924 285.762C296.784 289.428 302.389 294.056 304.976 300.439C305.451 301.61 306.908 302.276 308.105 301.87C309.302 301.464 310.052 300.049 309.715 298.831C310.967 299.859 310.245 302.155 308.727 302.723C307.209 303.291 305.469 302.52 304.349 301.35C303.505 300.468 302.916 299.391 302.327 298.315L302.326 298.313L302.325 298.31C302.133 297.96 301.941 297.609 301.741 297.266C298.124 291.068 291.733 287.218 285.394 283.695L282.418 282.049C275.538 278.21 268.489 273.598 265.543 266.33C254.845 268.026 243.71 266.876 233.586 263.028C231.421 262.206 229.3 261.262 227.181 260.319C223.805 258.816 220.431 257.315 216.882 256.304C214.905 255.741 212.179 255.681 211.439 257.598C211.439 257.597 211.438 257.599 211.436 257.602C211.414 257.64 211.273 257.886 210.643 257.94C210.347 257.966 210.075 257.447 209.991 257.104C209.919 257.008 209.894 256.736 209.894 256.179C209.894 255.878 210.507 254.565 211.659 253.753C212.461 253.188 213.363 252.983 213.836 252.876C214.049 252.828 214.174 252.799 214.164 252.766C214.14 252.691 213.32 252.478 212.575 252.839C212 253.118 211.456 253.486 210.956 253.825C210.182 254.348 209.513 254.8 208.998 254.741C208.302 254.66 207.807 254.335 207.8 253.635C207.792 252.934 207.978 252.082 208.519 251.642C209.675 250.701 211.167 250.182 212.658 250.204C212.98 250.208 213.337 250.254 213.547 250.498C213.757 250.742 213.653 251.229 213.332 251.243C211.399 251.33 209.166 251.653 208.413 253.635C208.194 254.211 209.577 254.304 210.112 253.996C210.422 253.818 210.689 253.578 210.956 253.338C211.149 253.164 211.342 252.99 211.552 252.839C212.18 252.388 212.96 252.151 213.734 252.179C214.046 252.19 214.389 252.262 214.573 252.514C214.757 252.766 214.627 253.223 214.315 253.228C212.312 253.261 210.483 254.996 210.346 256.993C210.354 257.065 210.409 257.395 210.643 257.474C210.915 257.565 211.216 257.343 211.228 257.321C212.271 255.46 214.176 254.216 216.222 254.839C216.996 255.075 217.741 255.433 218.482 255.79C219.779 256.414 221.066 257.034 222.48 256.981L221.631 252.484C218.191 249.332 213.006 248.221 208.575 249.686C208.101 249.843 207.588 250.07 207.395 250.53C207.201 250.991 207.626 251.659 208.092 251.481C207.359 252.159 206.119 251.008 206.398 250.049C206.677 249.09 207.73 248.597 208.697 248.346C214.124 246.936 219.533 249.393 224.76 251.768C225.73 252.208 226.694 252.646 227.651 253.056C238.294 257.615 250.32 258.891 261.684 256.665C261.191 258.014 259.511 258.421 258.083 258.582C247.961 259.719 237.564 258.327 228.099 254.567C226.943 256.035 227.494 258.315 228.809 259.642C230.125 260.969 231.986 261.572 233.777 262.107C243.813 265.104 254.453 267.397 264.709 265.265L263.046 255.547L263.013 255.37C262.931 254.982 262.78 254.581 262.417 254.458L262.325 254.427C249.181 249.966 239.163 246.566 226.156 234.174C226.13 234.149 226.104 234.124 226.079 234.098C225.984 237.822 224.802 238.641 219.874 237.626C209.121 235.411 198.111 234.251 187.259 235.775C188.08 231.722 189.107 227.71 190.337 223.761C186.806 224.9 182.637 221.666 182.865 217.964C183.094 214.263 187.629 211.565 190.993 213.129C192.149 210.463 192.222 207.347 191.193 204.631C190.699 203.328 192.667 202.576 194.062 202.575L201.766 202.574C202.843 202.574 204.345 202.074 204.077 201.031C203.443 198.559 205.144 195.734 207.627 195.137C210.064 194.55 212.809 196.219 213.438 198.636L213.471 198.771C214.056 201.367 217.347 202.192 220.01 202.141L221.335 202.109C223.638 202.061 226.038 202.136 227.579 203.745C229.423 205.671 229.011 208.737 228.403 211.351L228.362 211.524C228.066 212.773 227.634 213.788 227.2 214.809C226.372 216.753 225.535 218.719 225.609 222.367C225.639 223.853 225.693 225.218 225.754 226.467C225.968 225.59 226.156 225.01 226.156 225.01C226.156 225.01 251.268 243.696 266.777 246.233C268.635 244.592 267.563 241.394 265.691 239.769C264.902 239.084 264.004 238.531 263.108 237.978C261.878 237.22 260.653 236.465 259.72 235.376C257.866 233.213 257.534 230.232 257.206 227.277C256.849 224.064 256.495 220.881 254.191 218.81C253.985 218.625 253.766 218.453 253.548 218.28L253.547 218.28C253.054 217.891 252.561 217.502 252.225 216.977C251.394 215.679 251.802 213.872 252.809 212.704C253.815 211.536 255.286 210.884 256.742 210.376C259.765 209.321 263.079 208.733 266.166 209.582C269.252 210.432 272.017 213.001 272.32 216.186C272.906 214.919 274.191 214.003 275.581 213.864L273.564 216.006L276.116 216.057L272.604 218.017C274.781 222.042 274.429 227.005 273.033 231.363C272.863 231.895 272.677 232.428 272.491 232.962L272.49 232.962L272.49 232.965C271.744 235.103 270.992 237.259 271.184 239.491C271.421 242.235 273.86 245.038 276.525 244.477L276.658 244.446C279.862 243.637 283.369 244.105 286.248 245.726C289.605 247.616 291.89 250.821 294.152 253.992C294.677 254.729 295.2 255.463 295.736 256.179C298.245 259.533 301.215 262.652 304.928 264.595C308.64 266.539 313.192 267.18 317.059 265.567C317.771 265.27 318.454 264.901 319.137 264.533C320.295 263.908 321.451 263.285 322.732 263.019C324.769 262.598 327.361 263.593 327.603 265.657C326.549 263.899 324.054 263.587 322.091 264.18C320.983 264.514 319.961 265.061 318.938 265.609L318.937 265.609C318.147 266.032 317.357 266.455 316.525 266.782C312.361 268.416 307.51 267.425 303.676 265.121C299.962 262.888 297.052 259.555 294.428 256.101L294.175 255.766C293.908 255.413 293.643 255.057 293.378 254.701L293.378 254.7L293.377 254.699L293.376 254.698L293.376 254.698L293.375 254.697L293.375 254.696L293.374 254.695L293.373 254.694C291.528 252.216 289.669 249.719 287.233 247.833C284.5 245.718 280.831 244.468 277.541 245.484L277.34 245.549C274.193 246.614 270.86 243.605 270.294 240.333C269.727 237.061 271.062 233.792 272.368 230.739C273.716 227.589 271.242 223.915 268.123 222.495C265.228 221.178 261.753 221.208 258.881 222.575C257.951 223.017 257.783 224.237 257.814 225.28L257.818 225.395C257.98 229.077 258.964 232.947 261.653 235.468C262.452 236.218 263.376 236.824 264.299 237.428C265.453 238.184 266.604 238.939 267.506 239.972C269.128 241.831 269.378 245.313 267.124 246.319C270.991 247.017 274.818 247.941 278.578 249.085C258.349 247.017 239.75 237.481 226.397 225.964C226.124 226.497 225.932 227.061 225.814 227.64C225.846 228.217 225.877 228.767 225.907 229.29C225.95 230.029 225.989 230.715 226.02 231.351C226.663 233.465 228.166 235.329 230.229 236.148C230.065 234.663 230.566 233.117 231.57 232.01C230.919 233.465 229.886 236.255 233.916 239.079ZM264.987 210.62C263.187 210.285 261.357 210.106 259.526 210.087C259.402 210.318 259.355 210.589 259.394 210.847C261.436 211.017 263.446 211.555 265.299 212.426C264.525 213.201 263.245 212.737 262.205 212.36L262.144 212.338C260.368 211.695 258.417 211.54 256.561 211.893C255.614 212.073 254.668 212.397 253.938 213.027C253.209 213.657 252.733 214.637 252.895 215.586C253.103 216.798 254.244 217.627 255.383 218.093C258.206 219.249 261.59 218.923 264.141 217.25C264.348 217.114 264.639 217.341 264.651 217.588C264.664 217.834 264.497 218.053 264.322 218.227C263.305 219.238 261.792 219.56 260.361 219.643C259.942 219.668 259.522 219.676 259.102 219.684C258.082 219.704 257.063 219.724 256.079 219.973C256.212 220.785 257.226 221.064 258.047 221.123C261.183 221.351 264.364 220.929 267.332 219.892C268.075 219.633 268.758 220.377 269.197 221.031L272.394 225.799C273.444 224.811 273.381 223.104 272.886 221.75C272.693 221.221 272.446 220.71 272.2 220.201C271.817 219.406 271.434 218.614 271.254 217.754C271.154 217.281 271.119 216.795 271.083 216.309C271.033 215.628 270.983 214.948 270.757 214.307C269.962 212.049 267.342 211.058 264.987 210.62ZM226.364 254.147L223.462 252.481C223.14 252.296 222.546 252.264 222.579 252.634C222.48 254.131 222.602 255.965 223.565 257.213C224.172 257.999 224.61 258.402 226.753 258.934L226.596 254.741C226.587 254.519 226.557 254.258 226.364 254.147ZM217.759 235.641C208.421 233.352 198.664 232.772 189.12 233.943C190.777 230.086 191.504 225.834 191.223 221.646C188.736 223.388 184.653 221.344 184.559 218.311C184.464 215.277 188.413 212.984 191.003 214.569C191.69 214.989 192.445 214.118 192.719 213.361C193.655 210.785 193.664 207.884 192.745 205.302C192.387 204.296 193.905 203.75 194.973 203.771L204.036 203.951C204.645 203.963 205.291 203.965 205.811 203.649C206.331 203.332 206.626 202.57 206.244 202.096C204.676 200.152 206.478 196.671 208.973 196.828C211.467 196.984 212.819 200.663 211.02 202.396C210.684 202.72 211.337 203.136 211.803 203.147L223.653 203.419C226.01 203.473 227.675 205.983 227.772 208.337C227.853 210.329 227.145 212.237 226.446 214.121C226.385 214.286 226.324 214.45 226.264 214.614L226.07 215.147C223.971 221.033 223.296 227.42 224.117 233.614C224.277 234.823 223.164 235.898 221.973 236.16C220.922 236.39 219.839 236.161 218.787 235.898L217.759 235.641Z" fill="#00160A"/>
  <path d="M270.556 231.338C270.909 231.133 271.134 230.769 271.344 230.419C271.72 229.795 272.107 229.132 272.123 228.404C272.14 227.675 271.636 226.879 270.907 226.851C270.544 226.836 270.199 227.009 269.903 227.219C269.246 227.684 268.738 228.357 268.473 229.117C268.809 229.601 269.568 229.169 269.906 228.687C270.244 228.205 270.744 227.596 271.281 227.837C270.927 229.066 270.299 230.216 269.458 231.18C269.683 231.52 270.203 231.542 270.556 231.338Z" fill="#00160A"/>
  <path d="M276.362 266.753C275.555 265.472 274.684 264.089 273.245 263.672C276.436 269.673 281.38 274.729 287.31 278.054C289.381 279.215 291.565 280.169 293.746 281.121C296.789 282.45 299.828 283.777 302.549 285.662C305.959 288.024 308.779 291.229 310.686 294.911C309.937 289.661 305.544 285.643 300.855 283.16C298.733 282.037 296.502 281.131 294.273 280.226C291.578 279.132 288.885 278.038 286.385 276.56C282.4 274.205 278.986 270.895 276.509 266.986C276.46 266.909 276.411 266.831 276.362 266.753Z" fill="#00160A"/>
  <path fill-rule="evenodd" clip-rule="evenodd" d="M286.383 268.528L286.472 268.726C286.865 269.634 287.137 270.775 286.4 271.39C285.812 271.88 284.922 271.693 284.229 271.368C282.731 270.665 281.493 269.423 280.794 267.924C281.668 267.751 282.488 267.311 283.116 266.679C283.638 266.154 284.561 266.26 285.149 266.71C285.736 267.16 286.07 267.857 286.383 268.528ZM285.908 270.677C286.662 269.323 285.123 267.325 284.371 267.196C284.044 267.139 283.706 267.463 283.343 267.811C282.971 268.168 282.573 268.55 282.132 268.572C282.132 268.572 285.153 272.031 285.908 270.677Z" fill="#00160A"/>
  <path d="M323.972 274.57C342.298 273.969 360.189 265.046 371.69 250.774C372.285 250.035 373.464 250.022 374.291 250.487C375.119 250.951 375.678 251.767 376.207 252.554C376.783 252.47 376.801 251.575 376.403 251.149C376.207 250.939 375.961 250.786 375.715 250.634C375.462 250.477 375.21 250.32 375.012 250.101C374.211 249.215 374.639 247.821 375.108 246.723L377.198 241.83C377.479 241.175 377.917 240.41 378.63 240.42C379.152 240.427 379.553 240.863 379.884 241.266C383.492 245.659 386.84 250.266 389.902 255.055C388.014 255.347 386.199 254.418 384.408 253.501C382.408 252.477 380.439 251.468 378.433 252.195C376.685 252.828 375.656 254.587 374.73 256.198C371.703 261.469 368.236 266.545 363.843 270.748C353.643 280.508 339.408 284.733 325.542 287.404C334.119 290.648 343.568 291.558 352.608 290.011C357.781 289.125 362.939 287.38 366.971 284.022C368.604 282.662 370.02 281.066 371.429 279.476L381.813 267.761C382.421 267.075 383.543 267.734 384.11 268.454C384.676 269.175 385.445 270.073 386.308 269.766C385.69 268.382 384.617 267.206 383.295 266.463C383.216 264.811 383.167 263.041 384.046 261.639C384.925 260.238 387.117 259.555 388.257 260.754C391.996 264.685 395.579 268.765 398.995 272.98C396.991 273.295 395.086 272.433 393.196 271.577L393.195 271.577C392.611 271.313 392.029 271.049 391.445 270.821C388.972 269.854 385.505 269.875 384.377 272.278C381.292 278.85 378.086 285.59 372.791 290.559C363.948 298.858 351.026 300.731 338.972 302.097C333.626 302.703 328.135 303.278 322.93 301.918C319.141 300.927 315.694 298.957 312.298 297.009L309.603 295.463C308.81 295.661 309.447 296.863 310.151 297.278C314.663 299.937 319.314 302.647 324.489 303.461C325.807 303.669 327.142 303.75 328.475 303.8C340.754 304.261 353.125 302.108 364.525 297.527C369.279 295.616 374.118 293.061 376.728 288.655L385.928 273.127C386.281 272.532 386.669 271.904 387.294 271.609C388.056 271.249 388.952 271.479 389.761 271.713L398.385 274.217C399.266 274.473 400.085 273.44 399.993 272.527C399.901 271.615 399.242 270.875 398.615 270.205L390.662 261.698C389.613 260.575 388.485 259.404 387.004 258.995C385.522 258.587 383.617 259.306 383.327 260.815C382.472 265.268 379.428 268.937 376.49 272.393C371.944 277.741 367.211 283.237 360.9 286.315C351.85 290.729 341.156 289.446 331.247 287.654L337.672 285.783C340.852 284.858 344.038 283.93 347.121 282.719C359.08 278.023 369.267 268.96 375.321 257.633C376.372 255.667 377.608 253.394 379.803 253C381.607 252.675 383.145 253.74 384.717 254.828C385.652 255.475 386.599 256.13 387.621 256.507C389.129 257.064 391.468 256.272 391.114 254.706C391.034 254.352 390.819 254.045 390.609 253.749L382.428 242.223C381.293 240.623 379.592 238.817 377.724 239.417C376.223 239.899 375.66 241.631 375.164 243.157L375.098 243.359L375.075 243.43C372.746 250.521 366.484 255.475 360.542 259.995C357.941 261.973 355.335 263.955 352.529 265.628C344.332 270.516 334.72 272.585 325.195 273.203C322.504 273.378 320.812 275.901 319.264 278.21C319.08 278.484 318.898 278.756 318.717 279.02C316.066 282.881 312.291 285.96 307.975 287.783C308.697 288.58 310.012 288.102 310.925 287.533C315.255 284.828 318.928 281.081 321.545 276.699C322.122 275.732 322.846 274.607 323.972 274.57Z" fill="#00160A"/>
  <path d="M266.473 233.196C266.051 234.118 265.112 234.782 264.101 234.872C263.091 234.962 262.049 234.474 261.471 233.64C261.259 233.334 261.261 232.736 261.633 232.768C262.405 233.794 264.017 234.059 265.078 233.335C265.537 233.021 266.334 232.657 266.473 233.196Z" fill="#00160A"/>
  <path d="M258.349 226.493C258.441 225.721 259.093 225.049 259.863 224.935C260.633 224.82 261.452 225.272 261.765 225.984C261.202 225.984 260.825 225.882 260.511 225.798C259.872 225.625 259.495 225.523 258.349 226.493Z" fill="#00160A"/>
  <path d="M264.316 230.797L263.44 231.172L263.39 231.143C263.162 231.575 262.494 231.086 262.442 230.6C262.431 230.5 262.426 230.394 262.421 230.286C262.402 229.875 262.382 229.447 262.041 229.262C261.616 229.875 261.421 230.68 261.669 231.384C261.916 232.087 262.669 232.62 263.403 232.488C264.137 232.355 264.664 231.456 264.316 230.797Z" fill="#00160A"/>
  <path d="M265.368 224.828C266.476 224.917 266.771 224.977 267.077 225.705C267.137 225.848 266.663 225.713 266.212 225.585C265.88 225.49 265.56 225.399 265.474 225.424C261.765 226.523 264.26 224.739 265.368 224.828Z" fill="#00160A"/>
  <path d="M265.055 226.742C265.667 227.227 265.49 229.159 264.586 228.796C264.208 228.643 263.755 225.712 265.055 226.742Z" fill="#00160A"/>
  <path d="M294.368 278.485C294.076 278.122 294.407 277.472 294.873 277.495C295.079 277.628 295.219 277.858 295.243 278.103C295.066 278.39 294.701 278.547 294.371 278.478L294.368 278.485Z" fill="#00160A"/>
  <path d="M286.041 274.719L286.677 274.622L286.728 274.604C286.949 274.191 286.226 273.719 285.937 274.088C285.874 274.3 285.913 274.539 286.041 274.719Z" fill="#00160A"/>
  <path d="M290.574 277.229C290.205 277.329 290.155 276.695 290.363 276.375L291.244 276.775C291.108 277.013 290.856 277.181 290.584 277.215L290.574 277.229Z" fill="#00160A"/>
  <path d="M279.567 267.995C279.469 267.754 279.119 267.661 278.914 267.823L278.97 267.879C278.794 268.11 278.934 268.504 279.217 268.572C279.476 268.547 279.664 268.237 279.567 267.995Z" fill="#00160A"/>
  <path d="M260.203 228.841C259.848 228.841 259.476 228.494 259.495 227.891C259.513 227.289 259.677 226.732 260.203 227.028C260.728 227.324 260.568 228.841 260.203 228.841Z" fill="#00160A"/>
  <path d="M94.9359 155.63C95.1495 155.91 95.6379 155.787 95.826 155.488C96.014 155.19 95.9903 154.81 95.9563 154.458C95.4645 149.381 94.1459 144.385 92.0683 139.725C91.4765 138.398 90.8542 136.743 91.7602 135.607C93.8548 140.839 95.967 146.136 96.7299 151.719C96.9381 153.243 97.0128 154.912 96.1627 156.194C95.3126 157.476 93.1944 157.967 92.2499 156.753C93.7026 156.45 94.8141 154.98 94.7093 153.5C95.3803 153.957 95.4957 155.042 94.9359 155.63Z" fill="#00160A"/>
  <path d="M113.423 233.036C113.511 233.028 113.603 233.02 113.697 233.019C113.815 233.018 113.95 233.038 114.078 233.058C114.423 233.112 114.711 233.156 114.439 232.73C114.065 232.146 112.972 232.08 112.793 232.75C112.843 233.087 113.104 233.064 113.423 233.036Z" fill="#00160A"/>
  <path d="M114.303 235.926C114.308 235.905 114.313 235.885 114.318 235.865C114.584 234.859 114.43 234.065 113.697 234.065C113.414 234.087 112.982 235.527 113.023 235.963C113.065 236.4 113.557 236.804 113.938 236.587C114.165 236.459 114.237 236.179 114.303 235.926Z" fill="#00160A"/>
  <path d="M109.466 235.62C108.955 234.91 108.901 233.9 109.334 233.14C109.399 233.027 109.477 232.915 109.59 232.851C109.877 232.686 110.261 232.909 110.387 233.214C110.514 233.519 110.458 233.866 110.401 234.191C110.401 234.191 109.977 236.33 109.466 235.62Z" fill="#00160A"/>
  <path fill-rule="evenodd" clip-rule="evenodd" d="M139.331 236.062C138.909 236.328 138.569 236.746 138.319 237.184C138.709 235.949 139.104 234.391 138.144 234.266C136.515 234.055 134.922 236.705 135.205 238.112C134.753 236.991 132.872 237.476 132.417 238.596C132.067 239.456 132.216 240.397 132.363 241.331C132.408 241.614 132.453 241.897 132.483 242.177C132.973 246.643 129.622 250.818 125.561 252.744C121.731 254.56 117.385 254.815 113.135 254.946L112.143 254.975C109.716 255.039 107.088 254.983 105.236 253.435C103.328 251.84 103.33 248.055 105.726 247.386C111.809 245.688 116.449 239.765 116.637 233.456C116.693 231.592 117.903 230.04 119.073 228.541C119.178 228.406 119.282 228.272 119.386 228.138L119.643 227.802C120.952 226.066 122.028 223.676 120.929 221.801C119.226 223.984 116.036 224.865 113.453 223.864C112.376 223.446 111.421 222.749 110.472 222.056C109.202 221.127 107.942 220.207 106.411 219.976C103.419 219.526 100.451 222.554 100.963 225.535C100.153 224.855 98.8957 225.884 98.8081 226.937C98.7566 227.556 98.9194 228.159 99.083 228.763C99.1978 229.188 99.3129 229.614 99.3546 230.047C99.4032 230.552 99.3514 231.058 99.2996 231.564C99.2646 231.906 99.2295 232.248 99.2253 232.59C99.2037 234.365 99.9947 236.007 100.774 237.624L100.776 237.628C100.854 237.79 100.931 237.951 101.008 238.113L101.217 238.557C102.104 240.479 102.761 242.765 101.816 244.659C100.871 246.553 97.6537 247.147 96.7422 245.236C92.2748 235.874 82.1492 229.499 71.7703 229.515C59.7533 229.533 48.9412 237.447 41.8593 247.15C40.9761 248.36 40.1116 249.663 39.9191 251.149C39.7266 252.634 40.4163 254.339 41.8302 254.836C43.2441 255.333 45.0775 253.943 44.6168 252.518C45.3342 253.355 46.8013 252.563 47.1392 251.514C47.329 250.925 47.3267 250.303 47.3244 249.68C47.3226 249.193 47.3208 248.706 47.4101 248.231C47.8482 245.904 50.2429 244.561 52.3984 243.578L52.833 243.381C57.9102 241.085 63.1999 239.035 68.7533 238.645C74.4654 238.243 80.5608 239.83 84.4863 243.997C79.13 245.267 76.0195 250.638 73.54 255.599L73.1961 256.291C70.6927 261.315 67.4138 266.796 61.924 267.861C62.1327 268.944 63.0889 269.839 64.1833 269.977L44.0577 281.935L45.6016 283.849C40.7015 291.354 35.1594 298.441 29.0557 305.006C25.7371 308.576 21.428 312.275 16.6238 311.444C15.7551 311.294 14.9129 310.996 14.0735 310.699C12.8444 310.264 11.6216 309.831 10.3312 309.868C8.15944 309.93 5.97999 312.57 7.45414 314.165C10.7189 317.698 14.445 320.803 18.5082 323.379L18.6134 323.445C19.108 323.753 19.6521 324.041 20.2256 323.975C20.8054 323.909 21.2774 323.496 21.7087 323.103L48.9654 298.266C51.1978 296.248 53.6544 294.23 56.6281 293.933L56.8791 293.903C59.0785 293.597 60.8903 292.207 62.7074 290.813C63.4985 290.207 64.2907 289.599 65.1162 289.08C67.9096 287.323 72.5429 287.143 73.6294 290.257C74.2068 291.912 73.451 293.596 72.7062 295.255C72.4843 295.75 72.2633 296.242 72.0789 296.731C71.2755 298.86 71.9338 302.134 74.21 302.094L86.9483 301.869C87.4062 301.864 87.8883 301.89 88.2442 302.17C88.6168 302.463 88.7474 302.95 88.819 303.428L88.8486 303.647C89.3283 307.546 89.2621 311.512 88.6526 315.393C87.9921 319.599 86.2345 324.225 82.2637 325.767C79.7591 326.74 76.9694 326.235 74.3315 325.631L58.3029 321.889C58.2761 319.949 60.0321 318.37 61.9041 317.856C63.4913 317.42 65.1583 317.553 66.8093 317.685C66.9107 317.693 67.0123 317.701 67.1135 317.709L67.6958 317.752C71.7523 318.031 75.8533 317.654 79.791 316.641L74.1091 302.431C74.6884 307.148 75.9652 311.78 77.8852 316.128L59.2065 316.734C57.5801 316.78 55.7743 316.708 54.681 315.521C54.4003 315.217 54.1664 314.842 53.9345 314.471C53.4585 313.708 52.9913 312.96 52.1461 312.862C51.4158 312.778 50.7542 313.265 50.1948 313.742C46.543 316.855 43.5109 320.691 41.3262 324.962C42.1138 326.911 44.7234 327.457 46.7507 326.897C47.9366 326.57 49.019 325.981 50.1035 325.39C50.8729 324.971 51.6434 324.552 52.4526 324.225C56.9678 322.401 61.9316 323.637 66.6999 325.072L69.5322 325.934C75.1294 327.614 81.9538 328.476 86.1483 324.408C88.6233 322.009 89.525 318.437 90.0151 315.026C91.4292 305.181 90.2828 294.98 86.7187 285.695C90.6926 284.162 92.5679 279.72 94.0257 275.72L96.8807 267.887C97.8346 265.27 100.002 262.059 102.581 263.113C109.955 266.127 118.665 264.853 125.53 260.813C132.396 256.773 137.535 250.229 140.996 243.058L141.089 242.865C141.767 241.44 142.63 238.114 141.859 237.746C141.571 237.52 141.059 237.895 140.71 238.15C140.521 238.288 140.38 238.391 140.348 238.346C140.329 238.318 140.392 238.134 140.482 237.873C140.834 236.846 141.595 234.63 139.331 236.062ZM111.867 256.446C119.467 256.029 128.272 254.933 132.258 248.452C133.292 246.772 133.071 244.13 132.89 241.953C132.744 240.204 132.623 238.755 133.197 238.346C134.487 237.427 135.519 239.797 135.519 239.797C135.557 239.64 135.6 239.446 135.649 239.227C136.009 237.612 136.673 234.638 137.715 235.197C138.144 235.427 137.996 236.872 137.895 237.866L137.895 237.866C137.871 238.099 137.85 238.308 137.839 238.469C137.815 238.623 137.811 238.751 137.83 238.842C137.844 238.836 137.859 238.827 137.875 238.817C137.881 238.816 137.888 238.812 137.896 238.806C137.902 238.801 137.908 238.794 137.915 238.786C138.084 238.644 138.314 238.293 138.571 237.902C139.103 237.092 139.747 236.113 140.178 236.473C140.856 237.038 138.448 240.646 138.448 240.646C138.448 240.646 141.308 237.505 141.549 238.842C141.79 240.179 135.277 252.252 129.397 256.988C123.518 261.723 115.233 264.374 107.742 263.424C107.909 260.455 108.895 256.609 111.867 256.446ZM137.915 238.786C137.901 238.798 137.888 238.808 137.875 238.817C137.83 238.824 137.825 238.69 137.839 238.469C137.894 238.12 138.058 237.641 138.319 237.184C138.269 237.341 138.22 237.493 138.173 237.636C137.965 238.275 137.814 238.739 137.97 238.703C137.959 238.723 137.948 238.74 137.938 238.755C137.93 238.767 137.922 238.778 137.915 238.786ZM90.5328 280.031C89.6408 282.036 88.1646 284.395 85.9857 284.129C84.819 283.986 83.9377 283.106 83.1449 282.201L82.7201 281.71C78.1151 276.368 71.8593 272.817 65.5718 269.548L63.477 268.467C68.5986 267.46 71.7581 262.398 74.0141 257.694L74.7331 256.194C76.7961 251.92 79.1434 247.522 83.3985 245.598C83.9866 245.332 84.6612 245.12 85.2677 245.341C85.3597 245.375 85.4588 245.413 85.5621 245.453C86.311 245.74 87.2754 246.111 87.2601 245.402C85.8947 244.852 85.6702 242.862 86.4578 241.619C87.1768 240.484 88.4222 239.829 89.6555 239.265L90.007 239.106C89.2203 238.022 87.5154 238.933 86.6247 239.934L86.5513 240.015C85.6574 240.995 84.2853 242.068 83.2536 241.272C78.9902 237.979 73.3082 236.923 67.9454 237.439C62.5825 237.956 57.4659 239.916 52.5666 242.156C50.771 242.977 48.9472 243.873 47.6146 245.329C46.5837 246.456 46.4769 247.955 46.3695 249.463C46.3381 249.904 46.3066 250.346 46.2519 250.779C46.1196 251.827 45.5428 251.867 45.0347 251.902C44.7624 251.921 44.5098 251.939 44.356 252.109C44.3436 252.123 44.3038 252.184 44.2439 252.276C43.9389 252.744 43.1134 254.011 42.7406 253.885C42.193 253.699 42.4722 252.518 42.4722 252.518C42.4722 252.518 40.8472 252.982 40.7263 252.518C40.3031 250.894 42.7406 247.571 42.7406 247.571C46.8387 241.545 52.9161 236.546 59.5977 233.64C66.403 230.68 74.3442 230.109 81.3011 232.693C89.1442 235.606 95.3549 242.565 97.3571 250.685C97.8563 252.709 100.212 253.603 102.271 253.939C102.341 253.95 102.411 253.962 102.481 253.973C102.605 253.993 102.73 254.012 102.855 254.032L102.858 254.032C104.758 254.329 106.778 254.644 107.989 256.094C108.346 256.521 108.248 257.154 108.125 257.697L108.089 257.853C107.637 259.79 106.85 261.957 104.967 262.544C103.256 263.078 101.229 261.7 101.098 259.913C101.086 259.756 101.083 259.589 101.08 259.421C101.065 258.726 101.05 257.995 100.467 257.708L90.5328 280.031ZM74.353 290.62C73.7132 287.335 71.7686 284.379 69.2173 282.21C69.3168 283.502 69.8635 284.755 70.7428 285.706C66.4192 287.08 62.342 289.224 58.7608 292.007C57.8023 292.752 56.174 293.432 55.6126 292.356C53.4039 288.122 49.8879 284.582 45.6688 282.343L63.0143 272.381C63.7982 271.931 64.6275 271.468 65.5316 271.459C66.2325 271.452 66.8983 271.72 67.532 272.032L67.8462 272.191C74.3372 275.532 80.1476 280.187 84.8228 285.792C85.9804 287.18 86.5192 288.957 86.9777 290.715L89.0409 298.77C89.1775 299.304 89.2778 299.964 88.8595 300.323C88.6241 300.525 88.2927 300.559 87.9835 300.583L87.6217 300.611C82.4856 301.006 78.3418 301.325 73.1961 300.583C72.4283 299.112 73.0085 297.289 73.6076 295.406C74.1209 293.793 74.6482 292.136 74.353 290.62ZM48.5488 285.667C50.4733 287.36 52.2084 289.269 53.7112 291.346C53.872 291.568 54.0374 291.816 54.0203 292.09C54.0003 292.409 53.7414 292.655 53.5005 292.865L31.0819 312.475C30.1472 313.293 28.6559 313.149 27.6089 312.481C26.6927 311.897 26.0376 311.001 25.4365 310.087L25.1817 309.695C31.0243 306.627 34.7722 301.13 38.5534 295.583C40.9252 292.105 43.3101 288.607 46.2333 285.677C46.5174 285.392 46.8379 285.097 47.2378 285.052C47.7324 284.997 48.1752 285.338 48.5488 285.667ZM113.835 230.969L114.407 231.144C115.522 231.489 115.707 232.981 115.565 234.139C114.977 238.931 111.997 243.675 107.401 245.164L107.237 245.219C104.242 246.276 102.101 249.407 102.229 252.582C100.219 252.959 98.0641 251.352 97.8528 249.319C97.8107 248.913 97.9307 248.387 98.3337 248.325C100.16 248.045 101.84 246.924 102.8 245.347C103.76 243.769 103.983 241.763 103.392 240.014C103.271 239.656 103.118 239.298 102.964 238.94C102.527 237.922 102.089 236.899 102.396 235.872C103.096 235.936 103.228 236.896 103.155 237.594L103.147 237.679C103.09 238.368 103.212 239.251 103.88 239.343C104.321 238.332 104.412 237.2 104.503 236.076C104.618 234.658 104.732 233.253 105.546 232.122C106.477 230.83 108.146 230.236 109.739 230.217C111.133 230.201 112.496 230.563 113.835 230.969ZM13.1049 311.767L13.2486 311.602C14.051 311.426 14.8172 312.453 14.4198 313.171C14.1649 313.632 14.9489 314.089 15.3866 313.795C15.8244 313.502 15.9127 312.907 15.9608 312.382C16.4012 312.244 16.7822 312.748 16.8654 313.202C16.8873 313.322 16.9009 313.446 16.9146 313.57C16.9526 313.916 16.9906 314.262 17.2088 314.522C17.5054 314.875 18.291 314.693 18.1621 314.25C17.9699 313.589 18.7509 313.05 19.4324 312.952C19.5963 312.929 19.7655 312.915 19.9351 312.901C20.4711 312.857 21.0114 312.813 21.4016 312.465L21.4604 312.418C21.9555 312.067 22.5686 312.716 22.9423 313.293L23.1161 313.573C23.9379 314.849 25.3346 315.743 26.8405 315.947C27.1355 315.987 26.9854 316.447 26.7687 316.651L21.6865 321.434C21.4401 321.666 21.0409 321.501 20.7523 321.325C17.7356 319.479 14.9507 317.255 12.4835 314.722C11.7062 313.923 12.3654 312.65 13.1049 311.767ZM57.5494 320.67C57.4029 321.273 56.9862 321.948 56.3668 321.903C54.874 321.792 53.3602 321.972 51.9349 322.429C52.0656 321.822 51.7998 321.148 51.2893 320.793C50.9169 321.326 51.0692 322.151 51.6072 322.515L50.1861 323.918L49.506 322.356C49.1705 322.445 49.1607 322.857 49.1839 323.234L49.2004 323.468C49.2685 324.457 48.4291 325.418 47.4395 325.485C46.4498 325.552 45.4888 324.712 45.4233 323.723C45.3521 322.645 46.1778 321.741 46.9456 320.981L52.397 315.586C52.5129 315.476 52.6457 315.374 52.8022 315.376C52.9751 315.38 53.1154 315.511 53.2371 315.633L55.3643 317.779C55.7769 318.195 55.5162 318.831 55.2621 319.452C55.0006 320.09 54.7461 320.712 55.24 321.058C55.7208 321.086 56.1212 320.669 56.3061 320.224C56.4004 319.998 56.4577 319.758 56.515 319.519C56.57 319.289 56.6251 319.059 56.7129 318.84C56.8922 318.393 57.2791 317.968 57.7607 317.978C58.2423 317.988 58.6139 318.676 58.2415 318.982C57.8444 319.307 57.731 319.836 57.6208 320.351C57.5978 320.458 57.5747 320.566 57.5494 320.67ZM20.2768 323.055C15.3769 320.436 11.0456 316.76 7.66492 312.353C8.10822 311.933 8.7749 312.379 9.20366 312.855L9.30982 312.979C12.522 316.952 16.5561 320.257 21.0835 322.627C21.0468 322.984 20.5936 323.225 20.2768 323.055ZM43.7761 322.052C45.8987 319.278 48.2504 316.679 50.7996 314.29C51.1948 313.92 52.0155 313.67 52.1155 314.203C49.1478 317.034 46.3094 320 43.612 323.09C43.3189 322.835 43.5404 322.36 43.7761 322.052ZM27.4751 315.116C25.994 314.59 24.6736 313.62 23.7275 312.366C23.3716 311.894 23.147 311.073 23.6864 310.831C24.1127 310.639 24.5222 311.041 24.8195 311.432L25.0424 311.735C26.0005 312.999 27.367 313.949 28.8869 314.403C28.8896 314.808 28.5539 315.188 28.1511 315.235C27.9218 315.262 27.6927 315.193 27.4751 315.116ZM100.158 233.019C100.854 233.035 101.444 233.761 101.317 234.445L101.334 234.455C101.43 234.951 101.367 235.477 101.155 235.936C100.394 235.19 100.012 234.075 100.158 233.019Z" fill="#00160A"/>
  <path fill-rule="evenodd" clip-rule="evenodd" d="M91.4474 127.241C91.5337 126.683 92.2781 126.36 92.816 126.552C93.354 126.744 93.8343 127.515 93.4401 127.951C92.816 128.641 91.2799 128.325 91.4474 127.241Z" fill="#FFB61D"/>
  <path fill-rule="evenodd" clip-rule="evenodd" d="M325.632 271.794C325.28 272.089 324.575 272.196 324.509 271.742C325.882 270.346 326.826 268.535 327.185 266.611C327.633 266.492 327.762 267.205 327.65 267.654C327.271 269.17 326.829 270.79 325.632 271.794Z" fill="#00160A"/>
  <path d="M22.6113 105.514C22.5974 105.964 21.9145 105.938 21.5016 105.758C21.6502 105.356 22.2528 105.222 22.5581 105.522L22.6113 105.514Z" fill="black"/>
  <path fill-rule="evenodd" clip-rule="evenodd" d="M217.481 229.115C217.005 229.538 216.205 228.891 216.275 228.259C216.346 227.626 216.907 227.174 217.445 226.833C219.373 225.612 221.606 224.877 223.882 224.712C223.943 225.58 222.818 225.938 221.964 226.105C220.151 226.458 218.425 227.243 216.967 228.376C217.231 228.537 217.422 228.812 217.481 229.115Z" fill="#00160A"/>
  <path fill-rule="evenodd" clip-rule="evenodd" d="M223.947 230.222C222.879 230.737 221.792 231.213 220.689 231.649C220.814 232.114 221.482 232.098 221.936 231.935C222.389 231.771 222.986 231.599 223.28 231.981C222.534 233.119 220.686 233.296 219.737 232.321C219.324 231.897 218.577 232.176 218.045 231.919C217.282 231.551 217.424 230.401 217.873 229.683C218.81 228.185 220.598 227.261 222.362 227.363C223.034 227.401 223.837 227.733 223.882 228.404C221.774 228.272 219.625 229.14 218.202 230.7C219.01 231.325 220.17 230.859 221.082 230.397C221.994 229.935 223.198 229.527 223.947 230.222Z" fill="#00160A"/>
  <path fill-rule="evenodd" clip-rule="evenodd" d="M111.741 236.197C112.346 236.802 112.597 237.079 112.597 237.969C112.597 238.859 112.114 239.43 111.299 239.691C110.923 239.811 110.403 239.719 110.306 239.337C113.021 238.783 112.023 237.599 111.741 236.197Z" fill="#00160A"/>
</svg>