<svg xmlns="http://www.w3.org/2000/svg" width="409" height="328" viewBox="0 0 409 328" fill="none">
  <path fill-rule="evenodd" clip-rule="evenodd" d="M235.406 328C284.37 328 327.34 291.622 303.208 242.212C279.077 192.802 368.74 194.398 395.079 160.249C427.2 118.603 417.898 -58.1791 211.694 49.5956C178.662 66.8598 93.8304 31.8347 65.6913 49.2135C32.5687 69.6701 -14.0328 111.559 32.5687 154.467C55.5237 175.603 -26.7754 230.463 9.26999 279.603C44.4413 327.551 69.0957 281.842 122.643 291.622C176.191 301.402 199.041 328 235.406 328Z" fill="#DAF7DC"/>
  <path d="M178.574 242.041C178.574 242.041 189.848 236.744 194.057 233.059C198.266 229.374 203.499 220.218 203.499 220.218C203.499 220.218 260.977 261.678 298.455 255.764C307.09 254.401 323.916 248.668 324.989 238.568C327.919 210.987 287.381 203.938 296.236 189.951C301.641 181.414 318.432 194.12 318.432 194.12L388.076 228.334C388.076 228.334 364.016 287.569 305.628 289.943C233.803 292.863 178.574 242.041 178.574 242.041Z" fill="white"/>
  <path fill-rule="evenodd" clip-rule="evenodd" d="M123.358 10.0613C122.704 9.80501 119.194 5.51198 114.737 4.73064C112.712 4.37558 114.55 6.95109 112.321 6.97427C105.683 7.04329 94.8959 5.79772 92.8976 6.97427C91.4124 7.8459 94.6833 10.891 92.8976 11.0308C76.0498 12.3497 50.3472 29.151 44.7708 37.3021C42.9961 39.8962 57.3493 35.495 55.0624 36.7775C52.4956 38.2168 49.6489 47.6416 47.9469 54.9208C46.7686 59.9334 46.0267 66.3844 45.7649 73.402C45.5467 79.4607 45.6339 80.4632 46.5068 83.7759C47.5105 87.4809 48.2961 88.5706 49.6489 88.0475C50.129 87.8732 50.3472 87.2193 50.3472 85.9989C50.3472 85.0399 50.8709 82.1632 51.5255 79.5915L52.6602 74.9712L53.1403 76.889C53.7512 79.112 57.3298 85.9989 60.5593 91.0115C60.7334 91.2775 61.4828 90.9391 62.1586 89.3078C62.7744 87.8212 62.5245 85.4463 63.5706 82.901C65.9534 77.1032 70.6322 69.565 76.0498 63.5309C84.0565 54.6131 86.713 44.2924 94.2185 36.0078C108.225 20.5469 125.805 11.0208 123.358 10.0613Z" fill="white"/>
  <path fill-rule="evenodd" clip-rule="evenodd" d="M55.2614 38.8811C53.0146 40.6857 49.6793 55.3229 49.6221 55.5676C48.4438 60.5801 47.308 77.9871 48.469 81.2827C49.63 84.5783 52.881 72.6983 52.881 72.6983C52.881 72.6983 57.7949 85.4424 62.1368 88.9365C62.3223 89.0858 56.9759 73.1694 55.2614 63.8778C52.9983 51.6123 56.5402 37.8541 55.2614 38.8811Z" fill="#E7EAEE"/>
  <path fill-rule="evenodd" clip-rule="evenodd" d="M139.009 295.23C143.198 294.315 150.267 291.128 152.974 290.038C155.68 288.948 163.928 277.316 166.895 264.196C169.034 254.519 170.125 240.746 168.903 238.436C168.722 238.108 168.062 231.844 169.82 233.89C173.726 238.436 178.362 245.572 192.993 232.784C196.977 229.301 202.259 224.806 200.868 220.831C196.977 209.712 180.111 187.322 177.54 185.626C174.465 183.598 158.926 185.322 135.801 178.505C109.576 170.774 98.6554 148.008 88.3925 150.971C80.0928 153.368 60.2074 168.096 55.2168 177.422C31.6561 221.453 60.2074 252.306 66.7096 261.168L73.0228 263.891L73.241 269.514L73.5465 273.044C74.1139 279.8 74.3321 280.411 77.387 282.677C85.0242 288.474 100.08 293.879 113.697 295.797C120.025 296.669 133.772 296.364 139.009 295.23Z" fill="white"/>
  <path fill-rule="evenodd" clip-rule="evenodd" d="M75.5058 267.455L75.8113 270.986C76.3786 277.742 76.5968 278.352 79.6517 280.619C84.1572 284.039 91.2446 287.322 99.0951 289.834C104.552 291.58 110.378 292.952 115.961 293.739C122.289 294.611 136.036 294.305 141.273 293.172C143.862 292.612 122.57 275.905 110.026 280.619C100.393 284.239 77.6889 256.624 86.9201 249.409C97.2756 241.316 78.2999 209.395 77.6889 202.465C77.0779 195.535 74.6718 193.879 74.6016 194.122C74.5313 194.365 74.5313 195.194 74.7202 197.192C75.5344 205.803 75.5058 267.455 75.5058 267.455Z" fill="#E7EAEE"/>
  <path fill-rule="evenodd" clip-rule="evenodd" d="M73.2323 200.486C74.1485 200.308 75.0359 200.906 75.2142 201.821C78.5079 218.722 92.4401 230.164 117.353 236.147C142.414 242.166 159.484 241.841 168.478 235.416C169.238 234.874 168.672 239.518 168.115 239.875C162.249 243.632 142.304 249.238 118.502 244.171C88.0696 237.692 73.7805 212.134 71.8963 202.466C71.718 201.551 72.3161 200.665 73.2323 200.486Z" fill="#04A5CF"/>
  <path fill-rule="evenodd" clip-rule="evenodd" d="M60.5415 169.993C61.3517 169.53 91.5783 204.13 133.059 211.962C174.541 219.793 184.584 214.813 186.198 204.13C186.338 203.208 187.199 202.574 188.122 202.713C189.045 202.852 189.68 203.712 189.541 204.634C187.495 218.172 168.3 221.393 132.491 215.29C97.131 209.263 72.8883 194.945 59.9139 172.297C59.4504 171.488 59.7313 170.456 60.5415 169.993Z" fill="#04A5CF"/>
  <path fill-rule="evenodd" clip-rule="evenodd" d="M234.645 168.075C233.51 167.682 232.288 166.811 231.503 165.808L230.193 164.195L234.819 159.619C241.933 152.645 247.388 145.496 252.101 136.997C253.672 134.163 257.644 124.705 257.644 123.789C257.644 123.484 258.124 122.264 258.691 121C259.564 119.169 260.219 118.472 262.095 117.426C264.321 116.118 266.852 115.682 267.943 116.423C270.038 117.818 270.038 122.22 267.943 129.805C265.63 138.13 262.532 144.101 256.116 152.688C255.113 153.996 253.236 156.567 251.883 158.355C248.261 163.149 245.904 165.459 242.719 167.246C239.576 168.99 237.743 169.208 234.645 168.075ZM265.979 164.152L269.122 165.547C269.773 165.847 276.961 169.296 285.595 173.44C299.515 180.12 317.194 188.604 317.302 188.604C317.476 188.604 318.295 186.713 318.48 184.507C318.916 179.756 320.531 173.305 322.408 168.816C323.281 166.811 323.979 164.305 323.979 164.087C323.979 163.987 323.269 163.701 322.108 163.234C320.725 162.676 318.702 161.861 316.472 160.795C305.475 155.521 283.96 144.755 281.297 143.142C278.679 141.617 278.155 141.486 278.155 142.489C278.155 143.796 275.493 149.855 273.442 153.124C272.351 154.911 270.213 158.137 268.685 160.272L265.979 164.152ZM316.56 180.759C317.811 181.483 315.643 182.546 315.12 182.72C312.036 182.982 308.406 182.402 305.431 180.671C303.876 179.57 291.63 172.775 283.507 168.268C279.793 166.207 276.941 164.624 276.366 164.283C274.533 163.193 272.787 162.016 272.482 161.667C271.565 160.49 272.438 159.967 275.013 160.185C276.561 160.316 313.857 179.194 316.56 180.759ZM139.157 294.871C142.524 294.136 147.75 291.933 151.077 290.531C151.891 290.188 152.591 289.893 153.123 289.678C155.829 288.588 164.077 276.957 167.044 263.837C169.183 254.16 170.274 240.387 169.052 238.077C168.315 236.739 172.692 241.227 175.952 244.569C176.94 245.583 177.826 246.491 178.435 247.099C197.462 265.973 225.786 281.141 255.2 288.246C269.863 291.82 280.294 293.084 294.303 293.084C317.825 293.084 336.373 288.464 353.219 278.308C354.019 277.826 354.769 277.382 355.483 276.96C361.355 273.487 364.854 271.419 374.428 260.655C385.168 248.581 394.722 220.554 397.907 210.878C399.304 206.519 402.708 189.182 402.708 184.856C402.708 179.734 400.919 177.315 398.475 174.831C394.154 170.603 388.306 169.077 383.462 170.908L381.193 171.78L380.494 169.469C379.491 165.982 377.396 163.193 374.166 161.101C369.366 157.919 368.668 157.701 364.347 157.701C360.987 157.701 360.07 157.875 357.932 158.878L355.444 160.011L354.921 158.442C353.917 155.216 350.55 150.72 347.938 149.419C345.621 148.266 341.611 148.16 338.817 148.678C332.707 149.811 328.343 152.645 326.554 156.611C326.03 157.832 325.375 158.79 325.113 158.79C324.895 158.79 316.298 156.392 306.042 151.859C304.312 151.092 302.687 150.373 301.161 149.697C282.744 141.544 278.753 139.777 279.115 137.563C279.421 135.689 279.334 134.643 278.81 133.03C277.893 130.328 276.846 129.587 273.878 129.587C271.522 129.587 271.522 129.587 271.784 128.41C273.18 121.741 273.137 117.905 271.653 115.464C270.649 113.851 269.471 113.198 266.765 112.805C265.194 112.587 264.452 112.718 262.706 113.677C261.528 114.287 260.524 114.723 260.437 114.636C260.35 114.549 260.655 112.152 261.135 109.318C264.714 88.3526 261.949 70.2886 252.828 51.11C252.741 50.9264 252.639 50.7094 252.524 50.4611C249.751 44.5153 238.601 20.6071 206.714 8.54342C205.271 7.99742 203.906 7.46947 202.593 6.96208C191.731 2.76293 184.51 -0.0287457 167.088 0.000223333C147.561 0.032693 140.947 2.78984 128.073 8.67419C126.283 9.50236 124.712 9.98182 124.581 9.80747C124.45 9.58953 123.621 9.06648 122.792 8.6306C121.963 8.19472 120.173 7.10503 118.864 6.23327C115.111 3.70518 112.798 2.65908 111.62 2.9206C110.267 3.26931 110.267 4.40259 111.62 4.92564C112.187 5.14358 112.842 5.88457 113.104 6.62556C113.671 8.19472 114.326 8.36907 114.718 7.06144C114.893 6.58197 115.155 6.23327 115.286 6.32045C115.335 6.34524 115.501 6.42293 115.755 6.54148C116.393 6.83973 117.584 7.3966 118.864 8.02037C120.654 8.89213 122.617 9.80747 123.141 10.0254C124.101 10.3741 123.796 10.6356 119.65 13.0766C103.459 22.5787 90.2791 37.3549 82.9037 54.1798C81.769 56.7079 80.7653 58.2771 79.7179 59.1488C77.0557 61.3718 71.8188 67.692 70.5968 70.1765C69.9422 71.5277 68.5457 73.6199 67.4546 74.8404C66.4072 76.0609 65.2726 77.63 64.8798 78.2838C64.5307 78.9812 64.1815 79.4607 64.0506 79.3735C63.9633 79.2428 64.0943 77.107 64.3997 74.6225C65.0544 68.8253 65.0544 67.2997 64.5307 67.169C63.7451 66.951 62.6104 70.0022 62.1304 73.7943C61.7812 76.1045 61.694 79.5915 61.9122 83.1657L62.174 88.8321L59.0755 83.8195C58.01 82.1434 56.9608 80.4674 56.2156 79.277L56.2146 79.2754L56.2132 79.2731L56.2124 79.2718L56.2113 79.2701L56.2101 79.2682C55.7372 78.5127 55.3875 77.9541 55.235 77.7172C54.1004 76.0609 53.4457 73.5764 53.9258 72.7482C54.1876 72.2687 54.144 72.0508 53.7076 72.0508C52.7911 72.0508 51.0018 74.9712 49.8235 78.3274C49.2562 79.8966 48.6888 81.2042 48.5143 81.2042C47.8596 81.2042 48.1651 65.5998 48.8634 60.5872C50.3036 50.6928 54.1004 38.4882 55.8024 38.4882C56.1515 38.4882 56.457 38.3139 56.457 38.0523C56.457 37.2678 55.3223 37.5729 54.4059 38.5754C52.3547 40.7984 49.6489 47.6416 47.9469 54.9208C46.7686 59.9334 46.0267 66.3844 45.7649 73.402C45.5467 79.4607 45.6339 80.4632 46.5068 83.7759C47.5105 87.4809 48.2961 88.5706 49.6489 88.0475C50.129 87.8732 50.3472 87.2193 50.3472 85.9989C50.3472 85.0399 50.8709 82.1632 51.5255 79.5915L52.6602 74.9712L53.1403 76.889C53.7512 79.112 57.3298 85.9989 60.5593 91.0115C62.785 94.4113 62.8286 94.6292 63.5706 99.947C63.9633 102.955 65.1853 110.27 68.022 121.523C70.5284 131.466 84.6186 141.329 88.1368 143.792L88.1393 143.793C88.6014 144.117 88.8805 144.312 88.9262 144.363C89.3626 144.842 89.9736 145.104 90.3227 144.973C90.7155 144.842 90.9337 145.017 90.9337 145.496C90.9337 145.932 91.2392 146.499 91.5883 146.76C92.0247 147.065 92.3302 148.242 92.4175 150.291C92.6357 154.388 95.6906 162.234 98.0472 164.806C99.5747 166.462 102.761 167.159 106.295 166.549C108.608 166.2 109.263 165.939 109.045 165.416C108.914 165.067 109.743 165.503 110.878 166.375C124.145 176.487 137.586 182.546 152.686 185.161C158.534 186.164 168.223 186.73 173.503 186.338C178.173 186.033 178.173 186.033 177.955 186.948C177.649 188.169 178.042 188.91 184.457 199.763C189.563 208.35 190 208.916 195.673 214.714C207.718 227.136 220.854 236.769 235.736 244.222C249.745 251.196 272.111 256.994 292.557 258.824C313.003 260.655 327.688 241.912 327.645 237.118C327.557 230.536 326.641 226.221 324.415 222.036C322.233 217.983 320.793 216.588 314.247 212.229C306.959 207.391 302.464 203.424 299.496 199.196C297.619 196.537 296.921 193.53 296.921 191.917C296.921 190.871 298.274 188.517 300.281 188.038C302.114 187.558 302.464 187.602 304.515 188.604C305.737 189.171 308.923 190.653 311.541 191.917C314.203 193.138 316.778 194.358 317.302 194.62C318.846 195.048 319.498 198.066 319.852 199.702C319.931 200.068 319.995 200.364 320.051 200.548C320.662 202.814 323.553 205.741 325.419 206.737C328.695 208.487 336.767 208.721 338.992 206.323C339.56 205.713 341.441 204.963 341.828 205.19C342.216 205.417 343.617 207.304 343.617 208.829C343.661 211.444 345.014 213.842 347.894 216.239C353.349 220.772 357.583 221.862 361.86 219.857C364.085 218.811 365.909 218.402 365.909 218.402C365.909 218.402 367.729 220.721 367.838 221.513C368.695 227.706 377.876 230.302 380.32 230.564C380.88 230.62 381.97 230.381 383.077 230.137C384.557 229.812 386.068 229.481 386.386 229.838C387.009 230.541 375.956 248.799 374.428 251.109C359.896 272.903 331.616 286.241 297.008 287.636C274.533 288.551 246.908 282.275 222.949 270.855C207.631 263.488 194.058 254.466 179.526 241.825C176.995 239.646 174.071 237.161 173.023 236.289C171.976 235.461 169.488 232.628 167.568 230.013C164.339 225.654 162.506 224.085 162.506 225.567C162.506 226.221 164.6 230.231 167.001 234.197C167.961 235.766 168.572 236.856 168.354 236.682C168.135 236.507 167.437 239.646 166.782 243.656C164.644 256.514 161.109 269.198 157.53 277.088C155.567 281.359 151.801 284.549 150.666 285.421C146.477 288.603 140.205 290.033 131.52 290.905C120.523 291.995 104.332 289.554 91.9811 284.933C88.708 283.713 80.2852 280.182 79.7179 279.79C79.6838 279.756 79.4904 278.502 79.2206 276.752C79.1445 276.259 79.0623 275.726 78.976 275.17C77.4049 264.404 75.2228 222.952 75.2228 203.773C75.2228 195.84 75.1355 194.097 74.6118 194.097C73.5208 194.097 73.0844 195.143 72.6043 198.891C71.5133 207.434 71.7315 252.025 72.9098 261.396L73.1717 263.532L71.6879 262.704C69.4185 261.396 60.7775 252.635 57.7662 248.581C55.217 245.116 53.7018 240.677 52.5682 237.357C52.3046 236.584 52.0616 235.873 51.831 235.247C45.503 217.725 47.7287 198.063 56.457 180.366C63.876 165.285 72.9971 156.916 86.3514 152.863C88.5334 152.209 90.4537 151.511 90.6719 151.337C91.5011 150.552 86.1768 150.945 83.2528 151.86C73.739 154.78 63.7888 162.757 57.0243 172.956C47.5105 187.253 43.2337 208.35 46.2449 226.351C46.9432 230.623 49.7799 239.864 50.5654 240.517C50.635 240.587 50.9939 241.339 51.5368 242.476C53.0378 245.622 55.9448 251.713 58.0281 254.466C60.5593 257.909 68.1965 265.406 71.3824 267.716L73.3899 269.155L73.6954 272.685C74.2627 279.441 74.4809 280.052 77.5358 282.318C85.173 288.115 100.229 293.52 113.845 295.438C120.173 296.31 133.921 296.005 139.157 294.871ZM286.665 253.943C261.31 251.72 230.673 239.645 208.504 220.989C199.164 213.1 187.032 197.758 182.232 189.258C181.228 187.515 180.486 186.687 179.613 186.469C178.697 186.207 179.482 185.946 183.235 185.335C199.077 182.633 214.482 176.051 226.92 166.68L228.753 165.329L229.277 166.593C230.455 169.426 234.994 172.303 238.354 172.303C239.707 172.303 244.246 170.254 246.995 168.38L248.872 167.116L250.399 168.641C251.796 170.036 252.058 170.123 254.676 170.123C257.688 170.123 261.31 168.772 263.317 166.854L264.408 165.852L267.507 167.9C269.165 169.077 273.791 171.649 277.763 173.697C283.698 176.749 289.982 180.279 295.961 183.941L296.921 184.551L296.005 185.771C295.044 187.079 293.256 189.563 293.256 193.356C293.256 197.627 297.703 205.302 306.217 210.573C312.905 214.714 324.415 222.859 323.979 234.764C323.926 236.202 322.32 239.776 320.182 243.002C318.785 245.051 314.901 248.102 311.366 249.889C305.344 252.896 294.739 254.64 286.665 253.943ZM53.9694 58.2771C55.1478 58.5386 55.9333 58.9309 55.7587 59.1052C55.1914 59.6719 52.1801 59.4103 51.4819 58.7129C50.3908 57.6668 50.6527 56.9258 52.1801 56.6207C52.9657 56.49 54.144 55.8361 54.7986 55.1823C55.4532 54.5285 56.0206 54.2234 56.0206 54.4413C56.0206 55.008 53.8385 57.013 52.7475 57.4489C52.0492 57.754 52.2674 57.8848 53.9694 58.2771ZM71.3387 58.9745C72.6043 58.2771 72.3425 57.7976 70.8587 58.0155C69.3749 58.2335 69.2876 58.0591 70.2477 56.5771C70.6405 56.0105 70.8587 55.1823 70.7714 54.7464C70.6405 54.1798 70.335 54.4413 69.6367 55.8361C69.113 56.8387 68.3711 57.6668 68.022 57.6668C66.9309 57.6668 66.8437 58.5386 67.891 58.9309C69.2439 59.4975 70.2913 59.4975 71.3387 58.9745ZM56.2388 35.1755C55.1914 35.3499 51.9183 36.6575 49.038 38.0959C46.114 39.4907 43.6264 40.6676 43.4519 40.624C39.0004 40.1446 45.1975 32.7346 56.457 25.1504C67.2364 17.8712 74.5245 14.0355 81.289 12.074C85.5222 10.8536 90.2791 10.6792 91.632 11.6817C92.3739 12.2484 92.112 12.292 88.8826 12.3356C81.8999 12.3356 73.8263 15.9098 60.6902 24.6709C53.8822 29.204 45.9831 35.6986 45.9831 36.7447C45.9831 36.9626 47.2487 36.5268 48.8198 35.8294C52.1801 34.3038 55.6278 33.5192 57.1553 33.8679C58.77 34.3038 58.4209 34.8704 56.2388 35.1755ZM73.128 38.9241C77.2303 38.0959 77.4049 38.0523 77.4049 37.6165C77.4049 37.3985 75.8338 37.1806 73.8699 37.0934L70.335 36.9626L73.6081 33.2577C75.3974 31.2091 77.4922 29.1604 78.2341 28.681C79.8488 27.6349 79.9361 26.8939 78.6268 26.458L77.6231 26.1529L78.7141 25.7606C79.3251 25.5427 80.4598 25.4555 81.2453 25.5862C82.4236 25.7606 82.6855 25.6734 82.5546 25.0632C82.4236 24.453 81.9436 24.3222 79.8052 24.3658C73.5644 24.453 70.9023 26.1093 75.7901 26.8939C77.143 27.1118 78.2777 27.4605 78.2777 27.6784C78.2777 27.8528 78.0595 28.0272 77.7976 28.0272C76.9685 28.0272 69.9422 35.132 69.0694 36.8755C67.7165 39.4471 68.4584 39.8394 73.128 38.9241ZM101.931 22.012C100.666 22.0992 100.36 22.3172 100.448 22.9274L100.461 23.0162C100.51 23.3386 100.538 23.5238 100.466 23.5801C100.368 23.656 100.087 23.4969 99.4274 23.123L99.3129 23.0581C98.4837 22.6223 98.3964 22.4043 98.8765 22.0556C99.1819 21.7941 100.011 21.4018 100.666 21.271L101.888 20.9659L100.971 20.007C100.491 19.4404 100.229 18.9173 100.36 18.743C100.709 18.3943 104.986 18.8737 105.597 19.3532C105.859 19.5711 106.252 19.5275 106.514 19.266C107.125 18.6558 107.954 19.1353 107.954 20.0942C107.954 20.6172 107.823 20.6608 107.43 20.2685C107.081 19.9198 106.776 19.9198 106.383 20.2249C106.034 20.5301 105.772 20.5301 105.554 20.1814C105.423 19.9634 104.593 19.7455 103.721 19.7455C102.915 19.7455 102.535 19.7455 102.457 19.8987C102.387 20.0362 102.561 20.297 102.891 20.7916C103.588 21.8779 103.546 21.8813 101.946 22.0108L101.931 22.012ZM95.2978 10.4177C95.2978 9.85106 94.7742 8.84854 94.1195 8.19472L92.8976 6.97427L99.4438 7.23579C103.066 7.41014 107.168 7.80243 108.608 8.19472C110.049 8.54342 111.707 8.80495 112.318 8.80495C113.234 8.80495 113.06 8.6306 111.358 7.71526C108.39 6.18969 104.593 5.44869 97.3054 4.92564C88.5771 4.31541 84.1693 5.14358 84.9985 7.32297C85.1294 7.75884 85.8277 7.97678 86.8751 7.97678C89.0135 7.97678 92.5048 9.24083 93.6831 10.4177C94.9487 11.6817 95.2978 11.6817 95.2978 10.4177ZM74.0008 125.838C77.5358 130.371 82.2054 135.515 84.3875 137.258C85.6967 138.304 86.8314 139.176 86.9187 139.176C86.9623 139.176 86.0022 137.171 84.7803 134.73C79.8488 124.923 76.9685 115.159 75.6156 103.913C75.3101 101.429 74.83 99.3367 74.3063 98.465C73.2589 96.7215 73.2589 94.4549 74.35 92.3191C74.9173 91.1858 75.2228 89.7474 75.2228 88.1783V85.7809L73.128 87.9603C71.0769 90.0961 69.113 90.9679 69.113 89.6602C69.113 88.7013 72.3425 84.081 74.0445 82.6426C75.3974 81.5093 75.5719 81.1171 76.0084 77.7172C76.3138 75.6686 77.0121 72.0508 77.5794 69.6535C78.1904 67.2561 78.5395 65.2075 78.4523 65.1203C78.1468 64.8152 67.8911 76.5794 66.4945 80.3325C66.1879 81.1565 65.3598 82.599 64.7052 83.4708L63.5706 84.9259C63.5706 84.9259 63.923 86.9634 64.3125 89.5241C64.7059 92.1112 64.8905 93.8897 65.055 95.4737C65.2749 97.5928 65.4588 99.3638 66.0581 102.257C66.7564 105.831 67.4546 108.926 67.6292 109.144C67.7601 109.405 68.3275 111.411 68.8948 113.634C70.1168 118.559 72.1679 123.441 74.0008 125.838ZM251.098 167.072L250.181 166.157C250.181 166.157 265.392 146.855 268.118 139.743C270.198 134.315 271.422 132.776 273.074 132.776C273.997 132.776 274.751 132.986 275.1 133.51C275.711 134.425 276.3 135.558 275.515 139.437C274.205 145.714 272.198 149.855 266.175 158.79C264.779 160.839 262.99 163.106 262.204 163.89C260.371 165.59 256.247 167.334 253.847 167.726C252.32 167.944 251.883 167.857 251.098 167.072Z" fill="#00160A"/>
  <path d="M371.941 209.712C377.37 194.937 376.548 191.789 375.607 191.481C375.607 191.481 373.533 192.658 372.617 195.143C370.915 199.807 365.089 212.011 362.907 214.19C360.332 216.762 360.332 216.762 357.714 216.762C355.095 216.762 347.543 212.824 346.515 208.941C344.87 202.73 351.953 181.151 352.127 179.93L350.949 179.102C350.164 179.843 339.946 210.791 326.51 202.727C324.972 201.804 321.709 197.453 321.448 195.143C319.993 188.43 326.666 164.958 327.8 160.137C328.816 155.822 334.104 151.816 340.606 151.816C350.6 151.816 349.258 160.542 353.734 163.616C355.718 164.979 358.978 162.508 359.983 162.321C365.613 161.275 367.77 162.493 371.897 165.764C375.083 168.29 377.44 173.288 380.034 175.049C381.476 176.027 383.005 174.69 383.506 174.438C385.559 173.409 389.965 174.177 391.187 175.049C392.978 175.829 397.368 180.043 398.061 182.495C401.204 193.604 391.279 218.234 387.532 222.854C381.33 230.502 366.511 224.487 371.941 209.712Z" fill="white"/>
  <path fill-rule="evenodd" clip-rule="evenodd" d="M121.046 169.228C133.004 176.768 145.334 181.694 159.386 183.045C170.471 184.091 185.417 182.653 196.153 179.166C205.187 176.245 217.406 168.155 225.567 161.312C241.409 148.061 251.403 127.364 255.767 105.395C256.378 102.301 257.31 94.5215 257.266 86.8065C257.266 77.8274 253.31 53.2901 241.322 39.142C216.597 9.96163 175.954 -3.18331 141.797 8.04818C129.475 12.0998 116.356 19.4404 106.449 29.0297C93.968 41.1907 84.7597 57.754 81.0938 74.6661C77.2534 92.537 82.2491 113.895 90.9337 131.417C97.8727 145.365 109.307 161.774 121.046 169.228ZM237.569 116.554C229.364 141.181 207.98 159.575 181.097 165.154C176.995 165.982 174.158 166.288 168.397 166.375C164.339 166.505 160.28 166.462 159.451 166.375C140.641 164.108 126.327 157.178 113.147 144.014C107.387 138.217 104.943 135.079 101.364 128.889C95.7343 119.082 92.723 109.057 91.8065 96.983C88.6644 55.6182 118.297 21.1403 160.018 17.5661C176.384 16.1713 194.538 21.1839 208.329 30.9475C213.435 34.5653 222.687 43.7187 225.567 47.9903C226.746 49.6903 238.18 66.3844 240.187 75.9737C242.762 88.4398 241.758 104.044 237.569 116.554Z" fill="white"/>
  <path fill-rule="evenodd" clip-rule="evenodd" d="M257.282 86.8065C257.282 116.063 243.426 148.048 225.543 161.708C217.012 168.225 205.862 176.117 196.153 179.166C181.924 183.634 159.386 183.045 159.386 183.045C159.386 183.045 182.38 179.975 190.9 176.55C215.334 166.729 228.673 151.653 236.909 137.188C253.167 108.634 257.282 86.0957 257.282 86.8065Z" fill="#E7EAEE"/>
  <path fill-rule="evenodd" clip-rule="evenodd" d="M159.887 161.144C148.235 159.662 136.67 155.521 127.331 149.375C121.788 145.758 113.409 137.258 109.35 131.199C103.546 122.482 99.7056 113.154 97.8291 103.129C96.4762 95.8497 96.5198 84.6477 97.8727 78.1531C99.2692 71.5277 101.059 66.4716 104.244 60.0642C107.954 52.6542 111.882 47.2058 117.773 41.3214C127.811 31.2962 139.463 24.9324 153.341 21.8813C157.836 20.9223 174.114 20.1378 174.682 20.8788C174.812 21.0967 175.685 21.6633 176.602 22.1428C177.518 22.6659 179.962 24.4965 181.97 26.2836C184.981 28.8989 186.334 30.5552 188.952 34.6525C190.742 37.4421 192.182 39.9702 192.182 40.1881C192.182 40.6676 193.578 41.5394 194.364 41.5394C195.455 41.5394 196.197 38.2703 196.415 32.5167C196.546 29.3348 196.808 26.7195 196.982 26.7195C197.593 26.7195 204.314 30.4245 207.456 32.5167C213.61 36.6139 219.763 42.3675 224.302 48.3826C226.353 51.0851 226.658 51.7825 226.658 53.4388C226.658 54.9644 227.095 56.1413 228.448 58.495C231.852 64.4229 234.514 71.8764 236.129 80.1145C237.176 85.6502 237.176 96.1112 236.085 101.908C233.117 117.862 224.302 133.727 212.824 143.796C203.092 152.296 192.749 157.526 180.53 160.098C176.34 161.013 163.771 161.624 159.887 161.144ZM128.684 131.33C129.076 130.894 129.338 130.24 129.207 129.935C129.168 129.844 128.621 129.587 127.822 129.212C125.957 128.336 122.715 126.814 121.311 125.228C115.724 118.864 113.673 114.113 112.408 104.306C111.186 94.76 112.212 88.3067 114.415 77.9351C115.49 72.8756 118.346 68.6965 120.123 66.0964C121.331 64.3285 122.041 63.2907 121.352 63.2025C119.65 62.941 119.388 63.0717 117.599 64.7716C113.758 68.433 112.013 71.3534 110.18 76.9762C107.343 85.7809 106.795 109.576 112.408 120.302C118.021 131.029 127.68 132.463 128.684 131.33ZM190.742 94.7164C190 101.488 186.858 111.28 183.192 115.551C181.49 117.556 175.242 121 169.968 120.302C164.874 119.629 160.891 117.251 157.487 112.152C154.563 107.749 153.053 102.405 152.032 95.6754C150.269 84.0538 157.967 70.5252 161.284 67.169C164.644 63.7255 167.044 62.5051 170.099 62.4615C173.067 62.4615 174.987 63.1153 177.998 65.2511C183.497 69.0868 192.182 81.5587 190.742 94.7164ZM131.913 58.6693C132.786 57.6668 132.917 57.1874 132.655 55.3131C132.48 53.5696 132.131 52.8722 131.215 52.1312C129.6 50.8236 127.592 50.8236 126.109 52.2184C125.061 53.2209 124.93 53.5696 125.061 55.9669C125.192 58.5386 125.279 58.7129 126.72 59.4975C128.64 60.5436 130.516 60.2385 131.913 58.6693ZM159.145 31.7757C151.29 37.3985 147.886 39.7087 144.351 41.8881C141.558 43.6316 140.685 43.6752 140.685 42.106C140.685 41.2778 141.296 40.3625 142.867 38.9241L145.049 36.9191L140.816 36.3524C136.059 35.7422 131.433 34.4346 130.429 33.432C128.771 31.7321 130.211 31.3398 134.924 32.2116C137.019 32.5603 141.078 32.9962 143.958 33.0833L149.195 33.3013L152.992 30.5552C161.327 24.5401 169.968 21.1403 174.114 22.1864C176.689 22.7966 176.384 23.494 173.46 23.8427C170.099 24.235 168.048 25.3683 159.145 31.7757Z" fill="white"/>
  <path d="M170.361 114.331C170.361 114.113 170.623 113.895 170.972 113.895C171.321 113.895 171.758 114.113 171.888 114.331C172.019 114.592 171.758 114.767 171.278 114.767C170.754 114.767 170.361 114.592 170.361 114.331Z" fill="white"/>
  <path d="M172.98 113.939C172.98 113.459 174.071 113.023 175.293 113.023C176.253 113.067 176.253 113.067 175.423 113.677C174.463 114.418 172.98 114.549 172.98 113.939Z" fill="white"/>
  <path d="M166.215 112.805C166.084 112.457 165.91 111.846 165.779 111.498C165.648 111.062 165.866 110.844 166.433 110.844C166.913 110.844 167.306 111.105 167.306 111.454C167.306 111.803 167.437 112.369 167.568 112.762C167.743 113.241 167.612 113.459 167.132 113.459C166.739 113.459 166.302 113.154 166.215 112.805Z" fill="white"/>
  <path d="M168.528 111.716C168.31 110.408 168.79 109.972 170.361 109.972C170.841 109.972 171.234 110.408 171.408 111.149C171.758 112.413 171.19 113.023 169.663 113.023C168.965 113.023 168.659 112.718 168.528 111.716Z" fill="white"/>
  <path d="M164.077 111.934C163.248 111.28 163.247 111.28 164.164 111.28C164.731 111.28 165.124 111.541 165.124 111.934C165.124 112.718 165.124 112.718 164.077 111.934Z" fill="white"/>
  <path d="M172.849 111.89C172.281 111.323 172.543 109.623 173.241 109.362C174.507 108.882 175.074 109.1 175.336 110.234C175.511 110.887 175.598 111.454 175.511 111.498C175.162 111.89 173.11 112.152 172.849 111.89Z" fill="white"/>
  <path d="M176.733 110.975C176.602 110.844 176.471 110.277 176.471 109.754C176.471 109.013 176.82 108.708 177.867 108.49C178.784 108.316 179.351 108.403 179.613 108.752C180.049 109.449 180.049 110.321 179.657 110.539C178.871 110.975 177.038 111.236 176.733 110.975Z" fill="white"/>
  <path d="M162.069 109.623C162.069 109.1 162.462 108.665 163.029 108.534C164.164 108.229 164.12 108.185 164.339 109.318C164.426 109.972 164.208 110.234 163.291 110.321C162.331 110.452 162.069 110.277 162.069 109.623Z" fill="white"/>
  <path d="M165.386 109.667C164.775 109.013 165.168 107.793 165.997 107.793C166.564 107.793 166.87 108.098 166.87 108.621C166.87 109.449 165.866 110.146 165.386 109.667Z" fill="white"/>
  <path d="M168.004 108.359C167.655 107.531 168.397 106.921 169.837 106.921C170.492 106.921 170.797 107.183 170.797 107.749C170.797 108.229 170.405 108.665 169.837 108.839C168.397 109.188 168.31 109.188 168.004 108.359Z" fill="white"/>
  <path d="M180.617 108.229C180.748 108.011 180.966 107.793 181.097 107.793C181.228 107.793 181.184 108.011 181.053 108.229C180.922 108.49 180.704 108.665 180.573 108.665C180.442 108.665 180.486 108.49 180.617 108.229Z" fill="white"/>
  <path d="M171.932 107.488C171.583 106.616 172.019 106.18 173.416 105.962C174.201 105.875 174.551 106.049 174.638 106.659C174.943 108.098 172.456 108.882 171.932 107.488Z" fill="white"/>
  <path d="M161.458 106.747C161.065 105.308 161.153 105.177 162.287 105.177C162.898 105.177 163.378 105.352 163.378 105.57C163.378 105.788 163.509 106.267 163.64 106.616C163.771 107.052 163.509 107.313 162.767 107.444C161.938 107.618 161.633 107.444 161.458 106.747Z" fill="white"/>
  <path d="M176.034 106.267C176.034 105.483 176.34 105.134 177.169 104.916C178.391 104.611 179.089 105.221 179.089 106.616C179.089 107.183 178.74 107.357 177.562 107.357C176.209 107.357 176.034 107.226 176.034 106.267Z" fill="white"/>
  <path d="M160.149 106.267C160.018 105.918 160.105 105.613 160.324 105.613C160.585 105.613 160.76 105.918 160.76 106.267C160.76 106.616 160.673 106.921 160.585 106.921C160.498 106.921 160.324 106.616 160.149 106.267Z" fill="white"/>
  <path d="M164.557 106.616C163.946 106.049 164.295 104.829 165.08 104.611C165.561 104.48 166.041 104.524 166.171 104.654C166.695 105.134 166.39 106.398 165.735 106.659C164.906 106.965 164.906 106.965 164.557 106.616Z" fill="white"/>
  <path d="M180.137 106.311C179.657 105.047 180.18 104.088 181.402 103.957C182.319 103.826 182.581 104.001 182.581 104.698C182.581 106.136 182.101 106.921 181.228 106.921C180.748 106.921 180.268 106.659 180.137 106.311Z" fill="white"/>
  <path d="M167.612 105.744C167.088 105.265 167.263 104.393 168.004 104.131C168.834 103.826 170.579 104.698 170.099 105.177C169.488 105.701 167.917 106.093 167.612 105.744Z" fill="white"/>
  <path d="M171.408 104.654C171.016 104.044 172.412 102.998 173.547 102.998C174.071 102.998 174.289 103.26 174.202 103.739C174.027 104.611 171.801 105.308 171.408 104.654Z" fill="white"/>
  <path d="M159.451 104.349C159.451 104.131 159.32 103.652 159.189 103.26C159.058 102.867 159.102 102.562 159.363 102.562C159.931 102.562 160.367 104.219 159.843 104.567C159.625 104.698 159.451 104.611 159.451 104.349Z" fill="white"/>
  <path d="M160.629 103.347C160.367 102.388 160.891 101.69 161.895 101.69C162.462 101.69 163.029 103.39 162.68 103.957C162.2 104.698 160.847 104.262 160.629 103.347Z" fill="white"/>
  <path d="M163.684 103.565C163.029 102.911 163.422 101.342 164.295 101.124C164.95 100.949 165.299 101.167 165.648 101.952C165.91 102.519 166.041 103.085 165.953 103.172C165.517 103.565 163.946 103.87 163.684 103.565Z" fill="white"/>
  <path d="M175.467 103.565C174.9 102.998 175.162 102.649 176.471 102.17C177.562 101.821 177.867 101.865 178.086 102.388C178.478 103.434 176.296 104.437 175.467 103.565Z" fill="white"/>
  <path d="M179.308 102.562C178.871 101.865 179.482 101.255 180.617 101.255C181.97 101.255 182.362 102.388 181.141 102.737C179.831 103.085 179.613 103.042 179.308 102.562Z" fill="white"/>
  <path d="M183.017 101.516C183.017 100.862 183.803 100.165 184.152 100.514C184.457 100.819 183.846 102.126 183.41 102.126C183.192 102.126 183.017 101.865 183.017 101.516Z" fill="white"/>
  <path d="M158.883 100.949C158.709 100.819 158.578 100.252 158.622 99.7726C158.622 98.9444 158.665 98.9444 159.058 99.9034C159.494 100.949 159.407 101.473 158.883 100.949Z" fill="white"/>
  <path d="M159.713 100.296C159.32 98.7701 159.363 98.6393 160.498 98.6393C161.764 98.6393 162.549 100.252 161.589 100.862C160.585 101.473 160.018 101.298 159.713 100.296Z" fill="white"/>
  <path d="M174.725 101.167C174.725 101.037 174.943 100.339 175.205 99.5547C175.816 97.8112 177.169 97.724 177.475 99.4239C177.606 100.078 177.649 100.644 177.606 100.688C177.387 100.949 174.725 101.342 174.725 101.167Z" fill="white"/>
  <path d="M162.811 100.078C162.637 99.947 162.506 99.4239 162.506 98.9445C162.506 98.247 162.637 98.2035 163.16 98.6393C163.509 98.9445 163.815 99.4675 163.815 99.7726C163.815 100.426 163.291 100.601 162.811 100.078Z" fill="white"/>
  <path d="M178.522 99.206C178.26 97.8547 178.827 97.2445 180.18 97.4189C180.835 97.506 181.053 97.8983 181.053 98.8573C181.053 99.947 180.879 100.208 179.919 100.296C178.958 100.426 178.74 100.208 178.522 99.206Z" fill="white"/>
  <path d="M182.799 99.3803C182.231 97.6368 182.406 97.1138 183.584 96.983C184.632 96.8522 184.763 96.983 184.763 98.1163C184.763 99.0752 184.501 99.4675 183.846 99.6419C183.366 99.7726 182.886 99.6419 182.799 99.3803Z" fill="white"/>
  <path d="M158.229 96.8958C158.229 96.0676 158.316 95.7189 158.447 96.1548C158.534 96.5471 158.534 97.2445 158.447 97.6804C158.316 98.0727 158.229 97.724 158.229 96.8958Z" fill="white"/>
  <path d="M159.32 97.4625C158.752 96.9394 159.014 95.2395 159.713 94.978C160.716 94.5857 161.196 95.0651 161.196 96.5035C161.196 97.4189 160.978 97.7676 160.411 97.7676C159.974 97.7676 159.451 97.6368 159.32 97.4625Z" fill="white"/>
  <path d="M161.938 96.2856C161.764 95.6318 161.676 94.9344 161.851 94.8036C162.287 94.3677 162.549 95.0651 162.418 96.3292L162.287 97.5496L161.938 96.2856Z" fill="white"/>
  <path d="M176.034 95.9805C176.034 95.501 176.253 95.2395 176.471 95.3702C176.733 95.501 176.907 95.9369 176.907 96.2856C176.907 96.6343 176.733 96.8958 176.471 96.8958C176.253 96.8958 176.034 96.5035 176.034 95.9805Z" fill="white"/>
  <path d="M177.998 96.5471C177.387 95.8933 177.867 94.7164 178.871 94.4549C180.137 94.1498 180.18 94.1498 180.573 95.4138C180.835 96.1984 180.66 96.3728 179.526 96.5471C178.827 96.6779 178.129 96.6343 177.998 96.5471Z" fill="white"/>
  <path d="M182.013 95.7189C181.533 95.2831 181.664 93.8447 182.144 93.8447C182.406 93.8447 182.581 93.6703 182.581 93.4088C182.581 93.1908 182.319 92.9729 181.97 92.9729C181.228 92.9729 180.617 90.8371 181.228 90.2269C182.013 89.4423 182.886 90.2705 183.41 92.4063C183.715 93.5396 184.021 94.8472 184.152 95.2831C184.326 95.8497 184.152 96.0241 183.323 96.0241C182.755 96.0241 182.144 95.8933 182.013 95.7189Z" fill="white"/>
  <path d="M184.37 93.4088C184.064 92.1012 183.279 89.4859 182.712 87.568C181.839 84.7784 181.751 84.081 182.232 83.7759C182.537 83.558 182.93 83.3836 183.061 83.3836C183.541 83.3836 185.286 92.3191 185.112 94.0626L184.981 95.8061L184.37 93.4088Z" fill="white"/>
  <path d="M157.792 93.1909C157.792 92.4935 157.88 92.2319 158.011 92.6678C158.098 93.0601 158.098 93.6703 158.011 93.9754C157.88 94.237 157.792 93.9318 157.792 93.1909Z" fill="white"/>
  <path d="M158.665 93.1037C158.84 91.5781 160.105 91.2294 160.454 92.6242C160.76 93.7575 160.847 93.6267 159.538 94.0626C158.622 94.3241 158.534 94.237 158.665 93.1037Z" fill="white"/>
  <path d="M177.082 92.7114C176.733 91.4473 177.475 90.7063 178.871 90.8807C179.919 91.0115 180.311 92.8857 179.438 93.4524C178.347 94.1498 177.344 93.8447 177.082 92.7114Z" fill="white"/>
  <path d="M161.196 92.3627C161.196 91.6217 161.415 91.2294 161.895 91.2294C162.331 91.2294 162.506 91.5345 162.418 92.1883C162.2 93.5831 161.196 93.7139 161.196 92.3627Z" fill="white"/>
  <path d="M157.312 90.532C157.312 90.0525 157.443 89.9218 157.574 90.2705C157.705 90.5756 157.661 90.9679 157.53 91.0986C157.4 91.273 157.269 91.0115 157.312 90.532Z" fill="white"/>
  <path d="M158.141 90.4012C158.141 89.7474 158.403 89.4859 159.058 89.4859C159.669 89.4859 159.887 89.7038 159.8 90.2269C159.582 91.3602 158.141 91.4909 158.141 90.4012Z" fill="white"/>
  <path d="M160.542 90.0089C160.236 89.2244 160.236 89.2244 161.545 88.8757C162.331 88.6141 162.506 88.7449 162.506 89.3987C162.506 90.4448 160.935 90.9679 160.542 90.0089Z" fill="white"/>
  <path d="M176.34 89.3987C176.034 88.309 176.602 87.7424 178.129 87.7424C178.871 87.7424 179.089 88.0039 179.089 88.8321C179.089 89.4859 178.827 89.9218 178.478 89.9218C178.129 89.9218 177.562 90.0525 177.213 90.1833C176.82 90.3141 176.515 90.0525 176.34 89.3987Z" fill="white"/>
  <path d="M180.137 88.3962C179.788 87.5245 180.311 86.8706 181.315 86.8706C181.926 86.8706 182.144 87.1758 182.144 87.9603C182.144 88.7449 181.926 89.05 181.271 89.05C180.791 89.05 180.268 88.7449 180.137 88.3962Z" fill="white"/>
  <path d="M157.705 87.786C157.705 86.8706 158.709 85.8245 159.145 86.304C159.32 86.4348 159.451 87.045 159.451 87.6116C159.451 88.309 159.189 88.6141 158.578 88.6141C158.011 88.6141 157.705 88.309 157.705 87.786Z" fill="white"/>
  <path d="M160.105 87.2629C159.756 86.1732 160.149 85.6938 161.633 85.4758C162.986 85.3015 163.422 86.7399 162.244 87.6116C161.109 88.4398 160.411 88.309 160.105 87.2629Z" fill="white"/>
  <path d="M175.904 87.0014C175.598 86.7399 175.467 85.1271 175.729 85.1271C175.773 85.1271 176.427 84.9528 177.213 84.7348C178.522 84.3425 178.609 84.3861 178.566 85.563C178.522 86.4348 178.26 86.8706 177.606 87.045C176.427 87.3501 176.253 87.3501 175.904 87.0014Z" fill="white"/>
  <path d="M174.289 85.9989C174.289 85.6938 174.42 85.563 174.594 85.6938C174.725 85.8681 174.725 86.1296 174.594 86.304C174.42 86.4348 174.289 86.304 174.289 85.9989Z" fill="white"/>
  <path d="M179.177 85.3015C179.308 84.5605 180.66 83.4708 180.966 83.8195C181.097 83.9502 181.315 84.4733 181.446 85.0399C181.751 85.9117 181.621 85.9989 180.399 85.9989C179.351 85.9989 179.046 85.8245 179.177 85.3015Z" fill="white"/>
  <path d="M158.141 85.2579C158.141 85.0399 158.36 84.6041 158.578 84.2554C158.927 83.7323 159.014 83.7759 159.014 84.6041C159.014 85.1271 158.84 85.563 158.578 85.563C158.36 85.563 158.141 85.4322 158.141 85.2579Z" fill="white"/>
  <path d="M159.451 84.2989C159.451 83.0785 160.367 82.6862 161.065 83.6015C161.502 84.2554 161.502 84.4733 161.065 84.7784C160.149 85.345 159.451 85.1707 159.451 84.2989Z" fill="white"/>
  <path d="M172.718 83.7323C171.932 82.8605 171.932 82.817 172.674 83.0785C173.11 83.2528 173.678 83.3836 173.896 83.3836C174.114 83.3836 174.289 83.6887 174.289 84.0374C174.289 84.9528 173.678 84.8656 172.718 83.7323Z" fill="white"/>
  <path d="M163.335 83.6887C161.458 82.2503 161.196 79.0248 162.942 79.0248C164.12 79.0248 165.211 80.8555 165.037 82.5554C164.906 84.1246 164.382 84.4733 163.335 83.6887Z" fill="white"/>
  <path d="M175.293 83.9502C175.467 83.8195 175.729 83.8195 175.904 83.9502C176.034 84.1246 175.904 84.2554 175.598 84.2554C175.293 84.2554 175.162 84.1246 175.293 83.9502Z" fill="white"/>
  <path d="M181.882 82.2503C182.013 81.858 182.144 81.4657 182.144 81.3786C182.144 81.2914 182.362 81.2042 182.581 81.2042C182.843 81.2042 183.017 81.5965 183.017 82.076C183.017 82.599 182.712 82.9477 182.319 82.9477C181.839 82.9477 181.708 82.7298 181.882 82.2503Z" fill="white"/>
  <path d="M159.014 82.1196C159.014 81.117 159.931 79.4607 160.454 79.4607C161.371 79.4607 160.716 82.2503 159.756 82.4247C159.363 82.5118 159.014 82.3811 159.014 82.1196Z" fill="white"/>
  <path d="M168.834 81.6401L167.524 81.335L168.703 81.0299C169.925 80.6812 170.797 80.9427 170.797 81.6837C170.797 82.1196 170.754 82.1196 168.834 81.6401Z" fill="white"/>
  <path d="M167.306 79.5479C167.306 77.7608 168.31 77.4993 169.226 79.0684C169.837 80.1145 169.881 80.3325 169.314 80.3325C168.965 80.3325 168.397 80.4632 168.004 80.594C167.481 80.8119 167.306 80.5504 167.306 79.5479Z" fill="white"/>
  <path d="M174.9 80.1581C172.936 79.2864 171.67 76.9762 171.67 74.2302C171.67 72.2687 171.845 71.7893 173.023 70.6996C173.765 70.0022 174.507 69.4355 174.725 69.4355C175.685 69.4355 179.22 72.7918 180.399 74.884L181.751 77.2813L180.311 78.8069C178.653 80.5504 176.82 81.0299 174.9 80.1581Z" fill="white"/>
  <path d="M165.779 79.0248C165.648 78.8069 165.735 78.589 165.953 78.589C166.215 78.589 166.433 78.8069 166.433 79.0248C166.433 79.2864 166.346 79.4607 166.259 79.4607C166.128 79.4607 165.91 79.2864 165.779 79.0248Z" fill="white"/>
  <path d="M160.062 78.3274C160.193 77.9351 160.324 77.5428 160.324 77.4557C160.324 77.3685 160.716 77.2813 161.196 77.2813C162.287 77.2813 162.331 77.9787 161.24 78.589C160.062 79.1992 159.756 79.1556 160.062 78.3274Z" fill="white"/>
  <path d="M163.509 77.8044C162.506 77.6736 162.2 77.107 162.855 76.7147C163.029 76.5839 163.815 76.366 164.6 76.1916C165.779 75.9301 165.997 76.0173 165.997 76.7583C165.997 77.6736 165.08 78.0659 163.509 77.8044Z" fill="white"/>
  <path d="M166.87 76.3224C166.87 75.7993 166.913 75.4942 167.001 75.5814C167.044 75.6686 167.393 76.1044 167.699 76.5403C168.223 77.1506 168.179 77.2813 167.568 77.2813C167.132 77.2813 166.87 76.9326 166.87 76.3224Z" fill="white"/>
  <path d="M160.76 76.0173C160.76 75.7557 160.978 75.4506 161.196 75.3199C161.458 75.1891 161.633 75.3634 161.633 75.7122C161.633 76.1044 161.458 76.4096 161.196 76.4096C160.978 76.4096 160.76 76.2352 160.76 76.0173Z" fill="white"/>
  <path d="M162.375 75.3635C162.026 74.4917 165.124 73.5328 165.648 74.3609C166.041 75.0583 165.648 75.3635 163.989 75.7122C162.986 75.9301 162.549 75.8429 162.375 75.3635Z" fill="white"/>
  <path d="M166.477 73.9687C166.477 73.4892 166.608 73.3584 166.739 73.7071C166.87 74.0122 166.826 74.4045 166.695 74.5353C166.564 74.7096 166.433 74.4481 166.477 73.9687Z" fill="white"/>
  <path d="M162.767 73.2712C163.291 72.3123 164.819 70.7432 165.211 70.7432C165.648 70.7432 165.691 72.7918 165.255 73.0533C165.037 73.1405 164.339 73.3584 163.684 73.5328C162.724 73.7507 162.506 73.7071 162.767 73.2712Z" fill="white"/>
  <path d="M166.259 72.2687C165.779 70.9611 165.997 70.3945 167.044 70.2201C168.135 70.0022 168.135 70.0022 167.437 71.3534C166.564 73.0969 166.608 73.0969 166.259 72.2687Z" fill="white"/>
  <path d="M165.997 69.6535C165.997 69.5663 166.87 68.9561 167.961 68.3458C169.27 67.5612 170.187 67.2997 170.841 67.4741C171.627 67.7356 171.408 67.91 169.488 68.8253C167.35 69.7842 165.997 70.1329 165.997 69.6535Z" fill="white"/>
  <path d="M190.218 31.0347C189.04 29.3348 186.552 26.5888 184.763 24.9324C182.973 23.2761 181.795 21.9249 182.144 21.9249C183.104 21.9249 190.436 23.9299 192.269 24.7145C193.796 25.3683 193.84 25.4555 193.447 26.8067C193.229 27.5913 193.055 29.5527 193.055 31.1655C193.055 32.8218 192.924 34.1294 192.749 34.1294C192.531 34.1294 191.44 32.7346 190.218 31.0347Z" fill="white"/>
  <path d="M101.408 163.062C99.6183 162.147 99.2256 161.624 96.9562 157.134C93.6831 150.77 93.5958 149.288 96.6944 152.906C97.9163 154.344 100.753 157.308 102.979 159.488C106.776 163.149 106.95 163.411 105.684 163.236C104.768 163.106 104.419 163.193 104.637 163.542C105.161 164.326 103.502 164.108 101.408 163.062Z" fill="white"/>
  <path fill-rule="evenodd" clip-rule="evenodd" d="M174.546 242.475C174.183 241.616 174.587 240.626 175.447 240.264L176.388 239.866C185.529 235.959 190.776 233.613 194.342 229.886C197.907 226.16 198.334 220.686 199.003 217.356C199.187 216.442 201.259 218.047 202.175 218.231C203.09 218.414 203.683 219.304 203.499 220.218C202.693 224.223 200.525 228.04 197.033 231.664C193.553 235.276 186.816 239.147 176.759 243.376C175.899 243.738 174.908 243.334 174.546 242.475Z" fill="#00160A"/>
  <path fill-rule="evenodd" clip-rule="evenodd" d="M215.885 68.5599C216.687 68.0831 217.725 68.3459 218.202 69.147C222.982 77.1678 225.543 86.3367 225.543 95.876C225.543 124.776 202.087 148.204 173.151 148.204C165.462 148.204 158.005 146.548 151.176 143.392C150.328 143.001 147.128 139.884 150.351 141.151C153.574 142.419 166.045 145.265 173.241 145.265C200.31 145.265 219.459 122.912 219.459 95.876C219.459 86.9488 215.885 79.0248 215.297 70.8738C215.229 69.929 215.083 69.0368 215.885 68.5599Z" fill="#00160A"/>
  <path fill-rule="evenodd" clip-rule="evenodd" d="M48.5032 196.316C49.1006 195.6 50.1663 194.152 50.8835 194.749C53.8257 197.197 56.9654 200.033 60.3238 200.58C63.8187 201.149 67.9647 201.149 72.7566 200.57C73.6833 200.458 74.5254 201.117 74.6376 202.043C74.7498 202.968 74.0895 203.81 73.1629 203.922C68.0741 204.537 63.6148 204.537 59.7795 203.912C55.8078 203.265 52.1142 201.517 48.7201 198.693C48.0029 198.097 47.9058 197.032 48.5032 196.316Z" fill="#00160A"/>
  <path d="M84.3875 137.258C82.2054 135.515 77.5358 130.371 74.0008 125.838C72.1679 123.441 70.1168 118.559 68.8948 113.634C68.3275 111.411 67.7601 109.405 67.6292 109.144C67.4546 108.926 66.7564 105.831 66.0581 102.257C65.0107 97.2009 65.2323 95.572 64.3125 89.5241C63.923 86.9634 63.5706 84.9259 63.5706 84.9259L64.7052 83.4708C65.3598 82.599 66.1879 81.1565 66.4945 80.3325C67.8911 76.5794 78.1468 64.8152 78.4523 65.1203C78.5395 65.2075 78.1904 67.2561 77.5794 69.6535C77.0121 72.0508 76.3138 75.6686 76.0084 77.7172C75.5719 81.1171 75.3974 81.5093 74.0445 82.6426C72.3425 84.081 69.113 88.7013 69.113 89.6602C69.113 90.9679 71.0769 90.0961 73.128 87.9603L75.2228 85.7809V88.1783C75.2228 89.7474 74.9173 91.1858 74.35 92.3191C73.2589 94.4549 73.2589 96.7215 74.3063 98.465C74.83 99.3367 75.3101 101.429 75.6156 103.913C76.9685 115.159 79.8488 124.923 84.7803 134.73C86.0022 137.171 86.9623 139.176 86.9187 139.176C86.8314 139.176 85.6967 138.304 84.3875 137.258Z" fill="white"/>
  <path fill-rule="evenodd" clip-rule="evenodd" d="M265.979 164.152L269.122 165.547C269.773 165.847 276.961 169.296 285.595 173.44C299.515 180.12 317.194 188.604 317.302 188.604C317.476 188.604 318.295 186.713 318.48 184.507C318.916 179.756 320.531 173.305 322.408 168.816C323.281 166.811 323.979 164.305 323.979 164.087C323.979 163.987 323.269 163.701 322.108 163.234C320.725 162.676 318.702 161.861 316.472 160.795C305.475 155.521 283.96 144.755 281.297 143.142C278.679 141.617 278.155 141.486 278.155 142.489C278.155 143.796 275.493 149.855 273.442 153.124C272.351 154.911 270.213 158.137 268.685 160.272L265.979 164.152ZM316.56 180.759C317.811 181.483 315.643 182.546 315.12 182.72C312.036 182.982 308.406 182.402 305.431 180.671C303.876 179.57 291.63 172.775 283.507 168.268C279.793 166.207 276.941 164.624 276.366 164.283C274.533 163.193 272.787 162.016 272.482 161.667C271.565 160.49 272.438 159.967 275.013 160.185C276.561 160.316 313.857 179.194 316.56 180.759Z" fill="white"/>
  <path d="M234.645 168.075C233.51 167.682 232.288 166.811 231.503 165.808L230.193 164.195L234.819 159.619C241.933 152.645 247.17 145.023 251.883 136.523C253.454 133.69 258.124 122.264 258.691 121C259.564 119.169 260.219 118.472 262.095 117.426C264.321 116.118 266.852 115.682 267.943 116.423C270.038 117.818 270.038 122.22 267.943 129.805C265.63 138.13 262.532 144.101 256.116 152.688C255.113 153.996 253.236 156.567 251.883 158.355C248.261 163.149 245.904 165.459 242.719 167.246C239.576 168.99 237.743 169.208 234.645 168.075Z" fill="white"/>
  <path d="M251.098 167.072L250.181 166.157C250.181 166.157 265.392 146.855 268.118 139.743C270.198 134.315 271.422 132.776 273.074 132.776C273.997 132.776 274.751 132.986 275.1 133.51C275.711 134.425 276.3 135.558 275.515 139.437C274.205 145.714 272.198 149.855 266.175 158.79C264.779 160.839 262.99 163.106 262.204 163.89C260.371 165.59 256.247 167.334 253.847 167.726C252.32 167.944 251.883 167.857 251.098 167.072Z" fill="white"/>
  <path fill-rule="evenodd" clip-rule="evenodd" d="M276.648 146.889C277.528 144.877 278.155 143.123 278.155 142.489C278.155 141.486 278.679 141.617 281.297 143.142C283.96 144.755 305.475 155.521 316.472 160.795C320.575 162.757 323.979 163.869 323.979 164.087C323.979 164.305 275.715 149.021 276.648 146.889Z" fill="#E7EAEE"/>
  <path fill-rule="evenodd" clip-rule="evenodd" d="M127.331 149.375C121.788 145.758 113.409 137.258 109.35 131.199C103.546 122.482 99.7056 113.154 97.8291 103.129C96.4762 95.8497 96.5198 84.6477 97.8727 78.1531C99.2692 71.5277 101.059 66.4716 104.244 60.0642C107.954 52.6542 111.882 47.2058 117.773 41.3214C123.551 35.551 97.8727 59.414 104.244 102.11C109.35 137.889 131.294 151.984 127.331 149.375Z" fill="#E7EAEE"/>
</svg>