<svg xmlns="http://www.w3.org/2000/svg" width="411" height="330" viewBox="0 0 411 330" fill="none">
  <path d="M300.133 16.8467C296.116 6.10828 291.926 -5.09566 263.553 2.48249C248.317 6.55168 235.547 20.9285 225.107 42.2786C217.252 59.2582 210.615 81.215 205.321 107.541C194.503 161.334 189.946 230.92 192.076 298.575L187.355 298.724L187.293 296.684C185.852 247.83 187.875 198.063 193.211 153.941C170.505 130.311 144.625 111.686 125.765 105.5C81.0737 95.6325 69.2669 121.701 69.5598 144.956C69.6133 149.208 71.0974 152.745 72.5924 156.308C74.1383 159.992 75.6959 163.704 75.6959 168.264C75.6959 171.288 68.9417 177.535 60.1618 185.655C42.9007 201.62 17.8105 224.826 20.8219 245.021C23.6048 263.684 41.2533 277.855 57.4978 285.474C59.0882 286.219 60.8204 287.605 62.9046 289.273C64.3868 290.459 66.0472 291.787 67.9611 293.129L68.1082 293.231C69.6117 294.268 72.0932 295.731 75.5525 297.62L76.6197 298.2C125.559 324.635 182.357 306.825 200.056 300.252L201.091 299.864L326.601 298.465L326.585 298.366C326.55 298.161 326.494 297.857 326.422 297.464C325.242 291.062 319.701 260.989 331.5 248.87C368.347 211.024 408.752 102.714 353.817 57.327C341.676 47.2971 329.63 41.1997 320.378 36.5169C314.759 33.6728 310.171 31.3505 307.219 28.9859C303.584 26.074 301.875 21.5041 300.133 16.8467Z" fill="#DAF7DC"/>
  <path fill-rule="evenodd" clip-rule="evenodd" d="M77.8597 138.073C75.0937 137.592 79.982 143.084 79.982 143.084C79.982 143.084 80.6256 138.555 77.8597 138.073Z" fill="white"/>
  <path fill-rule="evenodd" clip-rule="evenodd" d="M119.231 298.886C119.231 298.886 89.5209 286.44 89.5209 269.111C89.5209 264.027 92.6967 264.515 99.0484 270.575C99.7392 271.234 100.729 272.246 102.017 273.611C102.807 274.447 84.9759 252.767 93.9605 248.712C102.718 244.758 104.756 265.281 105.213 264.998C105.722 264.683 105.574 258.474 107.601 255.728C108.692 254.249 111.904 253.933 114.334 255.728C127.098 265.159 119.231 298.886 119.231 298.886Z" fill="white"/>
  <path fill-rule="evenodd" clip-rule="evenodd" d="M106.46 171.762C106.46 171.762 94.1021 171.126 92.4174 167.192C90.7328 163.257 99.8973 165.493 99.8973 165.493L106.46 171.762Z" fill="white"/>
  <path fill-rule="evenodd" clip-rule="evenodd" d="M85.5597 153.108C82.7929 151.558 84.3664 147.862 85.5597 147.708C89.092 147.253 91.8793 155.09 92.2687 155.875C92.9429 157.234 86.9635 153.895 85.5597 153.108Z" fill="white"/>
  <path fill-rule="evenodd" clip-rule="evenodd" d="M114.01 176.867C114.01 176.867 107.244 159.593 113.508 160.955C119.772 162.316 117.97 182.397 117.97 182.397L114.01 176.867Z" fill="white"/>
  <path fill-rule="evenodd" clip-rule="evenodd" d="M109.467 164.285C109.556 167.086 110.751 171.385 113.047 177.245C113.078 177.325 113.12 177.401 113.17 177.471L117.129 183C117.688 183.781 118.914 183.446 119 182.489L119.072 181.662C120.185 168.273 118.578 160.996 113.727 159.942C110.905 159.329 109.364 161.019 109.467 164.285ZM113.393 161.992C116.407 162.766 117.808 168.365 117.196 178.874L117.157 179.484L114.926 176.368L114.535 175.354C112.607 170.28 111.609 166.551 111.536 164.219L111.53 163.894C111.525 162.127 112.01 161.689 113.288 161.967L113.393 161.992Z" fill="#00160A"/>
  <path fill-rule="evenodd" clip-rule="evenodd" d="M90.1151 247.664C85.7565 249.632 86.0582 254.595 89.3856 261.357L89.6411 261.867C90.2497 263.065 90.9442 264.304 91.7124 265.573L91.9771 266.006L91.9442 265.984C90.6999 265.156 89.6264 264.671 88.7028 264.529C86.2502 264.152 84.9997 265.961 84.9997 269.111C84.9997 281.239 95.228 291.489 115.414 299.946C116.069 300.22 116.812 299.84 116.974 299.148C122.313 276.26 120.632 261.447 111.641 254.804C108.882 252.766 104.894 252.893 103.304 255.045L103.166 255.24C102.491 256.234 102.019 257.544 101.67 259.171L101.654 259.243L101.609 259.064C101.361 258.09 101.098 257.171 100.801 256.25C99.8156 253.198 98.6372 250.801 97.1592 249.197C95.2136 247.086 92.795 246.455 90.1151 247.664ZM99.9893 262.218L100.493 264.596L100.551 264.843C100.588 264.993 100.622 265.113 100.656 265.215C100.702 265.352 100.751 265.466 100.827 265.586C100.921 265.736 101.039 265.868 101.226 265.981C101.59 266.201 102.057 266.214 102.443 265.975C102.939 265.668 103.06 265.405 103.196 264.536L103.259 264.102C103.304 263.781 103.468 262.418 103.496 262.201C103.606 261.34 103.716 260.629 103.851 259.951C104.169 258.361 104.596 257.16 105.149 256.411C105.905 255.387 108.455 255.306 110.278 256.652L110.517 256.833C118.101 262.681 119.743 275.929 115.185 296.66L115.044 297.293L114.578 297.09C96.3063 289.111 87.294 279.759 87.294 269.111C87.294 267.176 87.6314 266.688 88.3547 266.799C89.6348 266.996 91.8711 268.533 94.883 271.407L95.2679 271.78C95.7271 272.232 96.291 272.807 96.9587 273.505L97.848 274.439C97.8633 274.454 97.8861 274.475 97.9318 274.516L97.9463 274.551C97.9816 274.608 98.0945 274.629 98.8466 274.769L99.1087 274.677C99.4188 274.559 99.4682 274.481 99.7317 274.066L99.7918 273.815C99.8283 273.649 99.823 273.61 99.8037 273.466L99.7537 273.263C99.7426 273.223 99.7343 273.202 99.7204 273.173L99.7088 273.148C99.678 273.082 99.6604 273.048 99.631 273.003L99.3191 272.583L98.5243 271.529C98.3876 271.346 98.2499 271.16 98.0976 270.953C96.79 269.175 95.5218 267.34 94.33 265.445C93.2136 263.67 92.2392 261.958 91.4436 260.341C88.6363 254.636 88.4123 250.953 91.058 249.759C94.242 248.321 96.6866 250.974 98.6178 256.957C99.1427 258.583 99.5583 260.22 99.9893 262.218Z" fill="#00160A"/>
  <path fill-rule="evenodd" clip-rule="evenodd" d="M93.6728 156.508L94.6151 157.367C106.3 168.048 114.436 176.57 118.772 182.483C126.342 192.805 132.442 203.511 137.582 214.847C139.409 218.876 141.063 222.865 142.693 227.1L143.137 228.262C143.645 229.599 144.136 230.92 144.671 232.385L146.952 238.686C153.122 255.6 151.08 256.425 145.206 239.973L142.899 233.593C142.416 232.267 141.973 231.069 141.528 229.887L141.194 229.002C139.434 224.368 137.663 220.06 135.689 215.708C130.605 204.496 124.576 193.914 117.097 183.715L116.754 183.253C112.311 177.329 104.062 168.765 92.2752 158.05C91.8502 157.663 91.8185 157.005 92.2044 156.579C92.5903 156.154 93.2477 156.122 93.6728 156.508ZM66.3225 132.917L80.8742 145.354C82.2383 146.526 83.3015 147.444 83.8089 147.892C84.2396 148.272 84.281 148.929 83.9014 149.361C83.5218 149.792 82.865 149.833 82.4343 149.453L78.6473 146.184C73.6183 141.871 65.6787 135.105 64.9706 134.498C64.5344 134.125 64.4835 133.468 64.8569 133.031C65.2302 132.594 65.8864 132.543 66.3225 132.917Z" fill="#00160A"/>
  <path fill-rule="evenodd" clip-rule="evenodd" d="M93.2162 163.789C91.3058 164.223 90.6622 165.721 91.4665 167.6C92.8084 170.734 97.7831 172.353 106.407 172.796C107.366 172.846 107.869 171.675 107.175 171.012L100.611 164.743C100.48 164.618 100.318 164.53 100.142 164.487C96.9412 163.706 94.6634 163.461 93.2162 163.789ZM99.3837 166.434L103.663 170.521L103.406 170.497L102.76 170.429C97.2504 169.811 94.1167 168.531 93.3683 166.783L93.2905 166.596C93.0616 166.021 93.1441 165.93 93.6739 165.81C94.6503 165.588 96.4782 165.763 99.0824 166.364L99.3837 166.434Z" fill="#00160A"/>
  <path fill-rule="evenodd" clip-rule="evenodd" d="M87.1412 304.968C84.5358 306.471 85.5973 308.035 91.2159 310.531C97.2786 313.261 108.562 318.531 127.943 320.016C157.961 322.315 185.292 317.977 219.796 317.977C267.563 317.977 288.531 328.486 305.249 326.062C350.067 319.565 360.22 306.956 346.849 303.702C332.17 300.13 285.514 300.566 269.809 299.539L264.948 299.227L260.773 299.122C215.566 298.01 143.103 299.122 128.951 299.122C100.081 299.122 87.1412 304.968 87.1412 304.968Z" fill="white"/>
  <path fill-rule="evenodd" clip-rule="evenodd" d="M219.796 317.977C267.563 317.977 288.531 328.849 305.249 326.425C350.067 319.928 360.22 306.956 346.849 303.702C332.17 300.13 278.847 298.97 265.717 299.254C265.717 299.254 326.079 310.423 322.85 314.121C313.232 325.134 289.284 311.826 245.789 312.214C236.828 312.294 219.796 317.977 219.796 317.977Z" fill="#E7EAEE"/>
  <path fill-rule="evenodd" clip-rule="evenodd" d="M131.817 299.594C130.653 299.601 129.72 299.604 128.951 299.604L127.634 299.607C108.864 299.695 95.1746 301.67 86.5064 305.587L86.371 305.656C84.3464 306.824 83.5706 308.543 84.8429 310.308C85.6656 311.45 87.3881 312.528 90.2952 313.839L92.7665 314.945C95.8503 316.313 97.6791 317.054 100.425 318.021L100.723 318.125C108.644 320.896 117.433 322.788 127.825 323.584C135.209 324.149 142.734 324.344 150.983 324.229L153.871 324.178C159.295 324.066 163.915 323.876 172.356 323.422L186.947 322.613C200.85 321.859 209.332 321.558 219.346 321.549L219.796 321.549C237.718 321.549 252.359 322.915 268.598 325.577L270.007 325.813C272.454 326.238 285.911 328.612 289.627 329.147L289.756 329.165C296.24 330.079 301.037 330.262 305.47 329.619L306.71 329.436C326.84 326.424 341.387 321.938 348.733 316.974C356.073 312.015 355.408 306.333 347.457 304.288L347.214 304.227C340.611 302.62 328.077 301.728 308.601 301.144L304.606 301.03C303.442 300.999 302.239 300.968 300.974 300.937L284.019 300.544C277.49 300.383 273.486 300.243 270.455 300.058L265.047 299.712L260.811 299.604L256.506 299.507C244.022 299.246 229.11 299.121 212.042 299.11H206.968C195.074 299.118 182.764 299.176 169.019 299.279L131.817 299.594ZM216.012 302.206C233.047 302.235 247.818 302.385 260.033 302.677L264.909 302.799L270.454 303.155C273.505 303.337 277.5 303.475 283.929 303.634L300.26 304.011C302.186 304.058 303.965 304.104 305.672 304.151L309.671 304.269C328.238 304.846 340.306 305.727 346.485 307.231L346.855 307.324C351.98 308.671 352.148 310.937 347.006 314.412C339.975 319.163 311.112 331.891 290.715 327.552L289.777 327.419C285.466 326.777 271.017 323.532 270.166 323.39L268.072 323.047C252.431 320.525 238.156 319.203 220.947 319.147L218.445 319.147C208.155 319.174 199.291 319.518 184.232 320.353L173.782 320.936C163.674 321.487 158.854 321.685 152.566 321.799L152.06 321.808C120.167 323.047 100.723 315.609 100.723 315.609C98.1779 314.698 91.5927 312.408 91.5927 312.408L91.1026 312.184C75.739 306.96 109.282 302.783 127.661 302.698L133.39 302.675L166.672 302.388C182.166 302.268 195.808 302.202 209.003 302.201L216.012 302.206Z" fill="#00160A"/>
  <path fill-rule="evenodd" clip-rule="evenodd" d="M286.886 277.288C286.886 277.288 286.805 281.869 288.214 283.99C289.622 286.11 293.55 292.007 297.204 293.559C298.33 294.037 302.626 294.098 305.208 295.609C310.393 298.643 311.548 304.108 305.208 305.266C292.619 307.564 288.214 300.92 288.214 300.92C288.214 300.92 283.028 293.559 277.83 288.678C272.633 283.796 268.492 282.326 268.492 282.326" fill="white"/>
  <path d="M330.33 75.8442C328.578 75.7125 327.548 77.0463 327.548 78.6608C327.548 84.2498 336.667 91.8931 342.609 91.8931C344.351 91.8931 345.776 90.6457 345.27 88.7388C345.079 88.0201 344.64 87.3825 343.921 86.5966L343.762 86.4259C342.953 85.5657 342.117 84.7974 340.241 83.1812L337.368 80.7156C336.663 80.1047 335.542 79.1303 335.203 78.8403L334.795 78.4934C334.01 77.8303 333.403 77.3474 332.86 76.9636C331.902 76.2853 331.159 75.9066 330.33 75.8442Z" fill="white"/>
  <path fill-rule="evenodd" clip-rule="evenodd" d="M272.074 185.427C272.074 185.427 268.621 175.56 259.747 172.888C256.927 172.038 269.262 190.678 258.375 197.631C254.977 199.801 248.935 200.927 241.5 201.987C208.358 206.711 198.366 194.328 177.907 188.281C169.704 185.856 129.801 175.13 123.769 229.768C119.992 263.968 148.594 274.567 174.227 280.001C225.576 290.887 304.26 286.597 328.799 250.717C358.05 207.947 313.092 170.701 306.758 166.764C305.224 165.81 309.623 178.033 310.111 184.215C310.6 190.397 306.758 192.645 306.758 192.645C306.758 192.645 305.244 186.1 291.856 184.977C278.469 183.854 272.074 185.427 272.074 185.427Z" fill="white"/>
  <path fill-rule="evenodd" clip-rule="evenodd" d="M75.1023 139.894C75.5715 141.002 76.6628 142.469 78.4372 144.463C79.6088 145.779 81.7825 145.122 82.0306 143.376C82.5972 139.388 81.4116 136.588 78.214 136.032C75.7111 135.596 74.0948 137.515 75.1023 139.894ZM79.982 143.084L79.6646 142.725C76.6788 139.313 76.0772 137.763 77.8597 138.073C79.7036 138.394 80.411 140.064 79.982 143.084Z" fill="#00160A"/>
  <path fill-rule="evenodd" clip-rule="evenodd" d="M85.4276 146.68C84.2645 146.83 83.3164 148.198 83.0552 149.708C82.7548 151.444 83.4 153.085 85.0545 154.012L86.1954 154.646C87.2957 155.249 88.2838 155.767 89.2453 156.23L89.6914 156.441C90.4076 156.772 90.9872 157.004 91.428 157.126C91.8791 157.25 92.2215 157.285 92.5867 157.152C93.3674 156.866 93.5043 156.128 93.2345 155.499L93.1492 155.309C93.0413 155.055 92.7749 154.42 92.6216 154.065L92.5884 153.988C92.1708 153.032 91.745 152.15 91.2761 151.309C89.54 148.194 87.673 146.391 85.4276 146.68ZM89.6827 152.71C89.9638 153.239 90.2318 153.791 90.4954 154.374L90.5823 154.57L90.3275 154.451L90.1416 154.363C88.91 153.77 87.6083 153.069 86.065 152.204C85.2315 151.737 84.9347 150.983 85.0941 150.061C85.1634 149.66 85.3203 149.273 85.517 148.989C85.5771 148.903 85.6366 148.832 85.6898 148.781L85.7478 148.731L85.6918 148.735C86.7686 148.597 88.1247 149.906 89.4693 152.318L89.6827 152.71Z" fill="#00160A"/>
  <path fill-rule="evenodd" clip-rule="evenodd" d="M103.121 164.547C102.937 163.745 92.6308 144.938 99.8678 145.529C107.105 146.119 105.382 167.435 105.13 167.435C104.833 167.435 103.253 165.123 103.121 164.547Z" fill="white"/>
  <path fill-rule="evenodd" clip-rule="evenodd" d="M96.2599 148.33C96.2602 150.129 96.8596 152.511 97.935 155.405C98.2579 156.274 98.6196 157.177 99.0172 158.114L99.26 158.68C100.215 160.884 102.13 164.851 102.113 164.779C102.216 165.227 102.646 165.975 103.213 166.796L103.421 167.095C104.114 168.081 104.46 168.438 105.044 168.468L105.291 168.475C105.993 168.512 105.993 168.753 106.155 167.731L106.214 167.357C106.238 167.204 106.263 167.004 106.288 166.766L106.302 166.619C106.367 165.954 106.426 165.087 106.465 164.138C106.568 161.688 106.539 159.065 106.338 156.618L106.284 155.997C105.637 149.137 103.757 144.807 99.9519 144.496C97.5201 144.297 96.2595 145.821 96.2599 148.33ZM99.7838 146.561C102.208 146.759 103.766 150.564 104.276 156.788C104.469 159.142 104.497 161.681 104.398 164.052L104.364 164.756L104.327 164.693C104.227 164.522 104.158 164.392 104.136 164.335L104.13 164.315C104.085 164.121 102.009 159.819 101.158 157.855C100.678 156.747 100.248 155.689 99.8743 154.683C98.8784 152.002 98.3293 149.821 98.3291 148.33C98.3289 146.972 98.6763 146.505 99.6743 146.554L99.7838 146.561Z" fill="#00160A"/>
  <path fill-rule="evenodd" clip-rule="evenodd" d="M131.563 202.754C131.563 202.754 133.829 199.6 135.103 198.034C136.378 196.468 137.744 195.157 137.744 195.157C137.744 195.157 106.968 192.09 96.3071 184.145C82.3865 173.77 69.8994 156.562 57.3211 152.922C42.2841 148.571 36.7188 158.663 32.3816 159.486C19.169 161.992 -5.02961 169.126 6.0355 190.671C9.45163 197.323 20.5179 200.416 28.314 196.707C37.0162 192.568 47.7329 182.429 59.0038 182.429C72.0374 182.429 74.3067 193.12 90.8519 198.789C101.007 202.268 131.563 202.754 131.563 202.754Z" fill="white"/>
  <path fill-rule="evenodd" clip-rule="evenodd" d="M168.208 278.994C168.208 278.994 175.722 287.206 178.835 292.489C181.948 297.772 180.857 300.637 185.179 303.079C191.672 306.748 198.365 305.823 201.343 303.872C204.321 301.921 201.527 296.928 195.285 296.928C193.749 296.928 191.943 293.397 191.069 291.062C190.194 288.727 190.595 282.979 190.595 282.979L168.208 278.994Z" fill="white"/>
  <path fill-rule="evenodd" clip-rule="evenodd" d="M308.152 168.831C308.152 168.831 357.106 228.953 288.263 264.244C240.116 288.926 161.012 275.6 161.012 275.6C161.012 275.6 247.125 298.781 303.409 270.834C339.321 253.002 346.425 222.69 329.292 191.829C324.809 183.753 308.152 168.831 308.152 168.831Z" fill="#E7EAEE"/>
  <path fill-rule="evenodd" clip-rule="evenodd" d="M305.276 165.833C305.893 165.015 306.855 165.004 307.572 165.451C309.883 166.887 314.064 170.364 318.086 174.442C323.668 180.102 328.652 186.516 332.474 193.429C342.937 212.357 342.002 232.174 328.723 251.59C316.985 268.752 294.021 279.11 261.786 283.75C233.592 287.808 200.953 287.247 173.907 281.513L172.551 281.221C157.073 277.838 145.662 273.54 137.029 266.897C125.706 258.185 120.424 245.994 122.234 229.598C124.975 204.781 134.773 190.988 149.545 186.157C155.036 184.36 160.917 183.919 166.987 184.519C171.149 184.93 174.644 185.705 178.344 186.798L179.002 186.995C183.021 188.216 186.442 189.564 191.718 191.904L195.618 193.654C203.701 197.281 208.378 199.002 214.432 200.224C222.05 201.762 230.439 201.943 240.617 200.55L242.126 200.335C250.434 199.122 254.893 198.021 257.545 196.328C260.65 194.344 261.758 191.131 261.314 186.681C261.112 184.656 260.61 182.521 259.818 180.031L259.599 179.36C259.257 178.343 258.258 175.485 258.074 174.864C257.846 174.094 257.742 173.559 257.779 173.06C257.872 171.81 258.967 171.039 260.192 171.408C266.665 173.357 271.314 179.018 274.169 188.195C274.422 189.01 273.968 189.876 273.154 190.13C272.34 190.384 271.475 189.929 271.221 189.114C269.048 182.128 265.874 177.584 261.718 175.364L261.445 175.223L262.569 178.504L262.6 178.598C265.453 190.782 263.333 200.335 244.142 203.287C243.086 203.45 221.864 205.278 213.053 203.095C199.705 199.787 180.76 187.444 169.403 186.995C158.046 186.546 155.549 187.444 150.503 189.095C136.964 193.524 125.703 207.868 123.431 231.56C122.231 244.07 128.98 256.745 140.046 264.554C168.208 284.426 233.517 285.372 261.347 281.366C292.81 276.837 316.378 266.142 327.525 249.843C340.094 231.466 339.705 212.894 329.773 194.926C326.098 188.279 321.285 182.085 315.889 176.614C313.432 174.122 310.919 171.869 308.879 170.226L308.536 169.952L308.834 171.13L309.79 174.808L310.139 176.185C310.193 176.403 310.245 176.615 310.297 176.824L310.479 177.58C311.124 180.297 311.517 182.406 311.65 184.093C312.019 188.757 310.67 192.146 307.537 193.98C306.801 194.41 305.856 194.162 305.425 193.425C304.995 192.688 305.243 191.742 305.979 191.311C307.968 190.147 308.856 187.916 308.573 184.337C308.454 182.841 308.085 180.859 307.471 178.278L307.298 177.559C307.223 177.251 307.145 176.936 307.062 176.608L305.717 171.404C305.517 170.615 305.366 169.996 305.246 169.456L305.211 169.297C305.005 168.359 304.898 167.688 304.892 167.183C304.886 166.665 304.959 166.253 305.276 165.833Z" fill="#00160A"/>
  <path fill-rule="evenodd" clip-rule="evenodd" d="M271.95 183.724L273.053 183.538C280.335 182.335 286.211 181.9 290.702 182.241C295.439 182.6 300.461 183.883 305.768 186.082C306.469 186.372 306.801 187.175 306.512 187.876C306.222 188.578 305.419 188.911 304.719 188.621C299.668 186.528 294.927 185.317 290.494 184.981C286.039 184.643 280.006 185.124 272.416 186.432C271.669 186.56 270.96 186.059 270.831 185.311C270.703 184.563 271.204 183.853 271.95 183.724Z" fill="#00160A"/>
  <path fill-rule="evenodd" clip-rule="evenodd" d="M280.726 177.56C284.012 176.884 287.014 177.234 289.692 178.619C292.255 179.944 294.476 181.612 296.35 183.621C296.742 184.041 296.72 184.699 296.3 185.092C295.881 185.484 295.223 185.462 294.831 185.042C293.122 183.21 291.092 181.686 288.738 180.468C286.497 179.309 283.979 179.016 281.144 179.599C280.582 179.715 280.032 179.352 279.917 178.789C279.801 178.226 280.164 177.676 280.726 177.56Z" fill="#00160A"/>
  <path fill-rule="evenodd" clip-rule="evenodd" d="M287.371 172.109C287.665 171.616 288.304 171.455 288.796 171.75C291.432 173.329 293.614 175.095 295.339 177.051C297.08 179.026 298.509 181.55 299.633 184.619C299.831 185.158 299.555 185.756 299.016 185.954C298.477 186.152 297.879 185.875 297.682 185.336C296.642 182.498 295.339 180.197 293.78 178.428C292.204 176.641 290.189 175.009 287.729 173.537C287.237 173.242 287.076 172.602 287.371 172.109Z" fill="#00160A"/>
  <path fill-rule="evenodd" clip-rule="evenodd" d="M257.252 196.842C257.686 196.221 258.542 196.07 259.162 196.505C259.783 196.941 246.537 215.83 246.537 219.495C246.537 223.469 248.486 226.129 253.68 230.324L255.88 232.076L256.521 232.59C259.74 235.194 261.615 237.021 263.209 239.341C265.437 242.583 266.485 246.203 266.218 250.497C265.888 255.792 264.293 259.451 261.131 263.674L260.845 264.052C260.489 264.511 258.924 266.513 258.496 267.099C256.966 269.191 256.246 270.765 256.115 272.614C255.538 280.761 259.367 290.599 267.681 302.09C268.125 302.705 267.988 303.564 267.374 304.009C266.761 304.454 265.903 304.317 265.458 303.702C256.801 291.736 252.748 281.321 253.378 272.42C253.545 270.059 254.405 268.103 256.077 265.759L256.282 265.476C256.774 264.803 258.569 262.51 258.72 262.311C261.732 258.355 266.086 252.567 262.6 241.552C260.845 236.006 244.178 232.076 243.63 220.271C243.501 217.49 248.131 209.879 257.252 196.842Z" fill="#00160A"/>
  <path d="M262.296 253.956L260.381 253.976C249.047 254.122 242.153 254.694 240.023 255.608L239.946 255.643C236.814 257.081 234.351 259.03 232.467 261.368C231.005 263.183 229.972 265.128 229.296 267.07C229.095 267.649 228.939 268.19 228.823 268.682L228.744 269.032L232.022 273.239C232.055 273.281 232.085 273.324 232.112 273.369L232.144 273.414L232.247 273.565C232.956 274.593 233.76 275.599 234.794 276.771L235.27 277.302C236.12 278.23 238.824 281.149 239.742 282.199C241.708 284.447 243.363 286.608 244.949 289.091C247.365 292.874 249.496 297.244 251.41 302.535L251.548 302.922L251.685 303.319C251.852 303.809 252.016 304.312 252.193 304.88L253.001 307.532C254.194 311.443 255.027 313.239 256.349 314.327L256.57 314.505C258.302 315.855 259.916 316.189 264.402 316.331L265.713 316.368C271.677 316.531 274.788 311.789 271.375 308.343C270.305 307.262 266.775 306.425 261.002 306.074C260.246 306.028 260.956 304.076 261.002 303.319C261.048 302.562 261.698 301.985 262.455 302.031C263.124 302.072 263.766 302.118 264.382 302.171C256.736 291.075 253.003 281.619 253.597 273.239C253.764 270.878 253.511 269.954 255.183 267.61L255.503 267.172C256.112 266.358 257.686 264.348 257.827 264.162C259.114 262.471 260.011 261.085 260.731 259.573L260.872 259.269L260.92 259.16L261 258.983C261.378 258.116 261.779 256.621 262.188 254.526L262.296 253.956Z" fill="white"/>
  <path fill-rule="evenodd" clip-rule="evenodd" d="M230.073 267.438C231.154 270.596 233.04 272.523 235.665 275.506L236.035 275.921C236.691 276.643 239.664 279.848 240.636 280.96C242.602 283.207 244.257 285.369 245.842 287.851C248.259 291.635 250.39 296.005 252.304 301.296C252.396 301.551 252.487 301.812 252.579 302.08L252.829 302.831C252.885 303.003 252.942 303.179 253 303.362L253.327 304.417C253.494 304.965 253.832 306.088 253.895 306.293L254.076 306.878C255.175 310.387 255.989 312.056 257.242 313.088L257.464 313.266C259.122 314.559 260.672 314.919 264.738 315.073L266.607 315.129C272.571 315.292 275.682 310.55 272.269 307.104C271.199 306.023 267.669 305.186 261.896 304.835C261.14 304.789 260.564 304.137 260.61 303.38C260.656 302.623 261.306 302.046 262.062 302.092L262.782 302.139C268.811 302.557 272.559 303.495 274.218 305.169C279.559 310.563 274.803 317.95 266.776 317.88L265.81 317.856C260.08 317.701 258.025 317.29 255.5 315.21C253.698 313.727 252.719 311.732 251.462 307.714L250.647 305.038L250.385 304.197C250.274 303.845 250.168 303.519 250.062 303.203L249.982 302.968C249.896 302.715 249.81 302.47 249.724 302.232C247.878 297.128 245.836 292.941 243.531 289.332C242.141 287.156 240.694 285.238 239.001 283.265L238.572 282.77C237.581 281.638 234.355 278.163 233.906 277.661C230.98 274.386 229.232 271.74 227.984 268.254L227.857 267.89C225.43 260.801 222.315 258.383 218.245 259.894C217.535 260.157 209.583 263.977 217.284 258.849C224.985 253.722 230.073 267.438 230.073 267.438Z" fill="#00160A"/>
  <path fill-rule="evenodd" clip-rule="evenodd" d="M277.951 218.632C276.456 218.632 274.311 214.332 274.311 212.231C274.311 210.131 279.679 210.841 279.679 210.841C279.679 210.841 285.317 211.598 284.54 213.711C283.762 215.824 278.782 218.632 277.951 218.632Z" fill="#FFB61D"/>
  <path d="M272.074 203.164C272.074 206.222 270.748 208.702 269.113 208.702C267.478 208.702 266.152 206.222 266.152 203.164C266.152 200.105 267.478 197.625 269.113 197.625C270.748 197.625 272.074 200.105 272.074 203.164Z" fill="#00160A"/>
  <path d="M300.675 204.417C300.675 207.427 299.222 209.868 297.43 209.868C295.638 209.868 294.185 207.427 294.185 204.417C294.185 201.406 295.638 198.965 297.43 198.965C299.222 198.965 300.675 201.406 300.675 204.417Z" fill="#00160A"/>
  <path fill-rule="evenodd" clip-rule="evenodd" d="M295.312 213.569C297.784 212.506 300.519 212.305 303.489 212.954C306.393 213.589 315.142 219.072 314.836 219.559C314.53 220.045 305.671 215.562 303.045 214.988C300.485 214.428 298.19 214.597 296.133 215.482C295.605 215.709 294.994 215.465 294.767 214.936C294.541 214.408 294.785 213.796 295.312 213.569Z" fill="#00160A"/>
  <path fill-rule="evenodd" clip-rule="evenodd" d="M296.887 217.167C299.481 217.304 300.157 216.712 303.711 219.022C307.266 221.332 309.922 226.773 309.435 227.078C308.949 227.384 306.113 222.532 302.858 220.089C299.603 217.645 295.763 218.725 295.794 218.151C295.823 217.609 296.261 217.186 296.792 217.166L296.887 217.167Z" fill="#00160A"/>
  <path fill-rule="evenodd" clip-rule="evenodd" d="M278.869 220.887C278.147 225.373 278.329 228.229 278.599 231.415C278.869 234.602 281.413 239.189 281.668 241.107C281.923 243.024 276.856 235.117 276.549 231.765C276.243 228.412 274.071 219.3 277.865 219.724C277.865 219.724 278.949 220.389 278.869 220.887Z" fill="#00160A"/>
  <path fill-rule="evenodd" clip-rule="evenodd" d="M259.988 214.118C262.292 214.118 263.225 214.175 265.469 214.617C266.032 214.728 266.399 215.275 266.288 215.839C266.177 216.403 265.63 216.77 265.067 216.659C264.269 216.502 262.737 215.833 260.198 215.86C256.728 215.897 253.707 217.825 253.556 217.506C253.31 216.986 257.684 214.118 259.988 214.118Z" fill="#00160A"/>
  <path fill-rule="evenodd" clip-rule="evenodd" d="M263.756 209.649C264.314 209.781 264.661 210.341 264.529 210.901C264.397 211.46 263.837 211.807 263.278 211.675C258.287 210.496 254.283 210.528 251.458 210.417C248.68 210.309 242.448 210.744 242.266 210.199C242.083 209.654 258.646 208.442 263.756 209.649Z" fill="#00160A"/>
  <path fill-rule="evenodd" clip-rule="evenodd" d="M286.91 275.914C287.668 275.927 288.271 276.553 288.258 277.312C288.209 280.113 288.6 282.091 289.356 283.229C292.527 288.003 295.217 291.223 297.74 292.295C297.809 292.324 297.972 292.366 298.228 292.415L298.606 292.483C298.889 292.531 300.087 292.712 300.296 292.745C301.085 292.87 301.735 292.989 302.37 293.133C303.77 293.451 304.935 293.858 305.9 294.422C308.799 296.118 310.712 298.598 310.898 301.036C311.113 303.853 309.068 305.957 305.454 306.617C296.578 308.238 290.366 306.649 287.093 301.712C283.686 296.877 280.285 292.866 276.892 289.68C273.553 286.544 270.589 284.529 268.033 283.621C267.319 283.368 266.945 282.582 267.199 281.867C267.452 281.152 268.236 280.778 268.95 281.031C271.916 282.084 275.178 284.303 278.769 287.676C282.306 290.998 285.827 295.149 289.357 300.16C291.936 304.05 297.052 305.358 304.961 303.914C307.307 303.486 308.258 302.507 308.162 301.245C308.053 299.825 306.703 298.075 304.515 296.795C303.832 296.395 302.914 296.074 301.763 295.813C301.267 295.7 300.75 295.603 300.137 295.502L298.154 295.193L297.771 295.126C297.296 295.036 296.957 294.947 296.668 294.824C294.782 294.023 292.844 292.299 290.815 289.869C289.477 288.267 288.449 286.825 287.072 284.75C285.949 283.061 285.456 280.571 285.514 277.263C285.528 276.505 286.153 275.901 286.91 275.914Z" fill="#00160A"/>
  <path fill-rule="evenodd" clip-rule="evenodd" d="M297.992 301.259C298.128 300.805 298.605 300.546 299.059 300.682C300.472 301.104 301.472 301.571 302.082 302.126C302.66 302.653 303.231 303.461 303.817 304.557C304.04 304.975 303.883 305.495 303.465 305.719C303.048 305.943 302.528 305.785 302.305 305.367C301.804 304.428 301.338 303.77 300.928 303.397C300.551 303.054 299.756 302.683 298.568 302.327C298.115 302.192 297.857 301.713 297.992 301.259Z" fill="#00160A"/>
  <path fill-rule="evenodd" clip-rule="evenodd" d="M302.466 299.442C302.616 298.992 303.101 298.748 303.55 298.898C304.76 299.301 305.659 299.761 306.257 300.304C306.849 300.843 307.418 301.714 307.993 302.928C308.197 303.357 308.014 303.869 307.587 304.072C307.159 304.275 306.647 304.093 306.444 303.665C305.956 302.635 305.499 301.935 305.104 301.575C304.713 301.22 304.012 300.862 303.009 300.527C302.56 300.378 302.317 299.892 302.466 299.442Z" fill="#00160A"/>
  <path fill-rule="evenodd" clip-rule="evenodd" d="M265.756 311.274C265.905 310.824 266.391 310.581 266.84 310.73C268.05 311.134 268.949 311.593 269.547 312.137C270.139 312.676 270.708 313.547 271.283 314.761C271.486 315.189 271.304 315.701 270.876 315.904C270.448 316.108 269.937 315.925 269.734 315.497C269.246 314.467 268.789 313.767 268.393 313.408C268.003 313.052 267.302 312.694 266.299 312.36C265.849 312.21 265.606 311.724 265.756 311.274Z" fill="#00160A"/>
  <path fill-rule="evenodd" clip-rule="evenodd" d="M268.251 308.36C268.4 307.91 268.886 307.666 269.335 307.816C270.545 308.219 271.444 308.679 272.041 309.222C272.634 309.761 273.202 310.632 273.778 311.846C273.981 312.275 273.799 312.787 273.371 312.99C272.943 313.193 272.432 313.011 272.229 312.583C271.741 311.553 271.283 310.853 270.888 310.493C270.498 310.138 269.797 309.78 268.794 309.445C268.344 309.296 268.101 308.81 268.251 308.36Z" fill="#00160A"/>
  <path fill-rule="evenodd" clip-rule="evenodd" d="M167.282 277.981C167.84 277.468 177.311 288.344 179.342 291.791C179.996 292.902 180.513 293.971 180.972 295.115C181.114 295.468 181.246 295.816 181.389 296.211L181.927 297.733C182.726 299.957 184.053 300.866 185.854 301.883C191.136 304.867 197.373 304.831 200.592 302.722C202.376 301.553 199.966 298.302 195.285 298.302C193.097 298.302 191.215 295.365 189.784 291.544C189.114 289.755 188.946 286.898 189.226 282.883C189.279 282.126 189.934 281.555 190.69 281.608C191.446 281.661 192.016 282.317 191.963 283.074C191.709 286.724 191.858 289.256 192.354 290.58L192.498 290.954C193.461 293.373 194.879 295.554 195.285 295.554C198.583 295.554 201.373 296.827 202.873 298.849C204.46 300.989 204.25 303.609 202.094 305.021C197.992 307.709 190.656 307.751 184.505 304.276C182.128 302.933 181.086 301.541 180.111 298.913L179.588 297.437C179.413 296.944 179.263 296.542 179.101 296.14C178.691 295.119 178.234 294.173 177.653 293.187C175.635 289.762 172.147 285.332 167.197 279.922C166.685 279.362 166.723 278.493 167.282 277.981Z" fill="#00160A"/>
  <path fill-rule="evenodd" clip-rule="evenodd" d="M192.688 301.259C192.824 300.805 193.301 300.546 193.755 300.682C195.168 301.104 196.168 301.571 196.777 302.126C197.356 302.653 197.927 303.461 198.513 304.557C198.736 304.975 198.579 305.495 198.161 305.719C197.743 305.943 197.224 305.785 197.001 305.367C196.499 304.428 196.034 303.77 195.624 303.397C195.246 303.054 194.452 302.683 193.264 302.327C192.811 302.192 192.553 301.713 192.688 301.259Z" fill="#00160A"/>
  <path fill-rule="evenodd" clip-rule="evenodd" d="M195.915 299.858C196.064 299.408 196.55 299.165 196.999 299.314C198.209 299.718 199.108 300.177 199.705 300.721C200.298 301.26 200.866 302.131 201.442 303.345C201.645 303.773 201.463 304.285 201.035 304.488C200.607 304.692 200.096 304.509 199.893 304.081C199.404 303.051 198.947 302.351 198.552 301.992C198.162 301.636 197.461 301.278 196.457 300.944C196.008 300.794 195.765 300.308 195.915 299.858Z" fill="#00160A"/>
  <path fill-rule="evenodd" clip-rule="evenodd" d="M37.7539 154.55L37.464 154.751C36.5459 155.393 34.778 156.685 34.3886 156.959L34.3486 156.987C33.3399 157.683 32.6586 158.035 32.1262 158.136C22.7192 159.921 14.5951 161.918 9.03387 166.134C1.2578 172.029 -2.94268 182.338 2.38534 192.712C6.17671 200.094 20.5097 201.94 28.9027 197.948C30.3387 197.265 31.8682 196.41 33.7136 195.28L34.4808 194.805C34.7462 194.64 35.0192 194.468 35.3099 194.284L37.3193 193L39.5162 191.591L40.3204 191.082C48.3983 186 53.5305 183.803 59.0038 183.803C63.528 183.803 66.7118 185.046 70.7114 187.985L71.013 188.208C71.7075 188.728 76.2148 192.328 77.7366 193.437C81.68 196.312 85.5737 198.432 90.4078 200.088L90.8328 200.23C97.9074 202.522 111.44 203.808 131.541 204.127C131.99 204.134 132.414 203.921 132.676 203.556L133.46 202.473C134.585 200.927 135.489 199.735 136.167 198.901C136.982 197.9 137.824 196.983 138.693 196.149C139.539 195.337 139.045 193.906 137.879 193.79L136.67 193.667C117.05 191.623 103.843 188.048 97.1263 183.043L96.6366 182.675C93.0547 179.963 89.6338 176.902 84.4191 171.893L77.6804 165.411C75.016 162.869 74.0796 162.042 72.213 160.455L71.9207 160.207C67.557 156.501 63.7707 153.961 60.0981 152.445C59.2921 152.113 58.494 151.831 57.702 151.602C49.5238 149.236 43.6527 150.551 37.7539 154.55ZM56.9402 154.242C57.6337 154.442 58.3374 154.69 59.0525 154.985C62.307 156.328 65.7517 158.613 69.7448 161.963L71.3074 163.293C73.0275 164.774 74.2182 165.883 78.1823 169.697L82.8831 174.224C88.2068 179.328 91.6938 182.419 95.4879 185.247L95.7107 185.411C102.603 190.424 115.124 193.948 133.337 196.064L134.827 196.232L134.806 196.255C134.634 196.453 134.463 196.654 134.293 196.858L133.919 197.315L133.633 197.674C133.089 198.363 132.443 199.218 131.692 200.239L130.868 201.368L129.201 201.337C110.294 200.952 97.6237 199.657 91.2961 197.489C86.9151 195.988 83.3676 194.09 79.7822 191.527L79.3518 191.216C77.891 190.151 73.4015 186.565 72.6552 186.007C68.0755 182.581 64.3038 181.055 59.0038 181.055C52.8598 181.055 47.3668 183.405 38.8745 188.747L37.5693 189.576L34.7706 191.372C33.94 191.903 33.2835 192.317 32.6453 192.712L31.9365 193.146C30.3217 194.126 28.9732 194.873 27.7253 195.466C20.6104 198.851 10.3343 196.037 7.25562 190.043C2.54675 180.874 4.20361 174.135 10.9326 169.034C16.0731 165.137 23.6131 162.547 32.637 160.835C33.5815 160.656 34.4918 160.204 35.6794 159.403L35.9054 159.249C36.2574 159.006 38.3926 157.444 39.2076 156.883L39.2925 156.825C44.5609 153.253 49.6132 152.121 56.9402 154.242Z" fill="#00160A"/>
  <path fill-rule="evenodd" clip-rule="evenodd" d="M385.523 191.579L385.393 191.893L385.133 192.544C381.758 201.116 378.779 214.25 376.178 231.977L376.027 233.019L376.018 232.967C375.011 227.023 373.739 222.404 372.191 219.096C369.501 213.348 365.669 211.177 361.141 213.24C346.446 219.934 347.323 247.153 362.885 294.985C363.092 295.622 363.684 296.052 364.353 296.052H381.247C381.701 296.052 382.131 295.853 382.424 295.506C403.521 270.59 412.969 253.84 410.66 244.637L410.584 244.345C408.483 236.428 403.227 234.732 395.732 238.986L395.466 239.139L395.839 238.278C408.841 208.117 411.228 189.547 402.442 182.309C395.992 176.995 390.106 180.511 385.523 191.579ZM400.732 183.502C408.466 189.874 405.718 210.739 391.046 243.078C390.375 244.557 407.666 232.967 407.666 245.39L407.721 245.627C409.385 253.273 400.794 268.71 381.851 291.39L380.53 292.961L364.353 294.116C364.353 294.116 342.542 222.007 362.42 216.054C368.139 214.341 372.359 222.658 374.453 245.157C374.624 246.999 377.296 247.038 377.521 245.202L377.705 243.72C380.712 219.657 384.279 202.651 388.374 192.762L388.608 192.205C392.433 183.238 396.41 179.942 400.732 183.502Z" fill="#00160A"/>
  <path d="M400.48 184.696C408.215 191.068 405.081 210.578 390.409 242.916C389.738 244.395 391.508 245.776 392.776 244.764L393.292 244.358C401.627 237.861 405.901 238.358 407.666 245.39L407.721 245.627C409.385 253.273 400.794 268.71 381.851 291.39L380.53 292.961H365.474L364.934 291.276C350.74 246.731 350.18 221.629 362.42 216.054C368.066 213.482 372.359 222.658 374.453 245.157C374.624 246.999 377.296 247.038 377.521 245.202L377.705 243.72C380.712 219.657 384.279 202.651 388.374 192.762L388.608 192.205C392.433 183.238 396.159 181.136 400.48 184.696Z" fill="white"/>
  <path d="M365.748 235.76C365.748 238.795 363.291 241.255 360.26 241.255C357.229 241.255 354.772 238.795 354.772 235.76C354.772 232.725 357.229 230.265 360.26 230.265C363.291 230.265 365.748 232.725 365.748 235.76Z" fill="#E7EAEE"/>
  <path d="M400.048 200.041C400.048 203.076 397.591 205.537 394.56 205.537C391.529 205.537 389.072 203.076 389.072 200.041C389.072 197.007 391.529 194.546 394.56 194.546C397.591 194.546 400.048 197.007 400.048 200.041Z" fill="#E7EAEE"/>
  <path d="M402.792 252.932C402.792 255.967 400.334 258.427 397.304 258.427C394.273 258.427 391.816 255.967 391.816 252.932C391.816 249.897 394.273 247.437 397.304 247.437C400.334 247.437 402.792 249.897 402.792 252.932Z" fill="#E7EAEE"/>
  <path fill-rule="evenodd" clip-rule="evenodd" d="M106.427 299.87C96.7398 300.023 63.4267 302.495 62.8512 301.257C62.115 299.674 98.4427 297.592 106.361 297.466L108.842 297.433C116.042 297.355 106.427 299.87 106.427 299.87ZM248.923 296.655C249.775 296.632 250.484 297.305 250.507 298.159C250.529 299.012 249.857 299.722 249.004 299.745L235.217 300.085C226.635 300.283 216.688 300.487 201.99 300.777C201.138 300.794 200.433 300.116 200.417 299.262C200.4 298.409 201.077 297.703 201.93 297.687L227.956 297.156C235.858 296.984 242.206 296.832 248.923 296.655ZM284.485 295.934C285.337 295.921 286.039 296.602 286.053 297.455C286.066 298.309 285.386 299.012 284.534 299.025L280.917 299.069L269.851 299.146C267.534 299.17 265.72 299.201 263.582 299.254C262.73 299.275 262.022 298.6 262.001 297.747C261.98 296.893 262.654 296.185 263.506 296.164L266.228 296.105C268.01 296.073 269.822 296.052 272.228 296.034L281.43 295.973C282.5 295.963 283.468 295.951 284.485 295.934ZM384.517 292.961C384.517 292.961 387.288 292.482 407.52 293.999C408.37 294.063 409.008 294.804 408.944 295.656C408.88 296.507 398.875 296.077 385.198 296.053L381.437 296.059C371.393 296.104 362.064 296.376 346.579 297.014L327.035 297.84C318.695 298.182 313.72 298.349 307.669 298.492C306.817 298.512 306.11 297.837 306.09 296.983C306.07 296.13 306.744 295.422 307.596 295.402L312.455 295.275C318.235 295.108 324.174 294.875 334.704 294.424L345.871 293.95C363.33 293.227 373.039 292.961 384.517 292.961Z" fill="#00160A"/>
  <path d="M337.749 70.4884L338.102 69.8372C340.87 64.8178 343.281 62.3258 346.092 63.1389C346.32 63.2048 346.544 63.2947 346.763 63.4082C348.486 64.3026 348.9 65.9656 348.416 68.2349L348.384 68.3748L348.466 68.2582C349.282 67.0969 350.061 66.2002 350.868 65.5346L351.041 65.3955C352.836 63.9967 354.74 63.8666 356.464 65.324C359.217 67.6511 358.905 71.5544 356.657 73.9568L356.533 74.0863C356.221 74.4026 356.032 75.0871 355.822 76.698L355.641 78.1094C355.423 79.7379 355.277 80.4521 354.934 81.5553C354.286 83.6389 353.223 85.377 351.569 86.7965C349.49 88.5808 345.98 88.3319 341.038 86.2979C340.507 86.0794 340.253 85.4713 340.471 84.9396C340.69 84.4079 333.538 78.0929 333.322 78.3699L333.252 78.4503C332.854 78.8648 332.196 78.878 331.782 78.4798L330.778 77.5106C330.173 76.9263 330.474 75.9022 331.299 75.7401C332.81 75.4433 333.982 75.1157 334.806 74.766C335.497 74.4723 335.875 74.1913 335.965 74.0091C335.965 74.0091 337.466 71.0147 337.749 70.4884Z" fill="white"/>
  <path fill-rule="evenodd" clip-rule="evenodd" d="M330.33 75.8442C328.578 75.7125 327.548 77.0463 327.548 78.6608C327.548 84.2498 336.667 91.8931 342.609 91.8931C344.351 91.8931 345.776 90.6457 345.27 88.7388C345.079 88.0201 344.64 87.3825 343.921 86.5966L343.762 86.4259C342.953 85.5657 342.117 84.7974 340.241 83.1812L337.368 80.7156C336.663 80.1047 335.542 79.1303 335.203 78.8403L334.795 78.4934C334.01 77.8303 333.403 77.3474 332.86 76.9636C331.902 76.2853 331.159 75.9066 330.33 75.8442ZM329.627 78.6608C329.627 76.4756 332.753 79.4967 336.516 82.7297L339.017 84.8714C342.077 87.5135 345.813 90.2619 343.921 90.4636C337.928 91.1023 329.627 83.1446 329.627 78.6608Z" fill="#00160A"/>
  <path fill-rule="evenodd" clip-rule="evenodd" d="M330.81 61.1975C331.239 60.8162 333.385 59.316 332.277 61.2859C331.169 63.2559 324.762 65.7544 331.169 75.7166C331.413 76.0955 331.116 76.8558 330.581 77.0659C330.047 77.276 329.444 77.0125 329.234 76.4774C327.614 72.3463 326.865 69.3557 327.008 67.4114C327.16 65.3512 328.452 63.2905 330.81 61.1975Z" fill="#00160A"/>
  <path fill-rule="evenodd" clip-rule="evenodd" d="M322.805 64.6657C322.918 64.102 324.028 62.7073 324.028 63.8498C324.028 64.9923 322.396 67.8902 324.694 71.1557C326.991 74.4212 330.944 76.6359 330.606 77.1006C330.268 77.5652 329.617 77.6675 329.153 77.329C325.827 74.903 323.808 73.0049 323.047 71.5172C322.253 69.9649 322.198 67.6934 322.805 64.6657Z" fill="#00160A"/>
  <path fill-rule="evenodd" clip-rule="evenodd" d="M337.749 70.4884L338.102 69.8372C340.87 64.8178 343.281 62.3258 346.092 63.1389C346.32 63.2048 346.544 63.2947 346.763 63.4082C348.486 64.3026 348.9 65.9656 348.416 68.2349L348.384 68.3748L348.466 68.2582C349.282 67.0969 350.061 66.2002 350.868 65.5346L351.041 65.3955C352.836 63.9967 354.74 63.8666 356.464 65.324C359.217 67.6511 358.905 71.5544 356.657 73.9568L356.533 74.0863C356.221 74.4026 356.032 75.0871 355.822 76.698L355.641 78.1094C355.423 79.7379 355.277 80.4521 354.934 81.5553C354.286 83.6389 353.223 85.377 351.569 86.7965C349.49 88.5808 345.98 88.3319 341.038 86.2979C340.507 86.0794 340.253 85.4713 340.471 84.9396C340.69 84.4079 348.174 88.7624 351.041 85.3772C353.909 81.992 354.219 74.9896 355.046 72.8674L355.246 72.4973C356.832 70.892 356.885 68.4037 355.123 66.9147C354.214 66.1464 353.391 66.2027 352.318 67.0383C351.341 67.7995 350.324 69.1065 349.15 71.0084L348.806 71.5756C348.229 72.5511 347.072 74.5737 346.919 74.8308L346.707 75.181C345.995 76.346 345.087 77.0756 344.953 77.1069C344.818 77.1382 344.627 77.0299 344.58 76.0445C344.564 75.7204 344.646 75.3943 344.818 74.9508L344.887 74.7787C345.095 74.2706 346.244 71.8816 346.323 71.7103C346.671 70.958 346.951 70.3022 347.183 69.6838C348.118 67.1908 346.727 65.7345 345.806 65.2564C345.707 65.2051 345.611 65.1663 345.516 65.1388C344.088 64.7259 342.101 66.8481 339.782 71.1001L339.279 72.041C338.908 72.7507 338.544 73.4806 337.829 74.9306C337.309 75.9851 335.922 76.7409 333.609 77.3505L333.482 77.3826L333.493 77.4129C333.595 77.7328 333.538 78.0929 333.322 78.3699L333.252 78.4503C332.854 78.8648 332.196 78.878 331.782 78.4798L330.778 77.5106C330.173 76.9263 330.474 75.9022 331.299 75.7401C332.81 75.4433 333.982 75.1157 334.806 74.766C335.497 74.4723 335.875 74.1913 335.965 74.0091L336.936 72.0519C337.235 71.4598 337.466 71.0147 337.749 70.4884Z" fill="#00160A"/>
  <path d="M353.75 73.6719C353.75 74.7426 352.692 75.6107 351.388 75.6107C350.084 75.6107 349.026 74.7426 349.026 73.6719C349.026 72.6011 350.084 71.733 351.388 71.733C352.692 71.733 353.75 72.6011 353.75 73.6719Z" fill="#FFB61D"/>
  <path d="M347.002 68.2664C347.002 69.3372 345.944 70.2053 344.64 70.2053C343.336 70.2053 342.278 69.3372 342.278 68.2664C342.278 67.1957 343.336 66.3276 344.64 66.3276C345.944 66.3276 347.002 67.1957 347.002 68.2664Z" fill="#FFB61D"/>
  <path fill-rule="evenodd" clip-rule="evenodd" d="M330.121 81.8653C329.791 81.5725 329.38 81.0446 329.017 80.4731L328.549 80.6811L327.996 80.9183C327.885 80.9692 327.813 81.009 327.791 81.0413C327.727 81.1601 327.58 81.2053 327.46 81.1423C327.344 81.0793 327.297 80.932 327.36 80.8135C327.404 80.7008 327.715 80.3474 328.291 80.0016C328.396 79.9389 328.511 79.8807 328.635 79.8239C328.423 79.4256 328.256 79.0407 328.177 78.7321C328.059 78.277 328.153 77.9546 328.309 77.8413C328.462 77.7292 328.845 77.7083 329.429 78.1936C329.537 78.2756 329.554 78.4286 329.472 78.535C329.391 78.641 329.239 78.6606 329.131 78.5787C329.02 78.4966 328.908 78.4501 328.817 78.4166L328.861 78.5908C328.879 78.653 328.9 78.7179 328.93 78.7813C329.034 79.0104 329.167 79.2721 329.317 79.5408C329.774 79.3681 330.293 79.2115 330.854 79.1361C331.128 79.0993 331.406 79.0921 331.696 79.0945C331.862 79.0835 332.007 79.2101 332.018 79.3772C332.029 79.5439 331.902 79.6884 331.736 79.6994C331.061 79.7646 330.437 79.9353 329.886 80.1274L329.705 80.1924C330.003 80.6589 330.322 81.0827 330.596 81.3219C330.744 81.4533 330.76 81.6819 330.63 81.8317C330.497 81.982 330.269 81.9971 330.121 81.8653Z" fill="#FFB61D"/>
  <path fill-rule="evenodd" clip-rule="evenodd" d="M171.437 267.758C169.731 275.809 161.495 278.092 161.584 284.574C161.63 287.926 162.554 290.708 163.313 292.846C164.857 297.195 168.878 301.674 170.741 305.821C172.333 309.365 180.319 306.967 180.957 312.475C181.305 315.475 175.655 317.204 174.117 317.32C171.91 317.488 169.112 316.729 165.724 315.044C161.603 313.039 158.296 311.459 155.901 308.571C155.434 308.007 155.141 306.417 154.624 303.916C154.059 301.18 152.129 294.223 147.085 282.991C146.364 281.387 143.607 274.822 140.54 268.107C138.01 262.566 148.468 251.466 153.106 251.854C164.498 252.808 172.642 262.071 171.437 267.758Z" fill="white"/>
  <path fill-rule="evenodd" clip-rule="evenodd" d="M163.45 315.162C160.614 313.472 158.282 311.524 156.453 309.318C155.986 308.754 155.643 306.679 155.126 304.178C154.856 302.868 145.01 279.217 141.763 270.315C141.157 268.654 142.628 269.817 142.973 270.315C144.858 273.034 156.453 290.966 161.993 307.58" fill="#E7EAEE"/>
  <path fill-rule="evenodd" clip-rule="evenodd" d="M165.66 314.456L166.082 314.664C169.268 316.249 171.841 316.947 173.761 316.801C175.823 316.645 179.189 314.783 179.338 313.197C179.577 310.652 178.889 309.93 175.488 308.644C174.502 308.271 171.835 308.352 167.726 308.975C166.976 309.089 166.277 308.573 166.164 307.823C166.05 307.073 166.566 306.372 167.315 306.259L167.991 306.159C172.195 305.556 174.949 305.503 176.458 306.074L176.905 306.247C180.987 307.863 182.439 309.534 182.07 313.454C181.758 316.776 177.205 319.296 173.968 319.541C171.554 319.724 168.645 318.962 165.216 317.299L164.872 317.13C160.583 315.044 157.169 312.48 154.642 309.432C154.31 309.031 154.097 308.496 153.878 307.676L153.828 307.481C153.747 307.163 153.666 306.809 153.572 306.366L153.028 303.694L152.944 303.304C152.049 299.292 149.457 291.886 145.53 283.089L144.932 281.765C144.563 280.96 139.296 272.414 138.903 270.411C137.433 262.923 143.443 259.214 143.443 259.214C143.443 259.214 140.326 265.8 141.205 269.037C141.888 271.554 147.651 280.214 149.701 286.854C151.823 293.725 154.044 301.057 157.288 307.051C159.736 311.576 161.489 313.627 165.66 314.456Z" fill="#00160A"/>
  <path fill-rule="evenodd" clip-rule="evenodd" d="M172.314 312.916C172.45 312.462 172.927 312.204 173.381 312.339C174.794 312.762 175.794 313.229 176.404 313.784C176.982 314.31 177.553 315.118 178.139 316.214C178.362 316.633 178.205 317.153 177.787 317.376C177.37 317.6 176.85 317.442 176.627 317.024C176.125 316.086 175.66 315.427 175.25 315.055C174.872 314.711 174.078 314.34 172.89 313.985C172.437 313.849 172.179 313.371 172.314 312.916Z" fill="#00160A"/>
  <path fill-rule="evenodd" clip-rule="evenodd" d="M174.709 310.266C174.859 309.817 175.344 309.573 175.793 309.723C177.003 310.126 177.902 310.586 178.5 311.129C179.092 311.668 179.661 312.539 180.236 313.753C180.439 314.181 180.257 314.694 179.829 314.897C179.402 315.1 178.89 314.918 178.687 314.489C178.199 313.46 177.742 312.76 177.346 312.4C176.956 312.045 176.255 311.686 175.252 311.352C174.802 311.203 174.559 310.716 174.709 310.266Z" fill="#00160A"/>
  <path fill-rule="evenodd" clip-rule="evenodd" d="M166.123 254.93C169.14 256.145 175.073 262.88 174.155 266.663C173.206 270.575 171.814 272.137 169.599 274.731L169.368 274.998C168.692 275.768 165.902 278.606 165.792 278.725L165.527 279.017C163.041 281.826 162.025 284.932 164.048 290.657C165.529 294.85 167.966 299.617 171.329 304.162C171.773 304.762 172.877 306.523 172.278 306.967C171.679 307.411 170.262 305.976 169.818 305.376C166.303 300.626 163.754 296.021 162.178 291.558C159.796 284.816 160.371 282.037 163.658 278.407L163.867 278.181C164.219 277.814 166.637 275.353 167.276 274.638L167.341 274.565C169.406 272.212 170.768 269.72 171.641 266.119C172.245 263.63 169.707 259.21 164.342 255.623C160.781 253.242 163.107 253.715 166.123 254.93Z" fill="#00160A"/>
</svg>