<svg xmlns="http://www.w3.org/2000/svg" width="374" height="330" viewBox="0 0 374 330" fill="none">
  <path fill-rule="evenodd" clip-rule="evenodd" d="M219.392 330C305.442 330 317.641 291.621 330.688 284.569C343.736 277.517 335.624 263.363 344.181 252.688C357.85 235.637 366.134 244.425 370.658 222.304C375.181 200.184 366.957 193.926 366.957 174.176C366.957 134.608 385.865 115.878 361.72 95.1752C337.575 74.4726 297.254 76.9153 257.376 76.9153C183.359 76.9153 139.016 -24.8062 40.2946 5.7114C6.27307 16.2284 10.0332 30.5606 17.5087 81.2102C20.7549 103.205 -3.75531 131.169 0.497328 156.163C8.26424 201.813 28.7771 195.62 67.4802 226.442C73.9732 231.613 83.4433 231.559 90.5218 236.862C102.389 245.753 103.152 259.578 125.338 268.903C161.112 283.939 158.078 330 219.392 330Z" fill="#C7CEFF"/>
  <path d="M76.643 212.164C76.643 223.491 66.9026 232.674 54.8872 232.674C42.8718 232.674 33.1314 223.491 33.1314 212.164C33.1314 200.837 42.8718 191.655 54.8872 191.655C66.9026 191.655 76.643 200.837 76.643 212.164Z" fill="white"/>
  <path fill-rule="evenodd" clip-rule="evenodd" d="M46.3554 139.039C42.6466 129.753 45.8863 124.19 47.9629 116.927C49.6976 110.861 63.2628 101.006 69.506 111.281C71.3427 114.304 70.6059 117.162 74.6201 119.819C84.3375 126.25 79.0363 112.907 79.3977 109.534C79.5739 107.889 78.1872 104.094 78.7035 102.506C79.2452 100.84 82.1323 98.4732 82.1323 95.0194C82.1323 91.5656 76.2595 90.2355 74.6201 89.3869C60.0514 81.8461 50.7861 69.2509 55.4034 62.8587C61.8365 53.9527 87.0485 67.9654 94.624 69.2509C94.7221 69.2676 96.075 62.187 97.1801 60.5658C99.391 57.322 101.834 54.1732 104.749 51.5474C106.055 50.3712 107.825 49.6451 109.565 49.4098C114.771 48.7056 120.097 48.1281 125.312 48.7659C127.154 48.9913 138.128 36.2589 142.407 32.1518C175.236 0.640954 241.046 39.0402 205.173 91.2189C198.58 100.809 190.149 103.859 189.06 107.249C186.642 114.778 201.867 113.787 208.317 114.592C219.335 115.965 224.766 121.64 217.926 131.365C213.665 137.424 188.668 137.115 177.718 132.734C173.654 131.107 168.631 123.997 164.79 129.83C162.144 133.849 151.825 142.375 140.755 147.198C135.759 149.375 130.068 148.063 125.804 150.007C119.803 152.743 102.086 164.233 94.624 164.23C87.1091 164.227 77.3844 155.161 76.2595 154.566C74.5447 153.66 61.2792 151.062 54.7259 140.923C52.7442 137.858 47.713 142.438 46.3554 139.039Z" fill="white"/>
  <path d="M176.256 85.2089C176.256 86.4667 175.224 87.4863 173.951 87.4863C172.678 87.4863 171.647 86.4667 171.647 85.2089C171.647 83.9511 172.678 82.9315 173.951 82.9315C175.224 82.9315 176.256 83.9511 176.256 85.2089Z" fill="#FFB61D"/>
  <path d="M159.315 80.4548C159.315 81.6937 158.313 82.6981 157.078 82.6981C155.842 82.6981 154.84 81.6937 154.84 80.4548C154.84 79.216 155.842 78.2116 157.078 78.2116C158.313 78.2116 159.315 79.216 159.315 80.4548Z" fill="#FFB61D"/>
  <path d="M350.471 78.5321C350.471 95.3457 336.875 108.976 320.103 108.976C303.332 108.976 289.736 95.3457 289.736 78.5321C289.736 61.7184 303.332 48.0883 320.103 48.0883C336.875 48.0883 350.471 61.7184 350.471 78.5321Z" fill="white"/>
  <path d="M313.391 251.242C313.391 293 273.883 326.852 225.149 326.852C176.414 326.852 136.907 293 136.907 251.242C136.907 209.484 176.414 175.632 225.149 175.632C273.883 175.632 313.391 209.484 313.391 251.242Z" fill="white"/>
  <path fill-rule="evenodd" clip-rule="evenodd" d="M150.34 292.469L151.331 293.188C149.095 295.198 145.733 292.698 143.847 290.355C140.816 286.587 137.739 282.582 136.817 277.83C136.292 275.126 136.502 272.34 136.714 269.593L137.569 258.52C137.948 253.613 138.328 248.696 139.176 243.848C141.469 230.728 147.242 218.235 155.742 207.996L155.827 207.894C157.328 206.087 158.967 204.113 158.938 201.77C158.877 196.813 161.725 192.181 165.463 188.936C169.202 185.691 173.78 183.608 178.288 181.57C180.33 180.646 182.997 179.819 184.58 181.409C187.835 184.678 193.268 182.595 197.568 180.935C202.848 178.896 208.487 177.798 214.143 177.706C214.308 177.704 214.474 177.701 214.641 177.699C218.037 177.65 221.86 177.595 223.932 174.957C225.252 173.278 227.774 173.375 229.892 173.629L244.455 175.375C245.568 175.509 246.901 175.813 247.252 176.881C248.193 179.742 251.512 180.909 254.389 181.779C264.618 184.871 274.616 189.069 283.3 195.308C291.984 201.546 299.323 209.939 303.218 219.912C296.886 211.236 290.39 202.396 281.602 196.234C279.087 194.471 276.412 192.949 273.697 191.514C267.29 188.127 260.621 185.208 253.693 183.088C221.531 173.247 184.328 182.374 160.335 205.993C156.856 209.417 153.594 213.189 151.621 217.659L154.227 218.47C150.096 220.321 147.028 224.376 146.364 228.863C148.026 226.009 150.396 223.572 153.2 221.832C152.397 224.52 150.31 226.679 148.264 228.796C145.656 231.494 143.115 234.123 143.385 237.688C144.623 234.43 147.742 231.972 151.191 231.533C145.72 236.893 139.849 243.182 140.023 250.849C142.019 246.422 145.408 242.638 149.584 240.174L143.572 248.275C141.298 251.338 138.903 254.839 139.423 258.621C141.401 255.062 144.229 251.982 147.604 249.712C145.979 253.416 143.659 256.813 140.801 259.672C143.519 259.343 146.135 258.214 148.242 256.462C147.359 257.699 146.563 259.094 146.533 260.614C146.503 262.134 147.486 263.766 148.987 263.985C149.441 262.966 150.867 262.536 151.806 263.134C148.958 265.912 148.929 271.061 151.745 273.872C151.996 272.551 153.107 271.437 154.425 271.187C152.324 274.87 151.947 279.495 153.422 283.471C153.868 281.218 155.115 279.133 156.887 277.677C155.866 283.021 153.607 288.124 150.34 292.469ZM149.096 290.766C150.875 290.748 151.981 288.753 152.166 286.98C152.388 284.858 151.863 282.737 151.341 280.669L148.247 268.4C147.664 268.585 147.597 269.22 147.526 269.885C147.466 270.453 147.403 271.043 147.015 271.393C146.232 270.417 146.143 268.938 146.804 267.875C147.47 266.801 147.034 265.297 146.088 264.46C145.142 263.623 143.826 263.338 142.565 263.297C141.884 263.274 141.159 263.327 140.601 263.72C140.043 264.113 139.75 264.95 140.146 265.506C141.325 267.163 142.212 269.028 142.754 270.989C142.795 271.136 142.834 271.284 142.873 271.433C143.143 272.451 143.42 273.498 144.163 274.224C144.737 274.785 144.884 275.642 145 276.437L145.946 282.884C146.118 284.057 146.29 285.254 146.093 286.423C145.896 287.593 145.265 288.752 144.207 289.283L147.586 290.435C148.076 290.603 148.578 290.772 149.096 290.766ZM185.923 185.099C185.258 185.24 184.699 184.653 184.223 184.153L184.168 184.095C183.679 183.583 182.839 183.137 182.325 183.622C176.328 189.278 169.504 194.051 162.139 197.74C160.802 198.409 160.623 200.215 160.622 201.713C160.622 202.213 161.1 202.915 161.411 202.524C162.93 200.617 164.904 199.136 166.856 197.677C172.348 193.572 177.906 189.429 184.202 186.722C184.966 186.394 185.861 185.93 185.923 185.099ZM246.194 178.738C245.854 177.939 244.888 177.65 244.036 177.489C241.715 177.051 239.352 176.852 236.992 176.654C233.751 176.381 230.514 176.109 227.395 175.217C226.396 174.931 225.541 175.946 224.993 176.831C226.637 176.66 228.291 176.589 229.944 176.62C232.82 176.673 235.68 177.032 238.534 177.39C239.985 177.573 241.445 177.757 242.836 178.208C242.998 178.261 243.161 178.317 243.325 178.373C244.275 178.7 245.256 179.038 246.194 178.738Z" fill="#00160A"/>
  <path d="M215.493 191.027C216.15 191.177 216.776 191.67 216.874 192.338C216.972 193.005 216.518 193.655 215.937 193.995C215.356 194.335 214.669 194.43 214.002 194.518L211.996 194.785C211.794 194.812 211.587 194.84 211.412 194.944C210.908 195.243 210.943 196.055 211.355 196.472C211.768 196.89 212.4 196.994 212.987 196.993C215.717 196.988 218.301 195.018 219.135 192.412C219.333 191.793 219.438 191.105 219.192 190.503C219.068 190.198 218.86 189.934 218.629 189.699C217.555 188.608 215.956 188.127 214.431 188.235C212.906 188.343 211.456 188.994 210.215 189.889C209.62 190.318 209.053 190.821 208.715 191.473C208.377 192.124 208.305 192.952 208.683 193.581C208.827 193.821 209.05 194.034 209.326 194.079C209.602 194.124 209.92 193.945 209.954 193.667C210.049 192.894 210.612 192.241 211.283 191.849C211.953 191.456 212.727 191.283 213.488 191.13C214.149 190.998 214.835 190.876 215.493 191.027Z" fill="#00160A"/>
  <path d="M161.691 229.257C162.442 224.809 166.026 221.192 170.204 219.517C172.506 218.593 175.141 218.188 177.456 219.078C178.027 219.298 178.58 219.601 178.992 220.054C179.379 220.481 179.622 221.019 179.806 221.565C180.982 225.063 179.788 229.108 177.261 231.792C174.734 234.477 171.055 235.885 167.382 236.149C166.205 236.234 164.942 236.186 163.97 235.516C162.999 234.845 162.516 233.356 163.264 232.442C163.618 232.459 163.809 232.775 164.004 233.099C164.101 233.26 164.199 233.422 164.318 233.551C164.726 233.991 165.4 234.023 165.999 233.997C168.603 233.887 171.247 233.24 173.366 231.72C175.486 230.199 177.009 227.716 176.964 225.103C176.95 224.261 176.767 223.4 176.291 222.706C175.51 221.567 174.034 221.053 172.659 221.144C171.283 221.235 169.993 221.847 168.822 222.576C167.281 223.535 165.857 224.74 164.891 226.279C163.925 227.818 163.452 229.721 163.861 231.492C163.5 232.145 162.426 232.015 161.983 231.415C161.54 230.815 161.567 229.993 161.691 229.257Z" fill="#00160A"/>
  <path d="M185.674 265.918C183.769 267.147 182.189 269.07 181.895 271.323C181.658 273.145 182.267 274.959 182.867 276.695C183.336 278.05 183.82 279.434 184.712 280.555C186.324 282.58 188.992 283.417 191.543 283.829C192.238 283.941 193.292 283.626 193.044 282.966C190.351 282.916 187.702 281.665 185.949 279.615C184.197 277.564 183.369 274.748 183.732 272.072C183.809 271.509 183.937 270.949 184.173 270.432C184.65 269.387 185.539 268.584 186.502 267.96C188.575 266.617 191.098 265.988 193.557 266.201C195.927 266.406 198.295 267.448 199.742 269.341C201.189 271.235 201.534 274.028 200.257 276.04C200.05 276.368 199.898 276.946 200.279 277.015C202.334 275.904 203.475 273.456 203.36 271.118C203.245 268.78 202.013 266.592 200.321 264.979C199.386 264.086 198.277 263.333 197.022 263.029C195.366 262.63 193.635 263.042 191.988 263.476C189.797 264.054 187.579 264.689 185.674 265.918Z" fill="#00160A"/>
  <path d="M279.244 268.822C272.354 266.243 264.868 265.282 257.552 266.037C254.485 266.354 251.408 266.981 248.65 268.365C243.447 270.975 239.727 276.35 239.108 282.15C238.489 287.95 240.991 293.991 245.525 297.647C247.245 299.033 249.197 300.07 251.151 301.11C252.485 301.819 253.821 302.529 255.084 303.351C255.445 303.697 254.633 304.042 254.158 303.888C249.739 302.458 245.448 300.283 242.296 296.865C238.461 292.707 236.591 286.801 237.331 281.187C238.07 275.572 241.406 270.356 246.186 267.338C249.967 264.951 254.487 263.945 258.952 263.784C263.418 263.623 267.87 264.262 272.285 264.948C275.043 265.377 278.277 266.198 279.244 268.822Z" fill="#00160A"/>
  <path d="M206.751 277.476C206.439 276.758 205.181 276.57 204.951 277.32C203.49 282.088 198.849 285.693 193.879 285.921C192.755 285.973 191.631 285.868 190.511 285.76C188.101 285.526 185.614 285.249 183.503 284.059C180.467 282.348 178.64 278.834 178.619 275.343C178.597 271.851 180.249 268.458 182.758 266.035C182.41 265.058 180.915 265.53 180.172 266.253C176.058 270.262 175.352 277.182 178.239 282.153C181.126 287.123 187.175 289.91 192.878 289.278C198.581 288.646 203.729 284.818 206.38 279.717C206.742 279.021 207.064 278.195 206.751 277.476Z" fill="#00160A"/>
  <path d="M171.04 301.62C170.111 305.191 170.023 308.98 170.785 312.591C171.127 314.21 171.164 315.102 171.171 315.269C171.172 315.289 171.172 315.298 171.172 315.298C171.173 315.298 171.173 315.289 171.174 315.269C171.182 315.102 171.222 314.206 171.572 312.584C172.351 308.967 172.165 305.145 171.04 301.62Z" fill="#00160A"/>
  <path d="M175.976 303.78C174.656 306.553 174.819 309.985 176.397 312.619C176.751 313.211 177.02 313.692 177.219 314.047C177.486 314.525 177.625 314.774 177.673 314.757C177.725 314.739 177.67 314.404 177.552 313.704C177.505 313.423 177.449 313.084 177.385 312.682L175.976 303.78Z" fill="#00160A"/>
  <path d="M179.692 307.321C179.132 309.092 179.544 311.139 180.745 312.554C181.971 313.998 182.372 314.461 181.998 312.601C181.617 310.703 180.825 308.889 179.692 307.321Z" fill="#00160A"/>
  <path d="M287.229 287.18C285.544 293.962 280.162 299.1 274.943 303.734C275.182 304.249 275.953 304.064 276.447 303.786C281.733 300.803 286.01 295.942 287.961 290.185C289.913 284.427 289.428 277.812 286.347 272.573C286.089 272.134 285.759 271.665 285.259 271.567C284.76 271.469 284.184 272.05 284.478 272.467C287.439 276.671 288.47 282.186 287.229 287.18Z" fill="#00160A"/>
  <path d="M211.231 225.95C211.219 224.877 211.234 223.716 211.88 222.861C212.77 221.683 214.458 221.56 215.931 221.539C216.588 221.53 217.254 221.521 217.894 221.674C219.256 221.999 220.341 223.007 221.308 224.022C221.522 224.247 221.75 224.524 221.697 224.83C221.631 225.21 221.157 225.385 220.78 225.307C220.529 225.255 220.305 225.131 220.079 225.005C219.966 224.942 219.852 224.879 219.735 224.825C218.381 224.202 216.788 224.885 215.572 225.748C215.38 225.884 215.174 226.058 215.169 226.293C215.165 226.529 215.366 226.712 215.556 226.851C217.2 228.058 219.306 228.618 221.33 228.385C221.815 228.329 222.383 228.151 222.509 227.679C222.558 227.495 222.539 227.277 222.52 227.068C222.49 226.717 222.461 226.387 222.755 226.265C222.908 226.202 223.082 226.248 223.241 226.294C224.337 226.614 225.618 227.127 225.83 228.252C225.892 228.576 225.848 228.915 225.745 229.229C225.443 230.148 224.602 230.866 223.649 231.018C223.225 231.085 222.793 231.049 222.366 231.012C221.251 230.916 220.134 230.82 219.029 230.641C217 230.313 215.015 229.707 213.148 228.845C212.5 228.546 211.827 228.177 211.499 227.543C211.249 227.06 211.238 226.493 211.231 225.95Z" fill="#00160A"/>
  <path d="M252.914 199.496C252.262 197.728 250.686 196.333 248.855 195.904C248.289 195.771 247.649 195.738 247.169 196.067C246.689 196.396 246.524 197.198 246.982 197.558C247.426 197.906 247.157 198.727 246.615 198.882C246.072 199.037 245.489 198.667 245.218 198.171C244.947 197.675 244.918 197.086 244.915 196.521C244.911 195.766 244.979 194.924 245.535 194.416C245.747 194.222 246.011 194.097 246.273 193.98C247.356 193.494 248.554 193.083 249.712 193.343C250.815 193.591 251.694 194.408 252.464 195.239C253.094 195.92 253.691 196.633 254.25 197.374C254.743 198.027 255.217 198.724 255.403 199.522C255.588 200.319 255.428 201.245 254.813 201.784C254.212 202.312 253.286 202.357 252.555 202.031C251.91 201.743 251.359 201.109 251.407 200.403C251.455 199.696 252.321 199.11 252.914 199.496Z" fill="#00160A"/>
  <path fill-rule="evenodd" clip-rule="evenodd" d="M258.735 249.186C260.353 249.139 261.86 247.89 262.21 246.306C262.422 245.342 262.16 244.197 261.322 243.678C260.711 243.3 259.941 243.327 259.224 243.374C258.23 243.437 257.199 243.524 256.336 244.022C255.473 244.519 254.831 245.549 255.102 246.51C255.541 248.072 257.117 249.232 258.735 249.186ZM258.943 246.845C258.63 246.93 258.184 246.849 258.156 246.526C258.144 246.391 258.216 246.264 258.299 246.157C258.758 245.56 259.634 245.329 260.328 245.62C260.087 246.212 259.559 246.679 258.943 246.845Z" fill="#00160A"/>
  <path d="M259.778 222.845C259.515 222.236 260.025 221.525 260.646 221.292C261.143 221.105 261.682 221.124 262.217 221.144C262.351 221.148 262.484 221.153 262.616 221.155C263.278 221.163 264.011 221.052 264.44 220.547C264.592 220.368 264.695 220.106 264.579 219.903C264.459 219.69 264.173 219.653 263.93 219.64C262.24 219.552 260.246 219.604 259.272 220.991C259.063 221.289 258.551 221.188 258.355 220.881C258.159 220.574 258.204 220.171 258.316 219.824C258.714 218.582 259.859 217.678 261.11 217.316C262.361 216.953 263.704 217.067 264.973 217.356C265.401 217.453 265.846 217.581 266.158 217.89C266.406 218.135 266.545 218.47 266.636 218.807C267.068 220.419 266.43 222.265 265.095 223.263C263.76 224.26 261.812 224.346 260.395 223.47C260.142 223.314 259.896 223.119 259.778 222.845Z" fill="#00160A"/>
  <path d="M253.989 251.327C254.773 252.27 255.702 253.126 256.829 253.606C259.107 254.575 262.019 253.68 263.362 251.597C263.852 250.838 264.07 249.681 263.347 249.142C262.188 251.584 258.826 252.662 256.469 251.349C256.017 251.097 255.606 250.775 255.233 250.417C253.537 248.79 252.653 246.132 253.648 244C253.972 243.305 254.47 242.705 255.015 242.166C256.202 240.991 257.902 240.028 259.487 240.551C259.553 240.573 259.619 240.597 259.685 240.621C259.906 240.703 260.129 240.785 260.363 240.772C260.666 240.754 260.982 240.483 260.904 240.189C260.881 240.102 260.827 240.027 260.772 239.956C259.791 238.704 257.868 238.318 256.483 239.094C254.833 240.018 253.158 241.105 252.281 242.782C250.853 245.512 252.019 248.961 253.989 251.327Z" fill="#00160A"/>
  <path fill-rule="evenodd" clip-rule="evenodd" d="M280.254 209.218C280.182 209.323 280.2 209.468 280.217 209.606C280.238 209.771 280.257 209.927 280.122 209.994C279.629 210.238 279.038 210.213 278.512 210.051C277.076 209.609 276.113 208.288 275.3 207.021C274.825 206.28 274.352 205.493 274.275 204.616C274.198 203.738 274.646 202.751 275.489 202.503C276.429 202.226 277.35 202.927 278.082 203.58C278.907 204.316 279.751 205.076 280.262 206.058C280.772 207.04 280.886 208.309 280.254 209.218ZM277.132 205.931C277.334 206.128 277.445 206.394 277.556 206.659C277.665 206.92 277.775 207.182 277.972 207.379C278.221 207.628 278.6 207.74 278.945 207.666C278.299 206.664 277.551 205.728 276.716 204.879C276.492 204.946 276.474 205.278 276.608 205.469C276.69 205.585 276.804 205.671 276.918 205.756C276.992 205.812 277.066 205.867 277.132 205.931Z" fill="#00160A"/>
  <path d="M154.184 296.451C154.105 297.765 154.205 299.289 155.255 300.081C155.605 299.886 155.581 299.384 155.537 298.985C155.266 296.527 156.027 294.158 156.792 291.774C157.34 290.067 157.891 288.352 158.068 286.591C158.119 286.08 157.983 285.381 157.471 285.361C157.087 285.346 156.84 285.752 156.685 286.104C155.251 289.369 154.4 292.89 154.184 296.451Z" fill="#00160A"/>
  <path d="M256.007 249.03C257.191 249.555 258.504 250.091 259.743 249.714C260.236 249.564 260.675 249.278 261.107 248.996C261.105 249.722 260.482 250.332 259.788 250.54C259.094 250.747 258.347 250.636 257.639 250.483C256.853 250.312 255.891 249.828 256.007 249.03Z" fill="#00160A"/>
  <path d="M162.322 309.64C162.624 309.1 162.676 308.46 162.721 307.843L163.078 302.927C163.254 300.515 163.429 298.093 163.272 295.679C163.252 295.375 163.221 295.054 163.044 294.806C162.867 294.558 162.493 294.426 162.25 294.61C162.072 294.745 162.026 294.99 161.996 295.213C161.607 298.004 161.4 300.82 161.375 303.638C161.357 305.681 161.45 307.793 162.322 309.64Z" fill="#00160A"/>
  <path d="M156.963 305.415C156.649 305.681 156.126 305.447 155.953 305.073C155.78 304.699 155.849 304.263 155.924 303.857C156.7 299.615 157.58 295.391 158.563 291.192C158.588 291.087 158.615 290.978 158.682 290.894C158.941 290.573 159.465 290.896 159.648 291.265C160.099 292.171 159.883 293.252 159.658 294.239L157.234 304.837C157.185 305.048 157.128 305.275 156.963 305.415Z" fill="#00160A"/>
  <path d="M165.358 305.603C165.223 307.195 165.461 308.791 165.698 310.37C165.783 310.933 166.187 311.68 166.693 311.424L167.681 300.837C167.721 300.406 167.748 299.928 167.482 299.588C167.215 299.248 166.541 299.262 166.456 299.686L165.728 303.316C165.576 304.074 165.423 304.833 165.358 305.603Z" fill="#00160A"/>
  <path d="M267.34 273.155C264.528 271.703 261.106 271.131 258.185 272.347C256.003 273.255 249.838 277.178 249.017 282.205C248.468 285.571 248.474 289.009 249.649 292.259L249.838 292.769C250.188 293.689 251.303 294.747 251.926 293.986C250.106 290.687 249.766 286.603 251.015 283.048C252.264 279.492 255.083 276.524 258.563 275.097C259.295 274.797 260.06 274.561 260.848 274.486C262.441 274.335 264.031 274.852 265.455 275.584C268.521 277.158 272.319 279.777 273.779 282.906C275.186 285.922 276.222 289.518 274.948 292.594C273.675 295.669 265.312 297.894 265.312 297.894L266.237 299.587C266.237 299.587 270.919 298.661 273.779 296.573C285.783 287.808 270.029 274.543 267.34 273.155Z" fill="#00160A"/>
  <path fill-rule="evenodd" clip-rule="evenodd" d="M55.1393 229.877C50.8938 230.334 46.3972 229.349 43.0824 226.651C40.7347 224.74 39.0851 222.082 37.9276 219.281C36.6709 216.241 35.9484 212.979 35.8031 209.691C35.7484 208.453 35.7778 207.192 36.1407 206.007C36.7379 204.058 38.1762 202.493 39.6444 201.082C42.7679 198.079 46.4392 195.338 50.721 194.707C53.6386 194.277 56.6065 194.863 59.4625 195.6C61.7055 196.179 63.9457 196.861 65.9632 198.001C70.4213 200.521 73.5107 205.327 73.9575 210.439C74.4044 215.55 73.8546 218.936 66.9744 225.286C63.3992 227.627 59.3847 229.421 55.1393 229.877ZM62.6261 213.834C61.9375 214.05 61.2512 214.436 60.5403 214.31C59.0881 214.054 58.8282 212.057 59.1507 210.614C60.0737 206.485 62.9449 202.838 66.7365 200.979C65.8782 199.418 63.5981 199.304 61.9854 200.054C60.3727 200.804 59.1121 202.156 57.5525 203.011C56.7764 203.437 55.8567 203.739 55.0124 203.474C53.6231 203.037 53.0928 201.213 53.5476 199.827C54.0024 198.44 55.1376 197.406 56.2275 196.438C52.278 196.577 48.37 197.765 45.0091 199.849C42.378 201.481 39.8823 204.156 40.2314 207.238C42.4068 205.482 44.961 204.201 47.6666 203.508C48.2405 203.361 48.9608 203.287 49.3199 203.759C49.5919 204.117 49.5138 204.631 49.3395 205.046C48.4747 207.102 45.9314 207.792 44.354 209.366C44.1469 209.573 43.9482 209.812 43.8981 210.1C43.7998 210.666 44.3376 211.182 44.9026 211.277C45.4676 211.371 46.0348 211.165 46.5707 210.962C47.6838 210.541 48.7968 210.12 49.9099 209.699C50.7156 209.394 51.6722 209.104 52.3888 209.582C53.13 210.078 53.1999 211.205 52.7809 211.993C52.362 212.781 51.593 213.31 50.8529 213.807C49.0691 215.006 47.2853 216.204 45.5015 217.403C44.008 218.406 42.3348 219.759 42.4767 221.556C42.6104 223.247 44.4663 224.397 46.1552 224.288C47.8441 224.179 49.3304 223.144 50.5769 221.996C51.8233 220.849 52.9484 219.539 54.3959 218.659C55.3405 218.086 56.6882 217.767 57.4555 218.564C58.0483 219.179 57.9911 220.168 57.7687 220.993C57.1274 223.373 55.3937 225.434 53.1616 226.468C54.9776 226.888 56.8715 226.967 58.7162 226.7C59.7683 226.548 60.8574 226.256 61.6182 225.511C62.379 224.767 62.6736 223.458 62.0136 222.622C61.0292 221.376 61.0684 219.553 61.6973 218.094C62.3262 216.635 63.4496 215.456 64.55 214.312C64.235 213.661 63.3146 213.617 62.6261 213.834ZM71.0338 216.662C72.0228 214.37 72.0588 211.778 71.8084 209.294C71.5314 206.547 70.576 203.405 67.9942 202.442C64.2107 204.017 61.291 207.529 60.4283 211.543C60.3558 211.881 60.2991 212.243 60.4314 212.562C60.5638 212.88 60.9573 213.113 61.2621 212.953C62.3082 212.403 63.5946 212.091 64.658 212.606C65.7214 213.121 66.2393 214.728 65.3782 215.538C64.4268 216.433 63.4497 217.365 62.9365 218.567C62.4232 219.77 62.4972 221.326 63.4635 222.205C64.1897 222.866 64.1916 224.162 63.4673 224.825C65.5265 224.222 66.9939 222.447 68.3292 220.764C69.35 219.477 70.3827 218.171 71.0338 216.662ZM47.3278 204.811C45.1856 205.701 43.1063 206.744 41.1105 207.928C40.6359 208.209 40.1562 208.507 39.8091 208.937C39.3405 209.517 39.1624 210.274 39.0176 211.007C38.5497 213.373 38.3085 215.92 39.2996 218.118C39.616 218.819 40.0484 219.461 40.4786 220.099C40.6056 220.287 40.7498 220.488 40.9674 220.551C41.1851 220.615 41.4726 220.439 41.4215 220.217C41.2639 219.535 41.7793 218.893 42.2879 218.413C45.2669 215.602 49.2802 213.989 51.959 210.889C51.5526 210.406 50.7818 210.633 50.2024 210.881C48.8223 211.472 47.3993 211.962 45.9484 212.345C45.1999 212.543 44.3658 212.704 43.6827 212.339C42.683 211.805 42.5202 210.343 43.0483 209.338C43.5764 208.333 44.5802 207.685 45.5483 207.095C46.5165 206.505 47.5322 205.889 48.113 204.914C48.0074 204.637 47.6014 204.697 47.3278 204.811ZM54.659 223.642C55.6056 222.879 56.6284 221.98 56.7317 220.767C56.7857 220.133 56.3799 219.357 55.7478 219.418C55.5535 219.436 55.3761 219.533 55.2085 219.633C52.4557 221.282 50.644 224.505 47.5386 225.307C48.4161 225.701 49.3311 226.011 50.2671 226.231C50.5458 226.296 50.836 226.354 51.1164 226.296C51.4425 226.228 51.7155 226.013 51.9752 225.804C52.8698 225.083 53.7644 224.362 54.659 223.642ZM57.2191 197.286C56.6065 197.966 55.9939 198.645 55.3813 199.324C54.8961 199.862 54.3756 200.572 54.6457 201.245C54.8446 201.741 55.4322 201.991 55.9636 201.95C56.495 201.908 56.9791 201.636 57.4247 201.343C59.0128 200.298 60.4427 198.875 62.2959 198.458C61.0109 197.988 59.7259 197.519 58.441 197.05C58.1734 196.952 57.875 196.854 57.6117 196.963C57.4538 197.028 57.3337 197.159 57.2191 197.286Z" fill="#00160A"/>
  <path d="M146.509 89.2564C141.921 79.2582 140.007 68.0417 141.019 57.083C141.036 56.8958 141.06 56.6952 141.183 56.5536C141.357 56.3538 141.715 56.3621 141.879 56.5699C141.82 62.5981 141.764 68.6627 142.746 74.6104C143.728 80.5581 145.812 86.4425 149.617 91.1103C149.731 91.2497 149.847 91.3885 149.962 91.5275C150.617 92.3145 151.277 93.1081 151.648 94.0571C149.173 94.0092 147.544 91.5106 146.509 89.2564Z" fill="#00160A"/>
  <path fill-rule="evenodd" clip-rule="evenodd" d="M205.202 53.8452L204.073 52.4183C202.83 50.8484 201.306 49.1342 199.307 49.132C198.147 49.1307 197.08 49.7262 196.074 50.3048L194.51 51.2037C194.083 51.4493 193.644 51.7046 193.343 52.0952C192.475 53.2214 193.109 54.867 193.929 56.0286C194.497 56.8324 195.178 57.6042 196.082 57.9911C197.251 58.4915 198.595 58.2702 199.82 57.9314C201.498 57.4675 203.119 56.7983 204.636 55.9433C205.121 55.6699 205.658 55.2694 205.633 54.712C205.619 54.3838 205.406 54.1026 205.202 53.8452ZM195.337 54.9466C195.142 54.6364 194.941 54.3051 194.938 53.9389C194.932 53.2227 195.645 52.7421 196.272 52.3992L198.501 51.1805C198.838 50.9962 199.188 50.8077 199.572 50.7818C199.955 50.7559 200.38 50.9408 200.509 51.3034C200.889 52.3734 201.826 53.2268 202.924 53.5044C203.28 53.5942 203.394 54.0878 203.226 54.4146C203.058 54.7414 202.714 54.9324 202.386 55.0958C201.211 55.6802 199.983 56.1567 198.721 56.5175C198.216 56.6621 197.681 56.7886 197.17 56.6667C196.333 56.4673 195.794 55.6764 195.337 54.9466Z" fill="#00160A"/>
  <path d="M179.482 65.9774C177.271 66.2354 176.851 70.2309 177.877 72.362C178.088 72.8004 178.419 73.2519 178.901 73.3132C179.724 73.418 180.18 72.3991 180.362 71.587L180.366 71.5681C180.606 70.4978 181.679 65.721 179.482 65.9774Z" fill="#00160A"/>
  <path d="M168.082 71.2187C168.524 70.1851 168.671 69.0267 168.502 67.915C168.424 67.3984 168.269 66.8739 167.924 66.4817C167.58 66.0894 167.011 65.8613 166.52 66.0381C166.077 66.1982 165.798 66.6335 165.587 67.0569C164.846 68.5516 164.55 70.2654 164.748 71.9231C164.84 72.6942 165.809 73.1156 166.545 72.8717C167.28 72.6278 167.776 71.9325 168.082 71.2187Z" fill="#00160A"/>
  <path d="M174.598 68.8531C174.941 68.5681 175.374 69.0858 175.513 69.5102C175.971 70.905 176.35 72.3257 176.647 73.7634C176.835 74.6719 176.991 75.6158 176.79 76.5217C176.508 77.7989 175.54 78.8378 174.416 79.5032C173.292 80.1686 172.013 80.5131 170.753 80.8502C170.419 80.9392 170.001 81.0026 169.786 80.7326C169.603 80.5034 169.693 80.1444 169.901 79.9379C170.105 79.7355 170.389 79.642 170.662 79.5521L170.678 79.5468C172.644 78.8995 174.744 77.7312 175.202 75.7084C175.453 74.5962 175.147 73.4788 174.84 72.3568C174.56 71.3349 174.279 70.309 174.417 69.2796C174.438 69.1227 174.476 68.9541 174.598 68.8531Z" fill="#00160A"/>
  <path d="M160.871 64.3034C160.353 63.5846 160.768 62.4924 161.518 62.0236C162.269 61.5549 163.218 61.5612 164.095 61.6748C165.142 61.8103 166.172 62.0773 167.153 62.4675C167.362 62.5505 167.587 62.6563 167.679 62.8619C167.849 63.2426 167.408 63.6594 166.992 63.659C166.657 63.6588 166.353 63.4971 166.053 63.3373C165.98 63.2986 165.908 63.26 165.835 63.2238C164.197 62.4089 162.025 62.8813 160.871 64.3034Z" fill="#00160A"/>
  <path d="M179.751 64.0558C180.53 63.926 181.355 64.1062 182.009 64.5487C182.283 64.7337 182.674 64.4226 182.676 64.0919C182.677 63.7612 182.431 63.4831 182.172 63.2786C181.614 62.8381 180.918 62.5746 180.209 62.5344C179.751 62.5085 179.244 62.5972 178.95 62.9492C178.655 63.3013 178.744 63.962 179.186 64.0846C179.343 64.1283 179.509 64.0987 179.672 64.0697C179.698 64.0649 179.725 64.0602 179.751 64.0558Z" fill="#00160A"/>
  <path d="M170.089 84.3328C170.309 84.2088 170.598 84.4253 170.63 84.6755C170.663 84.9256 170.521 85.1648 170.358 85.3572C169.542 86.3229 168.135 86.6203 166.893 86.3939C165.651 86.1675 164.537 85.498 163.49 84.7918C162.997 84.4597 162.511 84.1167 162.034 83.7631C161.539 83.3965 161.011 82.948 160.952 82.3339C160.893 81.7198 161.678 81.1009 162.126 81.5238C163.227 82.5634 164.353 83.6202 165.723 84.2635C167.093 84.9067 168.772 85.0781 170.089 84.3328Z" fill="#00160A"/>
  <path d="M160.967 54.6663C162.212 55.6792 163.63 56.477 165.141 57.0141C170.017 58.7474 175.497 57.6592 180.202 55.5031C180.921 55.1737 181.838 55.3474 182.388 55.9169C179.366 58.0752 175.665 59.2615 171.955 59.2607C171.137 59.2605 170.32 59.2043 169.505 59.1329C167.838 58.9868 166.158 58.7727 164.589 58.1872C163.02 57.6017 161.555 56.6112 160.667 55.1887L160.967 54.6663Z" fill="#00160A"/>
  <path d="M214.063 120.545C214.015 120.712 214.148 120.871 214.271 120.993L216.124 122.836C216.325 122.306 216.099 121.689 215.71 121.276C215.322 120.864 214.797 120.613 214.285 120.371C214.185 120.375 214.091 120.449 214.063 120.545Z" fill="#00160A"/>
  <path d="M151.01 44.108C150.925 44.0161 150.826 43.9349 150.711 43.8853C150.38 43.7421 149.993 43.8889 149.703 44.1039C148.548 44.9609 148.543 46.9649 149.694 47.8271C150.256 47.3475 150.832 46.8493 151.161 46.1875C151.49 45.5256 151.51 44.6511 151.01 44.108Z" fill="#00160A"/>
  <path fill-rule="evenodd" clip-rule="evenodd" d="M81.1313 116.153C80.971 119.371 78.4941 122.857 75.3021 122.476C73.8614 120.805 72.7338 118.732 71.6194 116.683C69.4792 112.748 67.3877 108.902 63.2208 108.172C59.1281 107.455 55.3166 110.473 52.7676 113.762C49.0759 118.526 46.6902 124.297 45.9382 130.282C45.496 133.8 46.9354 138.68 50.4519 138.293C54.4686 137.851 57.3252 141.018 60.2306 144.24C62.9197 147.222 65.6506 150.25 69.3818 150.505C73.8247 150.809 77.4537 153.478 81.1272 156.179C83.5807 157.983 86.054 159.801 88.8029 160.94C93.9741 163.082 99.9373 162.668 105.216 160.807C110.494 158.947 115.192 155.743 119.638 152.338L119.871 152.16C122.298 150.299 124.839 148.351 127.857 147.941C143.289 145.845 157.642 136.771 166.178 123.714C178.281 133.413 195.203 136.728 210.057 132.31C212.578 131.56 215.114 130.555 216.983 128.701C218.852 126.848 219.912 123.97 218.993 121.501C217.989 118.8 214.986 117.354 212.132 117.006C210.568 116.816 208.991 116.872 207.413 116.929C206.113 116.975 204.811 117.022 203.515 116.93C195.669 116.374 189.135 110.948 183.194 105.78C191.802 103.133 198.782 96.4838 203.39 88.729C207.999 80.9743 210.469 72.1401 212.345 63.3116C213.332 58.6656 214.066 53.4318 211.418 49.4923C210.233 47.7291 208.495 46.44 206.764 45.1554C204.814 43.7088 202.872 42.268 201.736 40.1624C199.549 36.1122 195.288 33.7105 191.246 31.5226C180.667 25.7971 168.517 19.9043 157.117 23.728C152.676 25.2174 148.84 28.0715 145.1 30.8961C138.889 35.5867 132.236 41.0889 131.053 48.7937C120.891 44.2358 107.744 47.876 101.355 57.0164C99.8937 59.1071 98.7719 61.4126 97.6512 63.7158C96.3318 66.4274 95.014 69.1357 93.1458 71.4862C85.642 68.0588 77.9965 64.9433 70.2354 62.1505C66.7945 60.9123 62.6841 59.8181 59.7186 61.9617C57.341 63.6804 56.6116 67.054 57.3095 69.9081C58.0075 72.7623 59.8707 75.1819 61.8688 77.3321C66.2036 81.9969 71.4106 85.8444 77.1383 88.6147C77.3231 88.7041 77.5092 88.793 77.6959 88.8821C79.4893 89.7386 81.3328 90.619 82.527 92.1912C83.8455 93.9271 83.9273 96.8316 82.0789 97.9833C79.3487 99.6845 78.8461 103.502 79.4057 106.675C79.5969 107.759 79.8776 108.833 80.1579 109.906C80.698 111.973 81.2368 114.034 81.1313 116.153ZM155.252 133.122C148.373 140.364 138.692 144.6 128.794 145.839C118.895 147.077 108.788 145.467 99.3323 142.282C101.876 142.28 103.715 138.942 102.362 136.783C97.1506 142.873 89.206 145.725 81.6357 148.329C74.7964 150.682 66.6216 148.973 61.5978 143.76C56.5741 138.546 55.2146 129.991 58.7475 123.667C60.2832 120.917 62.8878 118.524 66.0193 118.255C69.1508 117.985 72.5228 120.588 72.2323 123.725C70.4898 123.422 68.656 124.906 68.5842 126.677C75.3255 125.949 81.6631 122.077 85.3977 116.403C86.6867 114.445 87.6663 112.312 88.6467 110.178C89.305 108.744 89.9637 107.31 90.7166 105.928C92.591 102.486 95.2822 99.2048 99.0116 98.0222C102.005 97.073 105.24 97.5997 108.334 98.1345L122.078 100.51C123.106 99.6199 121.441 98.1932 120.11 97.9146C115.815 97.0149 111.46 96.4604 107.104 95.9059C103.065 95.3916 99.0254 94.8774 95.0331 94.0877C86.7356 92.4466 78.396 89.4447 72.3566 83.5092C76.4532 81.1466 79.5701 77.1319 80.8489 72.5706C81.1076 71.6479 80.4912 70.132 79.7437 70.7297C78.8897 73.6908 77.964 76.779 75.8242 78.9924C73.6845 81.2058 69.9287 82.1781 67.5069 80.2792C64.3629 77.814 61.0574 75.125 59.8141 71.3227C58.5707 67.5204 60.5376 62.414 64.5018 61.9478C66.2811 61.7385 68.0205 62.4756 69.6614 63.1967L86.2152 70.4712C91.142 72.6363 96.1423 74.8231 101.464 75.6087C105.201 76.1603 109.001 76.0055 112.775 75.8495L123.474 75.407C123.911 75.389 124.36 75.3684 124.763 75.1962C125.838 74.7365 126.202 73.4204 126.439 72.2732C129.31 58.3846 133.168 43.7278 143.603 34.1502C148.273 29.8645 154.089 26.847 160.276 25.5009C166.375 24.174 173.103 24.5641 178.354 27.9455C169.546 28.5954 160.994 32.3188 154.507 38.3274C151.782 35.4109 146.71 37.7948 144.536 41.1447C141.167 46.3375 141.228 53.5511 144.685 58.6857C147.595 63.0078 148.674 68.1647 149.756 73.3337C150.75 78.0842 151.746 82.8448 154.168 86.9767C157.998 93.5133 165.132 97.7092 172.582 99.0099C180.032 100.311 187.756 98.9522 194.837 96.29C186.912 104.215 174.252 106.955 163.771 103.016C163.007 102.729 162.247 102.408 161.487 102.087L161.486 102.087C159.078 101.07 156.662 100.05 154.079 100.08C155.592 101.687 157.525 102.893 159.631 103.544C157.202 107.634 154.655 111.651 151.992 115.591C151.651 116.095 151.263 116.632 150.68 116.802C150.031 116.992 149.353 116.668 148.76 116.34C143.865 113.627 139.477 109.997 135.891 105.694L128.716 114.443C132.398 118.954 136.702 122.954 141.468 126.294C135.125 134.15 125.515 139.267 115.47 140.136C125.867 140.667 136.393 135.778 142.712 127.483C146.712 129.734 150.915 131.624 155.252 133.122ZM188.134 56.1926C190.432 53.681 191.283 50.0937 191.087 46.6915C190.89 43.2894 189.749 40.0175 188.486 36.8538C191.777 36.4627 195.12 37.7074 197.742 39.74C200.364 41.7727 202.333 44.5384 203.948 47.4396C205.906 50.9564 207.407 54.7592 208.058 58.7335C209.592 68.0912 206.318 77.6325 201.656 85.8845C200.751 87.4869 199.777 89.0782 198.456 90.3574C197.126 91.6455 195.489 92.5715 193.812 93.3528C186.891 96.5766 178.929 97.507 171.454 95.9654C176.226 91.9823 179.596 86.4948 181.742 80.6534C183.888 74.812 184.871 68.6035 185.436 62.4043L185.44 62.3695C185.582 60.8063 185.732 59.1634 186.621 57.8726C186.915 57.4452 187.279 57.0747 187.643 56.704C187.809 56.5353 187.975 56.3667 188.134 56.1926ZM179.498 82.0127C177.439 86.8415 174.249 91.2753 169.924 94.2387C169.418 94.5857 168.874 94.9205 168.265 94.9919C167.727 95.055 167.188 94.9063 166.671 94.7429C162.994 93.5794 159.52 91.5169 157.161 88.4592C156.305 87.3496 155.606 86.1258 154.983 84.8699C150.443 75.7239 149.998 64.6274 153.792 55.1457C153.973 54.6928 154.232 54.1842 154.71 54.0893C155.327 53.9664 155.801 54.5997 156.148 55.1264C158.982 59.4315 164.281 61.611 169.421 61.8367C174.561 62.0624 179.618 60.5979 184.492 58.9462C183.604 61.1239 183.377 63.4963 183.153 65.8463L183.153 65.8498C183.125 66.1446 183.097 66.439 183.067 66.7327C182.545 71.958 181.558 77.1839 179.498 82.0127ZM178.452 37.1532C181.082 36.5538 184.151 36.3888 186.161 38.1924C186.81 38.775 187.292 39.5222 187.689 40.2998C190.178 45.1765 189.203 51.5994 185.38 55.5131C180.959 60.0374 173.963 60.7833 167.669 60.2463C165.41 60.0536 163.088 59.7052 161.16 58.5103C158.665 56.9644 157.188 54.2402 155.821 51.6385C161.887 44.8443 169.583 39.1743 178.452 37.1532ZM199.725 119.17C198.899 121.259 198.066 123.376 197.796 125.607C197.526 127.837 197.877 130.23 199.231 132.021C188.002 132.644 176.592 129.173 167.603 122.4C170.501 118.287 172.791 113.744 174.372 108.964C174.997 107.076 177.381 106.288 179.317 106.725C181.099 107.128 182.596 108.274 184.055 109.392L184.234 109.529C184.3 109.579 184.366 109.63 184.432 109.68C189.211 113.317 194.478 116.25 199.725 119.17ZM121.264 147.695C119.494 149.694 117.377 151.353 115.215 152.918C110.703 156.184 105.782 159.153 100.298 160.102C92.2599 161.493 83.5761 158.017 78.7035 151.46L96.2351 144.903C96.6548 144.746 97.0896 144.587 97.5368 144.612C97.7895 144.627 98.0326 144.699 98.2762 144.772C98.4383 144.821 98.6007 144.869 98.7662 144.901C99.3291 145.007 99.8969 144.914 100.467 144.819C100.822 144.761 101.178 144.702 101.534 144.691C102.846 144.652 104.052 145.253 105.245 145.848C105.548 145.999 105.85 146.15 106.153 146.289C110.802 148.433 116.162 148.086 121.264 147.695ZM95.9509 72.4969C95.8274 72.2198 95.9577 71.901 96.0881 71.6272C99.6784 64.0889 104.428 57.107 110.117 51.004C114.119 56.5746 116.783 63.1046 117.821 69.8902C118.028 71.2467 117.804 73.1224 116.446 73.2922C109.935 74.1057 103.31 73.9952 96.8304 72.9649C96.4878 72.9104 96.0925 72.8143 95.9509 72.4969ZM120.472 72.0318C119.131 64.6435 116.348 57.5212 112.327 51.1857C115.731 49.3891 119.755 49.3598 123.602 49.3718C126.031 49.3795 128.683 49.4653 130.535 51.0423L125.732 65.2486C124.917 67.6603 124.091 70.1397 124.194 72.6841L121.158 72.7329C121.05 72.7347 120.938 72.7358 120.839 72.694C120.596 72.5923 120.519 72.2914 120.472 72.0318ZM159.533 108.387C160.34 107.012 161.108 105.543 161.189 103.95C164.822 105.587 168.822 106.399 172.803 106.306C173.428 106.291 173.406 107.257 173.15 107.829C172.374 109.559 171.598 111.29 170.701 112.96C169.78 114.674 168.735 116.316 167.691 117.957L165.188 121.891C164.845 122.429 164.491 122.98 163.982 123.363C162.616 124.393 160.666 123.898 159.106 123.196C156.52 122.031 154.139 120.408 152.107 118.426C154.929 115.357 157.423 111.985 159.533 108.387ZM65.6075 111.786C66.811 113.002 67.5974 114.561 68.3642 116.092L64.7539 116.609C63.551 116.781 62.3176 116.963 61.2543 117.552C60.2199 118.126 59.4221 119.046 58.72 119.999C55.7838 123.987 54.1564 128.927 54.1461 133.884C54.1424 135.674 52.0317 136.952 50.3043 136.498C48.5768 136.044 47.4033 134.324 47.1047 132.559C46.806 130.793 47.2266 128.989 47.754 127.278C49.6101 121.259 52.9303 115.574 57.8427 111.645C58.7813 110.894 59.8183 110.191 61.004 110.001C62.6915 109.731 64.4041 110.57 65.6075 111.786ZM217.217 121.862C217.635 122.4 217.944 123.055 217.925 123.736C217.901 124.617 217.344 125.389 216.745 126.033C213.26 129.777 207.903 131.052 202.83 131.653C202.496 131.692 202.145 131.728 201.832 131.605C201.574 131.504 201.367 131.305 201.183 131.097C199.959 129.717 199.474 127.789 199.574 125.945C199.673 124.101 200.308 122.325 201.098 120.657C201.265 120.306 201.457 119.937 201.797 119.749C202.067 119.598 202.391 119.587 202.7 119.579L208.839 119.417C210.351 119.377 211.879 119.339 213.359 119.652C214.839 119.964 216.288 120.665 217.217 121.862ZM148.792 63.7052C146.291 59.0583 144.419 54.071 143.245 48.9233L144.256 46.2169C145.506 43.7902 147.083 41.5325 148.929 39.5237C149.681 38.7055 150.984 38.6151 152.021 39.0093C153.059 39.4034 153.894 40.1873 154.699 40.9524L158.324 44.3951C158.432 44.4975 158.544 44.608 158.58 44.7524C158.648 45.0243 158.424 45.2732 158.221 45.4663C156.524 47.0842 155.016 48.9084 153.806 50.9192C151.979 53.9586 150.862 57.3647 149.761 60.7377L148.792 63.7052ZM158.057 37.606C165.437 33.6433 173.51 29.9144 181.834 30.8061C186.187 31.2723 190.35 33.0082 193.975 35.467C183.59 32.7908 172.014 35.2594 163.614 41.9413C162.316 42.9741 160.368 44.0958 159.213 42.9051C158.916 42.5994 158.722 42.171 158.533 41.7537C158.23 41.0852 157.94 40.445 157.261 40.3824C156.614 40.3227 156.326 39.4424 156.601 38.8518C156.875 38.2612 157.484 37.9136 158.057 37.606ZM137.782 110.085C139.239 111.489 140.843 112.728 142.443 113.963L148.909 118.956C146.918 120.715 144.97 122.523 143.067 124.378C138.537 121.686 134.493 118.174 131.191 114.062C132.999 112.174 134.734 110.217 136.392 108.195C136.653 108.941 137.214 109.538 137.782 110.085ZM96.2081 96.5814C92.8035 99.248 89.2836 102.055 87.4109 105.958C87.045 106.721 86.7428 107.523 86.4409 108.325C85.7994 110.028 85.1599 111.726 83.916 113.023C83.3646 112.86 83.1478 112.209 83.0135 111.649L81.7179 106.246C81.5431 105.517 81.3671 104.768 81.4664 104.025C81.5652 103.286 81.929 102.612 82.2863 101.957L86.0875 94.9934C86.1722 94.8381 86.2601 94.679 86.3959 94.5659C86.7322 94.2859 87.2297 94.3751 87.6543 94.4794L96.2081 96.5814ZM151.517 120.504C153.839 122.897 156.725 124.737 159.871 125.83C160.459 125.275 161.597 125.581 161.829 126.357C160.746 127.765 159.557 129.092 158.276 130.321C157.704 130.87 156.787 130.755 156.015 130.577C152.245 129.709 148.612 128.239 145.298 126.238C145.076 126.104 144.827 125.914 144.849 125.656C144.863 125.482 145 125.346 145.128 125.228L149.782 120.932C150.27 120.481 151.055 120.028 151.517 120.504ZM210.931 60.4817C210.888 61.0082 210.814 61.5958 210.404 61.9269C210.4 57.7912 209.377 53.6601 207.451 50.003C207.102 49.3397 206.723 48.6913 206.301 48.0715C206.247 47.9918 206.192 47.912 206.137 47.832C205.712 47.2169 205.277 46.5874 205.173 45.853L210.16 51.0752C210.619 51.5556 211.091 52.0569 211.307 52.6855C211.517 53.2917 211.467 53.9529 211.414 54.5921L210.931 60.4817Z" fill="#00160A"/>
  <path fill-rule="evenodd" clip-rule="evenodd" d="M335.733 48.852C338.003 49.6406 340.141 47.5886 342.097 46.1907C345.123 44.0275 349.071 43.2096 352.705 43.993C353.307 44.1229 353.939 44.318 354.336 44.7909C354.699 45.2234 354.802 45.8133 354.86 46.3754C355.218 49.8167 354.36 53.3727 352.472 56.2692C351.554 57.6783 350.404 58.9329 349.582 60.401C348.761 61.8692 348.292 63.6628 348.877 65.2405C352.355 74.6205 350.908 85.684 345.134 93.8472C339.36 102.01 329.425 107.041 319.445 106.854C314.341 106.758 309.34 105.392 304.531 103.675C302.433 102.925 300.126 102.103 298.043 102.894C294.243 104.338 290.242 105.25 286.192 105.595C285.187 105.681 284.137 105.725 283.21 105.327C281.822 104.732 280.984 103.223 280.825 101.718C280.665 100.213 281.081 98.7061 281.605 97.2868C283.186 93.0054 288.096 86.3173 291.067 84.7766C290.827 79.5776 290.853 74.3176 291.974 69.2358C293.096 64.1541 295.384 59.223 299.137 55.6273C300.688 54.1422 302.462 52.906 304.32 51.8334C313.72 46.4081 325.485 45.2914 335.733 48.852ZM321.419 48.4299C314.232 48.5986 307.235 51.493 301.616 55.9899C299.967 57.3102 298.416 58.7771 297.178 60.491C296.202 61.842 295.43 63.3329 294.785 64.8707C290.958 73.9957 291.832 84.9591 297.055 93.3592C297.169 93.5424 297.3 93.7365 297.503 93.8077C297.754 93.8955 298.024 93.7675 298.258 93.6423C314.664 84.8775 329.267 72.7384 340.895 58.1982C341.172 57.852 341.464 57.4498 341.404 57.01C341.359 56.6801 341.124 56.4122 340.895 56.1712C335.933 50.9555 328.607 48.2612 321.419 48.4299ZM331.468 102.903C339.26 99.2354 345.179 91.9881 347.71 83.7396C348.283 81.8718 348.695 79.941 348.735 77.9872C348.769 76.3442 348.541 74.7084 348.313 73.081C347.982 70.7216 347.651 68.3622 347.32 66.0029C347.233 65.3773 346.632 64.5516 346.192 65.0047C334 77.5833 320.687 89.0694 306.463 99.2812C305.99 99.6211 305.469 100.041 305.443 100.624C305.414 101.299 306.056 101.789 306.64 102.126C314.097 106.437 323.676 106.57 331.468 102.903ZM283.403 101.942C283.97 102.854 285.198 103.041 286.269 103.07C291.889 103.226 297.448 101.576 302.476 99.0545C307.503 96.5334 312.053 93.1611 316.475 89.6818C322.373 85.0411 328.095 80.1775 333.672 75.153C340.578 68.9304 347.363 62.33 351.898 54.2064C352.775 52.635 353.584 50.912 353.447 49.1166C353.31 47.3212 351.881 45.5086 350.086 45.5788C346.278 45.7277 342.533 47.1958 339.634 49.6765C339.057 50.1698 339.465 51.22 340.174 51.487C340.884 51.7541 341.675 51.4887 342.368 51.1819C343.062 50.875 343.784 50.5161 344.537 50.6001C345.688 50.7284 346.506 51.9096 346.574 53.0685C346.643 54.2274 346.132 55.3412 345.529 56.3327C344.415 58.1677 342.959 59.7671 341.488 61.3296C328.412 75.2177 313.327 87.2028 296.854 96.7932C295.37 97.6569 293.869 98.5042 292.272 99.1335C291.435 99.4635 290.475 99.7285 289.657 99.3511C288.317 98.7322 288.21 96.8458 288.612 95.4226C289.216 93.2856 290.52 91.3538 292.275 89.998C291.943 89.0592 291.61 88.1205 291.278 87.1818C286.946 89.9555 283.906 94.6734 283.165 99.7723C283.058 100.508 283.01 101.312 283.403 101.942ZM295.719 95.5003C295.75 95.4035 295.693 95.3026 295.639 95.2166C295.08 94.3253 294.52 93.434 293.961 92.5426C293.708 92.1394 293.218 91.6826 292.838 91.9692C291.47 93.002 290.491 94.5401 290.133 96.2189C290.062 96.5501 290.021 96.9199 290.201 97.2066C290.536 97.7401 291.336 97.6213 291.927 97.4087C293.189 96.9555 294.404 96.3728 295.548 95.6725C295.618 95.6293 295.694 95.5793 295.719 95.5003ZM344.397 53.0712C344.341 52.8396 344.066 52.739 343.829 52.7287C343.108 52.6971 342.354 53.2914 342.4 54.0134C342.445 54.7354 343.516 55.1901 343.963 54.6223C344.098 54.451 344.156 54.2324 344.209 54.0208C344.263 53.8111 344.316 53.6014 344.369 53.3917C344.396 53.2867 344.423 53.1765 344.397 53.0712Z" fill="#00160A"/>
</svg>