<svg xmlns="http://www.w3.org/2000/svg" width="425" height="320" viewBox="0 0 425 320" fill="none">
  <path fill-rule="evenodd" clip-rule="evenodd" d="M158.215 313.306C188.334 323.409 221.396 320.92 252.284 313.477C295.563 303.049 337.967 281.839 364.221 245.986C373.137 233.811 380.201 219.376 379.436 204.32C378.491 185.728 365.792 168.624 367.637 150.099C369.097 135.434 379.433 123.103 382.836 108.761C387.903 87.4039 374.767 63.2948 354.039 55.9084C341.489 51.4363 327.742 52.6875 314.415 52.799C289.186 53.0101 263.927 48.8817 240.086 40.6507C226.394 35.9237 213.206 29.871 199.722 24.5819C151.242 5.56458 95.7525 -3.17524 47.4207 16.2135C27.2187 24.3177 7.76875 38.7587 1.84837 59.6514C-3.71575 79.2869 3.9378 100.589 16.049 117.037C28.1602 133.484 44.4054 146.346 59.0475 160.601C73.6897 174.857 87.2718 191.489 91.6715 211.416C94.2821 223.24 93.5011 235.58 95.7298 247.481C101.562 278.625 128.096 303.203 158.215 313.306Z" fill="#282C34"/>
  <path d="M187.442 30.3049C188.577 30.9666 189.374 32.1035 189.849 33.326C191.189 36.7743 190.11 40.7143 188.343 43.9657C186.577 47.2172 184.15 50.0887 182.527 53.4138C181.057 56.4251 180.281 59.771 180.276 63.1204C180.275 63.5788 179.653 63.8189 179.234 63.631C178.815 63.4431 178.574 63.0074 178.369 62.597C174.096 54.0337 173.114 43.3815 177.774 35.0216C178.748 33.2741 179.995 31.6094 181.718 30.5875C183.441 29.5655 185.712 29.2956 187.442 30.3049Z" fill="white"/>
  <path d="M148.369 56.7961C149.807 57.2599 151.008 58.2608 152.048 59.3545C157.133 64.7062 158.912 72.2947 160.493 79.4989C160.592 79.9495 160.216 80.6702 159.923 80.3136C157.107 76.8887 153.053 74.7656 149.519 72.0854C145.984 69.4052 142.719 65.6408 142.733 61.2111C142.737 59.8578 143.104 58.4258 144.106 57.5126C145.22 56.4956 146.932 56.3323 148.369 56.7961Z" fill="white"/>
  <path fill-rule="evenodd" clip-rule="evenodd" d="M154.233 23.2023C152.172 31.0509 155.949 39.13 159.684 46.3368C160.05 47.0422 160.653 47.8658 161.429 47.6887C161.11 42.9543 162.295 38.2511 162.474 33.5094C162.653 28.7677 161.547 23.5365 157.776 20.6446C157.088 20.1172 156.036 20.3351 155.399 20.9217C154.761 21.5083 154.453 22.3652 154.233 23.2023Z" fill="white"/>
  <path fill-rule="evenodd" clip-rule="evenodd" d="M158.21 250.828C159.943 253.005 159.991 256.111 159.257 258.792C158.324 262.198 156.205 265.243 153.408 267.399C152.71 267.937 167.363 277.684 155.107 278.237C142.85 278.79 149.435 269.69 148.502 269.987C146.762 270.542 144.762 270.911 143.702 272.396C142.641 273.881 143.957 276.682 145.632 275.953C146.74 275.471 147.753 277.182 147.167 278.237C146.582 279.291 145.254 279.649 144.06 279.831C141.363 280.242 138.47 280.236 136.068 278.946C133.665 277.656 131.961 274.781 132.741 272.173C133.149 270.81 131.805 269.438 130.394 269.235C128.984 269.032 127.596 269.623 126.277 270.161C110.22 276.717 91.6853 277.003 75.4333 270.944C59.1813 264.885 45.3753 252.544 37.5609 237.089C35.6469 233.303 34.0476 229.292 31.3472 226.018C27.3028 221.115 20.8524 218.289 14.4972 218.635C12.338 218.752 11.1807 215.743 12.1711 213.826C13.1616 211.908 15.3198 210.944 17.3267 210.14C25.3863 206.913 33.6925 203.975 42.3478 203.268C61.9103 201.669 81.7689 212.592 91.4691 229.617C95.7419 237.117 98.1912 245.613 103.102 252.712C108.013 259.812 116.628 265.506 124.988 263.307C125.729 263.112 125.802 262.111 125.774 261.348C125.525 254.613 130.204 247.996 136.646 245.972C136.104 246.49 138.144 245.578 141.456 244.003C142.761 243.382 129.13 239.708 117.635 233.519C105.7 227.092 108.944 215.02 114.417 205.669C115.516 203.792 91.1074 187.268 95.6824 183.182C102.181 177.379 121.858 195.504 123.254 194.161C124.052 193.394 124.662 191.998 124.988 191.857C127.88 190.606 130.168 187.803 132.741 186.883C134.567 186.23 136.755 187.379 138.428 186.883C140.357 186.31 125.265 173.825 129.726 169.922C134.186 166.019 147.685 184.735 149.396 184.54C187.946 180.146 169.713 231.075 170.424 231.822C172.819 234.341 154.906 246.677 158.21 250.828Z" fill="white"/>
  <path fill-rule="evenodd" clip-rule="evenodd" d="M146.038 224.232C148.322 224.071 149.479 222.094 148.623 219.816C147.767 217.538 145.221 215.821 142.938 215.982C140.654 216.142 139.497 218.119 140.354 220.398C141.21 222.676 143.755 224.393 146.038 224.232Z" fill="#FFB61D"/>
  <path fill-rule="evenodd" clip-rule="evenodd" d="M172.785 208.323C174.465 208.209 175.316 206.8 174.686 205.177C174.056 203.554 172.184 202.331 170.505 202.445C168.825 202.559 167.974 203.968 168.604 205.591C169.234 207.215 171.106 208.438 172.785 208.323Z" fill="#FFB61D"/>
  <path d="M213.639 226.375C213.639 240.325 202.197 251.634 188.083 251.634C173.969 251.634 162.527 240.325 162.527 226.375C162.527 212.424 173.969 201.116 188.083 201.116C202.197 201.116 213.639 212.424 213.639 226.375Z" fill="white"/>
  <path d="M272.181 237.796C269.468 239.314 265.513 240.871 263.759 238.307C262.942 237.112 263.109 235.528 263.309 234.095C265.016 221.865 268.495 207.868 270.203 195.638C273.68 187.486 285.61 143.256 290.536 140.258C291.052 139.943 288.568 136.1 288.309 129.32C288.25 127.745 267 118.723 261.641 108.592C259.364 104.289 255.799 90.9383 257.232 85.5185C259.121 78.3713 266.63 79.5428 266.805 79.1895C267.168 78.4556 287.429 79.6313 293.811 88.9263C298.963 96.4295 294.86 113.515 294.973 113.485C296.486 113.084 296.589 138.51 298.095 138.793C316.463 142.243 333.652 192.618 334.38 192.246C338.99 197.722 343.601 203.198 348.212 208.673C351.13 212.139 354.229 216.701 352.347 220.82C351.375 222.948 349.269 224.319 347.171 225.362C328.578 234.604 304.059 228.131 283.905 233.151C279.813 234.17 275.859 235.736 272.181 237.796Z" fill="white"/>
  <path d="M289.394 103.73C289.394 106.015 287.416 107.866 284.977 107.866C282.537 107.866 280.56 106.015 280.56 103.73C280.56 101.446 282.537 99.5948 284.977 99.5948C287.416 99.5948 289.394 101.446 289.394 103.73Z" fill="#FFB61D"/>
  <path fill-rule="evenodd" clip-rule="evenodd" d="M397.872 177.602C395.999 180.252 393.713 182.739 390.752 184.074C387.791 185.409 384.045 185.377 381.529 183.327C379.507 189.359 371.571 192.553 365.921 189.607C365.26 194.544 361.269 198.862 356.39 199.918C351.512 200.974 346.086 198.694 343.435 194.474C340.504 189.808 330.752 192.433 329.602 187.047C328.985 190.132 326.126 192.626 322.98 192.824C319.833 193.022 316.683 190.907 315.682 187.924C312.259 189.522 308.015 187.833 305.554 184.972C303.093 182.11 302.018 178.345 301.078 174.693C293.831 146.549 290.62 117.427 290.765 88.3693C290.042 91.8977 285.116 93.1473 281.977 91.3689C278.839 89.5904 277.262 85.9691 276.341 82.487C275.595 79.6714 271.941 78.7006 269.088 79.3128C266.234 79.9251 263.664 81.5677 260.781 82.0226C255.197 82.9036 249.568 78.7629 247.812 73.4018C246.055 68.0408 247.7 61.9656 251.107 57.465C254.515 52.9645 259.481 49.8643 264.666 47.6175C271.356 44.7187 278.593 43.0828 285.881 42.8218C287.653 42.7583 289.792 42.5618 290.58 40.9769C294.484 42.7804 298.919 42.9041 303.182 43.4843C313.159 44.8421 322.751 48.9103 330.654 55.1353C341.573 63.7358 349.011 76.073 359.714 84.9395C377.378 99.572 403.079 104.124 416.742 122.533C420.724 127.899 423.415 134.213 424.527 140.797C425.57 146.977 425.068 153.814 421.197 158.748C417.325 163.683 409.363 165.641 404.572 161.588C403.545 167.328 401.24 172.837 397.872 177.602Z" fill="white"/>
  <path fill-rule="evenodd" clip-rule="evenodd" d="M292.759 156.458C293.267 154.067 293.614 151.486 292.619 149.253C291.623 147.02 288.799 145.443 286.641 146.599C279.101 150.64 274.591 158.582 271.021 166.342C267.451 174.103 264.242 182.352 258.066 188.262C252.941 193.167 245.952 196.084 238.853 196.281C238.142 196.688 238.689 197.879 239.478 198.1C240.267 198.32 241.118 198.045 241.926 198.181C244.158 198.557 244.637 201.899 243.18 203.629C241.724 205.358 239.3 205.848 237.069 206.232C235.597 206.486 236.215 209.055 237.684 209.322C239.154 209.589 240.505 208.577 241.791 207.817C243.076 207.057 244.908 206.585 245.921 207.68C244.015 208.632 242.7 210.666 242.616 212.791C245.023 210.281 248.49 208.815 251.973 208.837C251.041 209.987 250.109 211.138 249.178 212.288C253.065 211.479 256.287 208.12 256.927 204.209C257.526 200.551 261.237 198.406 264.407 196.473C278.767 187.712 289.271 172.887 292.759 156.458Z" fill="white"/>
  <path d="M259.583 272.182C258.767 271.794 257.557 272.788 258.126 273.488C259.284 274.912 260.048 276.651 260.312 278.466C261.435 277.57 261.217 275.838 260.893 274.44C260.689 273.561 260.399 272.57 259.583 272.182Z" fill="#656565"/>
  <path d="M263.325 279.397L264.199 279.378C265.758 279.35 267.344 279.332 269.45 279.317L277.505 279.264C278.441 279.254 279.289 279.243 280.179 279.229C280.925 279.218 281.539 279.812 281.551 280.556C281.563 281.3 280.968 281.913 280.221 281.925L277.056 281.964L267.369 282.031C265.341 282.051 263.753 282.079 261.882 282.125C261.136 282.143 260.517 281.554 260.498 280.81C260.48 280.066 261.07 279.448 261.816 279.43L262.737 279.41C262.238 277.438 262.184 275.355 262.583 273.361C264.423 274.7 264.711 277.643 263.325 279.397Z" fill="#656565"/>
  <path d="M202.617 275.947C202.871 275.387 203.18 274.811 203.711 274.499C204.241 274.187 205.05 274.274 205.323 274.824C203.762 277.046 202.824 279.699 202.643 282.406C202.18 282.695 201.53 282.36 201.3 281.866C201.071 281.372 201.145 280.796 201.247 280.261C201.529 278.775 201.99 277.324 202.617 275.947Z" fill="#656565"/>
  <path d="M109.948 283.319C115.862 283.003 121.358 282.709 124.324 282.662C124.324 282.662 132.739 280.468 126.437 280.536L124.266 280.566C117.335 280.675 85.5374 282.491 86.1818 283.872C86.5093 284.574 98.9526 283.908 109.948 283.319Z" fill="#656565"/>
  <path d="M250.437 281.17C250.418 280.425 249.797 279.838 249.051 279.858C243.172 280.013 237.615 280.145 230.699 280.294L207.918 280.758C207.172 280.772 206.579 281.388 206.593 282.132C206.608 282.876 207.225 283.468 207.971 283.453C220.836 283.201 229.543 283.022 237.054 282.85L249.122 282.553C249.868 282.533 250.457 281.914 250.437 281.17Z" fill="#656565"/>
  <path d="M387.872 277.541C370.162 276.219 367.737 276.636 367.737 276.636C357.69 276.636 349.192 276.868 333.91 277.498L324.136 277.912C314.919 278.305 309.72 278.508 304.661 278.654L300.408 278.765C299.662 278.783 299.072 279.4 299.089 280.144C299.107 280.889 299.726 281.478 300.472 281.46C305.768 281.336 310.123 281.19 317.423 280.892L334.53 280.171C348.084 279.614 356.25 279.377 365.041 279.338L368.333 279.333C371.624 279.339 374.672 279.371 377.363 279.4C384.462 279.475 389.078 279.525 389.118 278.986C389.174 278.244 388.616 277.597 387.872 277.541Z" fill="#656565"/>
  <path d="M174.607 279.29L171.156 288.061C169.311 284.946 171.131 280.32 174.607 279.29Z" fill="#656565"/>
  <path d="M178.265 286.007C178.157 285.432 177.301 285.052 176.973 285.536L173.808 290.199C173.143 291.179 172.701 292.885 173.837 293.224L177.694 287.616C178.025 287.133 178.373 286.582 178.265 286.007Z" fill="#656565"/>
  <path d="M153.678 285.455C153.958 285.048 154.304 284.609 154.796 284.553C155.288 284.497 155.781 285.15 155.42 285.488L153.332 290.911C152.489 290.338 152.193 289.19 152.367 288.188C152.542 287.185 153.101 286.295 153.678 285.455Z" fill="#656565"/>
  <path d="M139.616 287.737C139.558 288.073 139.689 288.409 139.828 288.72C140.354 289.894 141.032 291.001 141.84 292.004C142.604 291.353 142.645 290.136 142.208 289.234C141.77 288.332 140.966 287.67 140.186 287.038C139.893 287.153 139.669 287.428 139.616 287.737Z" fill="#656565"/>
  <path d="M160.843 291.126C161.385 292.205 161.223 293.598 160.448 294.524C159.493 293.34 158.966 291.819 158.986 290.299C158.992 289.856 159.094 289.336 159.497 289.15C160.334 288.763 160.801 290.14 160.692 291.053L160.843 291.126Z" fill="#656565"/>
  <path d="M166.924 283.463C167.072 282.996 167.247 282.492 167.659 282.226C168.071 281.96 168.775 282.138 168.813 282.626C168.398 284.426 167.993 286.227 167.598 288.03C167.134 288.468 166.298 288.077 166.078 287.479C165.858 286.881 166.05 286.219 166.242 285.612L166.924 283.463Z" fill="#656565"/>
  <path d="M91.639 182.382L93.6211 184.105L91.1074 185.519C96.1166 186.398 100.387 189.666 103.885 193.35C109.546 199.313 113.748 206.646 116.027 214.539C117.449 209.669 114.77 204.596 111.812 200.47C107.369 194.274 102.062 188.695 96.0909 183.946C104.014 182.044 111.366 188.263 117.142 193.999C118.183 195.034 119.313 196.343 118.996 197.775C118.942 198.02 118.853 198.281 118.763 198.544C118.499 199.315 118.231 200.098 118.841 200.511C122.759 196.077 127.761 192.603 133.288 190.475C130.445 190.409 127.588 191.282 125.269 192.924C128.708 188.966 134.031 186.714 139.273 187.001C137.7 182.129 135.105 177.588 131.703 173.756C133.67 172.408 136.254 174.137 137.915 175.845C140.829 178.843 143.497 182.079 145.882 185.511C158.235 185.282 170.241 193.869 173.989 205.617C175.417 204.995 175.066 202.88 174.377 201.486C169.508 191.635 159.345 184.593 148.394 183.481C145.952 183.233 144.624 181.068 143.263 178.848C142.092 176.94 140.897 174.991 138.947 174.185C134.729 172.442 130.936 169.686 127.979 166.215C127.823 167.643 128.524 169.131 129.726 169.922L125.45 169.016C125.808 170.01 126.622 170.829 127.615 171.193L125.223 172.007C130.569 174.091 134.772 178.883 136.134 184.447L126.402 189.727C128.04 187.483 129.991 185.468 132.181 183.757C129.098 183.773 126.763 186.42 124.863 188.843C125.553 186.729 126.357 184.652 127.269 182.623C123.641 185.864 121.449 190.653 121.372 195.512C113.542 187.125 103.535 180.779 92.6004 177.268C94.4822 178.546 96.3461 179.85 98.191 181.18C96.0788 180.257 93.7429 179.847 91.4417 179.997L95.9141 182.268L91.639 182.382Z" fill="#656565"/>
  <path d="M144.99 245.601L159.662 237.551C162.344 236.08 165.531 234.576 168.329 235.811C165.162 239.89 161.419 243.525 157.246 246.574C157.203 247.991 159.519 247.463 160.522 246.459L172.862 234.111C171.832 233.713 170.641 233.749 169.636 234.207L168.186 232.104C160.293 235.166 152.687 238.962 145.498 243.426C142.862 245.064 139.427 243.772 136.71 242.272C129.783 238.446 123.556 233.363 118.425 227.346C114.701 222.981 111.402 217.411 112.628 211.81L112.644 211.737C113.009 210.075 113.489 207.885 111.978 207.131C109.862 211.209 110.106 216.219 111.801 220.487C113.496 224.756 116.506 228.38 119.785 231.601C127.165 238.851 136.17 244.444 145.947 247.851C146.84 248.162 148.219 248.176 148.32 247.237C147.308 246.517 146.179 245.962 144.99 245.601Z" fill="#656565"/>
  <path fill-rule="evenodd" clip-rule="evenodd" d="M159.35 198.673C159.925 198.609 160.549 198.616 161.026 198.942C161.503 199.268 161.72 200.017 161.322 200.435C159.433 202.42 160.019 206.149 162.426 207.462C162.238 206.437 162.583 205.251 163.485 204.725C164.387 204.199 165.797 204.679 165.956 205.709C164.479 205.927 163.47 207.712 164.047 209.086C164.56 210.308 164.105 211.859 163.012 212.612C161.919 213.365 160.304 213.24 159.34 212.328C158.98 211.987 158.666 211.539 158.355 211.096C157.688 210.146 157.038 209.221 155.994 209.433C155.848 209.462 155.699 209.515 155.551 209.567C155.187 209.695 154.827 209.822 154.534 209.61C154.246 209.403 154.229 208.989 154.239 208.635C154.255 208.103 154.28 207.54 154.574 207.096C154.868 206.652 155.535 206.41 155.95 206.744C156.097 206.861 156.188 207.027 156.28 207.193C156.315 207.256 156.35 207.32 156.389 207.381C157.112 208.531 159.169 208.366 159.698 207.115C159.362 205.135 156.981 203.79 155.106 204.522C154.269 204.848 153.346 203.962 153.336 203.065C153.325 202.169 153.933 201.382 154.604 200.786C155.918 199.617 157.601 198.868 159.35 198.673ZM162.625 208.726C161.877 208.713 161.066 208.719 160.472 209.171C159.877 209.624 159.742 210.702 160.404 211.049C160.646 211.176 160.934 211.178 161.207 211.154C161.827 211.099 162.477 210.903 162.867 210.419C163.257 209.935 163.251 209.11 162.728 208.774L162.625 208.726Z" fill="#656565"/>
  <path d="M185.426 209.738C184.723 209.378 183.739 210.009 183.777 210.797C183.816 211.584 184.856 212.118 185.52 211.692C186.184 211.265 186.128 210.099 185.426 209.738Z" fill="#656565"/>
  <path d="M188.241 209.453C189.073 209.039 189.6 208.083 189.505 207.16L189.603 207.133C188.994 206.712 188.044 206.922 187.669 207.56C187.295 208.198 187.575 209.127 188.241 209.453Z" fill="#656565"/>
  <path d="M205.494 221.162C205.268 221.523 205.02 221.871 204.751 222.202C204.586 222.405 204.384 222.617 204.122 222.632C203.806 222.651 203.557 222.379 203.36 222.132C202.672 221.27 201.966 220.371 201.704 219.301C201.442 218.23 201.755 216.935 202.717 216.394C202.787 217.094 203.485 217.289 204.227 217.497C204.742 217.641 205.279 217.792 205.642 218.122C206.458 218.867 206.081 220.225 205.494 221.162Z" fill="#656565"/>
  <path d="M180.809 207.817C181.308 207.107 182.589 207.219 182.956 208.005C183.323 208.79 182.584 209.841 181.719 209.765C180.854 209.69 180.311 208.526 180.809 207.817Z" fill="#656565"/>
  <path fill-rule="evenodd" clip-rule="evenodd" d="M199.383 208.491C201.315 206.445 205.095 206.638 206.807 208.871C207.513 209.791 209.208 209.275 209.54 208.164C209.873 207.054 209.103 205.84 208.061 205.329C207.018 204.817 205.792 204.86 204.643 205.036C203.967 205.14 203.27 205.281 202.565 205.422C199.61 206.016 196.532 206.635 194.412 204.709C192.173 202.675 188.924 202.053 185.912 202.372C182.9 202.691 180.049 203.844 177.244 204.986L170.686 207.655C168.576 208.514 166.267 209.562 165.381 211.656C164.495 213.751 166.432 216.816 168.546 215.969C176.579 212.749 186.083 215.699 192.644 221.334C199.205 226.969 203.339 234.87 206.838 242.77C207.341 243.908 209.149 243.819 209.983 242.895C210.817 241.97 210.944 240.629 211.029 239.388L212.027 224.911C212.162 222.954 212.284 220.911 211.515 219.105C210.669 217.115 208.874 215.714 207.151 214.402L199.383 208.491ZM193.075 219.46C185.875 213.749 175.863 211.037 167.2 214.121C166.531 211.79 169.278 210.033 171.544 209.157L179.817 205.962C182.191 205.046 184.636 204.115 187.181 204.128C192.066 204.153 195.923 207.452 199.757 210.731C201.053 211.839 202.347 212.945 203.677 213.922C204.049 214.196 204.431 214.464 204.815 214.734C206.624 216.004 208.462 217.295 209.442 219.241C210.41 221.162 210.373 223.415 210.284 225.563C210.068 230.805 209.672 236.039 209.098 241.254C209.037 241.801 208.496 242.529 208.132 242.115C204.978 233.494 200.275 225.171 193.075 219.46Z" fill="#656565"/>
  <path d="M135.492 194.958C136.473 194.92 137.629 195.052 138.129 195.895C138.362 196.287 138.398 196.789 138.223 197.21C135.721 195.795 132.059 197.425 131.442 200.228C130.196 199.423 130.332 197.402 131.378 196.351C132.423 195.301 134.009 195.016 135.492 194.958Z" fill="#656565"/>
  <path d="M151.682 186.487C149.808 188.37 149.806 191.777 151.679 193.661C152.364 194.349 152.147 195.603 151.42 196.247C150.694 196.891 149.636 197.027 148.671 196.911C146.718 196.675 145.063 195.59 143.394 194.496C142.272 193.761 141.144 193.021 139.916 192.533C136.062 191.002 131.502 192.174 128.234 194.723C124.966 197.271 122.825 201.005 121.299 204.854C120.073 207.943 119.189 211.379 120.137 214.564C121.413 218.852 125.582 221.514 129.44 223.793C126.082 223.568 123.203 227.495 124.434 230.62C124.932 231.882 125.915 232.885 126.911 233.809C129.649 236.351 132.672 238.589 135.905 240.467C136.511 240.819 137.735 240.511 137.278 239.982L127.303 232.376C125.004 230.624 126.386 226.571 129.033 225.405C131.68 224.238 134.737 225.008 137.521 225.793L128.038 220.291C125.932 219.069 123.724 217.744 122.567 215.605C120.811 212.358 122.017 208.355 123.445 204.951C124.695 201.972 126.138 198.99 128.432 196.712C130.726 194.433 134.033 192.947 137.211 193.56C139.185 193.941 140.898 195.062 142.593 196.171L142.596 196.172C142.943 196.4 143.29 196.626 143.638 196.846C145.685 198.14 148.087 199.262 150.457 198.757C152.828 198.253 154.728 195.383 153.437 193.337C152.159 191.31 151.536 188.878 151.682 186.487Z" fill="#656565"/>
  <path d="M144.675 202.021C145.364 202.495 146.122 203.084 146.177 203.918C146.195 204.204 146.113 204.51 145.897 204.699C145.629 204.932 145.236 204.932 144.881 204.919C143.827 204.882 142.704 204.822 141.85 204.204C140.997 203.586 140.631 202.193 141.411 201.484C142.295 200.681 143.69 201.343 144.675 202.021Z" fill="#656565"/>
  <path fill-rule="evenodd" clip-rule="evenodd" d="M33.5029 225.129C29.0522 219.847 22.3002 216.567 15.388 216.328C13.9914 216.28 14.8708 214.033 16.0742 213.325C27.556 206.563 41.3765 203.591 54.5267 205.783C67.6768 207.976 79.9974 215.485 87.3492 226.582C90.0971 230.73 92.131 235.282 94.1639 239.832C94.831 241.325 95.4981 242.818 96.1902 244.296C98.9914 250.28 102.338 256.202 107.406 260.45C112.473 264.699 119.583 267.019 125.869 264.954C126.334 264.801 126.818 264.606 127.105 264.211C127.466 263.713 127.416 263.051 127.37 262.43L127.365 262.362L127.359 262.282C126.907 255.827 131.962 250.448 136.646 245.972C130.204 247.996 125.525 254.613 125.774 261.348C125.802 262.111 125.729 263.112 124.988 263.307C116.628 265.506 108.013 259.812 103.102 252.712C100.272 248.621 98.2598 244.067 96.2449 239.506C94.763 236.152 93.2798 232.795 91.4691 229.617C81.7689 212.592 61.9103 201.669 42.3478 203.268C33.6925 203.975 25.3863 206.913 17.3267 210.14C15.3198 210.944 13.1616 211.908 12.1711 213.826C11.1807 215.743 12.338 218.752 14.4972 218.635C20.8524 218.289 27.3028 221.115 31.3472 226.018C33.4393 228.555 34.8705 231.534 36.2991 234.508C36.7146 235.372 37.1298 236.236 37.5609 237.089C45.3753 252.544 59.1813 264.885 75.4333 270.944C91.6853 277.003 110.22 276.717 126.277 270.161L126.394 270.113C127.678 269.589 129.026 269.038 130.394 269.235C131.805 269.438 133.149 270.81 132.741 272.173C131.961 274.781 133.665 277.656 136.068 278.946C138.47 280.236 141.363 280.242 144.06 279.831C145.254 279.649 146.582 279.291 147.167 278.237C147.753 277.182 146.74 275.471 145.632 275.953C143.957 276.682 142.641 273.881 143.702 272.396C144.594 271.146 146.153 270.686 147.663 270.241C147.946 270.158 148.227 270.074 148.502 269.987C153.647 268.347 157.833 263.99 159.257 258.792C159.991 256.111 159.943 253.005 158.21 250.828C154.906 246.677 147.498 248.868 145.113 253.605C142.729 258.343 143.951 264.063 145.775 269.042L141.624 269.459C142.312 271.765 142.019 274.345 140.83 276.438L144.091 277.675C140.523 279.944 134.978 277.412 134.369 273.234C134.303 272.786 134.283 272.322 134.262 271.859C134.215 270.786 134.168 269.717 133.563 268.859C132.185 266.904 129.189 267.516 126.912 268.258C117.554 271.306 107.741 272.958 97.8994 273.143C92.8319 273.237 87.7101 272.938 82.8333 271.56C77.9419 270.179 73.4213 267.752 68.9805 265.283C59.7699 260.163 50.3674 254.466 44.6765 245.61C42.8981 242.843 41.5261 239.827 40.1568 236.817C38.2802 232.692 36.4086 228.578 33.5029 225.129ZM149.762 250.987C152.439 249.454 156.47 250.311 157.651 253.156C158.349 254.836 157.977 256.766 157.368 258.48C156.077 262.114 153.748 265.375 150.726 267.779C149.715 268.582 147.844 269.064 147.45 267.835C146.509 264.902 145.559 261.899 145.652 258.82C145.745 255.742 147.085 252.521 149.762 250.987Z" fill="#656565"/>
  <path d="M163.008 250.075L164.74 250.735C164.18 251.524 163.584 252.345 162.712 252.765C161.84 253.186 160.611 253.039 160.141 252.194L162.948 250.273L163.008 250.075Z" fill="#656565"/>
  <path d="M169.976 248.195C169.136 248.175 168.251 248.142 167.537 247.7C166.222 246.884 166.03 245.085 165.979 243.54C164.517 244.158 164.077 246.205 164.824 247.602C165.572 249 167.16 249.774 168.729 250.009C169.951 250.193 171.19 250.105 172.427 250.018C172.778 249.993 173.13 249.968 173.481 249.95C176.003 249.816 178.57 250 181.129 250.183C185.977 250.531 190.796 250.876 195.219 249.054C198.536 247.687 201.259 245.223 203.907 242.807C204.358 242.396 204.841 241.917 204.865 241.309C204.89 240.7 204.105 240.118 203.663 240.538C200.229 243.794 196.552 247.183 191.927 248.207C189.858 248.666 187.714 248.617 185.594 248.567L169.976 248.195Z" fill="#656565"/>
  <path d="M162.682 192.113C163.491 191.835 164.085 193.158 163.526 193.804C162.966 194.45 161.94 194.416 161.137 194.12C160.692 193.956 160.252 193.711 159.999 193.311C159.615 192.701 159.818 191.798 160.426 191.411C161.034 191.023 161.94 191.219 162.333 191.823L162.682 192.113Z" fill="#656565"/>
  <path d="M183.495 227.432L182.606 226.038C177.961 229.914 174.636 235.336 173.291 241.227C173.082 242.139 173 243.278 173.761 243.824C174.684 243.188 174.981 242 175.255 240.905L175.292 240.761C176.585 235.625 179.489 230.906 183.495 227.432Z" fill="#656565"/>
  <path d="M153.728 189.652C153.041 189.16 153.276 187.876 154.092 187.657C154.909 187.438 155.757 188.43 155.411 189.2C155.099 189.895 154.217 190.084 153.461 190.184L153.728 189.652Z" fill="#656565"/>
  <path d="M155.198 270.022C154.744 269.074 153.252 268.614 152.636 269.467C153.507 269.739 153.435 270.717 153.359 271.743C153.289 272.699 153.215 273.695 153.897 274.201C154.047 274.312 154.219 274.384 154.392 274.455C154.57 274.529 154.747 274.603 154.899 274.719C155.199 274.948 155.315 275.493 154.976 275.657C153.178 276.694 150.53 275.592 150.003 273.588C149.965 273.443 149.935 273.292 149.905 273.141C149.814 272.682 149.722 272.22 149.397 271.899C148.965 271.472 147.961 271.782 148.156 272.357C148.316 274.124 148.632 276.154 150.153 277.072C151.335 277.786 152.835 277.559 154.194 277.308L159.877 276.259C159.432 274.216 157.21 272.736 155.149 273.108C155.404 272.089 155.651 270.97 155.198 270.022Z" fill="#656565"/>
  <path d="M177.793 244.03C179.221 239.122 182.149 234.66 186.087 231.393C186.345 231.179 186.625 230.961 186.958 230.916C187.381 230.859 187.827 231.131 187.967 231.534C184.889 234.486 182.363 238.009 180.556 241.868C180.008 243.039 179.005 244.486 177.793 244.03Z" fill="#656565"/>
  <path d="M165.444 231.581L168.413 216.94C167.407 216.863 166.774 217.975 166.437 218.924C164.83 223.453 164.034 228.267 164.097 233.071C164.827 233.274 165.294 232.322 165.444 231.581Z" fill="#656565"/>
  <path d="M184.346 244.009C183.403 243.317 184.005 241.83 184.724 240.908C187 237.988 189.797 235.473 192.945 233.519C193.634 233.771 193.217 234.811 192.709 235.339L184.346 244.009Z" fill="#656565"/>
  <path d="M194.562 241.408C194.155 240.36 192.569 240.899 191.685 241.595L188.333 244.233C188.428 244.659 188.665 245.051 188.999 245.333C191.124 244.477 193.045 243.122 194.562 241.408Z" fill="#656565"/>
  <path fill-rule="evenodd" clip-rule="evenodd" d="M294.491 203.56C296.34 203.356 298.076 204.795 298.731 206.532C299.385 208.269 299.168 210.212 298.724 212.014C298.213 214.09 297.411 216.094 296.35 217.95C295.852 218.821 295.151 219.751 294.148 219.812C292.774 219.896 291.927 218.357 291.544 217.038C290.916 214.872 290.577 212.623 290.539 210.368C290.514 208.925 290.623 207.44 291.236 206.133C291.849 204.825 293.053 203.718 294.491 203.56Z" fill="#FFB61D"/>
  <path fill-rule="evenodd" clip-rule="evenodd" d="M200.764 21.6564C199.992 23.0965 199.08 24.9426 200.113 26.2097C201.985 24.4757 203.844 22.7253 205.609 20.8838C207.968 18.4238 210.19 15.751 211.517 12.6147C212.844 9.47843 213.189 5.79968 211.8 2.69018C211.054 1.01999 209.208 -0.592615 207.563 0.214464C206.524 0.724524 206.109 1.96482 205.831 3.08661C205.374 4.92812 205.011 6.80374 204.648 8.6787C203.779 13.1672 202.911 17.652 200.764 21.6564ZM209.856 11.9628C208.534 15.0681 206.283 17.6726 204.068 20.2216C203.735 20.6051 203.314 21.0247 202.809 20.9639C204.61 17.0941 205.848 12.9642 206.472 8.74339C206.513 8.46601 206.552 8.18683 206.591 7.90693C206.862 5.96066 207.138 3.9797 208.177 2.3285C208.405 1.96617 208.783 1.58264 209.194 1.70449C209.433 1.77525 209.589 1.9981 209.716 2.21166C211.444 5.11208 211.179 8.85755 209.856 11.9628Z" fill="#656565"/>
  <path fill-rule="evenodd" clip-rule="evenodd" d="M164.355 32.5644C164.25 28.6391 162.931 24.7543 160.624 21.5734C159.615 20.1836 158.158 18.8168 156.446 18.9753C154.481 19.1571 153.289 21.2208 152.738 23.1111C151.353 27.8577 151.888 33.0088 153.461 37.6963C155.035 42.3838 157.599 46.6738 160.308 50.8132C160.762 51.5076 161.7 52.2675 162.285 51.6789C162.507 51.456 162.553 51.1184 162.588 50.8062L164.011 37.8985C164.207 36.126 164.402 34.347 164.355 32.5644ZM159.684 46.9259C155.949 39.7192 152.172 31.6401 154.233 23.7915C154.453 22.9543 154.761 22.0975 155.399 21.5109C156.036 20.9243 157.088 20.7064 157.776 21.2338C161.547 24.1257 162.653 29.3569 162.474 34.0986C162.402 36.0021 162.168 37.8994 161.934 39.795C161.586 42.6214 161.238 45.4441 161.429 48.2779C160.653 48.455 160.05 47.6314 159.684 46.9259Z" fill="#656565"/>
  <path fill-rule="evenodd" clip-rule="evenodd" d="M189.849 33.9153C189.374 32.6929 188.577 31.556 187.442 30.8942C185.712 29.885 183.441 30.1549 181.718 31.1769C179.995 32.1988 178.748 33.8635 177.774 35.611C173.114 43.9708 174.096 54.6231 178.369 63.1863C178.574 63.5967 178.815 64.0324 179.234 64.2204C179.653 64.4083 180.275 64.1682 180.276 63.7097C180.281 60.3604 181.057 57.0145 182.527 54.0032C183.416 52.182 184.546 50.4968 185.677 48.8108C186.61 47.4185 187.544 46.0257 188.343 44.5551C190.11 41.3037 191.189 37.3637 189.849 33.9153ZM179.081 36.857C180.308 34.3223 182.623 31.6631 185.391 32.2048C187.334 32.585 188.671 34.5444 188.87 36.5097C189.07 38.4749 188.355 40.4198 187.459 42.1815C186.581 43.9086 185.522 45.5342 184.464 47.1599C183.449 48.7175 182.435 50.2753 181.579 51.9227C180.25 54.4808 179.314 57.2419 178.815 60.0799C175.497 52.8023 175.597 44.0568 179.081 36.857Z" fill="#656565"/>
  <path fill-rule="evenodd" clip-rule="evenodd" d="M144.106 58.1018C145.22 57.0849 146.932 56.9215 148.369 57.3853C149.807 57.8492 151.008 58.85 152.048 59.9437C157.133 65.2954 158.912 72.8839 160.493 80.0882C160.592 80.5387 160.216 81.2595 159.923 80.9029C157.946 78.4986 155.359 76.7358 152.77 74.9715C151.671 74.2226 150.572 73.4734 149.519 72.6747C145.984 69.9945 142.719 66.23 142.733 61.8004C142.737 60.447 143.104 59.015 144.106 58.1018ZM145.221 59.5494C144.521 60.233 144.412 61.3185 144.512 62.2901C144.913 66.1548 147.853 69.2588 150.931 71.6375C153.019 73.2505 155.247 74.6825 157.583 75.9124C156.837 70.3176 154.275 64.9785 150.375 60.8905C149.006 59.4556 146.639 58.1629 145.221 59.5494Z" fill="#656565"/>
  <path fill-rule="evenodd" clip-rule="evenodd" d="M315.273 207.71C316.61 207.987 317.325 209.437 317.676 210.755C318.792 214.955 318.129 219.596 315.882 223.318C315.755 223.528 315.615 223.744 315.402 223.868C314.669 224.294 313.889 223.387 313.559 222.607C312.187 219.363 311.556 215.81 311.726 212.292C311.779 211.192 311.923 210.054 312.501 209.115C313.078 208.175 314.191 207.486 315.273 207.71Z" fill="#FFB61D"/>
  <path fill-rule="evenodd" clip-rule="evenodd" d="M332.54 205.232C333.936 208.234 334.337 211.688 333.665 214.929C333.443 216.001 332.951 217.208 331.89 217.487C330.392 217.882 329.246 216.189 328.649 214.762C327.431 211.848 326.299 208.63 327.176 205.597C327.581 204.194 328.751 202.751 330.199 202.96C331.324 203.123 332.062 204.203 332.54 205.232Z" fill="#FFB61D"/>
  <path fill-rule="evenodd" clip-rule="evenodd" d="M296.615 176.201C297.148 180.05 296.63 184.04 295.129 187.626C294.737 188.564 294.09 189.605 293.073 189.647C291.761 189.701 291.073 188.109 290.917 186.808C290.519 183.485 291.177 180.045 292.772 177.102C293.189 176.332 293.722 175.55 294.541 175.236C295.359 174.921 296.494 175.334 296.615 176.201Z" fill="#FFB61D"/>
  <path fill-rule="evenodd" clip-rule="evenodd" d="M280.073 218.754C280.964 222.373 279.232 226.475 276.015 228.368C275.37 228.748 274.488 228.415 274.038 227.817C273.587 227.219 273.474 226.438 273.433 225.691C273.281 222.93 273.941 220.129 275.311 217.724C275.718 217.008 276.259 216.275 277.059 216.076C278.514 215.715 279.716 217.301 280.073 218.754Z" fill="#FFB61D"/>
  <path fill-rule="evenodd" clip-rule="evenodd" d="M276.72 201.81C275.734 199.371 275.7 196.564 276.625 194.102C276.926 193.302 277.385 192.479 278.174 192.148C279.804 191.463 281.406 193.284 281.897 194.979C282.559 197.262 282.395 199.774 281.443 201.953C281.012 202.939 280.25 203.964 279.173 203.999C278.003 204.036 277.158 202.893 276.72 201.81Z" fill="#FFB61D"/>
  <path fill-rule="evenodd" clip-rule="evenodd" d="M310.173 197.331C310.494 198.117 310.797 198.944 310.729 199.789C310.661 200.634 310.116 201.5 309.283 201.669C308.13 201.904 307.173 200.793 306.604 199.765C305.833 198.373 305.232 196.888 304.817 195.352C304.57 194.436 304.396 193.434 304.769 192.562C305.142 191.689 306.268 191.086 307.081 191.576C307.452 191.8 307.683 192.191 307.892 192.57C308.745 194.111 309.507 195.702 310.173 197.331Z" fill="#FFB61D"/>
  <path fill-rule="evenodd" clip-rule="evenodd" d="M397.872 177.602C395.999 180.252 393.713 182.739 390.752 184.074C387.791 185.409 384.045 185.377 381.529 183.327C379.507 189.359 371.571 192.553 365.921 189.607C365.26 194.544 361.269 198.862 356.39 199.918C351.512 200.974 346.086 198.694 343.435 194.474C342.055 192.277 339.164 191.697 336.371 191.135C333.229 190.504 330.211 189.898 329.602 187.047C328.985 190.132 326.126 192.626 322.98 192.824C319.833 193.022 316.683 190.907 315.682 187.924C312.259 189.522 308.015 187.833 305.554 184.972C303.093 182.11 302.018 178.345 301.078 174.693C293.831 146.549 290.62 117.427 290.765 88.3693C290.042 91.8977 285.116 93.1473 281.977 91.3689C278.839 89.5904 277.262 85.9691 276.341 82.487C275.595 79.6714 271.941 78.7006 269.088 79.3128C267.759 79.5979 266.492 80.1063 265.226 80.6141C263.773 81.1972 262.321 81.7795 260.781 82.0226C255.197 82.9036 249.568 78.7629 247.812 73.4018C246.055 68.0408 247.7 61.9656 251.107 57.465C254.515 52.9645 259.481 49.8643 264.666 47.6175C271.356 44.7187 278.593 43.0828 285.881 42.8218C287.653 42.7583 289.792 42.5618 290.58 40.9769C293.646 42.393 297.038 42.7734 300.418 43.1524C301.343 43.2561 302.267 43.3597 303.182 43.4843C313.159 44.8421 322.751 48.9103 330.654 55.1353C336.301 59.5832 341.017 65.0305 345.735 70.4803C350.14 75.5683 354.546 80.6585 359.714 84.9395C367.045 91.012 375.759 95.3484 384.423 99.6596C396.637 105.737 408.749 111.764 416.742 122.533C420.724 127.899 423.415 134.213 424.527 140.797C425.57 146.977 425.068 153.814 421.197 158.748C417.325 163.683 409.363 165.641 404.572 161.588C403.545 167.328 401.24 172.837 397.872 177.602ZM286.935 54.2749C289.477 51.7486 291.207 48.4204 291.811 44.8918C286.126 43.5996 280.197 44.908 274.571 46.4368C268.29 48.1436 261.923 50.2148 256.859 54.2958C251.795 58.3767 248.239 64.8917 249.345 71.2922C249.789 73.8608 251.64 76.709 254.237 76.4214L252.931 78.0616C253.157 78.5752 253.724 78.9182 254.285 78.8812C256.689 78.5491 258.828 76.7533 259.566 74.4473C259.671 74.1199 259.752 73.7797 259.833 73.4398C260.031 72.6096 260.228 71.7808 260.773 71.1414C261.542 70.2402 263.406 70.2637 263.585 71.4337C263.701 72.1916 263.071 72.8784 262.482 73.5202C261.817 74.2458 261.204 74.9138 261.781 75.5622C264.364 73.8551 266.885 72.0546 269.337 70.1651C270.863 68.99 272.528 67.1023 271.629 65.4012C271.009 64.2267 271.849 62.5593 273.164 62.3551C274.478 62.1509 275.787 63.4847 275.554 64.7917C276.967 63.8276 278.412 62.8318 279.386 61.4275C280.361 60.0233 280.775 58.0993 279.968 56.5932C279.33 55.4033 280.033 53.7129 281.327 53.3222C282.622 52.9315 284.145 53.9499 284.276 55.2929C285.228 54.6859 284.859 53.2161 284.273 52.2522C283.687 51.2883 282.974 50.0929 283.563 49.1307C284.425 47.7211 286.592 48.7499 287.808 49.8699C288.111 48.6794 287.915 47.3709 287.277 46.3205C287.248 45.2176 288.961 44.7681 289.744 45.5475C290.527 46.3269 290.43 47.6572 289.908 48.6302C289.566 49.2687 289.082 49.8103 288.597 50.3529C288.343 50.6371 288.088 50.9217 287.854 51.2204C287.173 52.0894 286.643 53.2108 286.935 54.2749ZM380.784 168.233C383.641 168.389 384.194 172.395 383.581 175.184C382.968 177.973 382.463 181.68 385.022 182.959C386.544 183.719 388.386 183.082 389.864 182.24C396.826 178.274 400.511 170.353 402.58 162.626C402.822 161.724 402.948 160.551 402.154 160.058C393.775 154.86 387.854 145.884 386.383 136.149C388.415 136.54 389.154 138.982 389.72 140.967C391.811 148.298 396.932 154.719 403.622 158.399C404.523 143.708 399.448 128.737 389.794 117.608C392.933 118.206 395.115 121.014 396.769 123.743C403.173 134.309 406.222 146.866 405.376 159.184C407.677 162.501 412.824 162.87 416.252 160.729C419.679 158.589 421.568 154.62 422.359 150.663C424.445 140.227 419.913 129.315 412.784 121.399C405.655 113.483 396.192 108.084 386.719 103.193C385.444 102.534 384.164 101.882 382.883 101.228L382.881 101.227C374.645 97.0276 366.375 92.8102 359.22 86.9915C353.83 82.6075 349.197 77.4129 344.562 72.2174C340.105 67.2206 335.647 62.2228 330.514 57.9443C321.448 50.3869 310.198 45.2093 298.415 44.3533C296.441 44.2098 294.159 44.3164 292.919 45.8557C291.679 47.3951 293.144 50.4547 294.96 49.6694L287.867 55.0246C289.557 55.3172 290.632 57.4433 289.863 58.973C289.095 60.5027 286.744 60.9154 285.498 59.7395C286.932 59.407 288.168 58.325 288.685 56.9503C284.844 58.1125 281.483 60.7796 279.483 64.2519C281.071 64.0043 282.748 65.1741 283.06 66.7472C281.904 67.0108 280.643 67.1704 279.376 67.3308C275.571 67.8126 271.71 68.3014 270.477 71.6333C272.155 71.6726 273.751 72.8254 274.313 74.4032C270.705 73.5195 266.73 74.2577 263.683 76.3775C265.425 77.2076 267.436 77.255 269.426 77.3019C271.833 77.3587 274.21 77.4147 276.046 78.8535C277.696 80.146 278.389 82.1622 279.086 84.1896C279.401 85.1058 279.717 86.0242 280.122 86.8792C281.423 89.6263 285.315 91.8483 287.323 89.5639C287.653 89.1884 287.891 88.7229 288.126 88.2626C288.504 87.5211 288.876 86.7929 289.617 86.4744C291.731 85.5651 293.022 88.8369 293.012 91.1339C292.894 119.246 296.195 147.371 302.82 174.696C303.564 177.762 304.399 180.921 306.377 183.381C308.354 185.842 311.797 187.417 314.749 186.286C311.507 181.745 310.669 175.592 312.577 170.353C312.54 175.108 313.641 179.869 315.762 184.128L314.594 171.163C317.439 173.196 317.333 177.052 317.227 180.879C317.119 184.787 317.011 188.665 320.045 190.546C323.031 192.398 327.628 189.811 327.561 186.304C327.527 184.582 326.607 182.998 325.701 181.44C324.605 179.554 323.53 177.705 324.075 175.693L328.9 182.855L327.663 170.47C330.003 173.445 330.966 177.456 330.233 181.167C329.671 184.009 330.864 187.122 333.181 188.866C335.499 190.609 338.827 190.896 341.411 189.576C338.414 184.34 336.898 178.272 337.081 172.246L343.401 189.399C346.627 185.46 347.71 179.874 346.191 175.019C350.109 179.57 348.775 187.556 343.589 190.592C344.782 194.361 348.213 197.329 352.121 197.973C356.029 198.617 360.234 196.907 362.578 193.721C364.092 191.662 364.745 188.587 363.081 186.647C357.098 179.669 354.401 169.998 355.912 160.94C357.432 169.307 359.083 177.989 364.088 184.871L361.101 173.033C363.718 174.387 364.256 177.455 364.8 180.559C365.315 183.501 365.837 186.475 368.138 188.054C372.076 190.758 377.309 186.866 379.664 182.715C374.138 171.216 369.249 159.412 365.026 147.376C369.491 151.835 371.472 157.928 373.458 164.04C375.306 169.727 377.16 175.43 381.026 179.849C382.162 176.079 382.076 171.953 380.784 168.233ZM264.668 78.6276C262.198 77.7427 259.284 78.2239 257.232 79.8557C259.727 80.5753 262.538 80.1111 264.668 78.6276ZM282.506 55.1456C281.893 54.7458 280.925 55.2342 280.884 55.9638C280.844 56.6934 281.752 57.2856 282.405 56.9558C283.059 56.626 283.119 55.5454 282.506 55.1456ZM273.352 65.9335C274.024 65.7375 274.429 64.907 274.168 64.2581C273.836 63.9843 273.285 64.2445 273.135 64.6473C272.986 65.0501 273.123 65.5009 273.308 65.8891L273.352 65.9335ZM291.923 50.9637C292.389 50.8185 292.627 50.1941 292.375 49.7765C291.824 49.5625 291.641 50.5268 291.909 51.0529L291.923 50.9637Z" fill="#656565"/>
  <path fill-rule="evenodd" clip-rule="evenodd" d="M278.702 123.462C272.964 121.63 268.088 117.266 265.642 111.772C265.164 110.697 263.826 110.185 262.581 109.709C261.105 109.145 259.76 108.631 260.134 107.287C261.081 103.872 260.105 100.332 259.147 96.8613C258.954 96.1598 258.761 95.4611 258.585 94.7668C257.538 90.6369 257.331 85.6325 260.497 82.7744C259.272 87.4351 259.46 92.456 261.032 97.0119C261.132 97.3022 261.237 97.598 261.343 97.8978C262.449 101.021 263.71 104.581 261.576 106.967C261.865 108.325 263.809 108.707 264.987 107.969C266.164 107.23 266.736 105.847 267.236 104.552C266.068 112.243 271.913 120.317 279.598 121.629C284.238 122.421 288.396 125.627 290.333 129.908C292.271 134.189 291.933 139.42 289.46 143.417C292.428 144.699 294.29 147.827 294.796 151.015C295.303 154.202 294.647 157.459 293.762 160.563C289.156 176.734 278.014 190.95 263.395 199.309C260.797 200.795 259.394 203.611 258.003 206.403C256.483 209.454 254.978 212.476 251.943 213.698C250.099 214.441 247.269 213.631 247.397 211.651C246.139 212.656 244.716 213.701 243.107 213.621C241.497 213.54 240.004 211.63 240.932 210.316C238.831 211.221 235.941 211.932 234.624 210.064C233.303 208.19 235.055 205.604 237.066 204.496C237.65 204.174 238.273 203.896 238.896 203.619C240.413 202.944 241.928 202.269 242.877 200.949C240.942 200.759 238.815 200.475 237.526 199.022C236.237 197.57 236.788 194.614 238.73 194.512C245.272 194.169 251.663 191.45 256.441 186.979C261.912 181.859 265.026 174.898 268.111 168.002C268.789 166.485 269.467 164.971 270.167 163.481C274.052 155.216 279.59 146.778 288.301 143.986C289.008 140.717 289.72 137.386 289.402 134.057C289.084 130.728 287.565 127.341 284.712 125.587C283.397 124.779 281.899 124.367 280.401 123.954C279.832 123.798 279.261 123.64 278.702 123.462ZM264.407 196.473C278.767 187.712 289.271 172.887 292.759 156.458C293.267 154.067 293.614 151.486 292.619 149.253C291.623 147.02 288.799 145.443 286.641 146.599C279.101 150.64 274.591 158.582 271.021 166.342C270.57 167.323 270.125 168.312 269.678 169.302C266.593 176.15 263.462 183.099 258.066 188.262C252.941 193.167 245.952 196.084 238.853 196.281C238.142 196.688 238.689 197.879 239.478 198.1C239.909 198.22 240.359 198.192 240.809 198.165C241.184 198.142 241.559 198.119 241.926 198.181C244.158 198.557 244.637 201.899 243.18 203.629C241.724 205.358 239.3 205.848 237.069 206.232C235.597 206.486 236.215 209.055 237.684 209.322C238.956 209.553 240.138 208.827 241.266 208.135C241.442 208.027 241.617 207.92 241.791 207.817C243.076 207.057 244.908 206.585 245.921 207.68C244.015 208.632 242.7 210.666 242.616 212.791C245.023 210.281 248.49 208.815 251.973 208.837L249.178 212.288C253.065 211.479 256.287 208.12 256.927 204.209C257.506 200.674 260.99 198.553 264.083 196.67L264.114 196.651C264.212 196.591 264.31 196.532 264.407 196.473Z" fill="#656565"/>
  <path d="M273.953 236.027C271.24 237.546 267.285 239.102 265.531 236.539C264.714 235.344 264.881 233.76 265.081 232.327L270.203 195.638C271.252 206.158 270.304 216.874 267.423 227.048C266.543 230.156 265.54 233.709 267.289 236.427C275.108 232.057 283.815 229.276 292.724 228.304C299.137 227.603 305.674 227.82 312.189 228.036C322.679 228.385 333.115 228.731 342.898 225.245C345.275 224.398 347.665 223.263 349.218 221.278C350.771 219.294 351.227 216.266 349.669 214.286L334.663 195.217C333.954 194.316 333.358 192.769 334.38 192.246L348.212 208.673C351.13 212.139 354.229 216.701 352.347 220.82C351.375 222.948 349.269 224.319 347.171 225.362C336.604 230.615 324.695 230.22 312.683 229.822C303.56 229.52 294.377 229.216 285.677 231.382C281.585 232.402 277.631 233.968 273.953 236.027Z" fill="#656565"/>
  <path fill-rule="evenodd" clip-rule="evenodd" d="M292.083 275.16L291.352 276.808C292.209 278.592 294.622 278.831 296.603 278.746C300.791 278.566 304.965 278.051 309.071 277.209C312.526 276.5 316.453 275.088 317.503 271.729C318.12 269.755 317.539 267.663 316.978 265.645C316.909 265.396 316.84 265.149 316.774 264.902C315.416 259.853 315.149 254.514 315.998 249.354C316.342 247.259 316.869 245.182 317.394 243.109C318.388 239.19 319.378 235.283 319.134 231.277C313.908 242.527 312.531 255.515 315.281 267.607L315.313 267.744C315.608 269.038 315.919 270.401 315.486 271.65C314.782 273.68 312.455 274.583 310.373 275.129C306.466 276.154 301.714 276.578 298.952 273.637C298.761 273.434 298.58 273.211 298.492 272.946C298.113 271.799 299.527 270.956 300.603 270.402C304.711 268.287 306.999 263.624 307.468 259.036C307.937 254.448 306.873 249.856 305.8 245.371L305.794 245.346C304.723 240.868 303.629 236.299 304.028 231.713C304.096 230.933 302.805 230.71 302.307 231.315C301.81 231.92 301.908 232.8 302.033 233.573L305.865 257.253C306.329 260.122 305.167 263.07 303.336 265.329C301.505 267.589 299.059 269.261 296.593 270.807C295.334 271.596 293.981 272.385 292.495 272.413C291.009 272.441 289.396 271.408 289.335 269.926C293.607 268.758 296.473 264.529 297.339 260.194C298.205 255.859 297.446 251.385 296.687 247.03L294.548 234.755C294.24 232.991 293.249 230.718 291.489 231.064C293.772 238.614 295.181 246.427 295.677 254.298C295.877 257.463 295.881 260.831 294.25 263.553C292.758 266.045 290.128 267.602 287.576 268.997C286.439 269.618 285.25 270.268 284.523 271.34C283.796 272.411 283.716 274.042 284.708 274.876C285.695 275.707 287.046 275.375 288.402 275.041C289.737 274.712 291.078 274.382 292.083 275.16ZM298.712 275.593C299.529 275.869 300.336 276.141 300.509 276.925C298.432 277.192 296.321 277.186 294.247 276.905C293.299 276.777 292.969 275.438 293.461 274.62C293.952 273.801 294.907 273.402 295.797 273.055C296.305 273.885 296.854 274.754 297.718 275.203C298.019 275.359 298.366 275.477 298.712 275.593ZM286.576 272C287.281 271.516 288.334 271.632 288.916 272.258L289.084 272.113C289.348 272.486 289.33 273.035 289.04 273.39C287.958 273.202 286.796 273.537 285.981 274.272C285.604 273.506 285.872 272.484 286.576 272Z" fill="#656565"/>
  <path d="M271.948 93.5746C269.854 92.2053 267.801 92.8559 266.13 95.2701C265.852 95.6719 265.953 96.2224 266.356 96.4998C266.758 96.7772 267.31 96.6764 267.588 96.2747C268.756 94.5869 269.772 94.2652 270.977 95.0532C271.386 95.3209 271.935 95.2068 272.203 94.7985C272.471 94.3902 272.357 93.8423 271.948 93.5746Z" fill="#656565"/>
  <path d="M264.421 87.4529C263.672 87.118 264.178 85.956 264.852 85.4876C266.154 84.5818 267.747 84.2169 269.297 83.8709C271.125 83.4625 273.319 83.1533 274.625 84.4931C271.541 85.5395 268.432 86.5128 265.302 87.4119C265.013 87.4948 264.695 87.5756 264.421 87.4529Z" fill="#656565"/>
  <path fill-rule="evenodd" clip-rule="evenodd" d="M278.594 105.482C278.94 105.027 279.251 104.706 279.64 104.462C280.498 103.923 281.559 103.963 282.351 104.682C285.259 107.321 284.333 111.174 281.217 114.108C278.324 116.832 274.412 118.035 271.882 116.17C269.946 114.743 270.234 112.788 272.037 111.637L272.088 111.605C272.585 111.304 274.178 110.505 274.158 110.516L274.327 110.424C274.822 110.15 275.183 109.904 275.444 109.659C275.846 109.281 276.237 108.836 276.636 108.312C276.942 107.911 277.63 106.891 278.076 106.229C278.281 105.926 278.434 105.698 278.478 105.638L278.594 105.482ZM272.935 114.748C276.489 117.368 285.482 109.913 281.159 105.99C280.65 105.528 280.081 106.391 279.252 107.647C278.588 108.654 277.758 109.913 276.658 110.946C275.954 111.608 274.989 112.088 274.15 112.506C272.69 113.232 271.609 113.771 272.935 114.748Z" fill="#656565"/>
</svg>