<svg xmlns="http://www.w3.org/2000/svg" width="214" height="23" viewBox="0 0 214 23" fill="none">
  <path d="M0.546801 13.2874L13.823 6.61661C14.4927 6.27891 15.2904 6.75365 15.2904 7.49023C15.2904 7.86219 15.0747 8.20233 14.7335 8.36874L2.40542 14.396V14.4596L14.7335 20.4893C15.0747 20.6557 15.2904 20.9958 15.2904 21.3678C15.2904 22.1044 14.4927 22.5791 13.823 22.2414L0.546801 15.5706C0.210694 15.4017 0 15.064 0 14.697V14.1586C0 13.7915 0.210694 13.4538 0.546801 13.285V13.2874Z" fill="#04A5CF"/>
  <path d="M50.539 15.6024L37.2628 22.2463C36.5931 22.5815 35.7954 22.1068 35.7954 21.3727C35.7954 20.9983 36.0111 20.6581 36.3548 20.4917L48.7782 14.462V14.3984L36.3548 8.36874C36.0136 8.20233 35.7954 7.86219 35.7954 7.48778C35.7954 6.7512 36.5931 6.27646 37.2628 6.61171L50.539 13.2556C50.8751 13.4245 51.0858 13.7622 51.0858 14.1292V14.7288C51.0858 15.0983 50.8751 15.436 50.539 15.6024Z" fill="#04A5CF"/>
  <path d="M32.2839 0.0143102C31.2981 0.249233 30.355 0.567357 29.4596 0.958894C29.2714 1.0421 28.8776 2.32927 28.6945 2.41982C28.5114 2.51036 28.544 1.39448 28.3685 1.48747C27.8041 1.78846 27.2598 2.11882 26.7431 2.47855C26.4697 2.66942 25.8401 5.55946 25.5793 5.76257C25.3611 5.93387 25.5141 3.41824 25.3059 3.59932C21.3403 7.07422 19.2459 12.3624 20.0812 17.7583C20.9791 15.5534 22.2006 13.3486 23.7708 10.7718C23.8862 10.5785 24.1445 10.5149 24.3402 10.6299C24.5383 10.7449 24.6036 10.9945 24.4857 11.1854C24.2499 11.572 24.0116 11.9733 23.7708 12.3771C23.6329 12.6071 23.4999 12.8372 23.3695 13.0623C23.3444 13.1039 23.3218 13.1455 23.2993 13.1871C21.3905 16.498 20.1313 19.2828 19.5193 22.5179C19.4767 22.7382 19.6272 22.9511 19.8529 22.9902C19.9131 23 19.9708 23 20.0285 22.9853C20.184 22.9486 20.3094 22.8263 20.3395 22.6647C20.5979 21.3042 20.939 20.2299 21.26 19.3342C26.8735 17.8513 31.2505 13.5639 32.7278 8.04572C32.7654 7.90623 32.7253 7.76186 32.6225 7.65908C32.5196 7.55875 32.3691 7.51714 32.2262 7.54896L30.7287 7.90379L33.0414 5.76746C33.1141 5.69894 33.1618 5.6084 33.1693 5.51052C33.252 4.64913 33.2621 3.7902 33.2044 2.9435C33.1944 2.80401 32.2513 2.85785 32.2362 2.72081C32.2211 2.56175 33.1367 2.20937 33.1166 2.0503C33.0414 1.463 32.9335 0.883034 32.788 0.31041C32.7328 0.0926177 32.5096 -0.0419733 32.2864 0.0118631L32.2839 0.0143102Z" fill="#04A5CF"/>
  <path d="M30.059 23H19.9106V22.7822H27.9295L23.9639 21.9698H31.1476V22.1851H26.096L30.059 23Z" fill="#04A5CF"/>
  <path d="M68.2022 22.4008C66.7449 22.4008 65.5083 21.9041 64.4874 20.9081C63.4691 19.9146 62.9574 18.7106 62.9574 17.301V5.64057C62.9599 3.98633 63.6547 2.62084 65.0443 1.54411C65.7566 0.993515 66.622 0.65092 67.5249 0.560377C69.2782 0.386632 70.738 0.876054 71.9069 2.02619C72.9202 3.02706 73.4269 4.23104 73.4269 5.64057V6.40897C73.4269 7.33153 72.6594 8.08034 71.7137 8.08034C70.7681 8.08034 70.0006 7.33153 70.0006 6.40897V5.5745C70.0006 5.06306 69.815 4.62502 69.4413 4.26285C69.0826 3.91292 68.6512 3.72938 68.1495 3.71715C67.6102 3.70491 67.081 3.9227 66.7148 4.3069C66.3762 4.66173 66.2081 5.08508 66.2081 5.5745V17.2692C66.2081 17.7807 66.3912 18.2163 66.7574 18.5735C67.1236 18.9308 67.5375 19.0972 68.0341 19.1095C68.5709 19.1241 69.1026 18.9137 69.4764 18.5368C69.825 18.1869 69.9981 17.7635 69.9981 17.2692V15.9918C69.9981 15.0693 70.7656 14.3205 71.7112 14.3205C72.6569 14.3205 73.4244 15.0693 73.4244 15.9918V17.3035C73.4244 18.7253 72.9127 19.9292 71.8868 20.9179C70.8609 21.9065 69.6319 22.4008 68.1997 22.4008H68.2022Z" fill="white"/>
  <path d="M80.5554 0.491858C82.0127 0.491858 83.2492 0.991068 84.2701 1.99194C85.2885 2.9928 85.8002 4.19678 85.8002 5.60631V17.2668C85.8002 18.6886 85.2885 19.895 84.2626 20.891C83.2367 21.8845 82.0026 22.3837 80.5579 22.3837C79.1131 22.3837 77.8665 21.8845 76.8532 20.8836C75.8398 19.8827 75.3332 18.6788 75.3332 17.2692V5.60631C75.3332 4.18454 75.8449 2.97812 76.8707 1.98215C77.8966 0.988621 79.1257 0.48941 80.5579 0.48941L80.5554 0.491858ZM82.3563 5.5378C82.3563 5.02635 82.1732 4.59076 81.807 4.23349C81.4408 3.87621 80.9943 3.69757 80.4701 3.69757C79.9459 3.69757 79.4969 3.87621 79.1257 4.23349C78.7519 4.59076 78.5663 5.02635 78.5663 5.5378V17.2325C78.5663 17.744 78.7519 18.1796 79.1257 18.5368C79.4994 18.8941 79.9459 19.0728 80.4701 19.0728C80.9943 19.0728 81.4408 18.8941 81.807 18.5368C82.1732 18.1796 82.3563 17.744 82.3563 17.2325V5.5378Z" fill="white"/>
  <path d="M98.0756 17.0123C98.0756 18.4218 97.5689 19.6258 96.5556 20.6267C95.5422 21.6275 94.3182 22.1267 92.886 22.1267H89.4522C88.4815 22.1267 87.6939 21.3584 87.6939 20.4113V2.46178C87.6939 1.51475 88.4815 0.746357 89.4522 0.746357H92.886C94.3308 0.746357 95.5573 1.24557 96.5656 2.24643C97.5739 3.2473 98.0781 4.44639 98.0781 5.84368V17.0098L98.0756 17.0123ZM90.9973 18.9382H92.9888C93.4478 18.9382 93.8968 18.7767 94.2304 18.4683C94.6493 18.0817 94.8575 17.6192 94.8575 17.0808V5.92199C94.8575 5.44236 94.6819 4.97251 94.3458 4.62258C93.9721 4.23349 93.5181 4.03772 92.9888 4.03772H90.9973V18.9382Z" fill="white"/>
  <path d="M99.9743 3.4602C99.9743 1.96257 101.218 0.748804 102.753 0.748804H107.715C108.633 0.748804 109.375 1.47315 109.375 2.36879C109.375 3.26443 108.633 3.98878 107.715 3.98878H103.275V9.82024H106.072C106.99 9.82024 107.732 10.5446 107.732 11.4402C107.732 12.3359 106.99 13.0602 106.072 13.0602H103.275V18.8917H107.715C108.633 18.8917 109.375 19.616 109.375 20.5117C109.375 21.4073 108.633 22.1316 107.715 22.1316H102.753C101.218 22.1316 99.9743 20.9179 99.9743 19.4202V3.4602Z" fill="white"/>
  <path d="M113.298 22.1267C112.385 22.1267 111.648 21.4048 111.648 20.5165V3.17634C111.648 1.83532 112.761 0.748804 114.136 0.748804H114.339C115.531 0.748804 116.554 1.57103 116.782 2.71138L119.466 16.1069L122.04 2.72851C122.26 1.58082 123.289 0.748804 124.485 0.748804C125.86 0.748804 126.973 1.83532 126.973 3.17634V20.5165C126.973 21.4073 126.233 22.1267 125.323 22.1267C124.41 22.1267 123.672 21.4048 123.672 20.5165V8.69212L121.081 20.8445C120.921 21.5908 120.246 22.1267 119.464 22.1267C118.696 22.1267 118.029 21.6104 117.856 20.8812L114.954 8.72638V20.5165C114.954 21.4073 114.214 22.1267 113.303 22.1267H113.298Z" fill="white"/>
  <path d="M132.795 13.1777L129.155 2.94631C128.772 1.86958 129.592 0.748804 130.758 0.748804C131.501 0.748804 132.158 1.2211 132.379 1.91363L134.453 8.42294L136.512 1.92097C136.733 1.22599 137.393 0.751251 138.14 0.751251C139.311 0.751251 140.134 1.87937 139.748 2.95854L136.098 13.1801V20.519C136.098 21.4097 135.358 22.1292 134.448 22.1292C133.535 22.1292 132.797 21.4073 132.797 20.519V13.1801L132.795 13.1777Z" fill="white"/>
  <path d="M151.416 16.8092C151.439 18.2995 151.043 19.572 150.227 20.6291C149.691 21.3461 148.933 21.8502 147.955 22.1463C147.431 22.3054 146.819 22.3861 146.119 22.3861C144.825 22.3861 143.754 22.0729 142.903 21.4489C142.193 20.9374 141.629 20.24 141.218 19.3591C141.045 18.992 140.902 18.6005 140.789 18.1893C140.528 17.235 141.208 16.283 142.216 16.2121C142.974 16.1582 143.666 16.6305 143.869 17.3451C144.05 17.974 144.31 18.4659 144.649 18.8207C145.045 19.244 145.499 19.4447 146.011 19.4202C146.733 19.3982 147.31 19.0507 147.742 18.3802C147.962 18.0499 148.073 17.5776 148.073 16.9633C148.073 16.075 147.659 15.1941 146.831 14.318C146.179 13.716 145.201 12.8106 143.894 11.6042C142.798 10.5691 142.025 9.6416 141.569 8.82182C141.08 7.89926 140.834 6.89839 140.834 5.81921C140.834 3.87376 141.504 2.4006 142.843 1.39973C143.671 0.797746 144.694 0.494305 145.918 0.494305C147.142 0.494305 148.103 0.748804 148.941 1.2627C149.593 1.66158 150.12 2.21707 150.523 2.93407C150.641 3.14208 150.744 3.35987 150.832 3.585C151.196 4.50512 150.599 5.52067 149.603 5.6993H149.59C148.815 5.83879 148.073 5.4032 147.777 4.68865C147.654 4.395 147.501 4.1405 147.315 3.9227C147.012 3.57032 146.575 3.39413 146.006 3.39413C145.399 3.39413 144.94 3.65597 144.626 4.1772C144.371 4.59811 144.243 5.12179 144.243 5.7458C144.243 6.72464 144.674 7.71817 145.537 8.72883C145.863 9.11547 146.352 9.57063 147.004 10.0919C147.774 10.7183 148.281 11.1539 148.524 11.4035C149.339 12.1988 149.969 12.9843 150.411 13.7552C150.621 14.1198 150.789 14.4551 150.917 14.7609C151.231 15.522 151.394 16.2047 151.406 16.8067L151.416 16.8092Z" fill="white"/>
  <path d="M157.213 15.3507V20.5165C157.213 21.4073 156.473 22.1267 155.562 22.1267C154.649 22.1267 153.912 21.4048 153.912 20.5165V2.359C153.912 1.46825 154.652 0.748804 155.562 0.748804C156.475 0.748804 157.213 1.4707 157.213 2.359V8.3691L160.81 1.57837C161.081 1.06693 161.62 0.746357 162.209 0.746357C163.383 0.746357 164.146 1.95523 163.614 2.97812L160.25 9.46785L164.545 19.7237C165.026 20.8714 164.161 22.1267 162.889 22.1267C162.152 22.1267 161.492 21.6863 161.224 21.0158L158.199 13.4468L157.21 15.3507H157.213Z" fill="white"/>
  <path d="M166.985 19.5769V3.29869C166.985 1.88916 168.156 0.746357 169.601 0.746357H174.728C175.646 0.746357 176.389 1.4707 176.389 2.36634C176.389 3.26198 175.646 3.98633 174.728 3.98633H170.288V9.81779H173.085C174.003 9.81779 174.746 10.5421 174.746 11.4378C174.746 12.3334 174.003 13.0578 173.085 13.0578H170.288V18.8892H174.728C175.646 18.8892 176.389 19.6136 176.389 20.5092C176.389 21.4048 175.646 22.1292 174.728 22.1292H169.601C168.156 22.1292 166.985 20.9864 166.985 19.5769Z" fill="white"/>
  <path d="M181.919 4.00346H180.066C179.148 4.00346 178.405 3.27911 178.405 2.38347C178.405 1.48783 179.148 0.763487 180.066 0.763487H187.056C187.974 0.763487 188.717 1.48783 188.717 2.38347C188.717 3.27911 187.974 4.00346 187.056 4.00346H185.22V20.5165C185.22 21.4073 184.48 22.1267 183.57 22.1267C182.657 22.1267 181.919 21.4048 181.919 20.5165V4.00346Z" fill="white"/>
  <path d="M195.73 22.4008C194.273 22.4008 193.036 21.9041 192.018 20.9081C190.997 19.9146 190.488 18.7106 190.488 17.301V5.64057C190.488 4.20657 191.009 2.98791 192.055 1.98949C193.041 1.04735 194.35 0.526117 195.73 0.526117C197.187 0.526117 198.421 1.02533 199.435 2.02619C200.448 3.02706 200.955 4.23104 200.955 5.64057V6.40897C200.955 7.33153 200.187 8.08034 199.241 8.08034C198.296 8.08034 197.528 7.33153 197.528 6.40897V5.5745C197.528 5.06306 197.343 4.62502 196.969 4.26285C196.595 3.89823 196.149 3.71715 195.624 3.71715C195.1 3.71715 194.631 3.91781 194.28 4.27019C193.929 4.62258 193.736 5.06795 193.736 5.57695V17.2717C193.736 17.7831 193.919 18.2187 194.285 18.576C194.651 18.9333 195.095 19.1119 195.617 19.1119C196.139 19.1119 196.61 18.9186 196.969 18.5735C197.328 18.2285 197.528 17.7807 197.528 17.2692V15.9894C197.528 15.0668 198.296 14.318 199.241 14.318C200.187 14.318 200.955 15.0668 200.955 15.9894V17.301C200.955 18.7228 200.443 19.9268 199.417 20.9154C198.391 21.9041 197.162 22.3984 195.73 22.3984V22.4008Z" fill="white"/>
  <path d="M206.716 13.0749V20.5165C206.716 21.4073 205.976 22.1267 205.066 22.1267C204.153 22.1267 203.415 21.4048 203.415 20.5165V2.37613C203.415 1.48538 204.155 0.765934 205.066 0.765934C205.979 0.765934 206.716 1.48783 206.716 2.37613V9.83492H210.699V2.37613C210.699 1.48538 211.439 0.765934 212.35 0.765934C213.263 0.765934 214 1.48783 214 2.37613V20.5165C214 21.4073 213.26 22.1267 212.35 22.1267C211.437 22.1267 210.699 21.4048 210.699 20.5165V13.0749H206.716Z" fill="white"/>
</svg>